%TF.GenerationSoftware,KiCad,Pcbnew,8.0.4*%
%TF.CreationDate,2024-08-22T00:26:23+05:30*%
%TF.ProjectId,sanket 4.0,73616e6b-6574-4203-942e-302e6b696361,rev?*%
%TF.SameCoordinates,Original*%
%TF.FileFunction,Profile,NP*%
%FSLAX46Y46*%
G04 Gerber Fmt 4.6, Leading zero omitted, Abs format (unit mm)*
G04 Created by KiCad (PCBNEW 8.0.4) date 2024-08-22 00:26:23*
%MOMM*%
%LPD*%
G01*
G04 APERTURE LIST*
%TA.AperFunction,Profile*%
%ADD10C,0.200000*%
%TD*%
%TA.AperFunction,Profile*%
%ADD11C,0.100000*%
%TD*%
G04 APERTURE END LIST*
D10*
X136181900Y-137398600D02*
G75*
G02*
X134981901Y-138598600I-1200000J0D01*
G01*
X100481900Y-83598600D02*
G75*
G02*
X101681900Y-84798600I0J-1200000D01*
G01*
X99181900Y-47798600D02*
X99181900Y-82398601D01*
X189881900Y-101598600D02*
G75*
G02*
X188681900Y-100398600I0J1200000D01*
G01*
X191181900Y-47798600D02*
X191181900Y-82398600D01*
X191181900Y-102798600D02*
X191181900Y-137398600D01*
X100381900Y-138598600D02*
X134981901Y-138598600D01*
X191181900Y-82398600D02*
G75*
G02*
X189981900Y-83598600I-1200000J0D01*
G01*
X152981900Y-136098600D02*
G75*
G02*
X154181900Y-137298600I0J-1200000D01*
G01*
X155381900Y-138598600D02*
G75*
G02*
X154181900Y-137398600I0J1200000D01*
G01*
X189981900Y-101598600D02*
G75*
G02*
X191181900Y-102798600I0J-1200000D01*
G01*
X101681900Y-100398600D02*
G75*
G02*
X100481901Y-101598600I-1200000J0D01*
G01*
X152981900Y-136098600D02*
X137381900Y-136098600D01*
X100381900Y-46598600D02*
X134981900Y-46598600D01*
X99181900Y-47798600D02*
G75*
G02*
X100381900Y-46598600I1200000J0D01*
G01*
X137381900Y-49098600D02*
X152981900Y-49098600D01*
X188681900Y-84798600D02*
X188681900Y-100398600D01*
X137381900Y-49098600D02*
G75*
G02*
X136181900Y-47898601I0J1200000D01*
G01*
X99181900Y-102798600D02*
X99181900Y-137398600D01*
X189981900Y-46598600D02*
G75*
G02*
X191181900Y-47798600I0J-1200000D01*
G01*
X189981900Y-101598600D02*
X189881900Y-101598600D01*
X154181900Y-47898600D02*
G75*
G02*
X152981900Y-49098600I-1200000J0D01*
G01*
X188681900Y-84798600D02*
G75*
G02*
X189881900Y-83598600I1200000J0D01*
G01*
X191181900Y-137398600D02*
G75*
G02*
X189981900Y-138598600I-1200000J0D01*
G01*
X100381900Y-138598600D02*
G75*
G02*
X99181900Y-137398600I0J1200000D01*
G01*
X100381900Y-101598600D02*
X100481901Y-101598600D01*
X136181900Y-137398600D02*
X136181900Y-137298600D01*
X136181900Y-47798600D02*
X136181900Y-47898601D01*
X136181900Y-137298600D02*
G75*
G02*
X137381900Y-136098600I1200000J0D01*
G01*
X155381900Y-138598600D02*
X189981900Y-138598600D01*
X155381900Y-46598600D02*
X189981900Y-46598600D01*
X154181900Y-47798600D02*
G75*
G02*
X155381900Y-46598600I1200000J0D01*
G01*
X189981900Y-83598600D02*
X189881900Y-83598600D01*
X99181900Y-102798600D02*
G75*
G02*
X100381900Y-101598600I1200000J0D01*
G01*
X100381900Y-83598600D02*
X100481900Y-83598600D01*
X100381900Y-83598600D02*
G75*
G02*
X99181900Y-82398601I0J1200000D01*
G01*
X101681900Y-100398600D02*
X101681900Y-84798600D01*
X154181900Y-137398600D02*
X154181900Y-137298600D01*
X134981900Y-46598600D02*
G75*
G02*
X136181900Y-47798600I0J-1200000D01*
G01*
X154181900Y-47798600D02*
X154181900Y-47898600D01*
D11*
%TO.C,MISC1*%
X179834990Y-112132830D02*
X180016980Y-112208210D01*
X180180760Y-112317650D01*
X180320050Y-112456940D01*
X180429490Y-112620720D01*
X180504870Y-112802710D01*
X180543300Y-112995910D01*
X180543300Y-113094400D01*
X180543300Y-122594400D01*
X180543300Y-122692890D01*
X180504870Y-122886090D01*
X180429490Y-123068080D01*
X180320050Y-123231860D01*
X180180760Y-123371150D01*
X180016980Y-123480590D01*
X179834990Y-123555970D01*
X179641790Y-123594400D01*
X179543300Y-123594400D01*
X155543300Y-123594400D01*
X155444810Y-123594400D01*
X155251610Y-123555970D01*
X155069620Y-123480590D01*
X154905840Y-123371150D01*
X154766550Y-123231860D01*
X154657110Y-123068080D01*
X154581730Y-122886090D01*
X154543300Y-122692890D01*
X154543300Y-122594400D01*
X154543300Y-113094400D01*
X154543300Y-112995910D01*
X154581730Y-112802710D01*
X154657110Y-112620720D01*
X154766550Y-112456940D01*
X154905840Y-112317650D01*
X155069620Y-112208210D01*
X155251610Y-112132830D01*
X155444810Y-112094400D01*
X155543300Y-112094400D01*
X179543300Y-112094400D01*
X179641790Y-112094400D01*
X179834990Y-112132830D01*
%TD*%
M02*
