%TF.GenerationSoftware,KiCad,Pcbnew,8.0.4*%
%TF.CreationDate,2024-08-22T00:26:23+05:30*%
%TF.ProjectId,sanket 4.0,73616e6b-6574-4203-942e-302e6b696361,rev?*%
%TF.SameCoordinates,Original*%
%TF.FileFunction,Soldermask,Bot*%
%TF.FilePolarity,Negative*%
%FSLAX46Y46*%
G04 Gerber Fmt 4.6, Leading zero omitted, Abs format (unit mm)*
G04 Created by KiCad (PCBNEW 8.0.4) date 2024-08-22 00:26:23*
%MOMM*%
%LPD*%
G01*
G04 APERTURE LIST*
%ADD10O,4.000000X2.000000*%
%ADD11R,1.720000X1.720000*%
%ADD12C,1.720000*%
%ADD13C,3.200000*%
%ADD14R,1.700000X1.700000*%
%ADD15O,1.700000X1.700000*%
%ADD16R,1.560000X1.560000*%
%ADD17C,1.560000*%
%ADD18C,10.100000*%
%ADD19C,9.100000*%
%ADD20O,6.500000X13.000000*%
%ADD21R,1.490000X1.490000*%
%ADD22C,1.490000*%
%ADD23C,1.000000*%
%ADD24R,0.650000X0.900000*%
G04 APERTURE END LIST*
D10*
%TO.C,MISC1*%
X176543300Y-126094400D03*
X176543300Y-109594400D03*
X158543300Y-126094400D03*
X158543300Y-109594400D03*
%TD*%
D11*
%TO.C,J4*%
X118504500Y-51263600D03*
D12*
X118504500Y-53803600D03*
X121044500Y-51263600D03*
X121044500Y-53803600D03*
X123584500Y-51263600D03*
X123584500Y-53803600D03*
X126124500Y-51263600D03*
X126124500Y-53803600D03*
%TD*%
D13*
%TO.C,H1*%
X105181900Y-132598600D03*
%TD*%
%TO.C,H2*%
X185181900Y-52598600D03*
%TD*%
D14*
%TO.C,J3*%
X138576100Y-63898600D03*
D15*
X136036100Y-63898600D03*
%TD*%
D13*
%TO.C,H3*%
X185181900Y-132598600D03*
%TD*%
D14*
%TO.C,J1*%
X138801100Y-70873600D03*
D15*
X138801100Y-73413600D03*
X138801100Y-75953600D03*
%TD*%
D16*
%TO.C,RV1*%
X128301100Y-74906421D03*
D17*
X125801100Y-69906421D03*
X123301100Y-74906421D03*
%TD*%
D13*
%TO.C,DEPLOYER2*%
X104701100Y-90175485D03*
D18*
X113301100Y-90175485D03*
D19*
X129401100Y-86675485D03*
D18*
X133301100Y-116675485D03*
D20*
X137301100Y-103075485D03*
D19*
X137401100Y-86675485D03*
D21*
X143401100Y-110675485D03*
D22*
X141401100Y-110675485D03*
X143401100Y-112675485D03*
X141401100Y-112675485D03*
X143401100Y-114675485D03*
X141401100Y-114675485D03*
X143401100Y-116675485D03*
X141401100Y-116675485D03*
%TD*%
D13*
%TO.C,H5*%
X105181900Y-52598600D03*
%TD*%
%TO.C,DEPLOYER1*%
X185901100Y-97175485D03*
D18*
X177301100Y-97175485D03*
D19*
X161201100Y-100675485D03*
D18*
X157301100Y-70675485D03*
D20*
X153301100Y-84275485D03*
D19*
X153201100Y-100675485D03*
D21*
X147201100Y-76675485D03*
D22*
X149201100Y-76675485D03*
X147201100Y-74675485D03*
X149201100Y-74675485D03*
X147201100Y-72675485D03*
X149201100Y-72675485D03*
X147201100Y-70675485D03*
X149201100Y-70675485D03*
%TD*%
D14*
%TO.C,DIR_PW1*%
X148301100Y-63898600D03*
D15*
X145761100Y-63898600D03*
%TD*%
D23*
%TO.C,TP9*%
X127301100Y-66898600D03*
%TD*%
%TO.C,TP5*%
X107301100Y-76398600D03*
%TD*%
D24*
%TO.C,R2*%
X119801100Y-60195203D03*
X118351100Y-60195203D03*
%TD*%
D23*
%TO.C,TP8*%
X133301100Y-79398600D03*
%TD*%
%TO.C,TP4*%
X107301100Y-79398600D03*
%TD*%
%TO.C,TP3*%
X128801100Y-59398600D03*
%TD*%
%TO.C,TP7*%
X112301100Y-64898600D03*
%TD*%
%TO.C,TP6*%
X107801100Y-59898600D03*
%TD*%
%TO.C,TP10*%
X132301100Y-59398600D03*
%TD*%
%TO.C,TP11*%
X113801100Y-51398600D03*
%TD*%
%TO.C,TP2*%
X123301100Y-59398600D03*
%TD*%
%TO.C,TP1*%
X142301100Y-76898600D03*
%TD*%
M02*
