%TF.GenerationSoftware,KiCad,Pcbnew,8.0.4*%
%TF.CreationDate,2024-08-22T00:26:23+05:30*%
%TF.ProjectId,sanket 4.0,73616e6b-6574-4203-942e-302e6b696361,rev?*%
%TF.SameCoordinates,Original*%
%TF.FileFunction,Paste,Top*%
%TF.FilePolarity,Positive*%
%FSLAX46Y46*%
G04 Gerber Fmt 4.6, Leading zero omitted, Abs format (unit mm)*
G04 Created by KiCad (PCBNEW 8.0.4) date 2024-08-22 00:26:23*
%MOMM*%
%LPD*%
G01*
G04 APERTURE LIST*
G04 Aperture macros list*
%AMRoundRect*
0 Rectangle with rounded corners*
0 $1 Rounding radius*
0 $2 $3 $4 $5 $6 $7 $8 $9 X,Y pos of 4 corners*
0 Add a 4 corners polygon primitive as box body*
4,1,4,$2,$3,$4,$5,$6,$7,$8,$9,$2,$3,0*
0 Add four circle primitives for the rounded corners*
1,1,$1+$1,$2,$3*
1,1,$1+$1,$4,$5*
1,1,$1+$1,$6,$7*
1,1,$1+$1,$8,$9*
0 Add four rect primitives between the rounded corners*
20,1,$1+$1,$2,$3,$4,$5,0*
20,1,$1+$1,$4,$5,$6,$7,0*
20,1,$1+$1,$6,$7,$8,$9,0*
20,1,$1+$1,$8,$9,$2,$3,0*%
G04 Aperture macros list end*
%ADD10C,0.025400*%
%ADD11C,0.010000*%
%ADD12R,0.650000X0.900000*%
%ADD13R,0.900000X0.650000*%
%ADD14R,1.100000X1.150000*%
%ADD15R,0.600000X1.250000*%
%ADD16RoundRect,0.450000X0.550000X0.450000X-0.550000X0.450000X-0.550000X-0.450000X0.550000X-0.450000X0*%
%ADD17R,1.150000X1.100000*%
%ADD18R,0.400000X0.900000*%
%ADD19R,0.800000X0.800000*%
%ADD20R,0.650000X0.250000*%
%ADD21R,0.320000X0.690000*%
G04 APERTURE END LIST*
D10*
%TO.C,U6*%
X118246336Y-66798599D02*
X118246336Y-67473599D01*
X118196336Y-67523599D01*
X117521336Y-67523599D01*
X117471336Y-67473599D01*
X117471336Y-67263599D01*
X117521336Y-67213599D01*
X117946336Y-67213599D01*
X118036336Y-67123599D01*
X118036336Y-66798599D01*
X118086336Y-66748599D01*
X118196336Y-66748599D01*
X118246336Y-66798599D01*
G36*
X118246336Y-66798599D02*
G01*
X118246336Y-67473599D01*
X118196336Y-67523599D01*
X117521336Y-67523599D01*
X117471336Y-67473599D01*
X117471336Y-67263599D01*
X117521336Y-67213599D01*
X117946336Y-67213599D01*
X118036336Y-67123599D01*
X118036336Y-66798599D01*
X118086336Y-66748599D01*
X118196336Y-66748599D01*
X118246336Y-66798599D01*
G37*
X118246336Y-68323596D02*
X118246336Y-68998599D01*
X118196336Y-69048599D01*
X118086336Y-69048599D01*
X118036336Y-68998599D01*
X118036336Y-68673599D01*
X117946336Y-68583599D01*
X117521336Y-68583599D01*
X117471336Y-68533599D01*
X117471336Y-68323596D01*
X117521336Y-68273596D01*
X118196336Y-68273596D01*
X118246336Y-68323596D01*
G36*
X118246336Y-68323596D02*
G01*
X118246336Y-68998599D01*
X118196336Y-69048599D01*
X118086336Y-69048599D01*
X118036336Y-68998599D01*
X118036336Y-68673599D01*
X117946336Y-68583599D01*
X117521336Y-68583599D01*
X117471336Y-68533599D01*
X117471336Y-68323596D01*
X117521336Y-68273596D01*
X118196336Y-68273596D01*
X118246336Y-68323596D01*
G37*
X120771336Y-68323596D02*
X120771336Y-68533599D01*
X120721336Y-68583599D01*
X120296336Y-68583599D01*
X120206336Y-68673599D01*
X120206336Y-68998599D01*
X120156336Y-69048599D01*
X120046336Y-69048599D01*
X119996336Y-68998599D01*
X119996336Y-68323596D01*
X120046336Y-68273596D01*
X120721336Y-68273596D01*
X120771336Y-68323596D01*
G36*
X120771336Y-68323596D02*
G01*
X120771336Y-68533599D01*
X120721336Y-68583599D01*
X120296336Y-68583599D01*
X120206336Y-68673599D01*
X120206336Y-68998599D01*
X120156336Y-69048599D01*
X120046336Y-69048599D01*
X119996336Y-68998599D01*
X119996336Y-68323596D01*
X120046336Y-68273596D01*
X120721336Y-68273596D01*
X120771336Y-68323596D01*
G37*
X120206336Y-66798599D02*
X120206336Y-67123599D01*
X120296336Y-67213599D01*
X120721336Y-67213599D01*
X120771336Y-67263599D01*
X120771336Y-67473599D01*
X120721336Y-67523599D01*
X120046336Y-67523599D01*
X119996336Y-67473599D01*
X119996336Y-66798599D01*
X120046336Y-66748599D01*
X120156336Y-66748599D01*
X120206336Y-66798599D01*
G36*
X120206336Y-66798599D02*
G01*
X120206336Y-67123599D01*
X120296336Y-67213599D01*
X120721336Y-67213599D01*
X120771336Y-67263599D01*
X120771336Y-67473599D01*
X120721336Y-67523599D01*
X120046336Y-67523599D01*
X119996336Y-67473599D01*
X119996336Y-66798599D01*
X120046336Y-66748599D01*
X120156336Y-66748599D01*
X120206336Y-66798599D01*
G37*
X118706092Y-66749559D02*
X118715473Y-66752399D01*
X118724114Y-66757029D01*
X118731692Y-66763249D01*
X118737911Y-66770819D01*
X118742530Y-66779469D01*
X118745377Y-66788849D01*
X118746339Y-66798599D01*
X118746339Y-67748599D01*
X118745377Y-67758352D01*
X118742530Y-67767733D01*
X118737911Y-67776377D01*
X118731692Y-67783952D01*
X118724114Y-67790171D01*
X118715473Y-67794793D01*
X118706092Y-67797640D01*
X118696339Y-67798599D01*
X118546339Y-67798599D01*
X118536583Y-67797640D01*
X118527202Y-67794793D01*
X118518558Y-67790171D01*
X118510983Y-67783952D01*
X118504764Y-67776377D01*
X118500142Y-67767733D01*
X118497298Y-67758352D01*
X118496339Y-67748599D01*
X118496339Y-66798599D01*
X118497298Y-66788849D01*
X118500142Y-66779469D01*
X118504764Y-66770819D01*
X118510983Y-66763249D01*
X118518558Y-66757029D01*
X118527202Y-66752399D01*
X118536583Y-66749559D01*
X118546339Y-66748599D01*
X118696339Y-66748599D01*
X118706092Y-66749559D01*
G36*
X118706092Y-66749559D02*
G01*
X118715473Y-66752399D01*
X118724114Y-66757029D01*
X118731692Y-66763249D01*
X118737911Y-66770819D01*
X118742530Y-66779469D01*
X118745377Y-66788849D01*
X118746339Y-66798599D01*
X118746339Y-67748599D01*
X118745377Y-67758352D01*
X118742530Y-67767733D01*
X118737911Y-67776377D01*
X118731692Y-67783952D01*
X118724114Y-67790171D01*
X118715473Y-67794793D01*
X118706092Y-67797640D01*
X118696339Y-67798599D01*
X118546339Y-67798599D01*
X118536583Y-67797640D01*
X118527202Y-67794793D01*
X118518558Y-67790171D01*
X118510983Y-67783952D01*
X118504764Y-67776377D01*
X118500142Y-67767733D01*
X118497298Y-67758352D01*
X118496339Y-67748599D01*
X118496339Y-66798599D01*
X118497298Y-66788849D01*
X118500142Y-66779469D01*
X118504764Y-66770819D01*
X118510983Y-66763249D01*
X118518558Y-66757029D01*
X118527202Y-66752399D01*
X118536583Y-66749559D01*
X118546339Y-66748599D01*
X118696339Y-66748599D01*
X118706092Y-66749559D01*
G37*
X118706092Y-67999558D02*
X118715473Y-68002405D01*
X118724114Y-68007027D01*
X118731692Y-68013246D01*
X118737911Y-68020821D01*
X118742530Y-68029465D01*
X118745377Y-68038846D01*
X118746339Y-68048599D01*
X118746339Y-68998599D01*
X118745377Y-69008349D01*
X118742530Y-69017729D01*
X118737911Y-69026379D01*
X118731692Y-69033949D01*
X118724114Y-69040169D01*
X118715473Y-69044799D01*
X118706092Y-69047639D01*
X118696339Y-69048599D01*
X118546339Y-69048599D01*
X118536583Y-69047639D01*
X118527202Y-69044799D01*
X118518558Y-69040169D01*
X118510983Y-69033949D01*
X118504764Y-69026379D01*
X118500142Y-69017729D01*
X118497298Y-69008349D01*
X118496339Y-68998599D01*
X118496339Y-68048599D01*
X118497298Y-68038846D01*
X118500142Y-68029465D01*
X118504764Y-68020821D01*
X118510983Y-68013246D01*
X118518558Y-68007027D01*
X118527202Y-68002405D01*
X118536583Y-67999558D01*
X118546339Y-67998599D01*
X118696339Y-67998599D01*
X118706092Y-67999558D01*
G36*
X118706092Y-67999558D02*
G01*
X118715473Y-68002405D01*
X118724114Y-68007027D01*
X118731692Y-68013246D01*
X118737911Y-68020821D01*
X118742530Y-68029465D01*
X118745377Y-68038846D01*
X118746339Y-68048599D01*
X118746339Y-68998599D01*
X118745377Y-69008349D01*
X118742530Y-69017729D01*
X118737911Y-69026379D01*
X118731692Y-69033949D01*
X118724114Y-69040169D01*
X118715473Y-69044799D01*
X118706092Y-69047639D01*
X118696339Y-69048599D01*
X118546339Y-69048599D01*
X118536583Y-69047639D01*
X118527202Y-69044799D01*
X118518558Y-69040169D01*
X118510983Y-69033949D01*
X118504764Y-69026379D01*
X118500142Y-69017729D01*
X118497298Y-69008349D01*
X118496339Y-68998599D01*
X118496339Y-68048599D01*
X118497298Y-68038846D01*
X118500142Y-68029465D01*
X118504764Y-68020821D01*
X118510983Y-68013246D01*
X118518558Y-68007027D01*
X118527202Y-68002405D01*
X118536583Y-67999558D01*
X118546339Y-67998599D01*
X118696339Y-67998599D01*
X118706092Y-67999558D01*
G37*
X119206092Y-66749559D02*
X119215470Y-66752399D01*
X119224114Y-66757029D01*
X119231692Y-66763249D01*
X119237908Y-66770819D01*
X119242530Y-66779469D01*
X119245373Y-66788849D01*
X119246336Y-66798599D01*
X119246336Y-67748599D01*
X119245373Y-67758352D01*
X119242530Y-67767733D01*
X119237908Y-67776377D01*
X119231692Y-67783952D01*
X119224114Y-67790171D01*
X119215470Y-67794793D01*
X119206092Y-67797640D01*
X119196336Y-67798599D01*
X119046336Y-67798599D01*
X119036580Y-67797640D01*
X119027202Y-67794793D01*
X119018558Y-67790171D01*
X119010980Y-67783952D01*
X119004764Y-67776377D01*
X119000142Y-67767733D01*
X118997299Y-67758352D01*
X118996336Y-67748599D01*
X118996336Y-66798599D01*
X118997299Y-66788849D01*
X119000142Y-66779469D01*
X119004764Y-66770819D01*
X119010980Y-66763249D01*
X119018558Y-66757029D01*
X119027202Y-66752399D01*
X119036580Y-66749559D01*
X119046336Y-66748599D01*
X119196336Y-66748599D01*
X119206092Y-66749559D01*
G36*
X119206092Y-66749559D02*
G01*
X119215470Y-66752399D01*
X119224114Y-66757029D01*
X119231692Y-66763249D01*
X119237908Y-66770819D01*
X119242530Y-66779469D01*
X119245373Y-66788849D01*
X119246336Y-66798599D01*
X119246336Y-67748599D01*
X119245373Y-67758352D01*
X119242530Y-67767733D01*
X119237908Y-67776377D01*
X119231692Y-67783952D01*
X119224114Y-67790171D01*
X119215470Y-67794793D01*
X119206092Y-67797640D01*
X119196336Y-67798599D01*
X119046336Y-67798599D01*
X119036580Y-67797640D01*
X119027202Y-67794793D01*
X119018558Y-67790171D01*
X119010980Y-67783952D01*
X119004764Y-67776377D01*
X119000142Y-67767733D01*
X118997299Y-67758352D01*
X118996336Y-67748599D01*
X118996336Y-66798599D01*
X118997299Y-66788849D01*
X119000142Y-66779469D01*
X119004764Y-66770819D01*
X119010980Y-66763249D01*
X119018558Y-66757029D01*
X119027202Y-66752399D01*
X119036580Y-66749559D01*
X119046336Y-66748599D01*
X119196336Y-66748599D01*
X119206092Y-66749559D01*
G37*
X119206092Y-67999558D02*
X119215470Y-68002405D01*
X119224114Y-68007027D01*
X119231692Y-68013246D01*
X119237908Y-68020821D01*
X119242530Y-68029465D01*
X119245373Y-68038846D01*
X119246336Y-68048599D01*
X119246336Y-68998599D01*
X119245373Y-69008349D01*
X119242530Y-69017729D01*
X119237908Y-69026379D01*
X119231692Y-69033949D01*
X119224114Y-69040169D01*
X119215470Y-69044799D01*
X119206092Y-69047639D01*
X119196336Y-69048599D01*
X119046336Y-69048599D01*
X119036580Y-69047639D01*
X119027202Y-69044799D01*
X119018558Y-69040169D01*
X119010980Y-69033949D01*
X119004764Y-69026379D01*
X119000142Y-69017729D01*
X118997299Y-69008349D01*
X118996336Y-68998599D01*
X118996336Y-68048599D01*
X118997299Y-68038846D01*
X119000142Y-68029465D01*
X119004764Y-68020821D01*
X119010980Y-68013246D01*
X119018558Y-68007027D01*
X119027202Y-68002405D01*
X119036580Y-67999558D01*
X119046336Y-67998599D01*
X119196336Y-67998599D01*
X119206092Y-67999558D01*
G36*
X119206092Y-67999558D02*
G01*
X119215470Y-68002405D01*
X119224114Y-68007027D01*
X119231692Y-68013246D01*
X119237908Y-68020821D01*
X119242530Y-68029465D01*
X119245373Y-68038846D01*
X119246336Y-68048599D01*
X119246336Y-68998599D01*
X119245373Y-69008349D01*
X119242530Y-69017729D01*
X119237908Y-69026379D01*
X119231692Y-69033949D01*
X119224114Y-69040169D01*
X119215470Y-69044799D01*
X119206092Y-69047639D01*
X119196336Y-69048599D01*
X119046336Y-69048599D01*
X119036580Y-69047639D01*
X119027202Y-69044799D01*
X119018558Y-69040169D01*
X119010980Y-69033949D01*
X119004764Y-69026379D01*
X119000142Y-69017729D01*
X118997299Y-69008349D01*
X118996336Y-68998599D01*
X118996336Y-68048599D01*
X118997299Y-68038846D01*
X119000142Y-68029465D01*
X119004764Y-68020821D01*
X119010980Y-68013246D01*
X119018558Y-68007027D01*
X119027202Y-68002405D01*
X119036580Y-67999558D01*
X119046336Y-67998599D01*
X119196336Y-67998599D01*
X119206092Y-67999558D01*
G37*
X119706089Y-66749559D02*
X119715470Y-66752399D01*
X119724114Y-66757029D01*
X119731689Y-66763249D01*
X119737908Y-66770819D01*
X119742530Y-66779469D01*
X119745374Y-66788849D01*
X119746333Y-66798599D01*
X119746333Y-67748599D01*
X119745374Y-67758352D01*
X119742530Y-67767733D01*
X119737908Y-67776377D01*
X119731689Y-67783952D01*
X119724114Y-67790171D01*
X119715470Y-67794793D01*
X119706089Y-67797640D01*
X119696333Y-67798599D01*
X119546333Y-67798599D01*
X119536580Y-67797640D01*
X119527199Y-67794793D01*
X119518558Y-67790171D01*
X119510980Y-67783952D01*
X119504761Y-67776377D01*
X119500142Y-67767733D01*
X119497295Y-67758352D01*
X119496333Y-67748599D01*
X119496333Y-66798599D01*
X119497295Y-66788849D01*
X119500142Y-66779469D01*
X119504761Y-66770819D01*
X119510980Y-66763249D01*
X119518558Y-66757029D01*
X119527199Y-66752399D01*
X119536580Y-66749559D01*
X119546333Y-66748599D01*
X119696333Y-66748599D01*
X119706089Y-66749559D01*
G36*
X119706089Y-66749559D02*
G01*
X119715470Y-66752399D01*
X119724114Y-66757029D01*
X119731689Y-66763249D01*
X119737908Y-66770819D01*
X119742530Y-66779469D01*
X119745374Y-66788849D01*
X119746333Y-66798599D01*
X119746333Y-67748599D01*
X119745374Y-67758352D01*
X119742530Y-67767733D01*
X119737908Y-67776377D01*
X119731689Y-67783952D01*
X119724114Y-67790171D01*
X119715470Y-67794793D01*
X119706089Y-67797640D01*
X119696333Y-67798599D01*
X119546333Y-67798599D01*
X119536580Y-67797640D01*
X119527199Y-67794793D01*
X119518558Y-67790171D01*
X119510980Y-67783952D01*
X119504761Y-67776377D01*
X119500142Y-67767733D01*
X119497295Y-67758352D01*
X119496333Y-67748599D01*
X119496333Y-66798599D01*
X119497295Y-66788849D01*
X119500142Y-66779469D01*
X119504761Y-66770819D01*
X119510980Y-66763249D01*
X119518558Y-66757029D01*
X119527199Y-66752399D01*
X119536580Y-66749559D01*
X119546333Y-66748599D01*
X119696333Y-66748599D01*
X119706089Y-66749559D01*
G37*
X119706089Y-67999558D02*
X119715470Y-68002405D01*
X119724114Y-68007027D01*
X119731689Y-68013246D01*
X119737908Y-68020821D01*
X119742530Y-68029465D01*
X119745374Y-68038846D01*
X119746333Y-68048599D01*
X119746333Y-68998599D01*
X119745374Y-69008349D01*
X119742530Y-69017729D01*
X119737908Y-69026379D01*
X119731689Y-69033949D01*
X119724114Y-69040169D01*
X119715470Y-69044799D01*
X119706089Y-69047639D01*
X119696333Y-69048599D01*
X119546333Y-69048599D01*
X119536580Y-69047639D01*
X119527199Y-69044799D01*
X119518558Y-69040169D01*
X119510980Y-69033949D01*
X119504761Y-69026379D01*
X119500142Y-69017729D01*
X119497295Y-69008349D01*
X119496333Y-68998599D01*
X119496333Y-68048599D01*
X119497295Y-68038846D01*
X119500142Y-68029465D01*
X119504761Y-68020821D01*
X119510980Y-68013246D01*
X119518558Y-68007027D01*
X119527199Y-68002405D01*
X119536580Y-67999558D01*
X119546333Y-67998599D01*
X119696333Y-67998599D01*
X119706089Y-67999558D01*
G36*
X119706089Y-67999558D02*
G01*
X119715470Y-68002405D01*
X119724114Y-68007027D01*
X119731689Y-68013246D01*
X119737908Y-68020821D01*
X119742530Y-68029465D01*
X119745374Y-68038846D01*
X119746333Y-68048599D01*
X119746333Y-68998599D01*
X119745374Y-69008349D01*
X119742530Y-69017729D01*
X119737908Y-69026379D01*
X119731689Y-69033949D01*
X119724114Y-69040169D01*
X119715470Y-69044799D01*
X119706089Y-69047639D01*
X119696333Y-69048599D01*
X119546333Y-69048599D01*
X119536580Y-69047639D01*
X119527199Y-69044799D01*
X119518558Y-69040169D01*
X119510980Y-69033949D01*
X119504761Y-69026379D01*
X119500142Y-69017729D01*
X119497295Y-69008349D01*
X119496333Y-68998599D01*
X119496333Y-68048599D01*
X119497295Y-68038846D01*
X119500142Y-68029465D01*
X119504761Y-68020821D01*
X119510980Y-68013246D01*
X119518558Y-68007027D01*
X119527199Y-68002405D01*
X119536580Y-67999558D01*
X119546333Y-67998599D01*
X119696333Y-67998599D01*
X119706089Y-67999558D01*
G37*
D11*
%TO.C,U4*%
X121050373Y-58214600D02*
X120038373Y-58214600D01*
X120038373Y-57582600D01*
X121050373Y-57582600D01*
X121050373Y-58214600D01*
G36*
X121050373Y-58214600D02*
G01*
X120038373Y-58214600D01*
X120038373Y-57582600D01*
X121050373Y-57582600D01*
X121050373Y-58214600D01*
G37*
%TD*%
D12*
%TO.C,R10*%
X146351100Y-126398600D03*
X147801100Y-126398600D03*
%TD*%
D13*
%TO.C,R7*%
X110301100Y-77623600D03*
X110301100Y-76173600D03*
%TD*%
D14*
%TO.C,CFF1*%
X130301100Y-71098600D03*
X130301100Y-72898600D03*
%TD*%
D13*
%TO.C,R4*%
X141301100Y-66673600D03*
X141301100Y-68123600D03*
%TD*%
D15*
%TO.C,U5*%
X135751100Y-68648600D03*
X134801100Y-68648600D03*
X133851100Y-68648600D03*
X133851100Y-71148600D03*
X135751100Y-71148600D03*
%TD*%
D14*
%TO.C,C4*%
X119214691Y-77498600D03*
X119214691Y-79298600D03*
%TD*%
D12*
%TO.C,RSENSE1*%
X134076100Y-73398600D03*
X135526100Y-73398600D03*
%TD*%
D16*
%TO.C,L1*%
X119051100Y-72567690D03*
X114551100Y-72567690D03*
%TD*%
D17*
%TO.C,C3*%
X120030170Y-65088575D03*
X118230170Y-65088575D03*
%TD*%
D14*
%TO.C,C7*%
X109633707Y-66347641D03*
X109633707Y-68147641D03*
%TD*%
D12*
%TO.C,R_ILIM1*%
X120469372Y-61209901D03*
X121919372Y-61209901D03*
%TD*%
D13*
%TO.C,R5*%
X123123460Y-67133984D03*
X123123460Y-65683984D03*
%TD*%
D18*
%TO.C,U3*%
X109651100Y-72498600D03*
X110301100Y-72498600D03*
X110951100Y-72498600D03*
X110951100Y-70298600D03*
X109651100Y-70298600D03*
%TD*%
D12*
%TO.C,R11*%
X149402170Y-126424650D03*
X150852170Y-126424650D03*
%TD*%
D19*
%TO.C,D1*%
X139701100Y-60398600D03*
X141301100Y-60398600D03*
%TD*%
D17*
%TO.C,C6*%
X108514710Y-74402132D03*
X110314710Y-74402132D03*
%TD*%
D12*
%TO.C,R1*%
X124026100Y-56398600D03*
X122576100Y-56398600D03*
%TD*%
D14*
%TO.C,C9*%
X121214691Y-77498600D03*
X121214691Y-79298600D03*
%TD*%
D12*
%TO.C,R6*%
X114076100Y-67898600D03*
X115526100Y-67898600D03*
%TD*%
D13*
%TO.C,R8*%
X112076100Y-76173600D03*
X112076100Y-77623600D03*
%TD*%
D17*
%TO.C,C1*%
X116401100Y-56398600D03*
X118201100Y-56398600D03*
%TD*%
D14*
%TO.C,C10*%
X123214691Y-77498600D03*
X123214691Y-79298600D03*
%TD*%
D17*
%TO.C,C2*%
X120062923Y-63052123D03*
X118262923Y-63052123D03*
%TD*%
%TO.C,C8*%
X127901100Y-67398600D03*
X129701100Y-67398600D03*
%TD*%
D20*
%TO.C,U6*%
X120446336Y-67898599D03*
X117796336Y-67898599D03*
%TD*%
D21*
%TO.C,U4*%
X119894373Y-58918600D03*
X120544373Y-58918600D03*
X121194373Y-58918600D03*
X121194373Y-56878600D03*
X120544373Y-56878600D03*
X119894373Y-56878600D03*
%TD*%
D14*
%TO.C,C5*%
X125032633Y-65524580D03*
X125032633Y-67324580D03*
%TD*%
M02*
