M48
; DRILL file {KiCad 8.0.4} date 2024-08-22T00:26:36+0530
; FORMAT={-:-/ absolute / inch / decimal}
; #@! TF.CreationDate,2024-08-22T00:26:36+05:30
; #@! TF.GenerationSoftware,Kicad,Pcbnew,8.0.4
; #@! TF.FileFunction,NonPlated,1,2,NPTH
FMAT,2
INCH
; #@! TA.AperFunction,NonPlated,NPTH,ComponentDrill
T1C0.0787
; #@! TA.AperFunction,NonPlated,NPTH,ComponentDrill
T2C0.1024
; #@! TA.AperFunction,NonPlated,NPTH,ComponentDrill
T3C0.1220
; #@! TA.AperFunction,NonPlated,NPTH,ComponentDrill
T4C0.1260
; #@! TA.AperFunction,NonPlated,NPTH,ComponentDrill
T5C0.2559
%
G90
G05
T2
X5.0945Y-3.4124
X5.4095Y-3.4124
X6.0315Y-3.9636
X6.3465Y-3.9636
T3
X4.4607Y-3.5502
X5.2481Y-4.5935
X6.193Y-2.7825
X6.9804Y-3.8258
T4
X4.1221Y-3.5502
X4.141Y-2.0708
X4.141Y-5.2204
X7.2906Y-2.0708
X7.2906Y-5.2204
X7.3189Y-3.8258
T1
G00X6.2812Y-4.3147
M15
G01X6.2025Y-4.3147
M16
G05
G00X6.2812Y-4.9643
M15
G01X6.2025Y-4.9643
M16
G05
G00X6.9899Y-4.3147
M15
G01X6.9112Y-4.3147
M16
G05
G00X6.9899Y-4.9643
M15
G01X6.9112Y-4.9643
M16
G05
T5
G00X5.4056Y-4.186
M15
G01X5.4056Y-3.9301
M16
G05
G00X6.0355Y-3.19
M15
G01X6.0355Y-3.4459
M16
G05
M30
