%TF.GenerationSoftware,KiCad,Pcbnew,8.0.4*%
%TF.CreationDate,2024-08-22T00:26:23+05:30*%
%TF.ProjectId,sanket 4.0,73616e6b-6574-4203-942e-302e6b696361,rev?*%
%TF.SameCoordinates,Original*%
%TF.FileFunction,Copper,L1,Top*%
%TF.FilePolarity,Positive*%
%FSLAX46Y46*%
G04 Gerber Fmt 4.6, Leading zero omitted, Abs format (unit mm)*
G04 Created by KiCad (PCBNEW 8.0.4) date 2024-08-22 00:26:23*
%MOMM*%
%LPD*%
G01*
G04 APERTURE LIST*
G04 Aperture macros list*
%AMRoundRect*
0 Rectangle with rounded corners*
0 $1 Rounding radius*
0 $2 $3 $4 $5 $6 $7 $8 $9 X,Y pos of 4 corners*
0 Add a 4 corners polygon primitive as box body*
4,1,4,$2,$3,$4,$5,$6,$7,$8,$9,$2,$3,0*
0 Add four circle primitives for the rounded corners*
1,1,$1+$1,$2,$3*
1,1,$1+$1,$4,$5*
1,1,$1+$1,$6,$7*
1,1,$1+$1,$8,$9*
0 Add four rect primitives between the rounded corners*
20,1,$1+$1,$2,$3,$4,$5,0*
20,1,$1+$1,$4,$5,$6,$7,0*
20,1,$1+$1,$6,$7,$8,$9,0*
20,1,$1+$1,$8,$9,$2,$3,0*%
G04 Aperture macros list end*
%TA.AperFunction,Conductor*%
%ADD10C,0.000000*%
%TD*%
%TA.AperFunction,Conductor*%
%ADD11C,0.200000*%
%TD*%
%TA.AperFunction,SMDPad,CuDef*%
%ADD12R,0.650000X0.900000*%
%TD*%
%TA.AperFunction,ComponentPad*%
%ADD13R,1.720000X1.720000*%
%TD*%
%TA.AperFunction,ComponentPad*%
%ADD14C,1.720000*%
%TD*%
%TA.AperFunction,SMDPad,CuDef*%
%ADD15R,0.900000X0.650000*%
%TD*%
%TA.AperFunction,SMDPad,CuDef*%
%ADD16R,1.100000X1.150000*%
%TD*%
%TA.AperFunction,SMDPad,CuDef*%
%ADD17R,2.000000X3.000000*%
%TD*%
%TA.AperFunction,SMDPad,CuDef*%
%ADD18R,0.600000X1.250000*%
%TD*%
%TA.AperFunction,SMDPad,CuDef*%
%ADD19RoundRect,0.450000X0.550000X0.450000X-0.550000X0.450000X-0.550000X-0.450000X0.550000X-0.450000X0*%
%TD*%
%TA.AperFunction,ComponentPad*%
%ADD20R,1.700000X1.700000*%
%TD*%
%TA.AperFunction,ComponentPad*%
%ADD21O,1.700000X1.700000*%
%TD*%
%TA.AperFunction,SMDPad,CuDef*%
%ADD22R,1.150000X1.100000*%
%TD*%
%TA.AperFunction,SMDPad,CuDef*%
%ADD23R,0.400000X0.900000*%
%TD*%
%TA.AperFunction,SMDPad,CuDef*%
%ADD24R,0.800000X0.800000*%
%TD*%
%TA.AperFunction,ComponentPad*%
%ADD25R,1.560000X1.560000*%
%TD*%
%TA.AperFunction,ComponentPad*%
%ADD26C,1.560000*%
%TD*%
%TA.AperFunction,ComponentPad*%
%ADD27R,1.490000X1.490000*%
%TD*%
%TA.AperFunction,ComponentPad*%
%ADD28C,1.490000*%
%TD*%
%TA.AperFunction,SMDPad,CuDef*%
%ADD29R,0.250000X0.775000*%
%TD*%
%TA.AperFunction,SMDPad,CuDef*%
%ADD30R,0.250000X2.300000*%
%TD*%
%TA.AperFunction,SMDPad,CuDef*%
%ADD31R,0.650000X0.250000*%
%TD*%
%TA.AperFunction,SMDPad,CuDef*%
%ADD32R,0.320000X0.690000*%
%TD*%
%TA.AperFunction,SMDPad,CuDef*%
%ADD33R,1.600000X1.000000*%
%TD*%
%TA.AperFunction,ViaPad*%
%ADD34C,0.600000*%
%TD*%
%TA.AperFunction,ViaPad*%
%ADD35C,0.500000*%
%TD*%
%TA.AperFunction,Conductor*%
%ADD36C,0.720000*%
%TD*%
%TA.AperFunction,Conductor*%
%ADD37C,0.400000*%
%TD*%
%TA.AperFunction,Conductor*%
%ADD38C,0.600000*%
%TD*%
%TA.AperFunction,Conductor*%
%ADD39C,0.381000*%
%TD*%
%TA.AperFunction,Conductor*%
%ADD40C,1.270000*%
%TD*%
%TA.AperFunction,Conductor*%
%ADD41C,0.127000*%
%TD*%
G04 APERTURE END LIST*
D10*
%TA.AperFunction,Conductor*%
%TO.N,/Burn*%
G36*
X120147961Y-58713990D02*
G01*
X120127330Y-59990243D01*
X118902962Y-62432035D01*
X118937954Y-66398600D01*
X116801100Y-66398600D01*
X116801100Y-61898600D01*
X118879293Y-59734733D01*
X118918404Y-58709298D01*
X120147961Y-58713990D01*
G37*
%TD.AperFunction*%
%TA.AperFunction,Conductor*%
%TO.N,GND*%
G36*
X119773031Y-66992224D02*
G01*
X119470282Y-66995192D01*
X119481718Y-66102057D01*
X119570456Y-66098683D01*
X119772527Y-66098585D01*
X119773031Y-66992224D01*
G37*
%TD.AperFunction*%
%TA.AperFunction,Conductor*%
G36*
X122145781Y-50111582D02*
G01*
X122145781Y-52472716D01*
X117423514Y-52472716D01*
X117412926Y-50069230D01*
X122145781Y-50111582D01*
G37*
%TD.AperFunction*%
%TA.AperFunction,Conductor*%
G36*
X124801100Y-64398600D02*
G01*
X119301100Y-64398600D01*
X119286461Y-62144175D01*
X121492356Y-62144174D01*
X121538035Y-60701301D01*
X123365944Y-60684301D01*
X123380633Y-58320335D01*
X115801100Y-58334373D01*
X115801100Y-55723579D01*
X117124657Y-55708831D01*
X117161729Y-57505158D01*
X120316832Y-57502529D01*
X120331631Y-56437881D01*
X120784668Y-56441505D01*
X120793682Y-57508642D01*
X123355224Y-57520869D01*
X123384574Y-55586922D01*
X124858275Y-55560968D01*
X124801100Y-64398600D01*
G37*
%TD.AperFunction*%
%TA.AperFunction,Conductor*%
%TO.N,Vcc*%
G36*
X122159870Y-54671980D02*
G01*
X120082837Y-56254234D01*
X120072184Y-57067387D01*
X117626659Y-57045130D01*
X117633637Y-55558895D01*
X117437417Y-55084011D01*
X117436633Y-52680109D01*
X122159870Y-52680109D01*
X122159870Y-54671980D01*
G37*
%TD.AperFunction*%
%TA.AperFunction,Conductor*%
%TO.N,GND*%
G36*
X122045224Y-75899918D02*
G01*
X122047414Y-76610939D01*
X124151743Y-76599886D01*
X124151721Y-78255226D01*
X118309436Y-78271991D01*
X118301100Y-75898600D01*
X122045224Y-75899918D01*
G37*
%TD.AperFunction*%
%TA.AperFunction,Conductor*%
G36*
X126128848Y-66407276D02*
G01*
X119301100Y-66398600D01*
X119301100Y-63898600D01*
X126118793Y-63895780D01*
X126128848Y-66407276D01*
G37*
%TD.AperFunction*%
D11*
%TO.N,/VR*%
X131768636Y-76441004D02*
X132263177Y-76918193D01*
X132193768Y-77655667D01*
X131369533Y-78471226D01*
X130744849Y-78471226D01*
X130206927Y-77985361D01*
X130189575Y-77239211D01*
X131048515Y-76397623D01*
X131768636Y-76441004D01*
%TA.AperFunction,Conductor*%
G36*
X131768636Y-76441004D02*
G01*
X132263177Y-76918193D01*
X132193768Y-77655667D01*
X131369533Y-78471226D01*
X130744849Y-78471226D01*
X130206927Y-77985361D01*
X130189575Y-77239211D01*
X131048515Y-76397623D01*
X131768636Y-76441004D01*
G37*
%TD.AperFunction*%
D10*
%TA.AperFunction,Conductor*%
%TO.N,/Burn*%
G36*
X118768742Y-65904114D02*
G01*
X118755097Y-69266214D01*
X117369348Y-69258015D01*
X117376945Y-68242897D01*
X118335998Y-68240213D01*
X118338036Y-67529149D01*
X117298994Y-67524937D01*
X117301100Y-65898600D01*
X118768742Y-65904114D01*
G37*
%TD.AperFunction*%
%TD*%
D12*
%TO.P,R10,1*%
%TO.N,/NetBLEEDER1_1*%
X146351100Y-126398600D03*
%TO.P,R10,2*%
%TO.N,/NetR10_2*%
X147801100Y-126398600D03*
%TD*%
D13*
%TO.P,J4,1,1*%
%TO.N,GND*%
X118504500Y-51263600D03*
D14*
%TO.P,J4,2,2*%
%TO.N,Vcc*%
X118504500Y-53803600D03*
%TO.P,J4,3,3*%
%TO.N,GND*%
X121044500Y-51263600D03*
%TO.P,J4,4,4*%
%TO.N,Vcc*%
X121044500Y-53803600D03*
%TO.P,J4,5,5*%
%TO.N,/TRIGGER_OUT*%
X123584500Y-51263600D03*
%TO.P,J4,6,6*%
%TO.N,/EN*%
X123584500Y-53803600D03*
%TO.P,J4,7,7*%
%TO.N,unconnected-(J4-Pad7)*%
X126124500Y-51263600D03*
%TO.P,J4,8,8*%
%TO.N,/CS*%
X126124500Y-53803600D03*
%TD*%
D15*
%TO.P,R7,1*%
%TO.N,/SW_OUT*%
X110301100Y-77623600D03*
%TO.P,R7,2*%
%TO.N,/TRIGGER_IN*%
X110301100Y-76173600D03*
%TD*%
D16*
%TO.P,CFF1,1*%
%TO.N,Net-(U6-FB)*%
X130301100Y-71098600D03*
%TO.P,CFF1,2*%
%TO.N,/VR*%
X130301100Y-72898600D03*
%TD*%
D17*
%TO.P,BLEEDER1,1,BLEEDER*%
%TO.N,/NetBLEEDER1_1*%
X146355280Y-123431360D03*
%TD*%
D15*
%TO.P,R4,1*%
%TO.N,/NetD1_2*%
X141301100Y-66673600D03*
%TO.P,R4,2*%
%TO.N,Net-(J1-Pin_2)*%
X141301100Y-68123600D03*
%TD*%
D18*
%TO.P,U5,1,GND*%
%TO.N,GND*%
X135751100Y-68648600D03*
%TO.P,U5,2,OUT*%
%TO.N,/CS*%
X134801100Y-68648600D03*
%TO.P,U5,3,VCC*%
%TO.N,Vcc*%
X133851100Y-68648600D03*
%TO.P,U5,4,RS+*%
%TO.N,/VR*%
X133851100Y-71148600D03*
%TO.P,U5,5,RS-*%
%TO.N,Net-(J1-Pin_1)*%
X135751100Y-71148600D03*
%TD*%
D16*
%TO.P,C4,1*%
%TO.N,GND*%
X119214691Y-77498600D03*
%TO.P,C4,2*%
%TO.N,/VR*%
X119214691Y-79298600D03*
%TD*%
D12*
%TO.P,RSENSE1,1*%
%TO.N,/VR*%
X134076100Y-73398600D03*
%TO.P,RSENSE1,2*%
%TO.N,Net-(J1-Pin_1)*%
X135526100Y-73398600D03*
%TD*%
D19*
%TO.P,L1,1,1*%
%TO.N,Net-(U6-SW)*%
X119051100Y-72567690D03*
%TO.P,L1,2,2*%
%TO.N,/VR*%
X114551100Y-72567690D03*
%TD*%
D20*
%TO.P,J3,1,Pin_1*%
%TO.N,/RBW-LOW*%
X138576100Y-63898600D03*
D21*
%TO.P,J3,2,Pin_2*%
%TO.N,GND*%
X136036100Y-63898600D03*
%TD*%
D22*
%TO.P,C3,1*%
%TO.N,GND*%
X120030170Y-65088575D03*
%TO.P,C3,2*%
%TO.N,/Burn*%
X118230170Y-65088575D03*
%TD*%
D16*
%TO.P,C7,1*%
%TO.N,GND*%
X109633707Y-66347641D03*
%TO.P,C7,2*%
%TO.N,Vcc*%
X109633707Y-68147641D03*
%TD*%
D12*
%TO.P,R_ILIM1,1*%
%TO.N,Net-(U4-ILIM)*%
X120469372Y-61209901D03*
%TO.P,R_ILIM1,2*%
%TO.N,GND*%
X121919372Y-61209901D03*
%TD*%
D15*
%TO.P,R5,1*%
%TO.N,Net-(U6-COMP_FSET)*%
X123123460Y-67133984D03*
%TO.P,R5,2*%
%TO.N,GND*%
X123123460Y-65683984D03*
%TD*%
D23*
%TO.P,U3,1,NC*%
%TO.N,unconnected-(U3-NC-Pad1)*%
X109651100Y-72498600D03*
%TO.P,U3,2,A*%
%TO.N,/TRIGGER_IN*%
X110301100Y-72498600D03*
%TO.P,U3,3,GND*%
%TO.N,GND*%
X110951100Y-72498600D03*
%TO.P,U3,4,Y*%
%TO.N,/TRIGGER_OUT*%
X110951100Y-70298600D03*
%TO.P,U3,5,VCC*%
%TO.N,Vcc*%
X109651100Y-70298600D03*
%TD*%
D12*
%TO.P,R11,1*%
%TO.N,/NetR10_2*%
X149402170Y-126424650D03*
%TO.P,R11,2*%
%TO.N,GND*%
X150852170Y-126424650D03*
%TD*%
D24*
%TO.P,D1,1,K*%
%TO.N,/RBW-LOW*%
X139701100Y-60398600D03*
%TO.P,D1,2,A*%
%TO.N,/NetD1_2*%
X141301100Y-60398600D03*
%TD*%
D22*
%TO.P,C6,1*%
%TO.N,GND*%
X108514710Y-74402132D03*
%TO.P,C6,2*%
%TO.N,/TRIGGER_IN*%
X110314710Y-74402132D03*
%TD*%
D12*
%TO.P,R1,1*%
%TO.N,GND*%
X124026100Y-56398600D03*
%TO.P,R1,2*%
%TO.N,/EN*%
X122576100Y-56398600D03*
%TD*%
D16*
%TO.P,C9,1*%
%TO.N,GND*%
X121214691Y-77498600D03*
%TO.P,C9,2*%
%TO.N,/VR*%
X121214691Y-79298600D03*
%TD*%
D12*
%TO.P,R6,1*%
%TO.N,/VR*%
X114076100Y-67898600D03*
%TO.P,R6,2*%
%TO.N,Net-(U6-PG)*%
X115526100Y-67898600D03*
%TD*%
D20*
%TO.P,J1,1,Pin_1*%
%TO.N,Net-(J1-Pin_1)*%
X138801100Y-70873600D03*
D21*
%TO.P,J1,2,Pin_2*%
%TO.N,Net-(J1-Pin_2)*%
X138801100Y-73413600D03*
%TO.P,J1,3,Pin_3*%
%TO.N,Net-(DIR_PW1-Pin_1)*%
X138801100Y-75953600D03*
%TD*%
D25*
%TO.P,RV1,1,1*%
%TO.N,/VR*%
X128301100Y-74906421D03*
D26*
%TO.P,RV1,2,2*%
%TO.N,Net-(U6-FB)*%
X125801100Y-69906421D03*
%TO.P,RV1,3,3*%
%TO.N,GND*%
X123301100Y-74906421D03*
%TD*%
D27*
%TO.P,DEPLOYER2,1,1*%
%TO.N,/SW_OUT*%
X143401100Y-110675485D03*
D28*
%TO.P,DEPLOYER2,2,2*%
X141401100Y-110675485D03*
%TO.P,DEPLOYER2,3,3*%
%TO.N,/NetDEPLOYER1_1*%
X143401100Y-112675485D03*
%TO.P,DEPLOYER2,4,4*%
X141401100Y-112675485D03*
%TO.P,DEPLOYER2,5,5*%
%TO.N,Net-(J1-Pin_2)*%
X143401100Y-114675485D03*
%TO.P,DEPLOYER2,6,6*%
%TO.N,/RBW-LOW*%
X141401100Y-114675485D03*
%TO.P,DEPLOYER2,7,7*%
%TO.N,Net-(J1-Pin_2)*%
X143401100Y-116675485D03*
%TO.P,DEPLOYER2,8,8*%
%TO.N,/RBW-LOW*%
X141401100Y-116675485D03*
%TD*%
D15*
%TO.P,R8,1*%
%TO.N,GND*%
X112076100Y-76173600D03*
%TO.P,R8,2*%
%TO.N,/SW_OUT*%
X112076100Y-77623600D03*
%TD*%
D22*
%TO.P,C1,1*%
%TO.N,GND*%
X116401100Y-56398600D03*
%TO.P,C1,2*%
%TO.N,Vcc*%
X118201100Y-56398600D03*
%TD*%
D27*
%TO.P,DEPLOYER1,1,1*%
%TO.N,/NetDEPLOYER1_1*%
X147201100Y-76675485D03*
D28*
%TO.P,DEPLOYER1,2,2*%
X149201100Y-76675485D03*
%TO.P,DEPLOYER1,3,3*%
%TO.N,Vcc*%
X147201100Y-74675485D03*
%TO.P,DEPLOYER1,4,4*%
X149201100Y-74675485D03*
%TO.P,DEPLOYER1,5,5*%
%TO.N,/RBW-LOW*%
X147201100Y-72675485D03*
%TO.P,DEPLOYER1,6,6*%
%TO.N,Net-(J1-Pin_2)*%
X149201100Y-72675485D03*
%TO.P,DEPLOYER1,7,7*%
%TO.N,/RBW-LOW*%
X147201100Y-70675485D03*
%TO.P,DEPLOYER1,8,8*%
%TO.N,Net-(J1-Pin_2)*%
X149201100Y-70675485D03*
%TD*%
D16*
%TO.P,C10,1*%
%TO.N,GND*%
X123214691Y-77498600D03*
%TO.P,C10,2*%
%TO.N,/VR*%
X123214691Y-79298600D03*
%TD*%
D22*
%TO.P,C2,1*%
%TO.N,GND*%
X120062923Y-63052123D03*
%TO.P,C2,2*%
%TO.N,/Burn*%
X118262923Y-63052123D03*
%TD*%
%TO.P,C8,1*%
%TO.N,GND*%
X127901100Y-67398600D03*
%TO.P,C8,2*%
%TO.N,Vcc*%
X129701100Y-67398600D03*
%TD*%
D20*
%TO.P,DIR_PW1,1,Pin_1*%
%TO.N,Net-(DIR_PW1-Pin_1)*%
X148301100Y-63898600D03*
D21*
%TO.P,DIR_PW1,2,Pin_2*%
%TO.N,GND*%
X145761100Y-63898600D03*
%TD*%
D29*
%TO.P,U6,1,MODE_SYNC*%
%TO.N,/Burn*%
X118121336Y-68659499D03*
D30*
%TO.P,U6,2,VIN*%
X118621336Y-67898599D03*
%TO.P,U6,3,SW*%
%TO.N,Net-(U6-SW)*%
X119121336Y-67898599D03*
%TO.P,U6,4,GND*%
%TO.N,GND*%
X119621336Y-67898599D03*
D29*
%TO.P,U6,5,FB*%
%TO.N,Net-(U6-FB)*%
X120121333Y-68659499D03*
D31*
%TO.P,U6,6,SS_TR*%
%TO.N,Net-(U6-SS_TR)*%
X120446336Y-67898599D03*
D29*
%TO.P,U6,7,COMP_FSET*%
%TO.N,Net-(U6-COMP_FSET)*%
X120121336Y-67137699D03*
%TO.P,U6,8,EN*%
%TO.N,/Burn*%
X118121336Y-67137699D03*
D31*
%TO.P,U6,9,PG*%
%TO.N,Net-(U6-PG)*%
X117796336Y-67898599D03*
%TD*%
D32*
%TO.P,U4,1,OUT*%
%TO.N,/Burn*%
X119894373Y-58918600D03*
%TO.P,U4,2,ILIM*%
%TO.N,Net-(U4-ILIM)*%
X120544373Y-58918600D03*
%TO.P,U4,3,~{FAULT}*%
%TO.N,Net-(U4-~{FAULT})*%
X121194373Y-58918600D03*
%TO.P,U4,4,EN*%
%TO.N,/EN*%
X121194373Y-56878600D03*
%TO.P,U4,5,GND*%
%TO.N,GND*%
X120544373Y-56878600D03*
%TO.P,U4,6,IN*%
%TO.N,Vcc*%
X119894373Y-56878600D03*
D33*
%TO.P,U4,7,EXP*%
%TO.N,GND*%
X120544373Y-57898600D03*
%TD*%
D16*
%TO.P,C5,1*%
%TO.N,GND*%
X125032633Y-65524580D03*
%TO.P,C5,2*%
%TO.N,Net-(U6-SS_TR)*%
X125032633Y-67324580D03*
%TD*%
D34*
%TO.N,Vcc*%
X133693625Y-67506075D03*
D35*
X109801100Y-61398600D03*
D34*
%TO.N,/TRIGGER_IN*%
X108801100Y-76398600D03*
%TO.N,/RBW-LOW*%
X144801100Y-119898600D03*
%TO.N,/SW_OUT*%
X108801100Y-79398600D03*
X112051100Y-80148600D03*
%TO.N,GND*%
X114801100Y-64398600D03*
X152775050Y-125687685D03*
D35*
X107801100Y-63398600D03*
D34*
X121801100Y-65398600D03*
X109801100Y-63398600D03*
%TO.N,/VR*%
X131301100Y-77398600D03*
%TO.N,/TRIGGER_OUT*%
X109801100Y-59898600D03*
%TO.N,/CS*%
X131556125Y-66643575D03*
X129301100Y-64398600D03*
%TO.N,Net-(U4-~{FAULT})*%
X121194373Y-59947744D03*
%TO.N,Net-(U6-PG)*%
X114801100Y-66398600D03*
%TO.N,Net-(DIR_PW1-Pin_1)*%
X141801100Y-70398600D03*
%TD*%
D11*
%TO.N,/NetBLEEDER1_1*%
X146351100Y-126398600D02*
X146351100Y-123435540D01*
X146351100Y-123435540D02*
X146355280Y-123431360D01*
%TO.N,Net-(J1-Pin_2)*%
X140576100Y-68123600D02*
X141301100Y-68123600D01*
X140301100Y-72928600D02*
X140786100Y-73413600D01*
X139801100Y-73413600D02*
X138801100Y-73413600D01*
X140301100Y-72913600D02*
X139801100Y-73413600D01*
D36*
X147801100Y-68398600D02*
X149201100Y-69798600D01*
D11*
X140301100Y-68398600D02*
X140301100Y-72913600D01*
D36*
X140786100Y-73413600D02*
X145801100Y-68398600D01*
X145801100Y-68398600D02*
X147801100Y-68398600D01*
D11*
X140301100Y-72913600D02*
X140301100Y-72928600D01*
D36*
X149201100Y-69798600D02*
X149201100Y-70675485D01*
X149201100Y-70675485D02*
X149201100Y-72675485D01*
D11*
X140576100Y-68123600D02*
X140301100Y-68398600D01*
D36*
X138801100Y-73413600D02*
X140786100Y-73413600D01*
D37*
%TO.N,Vcc*%
X132551100Y-68648600D02*
X131301100Y-67398600D01*
X131301100Y-67398600D02*
X129701100Y-67398600D01*
D11*
X133851100Y-68648600D02*
X133851100Y-67663550D01*
D37*
X109651100Y-70298600D02*
X109651100Y-68165034D01*
X109651100Y-68165034D02*
X109633707Y-68147641D01*
X108683707Y-62515993D02*
X108683707Y-67197641D01*
X108683707Y-67197641D02*
X109633707Y-68147641D01*
X109801100Y-61398600D02*
X108683707Y-62515993D01*
D11*
X133851100Y-67663550D02*
X133693625Y-67506075D01*
D37*
X133851100Y-68648600D02*
X132551100Y-68648600D01*
D36*
%TO.N,Net-(J1-Pin_1)*%
X136276100Y-73398600D02*
X138801100Y-70873600D01*
D11*
X135526100Y-72529173D02*
X135526100Y-73398600D01*
D36*
X135526100Y-73398600D02*
X136276100Y-73398600D01*
D11*
X135751100Y-71148600D02*
X135751100Y-72304173D01*
X135751100Y-72304173D02*
X135526100Y-72529173D01*
%TO.N,/TRIGGER_IN*%
X110301100Y-74388522D02*
X110314710Y-74402132D01*
X110301100Y-74415742D02*
X110314710Y-74402132D01*
X109026100Y-76173600D02*
X108801100Y-76398600D01*
X110301100Y-76173600D02*
X109026100Y-76173600D01*
X110301100Y-76173600D02*
X110301100Y-74415742D01*
X110301100Y-72498600D02*
X110301100Y-74388522D01*
%TO.N,/NetD1_2*%
X141301100Y-66673600D02*
X141301100Y-60398600D01*
D36*
%TO.N,/RBW-LOW*%
X146535536Y-72675485D02*
X144801100Y-74409921D01*
D11*
X139701100Y-60398600D02*
X139701100Y-62773600D01*
D36*
X147201100Y-72675485D02*
X146535536Y-72675485D01*
D11*
X139701100Y-62773600D02*
X138576100Y-63898600D01*
D36*
X144801100Y-74409921D02*
X144801100Y-119898600D01*
D11*
%TO.N,Net-(U6-SW)*%
X119121336Y-69895317D02*
X119118053Y-69898600D01*
X119121336Y-67898599D02*
X119121336Y-69629097D01*
D36*
X119051100Y-69965553D02*
X119051100Y-72567690D01*
D11*
X119121336Y-69629097D02*
X119123320Y-69631081D01*
D36*
X119121336Y-69895317D02*
X119051100Y-69965553D01*
D11*
X119121336Y-67898599D02*
X119121336Y-69895317D01*
D38*
%TO.N,/SW_OUT*%
X110301100Y-78398600D02*
X110301100Y-77623600D01*
X110551100Y-78648600D02*
X110301100Y-78398600D01*
X111551100Y-79648600D02*
X110551100Y-78648600D01*
D11*
X110051100Y-78648600D02*
X110551100Y-78648600D01*
D38*
X112076100Y-80123600D02*
X112076100Y-78898600D01*
X112051100Y-80148600D02*
X111551100Y-79648600D01*
X112076100Y-79123600D02*
X111551100Y-79648600D01*
X112076100Y-78898600D02*
X112076100Y-77623600D01*
D11*
X109301100Y-79398600D02*
X108801100Y-79398600D01*
D38*
X112051100Y-80148600D02*
X112076100Y-80123600D01*
X112076100Y-78898600D02*
X112076100Y-79123600D01*
D11*
X109801100Y-78898600D02*
X109301100Y-79398600D01*
X110301100Y-78398600D02*
X109801100Y-78898600D01*
X109801100Y-78898600D02*
X110051100Y-78648600D01*
D37*
%TO.N,GND*%
X112801100Y-66898600D02*
X114801100Y-64898600D01*
X116936100Y-51263600D02*
X118504500Y-51263600D01*
D36*
X121214691Y-74912191D02*
X121214691Y-77498600D01*
X134668600Y-65266100D02*
X134668600Y-65783060D01*
D37*
X111801100Y-72498600D02*
X112076100Y-72498600D01*
X109633707Y-66347641D02*
X109633707Y-63565993D01*
D36*
X134918600Y-65016100D02*
X134410120Y-65524580D01*
D37*
X114801100Y-64898600D02*
X114801100Y-64398600D01*
D36*
X127801100Y-65524580D02*
X125032633Y-65524580D01*
D37*
X109633707Y-63565993D02*
X109801100Y-63398600D01*
D11*
X120030170Y-65088575D02*
X119621336Y-65497409D01*
D37*
X127901100Y-67398600D02*
X127901100Y-65624580D01*
X112076100Y-72898600D02*
X112076100Y-72773600D01*
D39*
X121044500Y-51263600D02*
X121342750Y-51263600D01*
D37*
X112076100Y-72773600D02*
X111801100Y-72498600D01*
X112076100Y-72898600D02*
X112076100Y-72498600D01*
D36*
X135751100Y-68648600D02*
X135751100Y-66865560D01*
X135751100Y-66865560D02*
X134792620Y-65907080D01*
D38*
X150852170Y-126424650D02*
X152038085Y-126424650D01*
D11*
X119621336Y-69195717D02*
X120301100Y-69875481D01*
D37*
X116401100Y-51798600D02*
X116936100Y-51263600D01*
D36*
X123301100Y-74906421D02*
X121208921Y-74906421D01*
D40*
X118504500Y-51406508D02*
X118504500Y-51263600D01*
D38*
X152775050Y-125687685D02*
X152038085Y-126424650D01*
D36*
X136036100Y-63898600D02*
X134918600Y-65016100D01*
D37*
X108514710Y-68112210D02*
X108301100Y-67898600D01*
D11*
X120301100Y-69875481D02*
X120301100Y-69898600D01*
X119621336Y-67898599D02*
X119621336Y-69195717D01*
D37*
X108514710Y-74402132D02*
X108514710Y-68112210D01*
X112076100Y-72498600D02*
X112801100Y-71773600D01*
D36*
X120301100Y-69898600D02*
X121201100Y-70798600D01*
D37*
X107801100Y-67398600D02*
X107801100Y-63398600D01*
D36*
X121201100Y-74898600D02*
X121214691Y-74912191D01*
X121208921Y-74906421D02*
X121201100Y-74898600D01*
X134918600Y-65016100D02*
X134668600Y-65266100D01*
D37*
X112801100Y-71773600D02*
X112801100Y-66898600D01*
X127901100Y-65624580D02*
X127801100Y-65524580D01*
X110951100Y-72498600D02*
X111801100Y-72498600D01*
D36*
X134410120Y-65524580D02*
X127801100Y-65524580D01*
D37*
X112076100Y-76173600D02*
X112076100Y-72898600D01*
D36*
X121201100Y-70798600D02*
X121201100Y-74898600D01*
D37*
X116401100Y-56398600D02*
X116401100Y-51798600D01*
D36*
X134792620Y-65907080D02*
X134410120Y-65524580D01*
D37*
X108301100Y-67898600D02*
X107801100Y-67398600D01*
D36*
X134668600Y-65783060D02*
X134792620Y-65907080D01*
D11*
%TO.N,/VR*%
X131301100Y-77398600D02*
X130793279Y-77398600D01*
D36*
X114551100Y-76485926D02*
X117363774Y-79298600D01*
D11*
X114076100Y-67898600D02*
X114076100Y-72092690D01*
X130793279Y-77890779D02*
X130801100Y-77898600D01*
D36*
X134076100Y-74623600D02*
X134076100Y-73398600D01*
D11*
X129793279Y-74906421D02*
X130301100Y-74398600D01*
D36*
X132301100Y-76398600D02*
X134076100Y-74623600D01*
D11*
X114076100Y-72092690D02*
X114551100Y-72567690D01*
X130793279Y-77398600D02*
X130793279Y-77890779D01*
D36*
X114551100Y-72567690D02*
X114551100Y-76485926D01*
X123214691Y-79298600D02*
X123908921Y-79298600D01*
D11*
X133851100Y-71148600D02*
X133851100Y-72287061D01*
D36*
X131301100Y-77398600D02*
X132301100Y-76398600D01*
D11*
X128301100Y-74906421D02*
X129793279Y-74906421D01*
X134076100Y-72512061D02*
X134076100Y-73398600D01*
D36*
X130801100Y-77898600D02*
X131301100Y-77398600D01*
D11*
X128301100Y-74906421D02*
X130793279Y-77398600D01*
X133851100Y-72287061D02*
X134076100Y-72512061D01*
D36*
X129401100Y-79298600D02*
X130301100Y-78398600D01*
D11*
X130301100Y-74398600D02*
X130301100Y-72898600D01*
D36*
X119214691Y-79298600D02*
X123214691Y-79298600D01*
X130301100Y-78398600D02*
X130801100Y-77898600D01*
X123214691Y-79298600D02*
X129401100Y-79298600D01*
X117363774Y-79298600D02*
X119214691Y-79298600D01*
D41*
%TO.N,/NetR10_2*%
X147801100Y-126398600D02*
X149327170Y-126398600D01*
D37*
%TO.N,/TRIGGER_OUT*%
X110301100Y-59898600D02*
X109801100Y-59898600D01*
X110451100Y-59898600D02*
X110951100Y-59398600D01*
X117301100Y-49398600D02*
X122301100Y-49398600D01*
X122801100Y-49898600D02*
X122801100Y-50480200D01*
X110951100Y-59898600D02*
X110301100Y-59898600D01*
X110951100Y-59398600D02*
X110951100Y-57248600D01*
X122801100Y-50480200D02*
X123584500Y-51263600D01*
X110951100Y-60398600D02*
X110951100Y-59898600D01*
X110951100Y-70298600D02*
X110951100Y-60398600D01*
X110951100Y-57248600D02*
X115301100Y-52898600D01*
X122301100Y-49398600D02*
X122801100Y-49898600D01*
X110951100Y-59898600D02*
X110951100Y-59398600D01*
X115301100Y-52898600D02*
X115301100Y-51398600D01*
X110301100Y-59898600D02*
X110451100Y-59898600D01*
X115301100Y-51398600D02*
X117301100Y-49398600D01*
X110451100Y-59898600D02*
X110951100Y-60398600D01*
D11*
%TO.N,Net-(U6-SS_TR)*%
X120446336Y-67898599D02*
X122301099Y-67898599D01*
X123853914Y-67898600D02*
X124427934Y-67324580D01*
X122301099Y-67898599D02*
X122301100Y-67898600D01*
X122301100Y-67898600D02*
X123853914Y-67898600D01*
X124427934Y-67324580D02*
X125032633Y-67324580D01*
%TO.N,Net-(U6-FB)*%
X124554178Y-68659499D02*
X125801100Y-69906421D01*
X130301100Y-71098600D02*
X130301100Y-70398600D01*
X130301100Y-70398600D02*
X129808921Y-69906421D01*
X129808921Y-69906421D02*
X125801100Y-69906421D01*
X120121333Y-68659499D02*
X124554178Y-68659499D01*
D37*
%TO.N,/EN*%
X123584500Y-53803600D02*
X122576100Y-54812000D01*
X122576100Y-54812000D02*
X122576100Y-56398600D01*
X121194373Y-56878600D02*
X122096100Y-56878600D01*
X123770598Y-53989698D02*
X123584500Y-53803600D01*
X122096100Y-56878600D02*
X122576100Y-56398600D01*
X123801100Y-54020200D02*
X123584500Y-53803600D01*
%TO.N,/CS*%
X129301100Y-56980200D02*
X126124500Y-53803600D01*
X134801100Y-67623600D02*
X134801100Y-68648600D01*
X129301100Y-64398600D02*
X129301100Y-56980200D01*
X131556125Y-66643575D02*
X133821075Y-66643575D01*
X133821075Y-66643575D02*
X134801100Y-67623600D01*
D11*
%TO.N,Net-(U4-ILIM)*%
X120544373Y-58918600D02*
X120544373Y-59655327D01*
X120544373Y-59655327D02*
X120469372Y-59730328D01*
X120469372Y-59730328D02*
X120469372Y-61209901D01*
%TO.N,Net-(U4-~{FAULT})*%
X121194373Y-59947744D02*
X121194373Y-58918600D01*
%TO.N,Net-(U6-COMP_FSET)*%
X120121336Y-67137699D02*
X123119745Y-67137699D01*
X122948072Y-67137699D02*
X123126446Y-66959325D01*
X123119745Y-67137699D02*
X123123460Y-67133984D01*
%TO.N,Net-(U6-PG)*%
X115526100Y-67898600D02*
X115526100Y-67123600D01*
X117796336Y-67898599D02*
X115526101Y-67898599D01*
X115526100Y-67123600D02*
X114801100Y-66398600D01*
X115526101Y-67898599D02*
X115526100Y-67898600D01*
D36*
%TO.N,Net-(DIR_PW1-Pin_1)*%
X138631100Y-76123600D02*
X138801100Y-75953600D01*
X148301100Y-63898600D02*
X141801100Y-70398600D01*
%TD*%
M02*
