0
SECTION
2
HEADER
9
$INSUNITS
70
4
9
$ACADVER
1
AC1014
9
$HANDSEED
5
FFFF
0
ENDSEC
0
SECTION
2
TABLES
0
TABLE
2
VPORT
5
8
100
AcDbSymbolTable
0
ENDTAB
0
TABLE
2
LTYPE
5
5
100
AcDbSymbolTable
0
LTYPE
5
14
100
AcDbSymbolTableRecord
100
AcDbLinetypeTableRecord
2
BYBLOCK
70
0
0
LTYPE
5
15
100
AcDbSymbolTableRecord
100
AcDbLinetypeTableRecord
2
BYLAYER
70
0
0
LTYPE
5
16
100
AcDbSymbolTableRecord
100
AcDbLinetypeTableRecord
2
DASHED
70
0
3
Dashed __ __ __ __ __ __ __ __ __ __ __ __ __ _
72
65
73
2
40
0.75
49
0.5
74
0
49
-0.25
74
0
0
ENDTAB
0
TABLE
2
LAYER
5
2
100
AcDbSymbolTable
70
2
0
LAYER
5
50
100
AcDbSymbolTableRecord
100
AcDbLayerTableRecord
2
0
70
0
62
7
6
CONTINUOUS
0
ENDTAB
0
TABLE
2
STYLE
5
3
100
AcDbSymbolTable
70
1
0
STYLE
5
11
100
AcDbSymbolTableRecord
100
AcDbTextStyleTableRecord
2
STANDARD
70
0
0
ENDTAB
0
TABLE
2
VIEW
5
6
100
AcDbSymbolTable
70
0
0
ENDTAB
0
TABLE
2
UCS
5
7
100
AcDbSymbolTable
70
0
0
ENDTAB
0
TABLE
2
APPID
5
9
100
AcDbSymbolTable
70
2
0
APPID
5
12
100
AcDbSymbolTableRecord
100
AcDbRegAppTableRecord
2
ACAD
70
0
0
ENDTAB
0
TABLE
2
DIMSTYLE
5
A
100
AcDbSymbolTable
70
1
0
ENDTAB
0
TABLE
2
BLOCK_RECORD
5
1
100
AcDbSymbolTable
70
1
0
BLOCK_RECORD
5
1F
100
AcDbSymbolTableRecord
100
AcDbBlockTableRecord
2
*MODEL_SPACE
0
BLOCK_RECORD
5
1B
100
AcDbSymbolTableRecord
100
AcDbBlockTableRecord
2
*PAPER_SPACE
0
ENDTAB
0
ENDSEC
0
SECTION
2
BLOCKS
0
BLOCK
5
20
100
AcDbEntity
100
AcDbBlockBegin
2
*MODEL_SPACE
0
ENDBLK
5
21
100
AcDbEntity
100
AcDbBlockEnd
0
BLOCK
5
1C
100
AcDbEntity
100
AcDbBlockBegin
2
*PAPER_SPACE
0
ENDBLK
5
1D
100
AcDbEntity
100
AcDbBlockEnd
0
ENDSEC
0
SECTION
2
ENTITIES
0
CIRCLE
5
100
100
AcDbEntity
8
0
100
AcDbCircle
10
81.858488914799992
20
238.20228121349999
30
0
40
0.50799999999998136
210
0
220
0
230
1
0
CIRCLE
5
101
100
AcDbEntity
8
0
100
AcDbCircle
10
79.3184889148
20
238.20228121349999
30
0
40
0.50799999999999557
210
0
220
0
230
1
0
CIRCLE
5
102
100
AcDbEntity
8
0
100
AcDbCircle
10
76.778488914800008
20
238.20228121349999
30
0
40
0.50799999999999557
210
0
220
0
230
1
0
CIRCLE
5
103
100
AcDbEntity
8
0
100
AcDbCircle
10
74.238488914800001
20
238.20228121349999
30
0
40
0.50799999999999557
210
0
220
0
230
1
0
CIRCLE
5
104
100
AcDbEntity
8
0
100
AcDbCircle
10
145.35848891480001
20
238.20228121349999
30
0
40
1.5900000000000036
210
0
220
0
230
1
0
CIRCLE
5
105
100
AcDbEntity
8
0
100
AcDbCircle
10
65.348488914800001
20
238.20228121349999
30
0
40
1.5900000000000036
210
0
220
0
230
1
0
CIRCLE
5
106
100
AcDbEntity
8
0
100
AcDbCircle
10
65.348488914800001
20
152.4722812135
30
0
40
1.5900000000000185
210
0
220
0
230
1
0
CIRCLE
5
107
100
AcDbEntity
8
0
100
AcDbCircle
10
145.35848891480001
20
152.4722812135
30
0
40
1.5900000000000036
210
0
220
0
230
1
0
LWPOLYLINE
5
108
100
AcDbEntity
8
0
100
AcDbPolyline
90
40
70
1
43
0.0
10
150.15348891479999
20
185.20228121349999
42
-0.41421356237307771
10
151.35348891479998
20
184.0022812135
10
151.35348891479998
20
148.5922812135
42
-0.41421356237310375
10
150.15348891479999
20
147.39228121350004
10
117.85848891480001
20
147.39228121349996
42
-0.41421356237309503
10
116.65848891479999
20
148.5922812135
10
116.65848891480003
20
149.1222812135
42
0.41421356237309503
10
115.4584889148
20
150.32228121350005
10
97.538488914800013
20
150.32228121349999
42
0.41421356237309076
10
96.338488914799996
20
149.1222812135
10
96.338488914799996
20
148.5922812135
42
-0.41421356237310375
10
95.138488914800007
20
147.39228121349996
10
60.553488914799999
20
147.39228121349996
42
-0.41421356237309076
10
59.353488914800003
20
148.5922812135
10
59.353488914799975
20
184.0022812135
42
-0.41421356237307339
10
60.553488914799999
20
185.20228121349999
10
61.073488914800002
20
185.20228121349987
42
0.41421356237309503
10
62.273488914800126
20
186.40228121349998
10
62.273488914799998
20
204.27228121349998
42
0.4142135623731189
10
61.073488914800002
20
205.47228121350003
10
60.553488914799999
20
205.47228121350003
42
-0.41421356237309503
10
59.353488914800003
20
206.67228121350001
10
59.353488914799975
20
242.08228121350001
42
-0.41421356237307549
10
60.553488914799999
20
243.28228121350003
10
95.138488914800007
20
243.28228121350006
42
-0.41421356237309503
10
96.338488914799996
20
242.08228121350001
10
96.338488914799996
20
241.55228121350001
42
0.41421356237312101
10
97.538488914800013
20
240.35228121350002
10
115.4584889148
20
240.35228121350002
42
0.41421356237309936
10
116.65848891480003
20
241.55228121350001
10
116.65848891480005
20
242.08228121350001
42
-0.41421356237309076
10
117.85848891480001
20
243.28228121349997
10
150.15348891479999
20
243.28228121350006
42
-0.41421356237309503
10
151.35348891479998
20
242.08228121350001
10
151.35348891479998
20
206.67228121350001
42
-0.41421356237309503
10
150.15348891479999
20
205.47228121350003
10
149.63348891479998
20
205.47228121350003
42
0.41421356237308204
10
148.43348891479999
20
204.27228121349998
10
148.43348891479997
20
186.40228121349998
42
0.41421356237309936
10
149.63348891479998
20
185.20228121350002
0
CIRCLE
5
109
100
AcDbEntity
8
0
100
AcDbCircle
10
64.972688914799988
20
162.33728121350001
30
0
40
1.784999999999989
210
0
220
0
230
1
0
CIRCLE
5
110
100
AcDbEntity
8
0
100
AcDbCircle
10
97.472688914799988
20
180.68465229560002
30
0
40
0.99999999999999756
210
0
220
0
230
1
0
CIRCLE
5
111
100
AcDbEntity
8
0
100
AcDbCircle
10
145.73348891480003
20
228.33728121349998
30
0
40
1.7850000000000033
210
0
220
0
230
1
0
LWPOLYLINE
5
112
100
AcDbEntity
8
0
100
AcDbPolyline
90
4
70
1
43
0.0
10
109.98348891479999
20
209.98728121349998
10
109.98348891479999
20
203.48728121350001
42
0.99999999999999989
10
116.48348891480005
20
203.48728121350001
10
116.48348891480005
20
209.98728121349998
42
0.99999999999999989
0
CIRCLE
5
113
100
AcDbEntity
8
0
100
AcDbCircle
10
113.23348891480001
20
209.98728121349998
30
0
40
0.99999999999999756
210
0
220
0
230
1
0
CIRCLE
5
114
100
AcDbEntity
8
0
100
AcDbCircle
10
137.23348891480001
20
191.83728121349998
30
0
40
1.5499999999999781
210
0
220
0
230
1
0
CIRCLE
5
115
100
AcDbEntity
8
0
100
AcDbCircle
10
117.73348891479999
20
225.83728121349998
30
0
40
1.5499999999999827
210
0
220
0
230
1
0
CIRCLE
5
116
100
AcDbEntity
8
0
100
AcDbCircle
10
97.572688914800011
20
202.33728121349998
30
0
40
1.2999999999999832
210
0
220
0
230
1
0
CIRCLE
5
117
100
AcDbEntity
8
0
100
AcDbCircle
10
89.572688914799983
20
202.33728121349998
30
0
40
1.2999999999999832
210
0
220
0
230
1
0
CIRCLE
5
118
100
AcDbEntity
8
0
100
AcDbCircle
10
73.472688914799988
20
198.83728121350001
30
0
40
1.5500000000000047
210
0
220
0
230
1
0
CIRCLE
5
119
100
AcDbEntity
8
0
100
AcDbCircle
10
64.872688914799994
20
198.83728121350001
30
0
40
1.6000000000000048
210
0
220
0
230
1
0
CIRCLE
5
120
100
AcDbEntity
8
0
100
AcDbCircle
10
145.8334889148
20
191.83728121349998
30
0
40
1.6000000000000048
210
0
220
0
230
1
0
CIRCLE
5
121
100
AcDbEntity
8
0
100
AcDbCircle
10
121.13348891480001
20
188.33728121349998
30
0
40
1.3000000000000331
210
0
220
0
230
1
0
CIRCLE
5
122
100
AcDbEntity
8
0
100
AcDbCircle
10
113.13348891480001
20
188.33728121349998
30
0
40
1.3000000000000387
210
0
220
0
230
1
0
LWPOLYLINE
5
123
100
AcDbEntity
8
0
100
AcDbPolyline
90
4
70
1
43
0.0
10
100.72268891480002
20
187.18465229560002
42
0.99999999999999989
10
94.22268891479996
20
187.18465229560002
10
94.22268891479996
20
180.68465229560002
42
0.99999999999999989
10
100.72268891480002
20
180.68465229560002
0
CIRCLE
5
124
100
AcDbEntity
8
0
100
AcDbCircle
10
92.972688914800003
20
164.83728121350001
30
0
40
1.5500000000000047
210
0
220
0
230
1
0
CIRCLE
5
125
100
AcDbEntity
8
0
100
AcDbCircle
10
97.472688914799988
20
187.18465229560002
30
0
40
1.1010977950983332
210
0
220
0
230
1
0
CIRCLE
5
126
100
AcDbEntity
8
0
100
AcDbCircle
10
113.23348891480002
20
203.48728121350001
30
0
40
1.1010977950983898
210
0
220
0
230
1
0
CIRCLE
5
127
100
AcDbEntity
8
0
100
AcDbCircle
10
102.29268891479998
20
177.9546522956
30
0
40
0.65000000000000002
210
0
220
0
230
1
0
CIRCLE
5
128
100
AcDbEntity
8
0
100
AcDbCircle
10
102.29268891479998
20
175.41465229560001
30
0
40
0.65000000000000002
210
0
220
0
230
1
0
CIRCLE
5
129
100
AcDbEntity
8
0
100
AcDbCircle
10
102.29268891479998
20
172.87465229560001
30
0
40
0.65000000000000002
210
0
220
0
230
1
0
CIRCLE
5
130
100
AcDbEntity
8
0
100
AcDbCircle
10
102.29268891479998
20
170.33465229559999
30
0
40
0.65000000000000002
210
0
220
0
230
1
0
CIRCLE
5
131
100
AcDbEntity
8
0
100
AcDbCircle
10
102.29268891479998
20
167.7946522956
30
0
40
0.65000000000000002
210
0
220
0
230
1
0
CIRCLE
5
132
100
AcDbEntity
8
0
100
AcDbCircle
10
102.29268891479998
20
165.25465229560001
30
0
40
0.65000000000000002
210
0
220
0
230
1
0
CIRCLE
5
133
100
AcDbEntity
8
0
100
AcDbCircle
10
108.41348891480003
20
212.71728121349997
30
0
40
0.65000000000000002
210
0
220
0
230
1
0
CIRCLE
5
134
100
AcDbEntity
8
0
100
AcDbCircle
10
108.41348891480003
20
215.25728121349999
30
0
40
0.65000000000000002
210
0
220
0
230
1
0
CIRCLE
5
135
100
AcDbEntity
8
0
100
AcDbCircle
10
108.41348891480003
20
217.79728121349996
30
0
40
0.65000000000000002
210
0
220
0
230
1
0
CIRCLE
5
136
100
AcDbEntity
8
0
100
AcDbCircle
10
108.41348891480003
20
220.33728121349998
30
0
40
0.65000000000000002
210
0
220
0
230
1
0
CIRCLE
5
137
100
AcDbEntity
8
0
100
AcDbCircle
10
108.41348891480003
20
222.8772812135
30
0
40
0.65000000000000002
210
0
220
0
230
1
0
CIRCLE
5
138
100
AcDbEntity
8
0
100
AcDbCircle
10
108.41348891480003
20
225.41728121349996
30
0
40
0.65000000000000002
210
0
220
0
230
1
0
ENDSEC
0
SECTION
2
OBJECTS
0
DICTIONARY
5
C
100
AcDbDictionary
3
ACAD_GROUP
350
D
3
ACAD_MLINESTYLE
350
17
0
DICTIONARY
5
D
100
AcDbDictionary
0
DICTIONARY
5
1A
330
C
100
AcDbDictionary
0
DICTIONARY
5
17
100
AcDbDictionary
0
ENDSEC
0
EOF
