%TF.GenerationSoftware,KiCad,Pcbnew,8.0.8+dfsg-1*%
%TF.CreationDate,2025-07-13T00:01:04+05:30*%
%TF.ProjectId,resistor_board,72657369-7374-46f7-925f-626f6172642e,rev?*%
%TF.SameCoordinates,Original*%
%TF.FileFunction,Legend,Top*%
%TF.FilePolarity,Positive*%
%FSLAX46Y46*%
G04 Gerber Fmt 4.6, Leading zero omitted, Abs format (unit mm)*
G04 Created by KiCad (PCBNEW 8.0.8+dfsg-1) date 2025-07-13 00:01:04*
%MOMM*%
%LPD*%
G01*
G04 APERTURE LIST*
%ADD10C,0.100000*%
%ADD11C,0.150000*%
%ADD12C,0.120000*%
%ADD13C,1.320000*%
G04 APERTURE END LIST*
D10*
X124421408Y-66907828D02*
X124421408Y-67384019D01*
X124088075Y-66384019D02*
X124421408Y-66907828D01*
X124421408Y-66907828D02*
X124754741Y-66384019D01*
X125088075Y-67288780D02*
X125135694Y-67336400D01*
X125135694Y-67336400D02*
X125088075Y-67384019D01*
X125088075Y-67384019D02*
X125040456Y-67336400D01*
X125040456Y-67336400D02*
X125088075Y-67288780D01*
X125088075Y-67288780D02*
X125088075Y-67384019D01*
X125564265Y-66384019D02*
X125564265Y-67193542D01*
X125564265Y-67193542D02*
X125611884Y-67288780D01*
X125611884Y-67288780D02*
X125659503Y-67336400D01*
X125659503Y-67336400D02*
X125754741Y-67384019D01*
X125754741Y-67384019D02*
X125945217Y-67384019D01*
X125945217Y-67384019D02*
X126040455Y-67336400D01*
X126040455Y-67336400D02*
X126088074Y-67288780D01*
X126088074Y-67288780D02*
X126135693Y-67193542D01*
X126135693Y-67193542D02*
X126135693Y-66384019D01*
X126611884Y-67288780D02*
X126659503Y-67336400D01*
X126659503Y-67336400D02*
X126611884Y-67384019D01*
X126611884Y-67384019D02*
X126564265Y-67336400D01*
X126564265Y-67336400D02*
X126611884Y-67288780D01*
X126611884Y-67288780D02*
X126611884Y-67384019D01*
X127088074Y-67384019D02*
X127088074Y-66384019D01*
X127088074Y-66384019D02*
X127469026Y-66384019D01*
X127469026Y-66384019D02*
X127564264Y-66431638D01*
X127564264Y-66431638D02*
X127611883Y-66479257D01*
X127611883Y-66479257D02*
X127659502Y-66574495D01*
X127659502Y-66574495D02*
X127659502Y-66717352D01*
X127659502Y-66717352D02*
X127611883Y-66812590D01*
X127611883Y-66812590D02*
X127564264Y-66860209D01*
X127564264Y-66860209D02*
X127469026Y-66907828D01*
X127469026Y-66907828D02*
X127088074Y-66907828D01*
X128088074Y-67288780D02*
X128135693Y-67336400D01*
X128135693Y-67336400D02*
X128088074Y-67384019D01*
X128088074Y-67384019D02*
X128040455Y-67336400D01*
X128040455Y-67336400D02*
X128088074Y-67288780D01*
X128088074Y-67288780D02*
X128088074Y-67384019D01*
X128611883Y-67336400D02*
X128611883Y-67384019D01*
X128611883Y-67384019D02*
X128564264Y-67479257D01*
X128564264Y-67479257D02*
X128516645Y-67526876D01*
X129802359Y-67384019D02*
X129802359Y-66384019D01*
X130278549Y-67384019D02*
X130278549Y-66384019D01*
X130611882Y-66384019D02*
X131183310Y-66384019D01*
X130897596Y-67384019D02*
X130897596Y-66384019D01*
X131849977Y-66860209D02*
X131992834Y-66907828D01*
X131992834Y-66907828D02*
X132040453Y-66955447D01*
X132040453Y-66955447D02*
X132088072Y-67050685D01*
X132088072Y-67050685D02*
X132088072Y-67193542D01*
X132088072Y-67193542D02*
X132040453Y-67288780D01*
X132040453Y-67288780D02*
X131992834Y-67336400D01*
X131992834Y-67336400D02*
X131897596Y-67384019D01*
X131897596Y-67384019D02*
X131516644Y-67384019D01*
X131516644Y-67384019D02*
X131516644Y-66384019D01*
X131516644Y-66384019D02*
X131849977Y-66384019D01*
X131849977Y-66384019D02*
X131945215Y-66431638D01*
X131945215Y-66431638D02*
X131992834Y-66479257D01*
X131992834Y-66479257D02*
X132040453Y-66574495D01*
X132040453Y-66574495D02*
X132040453Y-66669733D01*
X132040453Y-66669733D02*
X131992834Y-66764971D01*
X131992834Y-66764971D02*
X131945215Y-66812590D01*
X131945215Y-66812590D02*
X131849977Y-66860209D01*
X131849977Y-66860209D02*
X131516644Y-66860209D01*
X132469025Y-67336400D02*
X132611882Y-67384019D01*
X132611882Y-67384019D02*
X132849977Y-67384019D01*
X132849977Y-67384019D02*
X132945215Y-67336400D01*
X132945215Y-67336400D02*
X132992834Y-67288780D01*
X132992834Y-67288780D02*
X133040453Y-67193542D01*
X133040453Y-67193542D02*
X133040453Y-67098304D01*
X133040453Y-67098304D02*
X132992834Y-67003066D01*
X132992834Y-67003066D02*
X132945215Y-66955447D01*
X132945215Y-66955447D02*
X132849977Y-66907828D01*
X132849977Y-66907828D02*
X132659501Y-66860209D01*
X132659501Y-66860209D02*
X132564263Y-66812590D01*
X132564263Y-66812590D02*
X132516644Y-66764971D01*
X132516644Y-66764971D02*
X132469025Y-66669733D01*
X132469025Y-66669733D02*
X132469025Y-66574495D01*
X132469025Y-66574495D02*
X132516644Y-66479257D01*
X132516644Y-66479257D02*
X132564263Y-66431638D01*
X132564263Y-66431638D02*
X132659501Y-66384019D01*
X132659501Y-66384019D02*
X132897596Y-66384019D01*
X132897596Y-66384019D02*
X133040453Y-66431638D01*
X133421406Y-67336400D02*
X133564263Y-67384019D01*
X133564263Y-67384019D02*
X133802358Y-67384019D01*
X133802358Y-67384019D02*
X133897596Y-67336400D01*
X133897596Y-67336400D02*
X133945215Y-67288780D01*
X133945215Y-67288780D02*
X133992834Y-67193542D01*
X133992834Y-67193542D02*
X133992834Y-67098304D01*
X133992834Y-67098304D02*
X133945215Y-67003066D01*
X133945215Y-67003066D02*
X133897596Y-66955447D01*
X133897596Y-66955447D02*
X133802358Y-66907828D01*
X133802358Y-66907828D02*
X133611882Y-66860209D01*
X133611882Y-66860209D02*
X133516644Y-66812590D01*
X133516644Y-66812590D02*
X133469025Y-66764971D01*
X133469025Y-66764971D02*
X133421406Y-66669733D01*
X133421406Y-66669733D02*
X133421406Y-66574495D01*
X133421406Y-66574495D02*
X133469025Y-66479257D01*
X133469025Y-66479257D02*
X133516644Y-66431638D01*
X133516644Y-66431638D02*
X133611882Y-66384019D01*
X133611882Y-66384019D02*
X133849977Y-66384019D01*
X133849977Y-66384019D02*
X133992834Y-66431638D01*
X134421406Y-67384019D02*
X134421406Y-66384019D01*
X134421406Y-66384019D02*
X134802358Y-66384019D01*
X134802358Y-66384019D02*
X134897596Y-66431638D01*
X134897596Y-66431638D02*
X134945215Y-66479257D01*
X134945215Y-66479257D02*
X134992834Y-66574495D01*
X134992834Y-66574495D02*
X134992834Y-66717352D01*
X134992834Y-66717352D02*
X134945215Y-66812590D01*
X134945215Y-66812590D02*
X134897596Y-66860209D01*
X134897596Y-66860209D02*
X134802358Y-66907828D01*
X134802358Y-66907828D02*
X134421406Y-66907828D01*
X120405499Y-64812304D02*
X120881689Y-64812304D01*
X120310261Y-65098019D02*
X120643594Y-64098019D01*
X120643594Y-64098019D02*
X120976927Y-65098019D01*
X121310261Y-65098019D02*
X121310261Y-64098019D01*
X121310261Y-64098019D02*
X121548356Y-64098019D01*
X121548356Y-64098019D02*
X121691213Y-64145638D01*
X121691213Y-64145638D02*
X121786451Y-64240876D01*
X121786451Y-64240876D02*
X121834070Y-64336114D01*
X121834070Y-64336114D02*
X121881689Y-64526590D01*
X121881689Y-64526590D02*
X121881689Y-64669447D01*
X121881689Y-64669447D02*
X121834070Y-64859923D01*
X121834070Y-64859923D02*
X121786451Y-64955161D01*
X121786451Y-64955161D02*
X121691213Y-65050400D01*
X121691213Y-65050400D02*
X121548356Y-65098019D01*
X121548356Y-65098019D02*
X121310261Y-65098019D01*
X122262642Y-65050400D02*
X122405499Y-65098019D01*
X122405499Y-65098019D02*
X122643594Y-65098019D01*
X122643594Y-65098019D02*
X122738832Y-65050400D01*
X122738832Y-65050400D02*
X122786451Y-65002780D01*
X122786451Y-65002780D02*
X122834070Y-64907542D01*
X122834070Y-64907542D02*
X122834070Y-64812304D01*
X122834070Y-64812304D02*
X122786451Y-64717066D01*
X122786451Y-64717066D02*
X122738832Y-64669447D01*
X122738832Y-64669447D02*
X122643594Y-64621828D01*
X122643594Y-64621828D02*
X122453118Y-64574209D01*
X122453118Y-64574209D02*
X122357880Y-64526590D01*
X122357880Y-64526590D02*
X122310261Y-64478971D01*
X122310261Y-64478971D02*
X122262642Y-64383733D01*
X122262642Y-64383733D02*
X122262642Y-64288495D01*
X122262642Y-64288495D02*
X122310261Y-64193257D01*
X122310261Y-64193257D02*
X122357880Y-64145638D01*
X122357880Y-64145638D02*
X122453118Y-64098019D01*
X122453118Y-64098019D02*
X122691213Y-64098019D01*
X122691213Y-64098019D02*
X122834070Y-64145638D01*
X124595975Y-65098019D02*
X124262642Y-64621828D01*
X124024547Y-65098019D02*
X124024547Y-64098019D01*
X124024547Y-64098019D02*
X124405499Y-64098019D01*
X124405499Y-64098019D02*
X124500737Y-64145638D01*
X124500737Y-64145638D02*
X124548356Y-64193257D01*
X124548356Y-64193257D02*
X124595975Y-64288495D01*
X124595975Y-64288495D02*
X124595975Y-64431352D01*
X124595975Y-64431352D02*
X124548356Y-64526590D01*
X124548356Y-64526590D02*
X124500737Y-64574209D01*
X124500737Y-64574209D02*
X124405499Y-64621828D01*
X124405499Y-64621828D02*
X124024547Y-64621828D01*
X125405499Y-65050400D02*
X125310261Y-65098019D01*
X125310261Y-65098019D02*
X125119785Y-65098019D01*
X125119785Y-65098019D02*
X125024547Y-65050400D01*
X125024547Y-65050400D02*
X124976928Y-64955161D01*
X124976928Y-64955161D02*
X124976928Y-64574209D01*
X124976928Y-64574209D02*
X125024547Y-64478971D01*
X125024547Y-64478971D02*
X125119785Y-64431352D01*
X125119785Y-64431352D02*
X125310261Y-64431352D01*
X125310261Y-64431352D02*
X125405499Y-64478971D01*
X125405499Y-64478971D02*
X125453118Y-64574209D01*
X125453118Y-64574209D02*
X125453118Y-64669447D01*
X125453118Y-64669447D02*
X124976928Y-64764685D01*
X125834071Y-65050400D02*
X125929309Y-65098019D01*
X125929309Y-65098019D02*
X126119785Y-65098019D01*
X126119785Y-65098019D02*
X126215023Y-65050400D01*
X126215023Y-65050400D02*
X126262642Y-64955161D01*
X126262642Y-64955161D02*
X126262642Y-64907542D01*
X126262642Y-64907542D02*
X126215023Y-64812304D01*
X126215023Y-64812304D02*
X126119785Y-64764685D01*
X126119785Y-64764685D02*
X125976928Y-64764685D01*
X125976928Y-64764685D02*
X125881690Y-64717066D01*
X125881690Y-64717066D02*
X125834071Y-64621828D01*
X125834071Y-64621828D02*
X125834071Y-64574209D01*
X125834071Y-64574209D02*
X125881690Y-64478971D01*
X125881690Y-64478971D02*
X125976928Y-64431352D01*
X125976928Y-64431352D02*
X126119785Y-64431352D01*
X126119785Y-64431352D02*
X126215023Y-64478971D01*
X126691214Y-65098019D02*
X126691214Y-64431352D01*
X126691214Y-64098019D02*
X126643595Y-64145638D01*
X126643595Y-64145638D02*
X126691214Y-64193257D01*
X126691214Y-64193257D02*
X126738833Y-64145638D01*
X126738833Y-64145638D02*
X126691214Y-64098019D01*
X126691214Y-64098019D02*
X126691214Y-64193257D01*
X127119785Y-65050400D02*
X127215023Y-65098019D01*
X127215023Y-65098019D02*
X127405499Y-65098019D01*
X127405499Y-65098019D02*
X127500737Y-65050400D01*
X127500737Y-65050400D02*
X127548356Y-64955161D01*
X127548356Y-64955161D02*
X127548356Y-64907542D01*
X127548356Y-64907542D02*
X127500737Y-64812304D01*
X127500737Y-64812304D02*
X127405499Y-64764685D01*
X127405499Y-64764685D02*
X127262642Y-64764685D01*
X127262642Y-64764685D02*
X127167404Y-64717066D01*
X127167404Y-64717066D02*
X127119785Y-64621828D01*
X127119785Y-64621828D02*
X127119785Y-64574209D01*
X127119785Y-64574209D02*
X127167404Y-64478971D01*
X127167404Y-64478971D02*
X127262642Y-64431352D01*
X127262642Y-64431352D02*
X127405499Y-64431352D01*
X127405499Y-64431352D02*
X127500737Y-64478971D01*
X127834071Y-64431352D02*
X128215023Y-64431352D01*
X127976928Y-64098019D02*
X127976928Y-64955161D01*
X127976928Y-64955161D02*
X128024547Y-65050400D01*
X128024547Y-65050400D02*
X128119785Y-65098019D01*
X128119785Y-65098019D02*
X128215023Y-65098019D01*
X128691214Y-65098019D02*
X128595976Y-65050400D01*
X128595976Y-65050400D02*
X128548357Y-65002780D01*
X128548357Y-65002780D02*
X128500738Y-64907542D01*
X128500738Y-64907542D02*
X128500738Y-64621828D01*
X128500738Y-64621828D02*
X128548357Y-64526590D01*
X128548357Y-64526590D02*
X128595976Y-64478971D01*
X128595976Y-64478971D02*
X128691214Y-64431352D01*
X128691214Y-64431352D02*
X128834071Y-64431352D01*
X128834071Y-64431352D02*
X128929309Y-64478971D01*
X128929309Y-64478971D02*
X128976928Y-64526590D01*
X128976928Y-64526590D02*
X129024547Y-64621828D01*
X129024547Y-64621828D02*
X129024547Y-64907542D01*
X129024547Y-64907542D02*
X128976928Y-65002780D01*
X128976928Y-65002780D02*
X128929309Y-65050400D01*
X128929309Y-65050400D02*
X128834071Y-65098019D01*
X128834071Y-65098019D02*
X128691214Y-65098019D01*
X129453119Y-65098019D02*
X129453119Y-64431352D01*
X129453119Y-64621828D02*
X129500738Y-64526590D01*
X129500738Y-64526590D02*
X129548357Y-64478971D01*
X129548357Y-64478971D02*
X129643595Y-64431352D01*
X129643595Y-64431352D02*
X129738833Y-64431352D01*
X131167405Y-64574209D02*
X131310262Y-64621828D01*
X131310262Y-64621828D02*
X131357881Y-64669447D01*
X131357881Y-64669447D02*
X131405500Y-64764685D01*
X131405500Y-64764685D02*
X131405500Y-64907542D01*
X131405500Y-64907542D02*
X131357881Y-65002780D01*
X131357881Y-65002780D02*
X131310262Y-65050400D01*
X131310262Y-65050400D02*
X131215024Y-65098019D01*
X131215024Y-65098019D02*
X130834072Y-65098019D01*
X130834072Y-65098019D02*
X130834072Y-64098019D01*
X130834072Y-64098019D02*
X131167405Y-64098019D01*
X131167405Y-64098019D02*
X131262643Y-64145638D01*
X131262643Y-64145638D02*
X131310262Y-64193257D01*
X131310262Y-64193257D02*
X131357881Y-64288495D01*
X131357881Y-64288495D02*
X131357881Y-64383733D01*
X131357881Y-64383733D02*
X131310262Y-64478971D01*
X131310262Y-64478971D02*
X131262643Y-64526590D01*
X131262643Y-64526590D02*
X131167405Y-64574209D01*
X131167405Y-64574209D02*
X130834072Y-64574209D01*
X131976929Y-65098019D02*
X131881691Y-65050400D01*
X131881691Y-65050400D02*
X131834072Y-65002780D01*
X131834072Y-65002780D02*
X131786453Y-64907542D01*
X131786453Y-64907542D02*
X131786453Y-64621828D01*
X131786453Y-64621828D02*
X131834072Y-64526590D01*
X131834072Y-64526590D02*
X131881691Y-64478971D01*
X131881691Y-64478971D02*
X131976929Y-64431352D01*
X131976929Y-64431352D02*
X132119786Y-64431352D01*
X132119786Y-64431352D02*
X132215024Y-64478971D01*
X132215024Y-64478971D02*
X132262643Y-64526590D01*
X132262643Y-64526590D02*
X132310262Y-64621828D01*
X132310262Y-64621828D02*
X132310262Y-64907542D01*
X132310262Y-64907542D02*
X132262643Y-65002780D01*
X132262643Y-65002780D02*
X132215024Y-65050400D01*
X132215024Y-65050400D02*
X132119786Y-65098019D01*
X132119786Y-65098019D02*
X131976929Y-65098019D01*
X133167405Y-65098019D02*
X133167405Y-64574209D01*
X133167405Y-64574209D02*
X133119786Y-64478971D01*
X133119786Y-64478971D02*
X133024548Y-64431352D01*
X133024548Y-64431352D02*
X132834072Y-64431352D01*
X132834072Y-64431352D02*
X132738834Y-64478971D01*
X133167405Y-65050400D02*
X133072167Y-65098019D01*
X133072167Y-65098019D02*
X132834072Y-65098019D01*
X132834072Y-65098019D02*
X132738834Y-65050400D01*
X132738834Y-65050400D02*
X132691215Y-64955161D01*
X132691215Y-64955161D02*
X132691215Y-64859923D01*
X132691215Y-64859923D02*
X132738834Y-64764685D01*
X132738834Y-64764685D02*
X132834072Y-64717066D01*
X132834072Y-64717066D02*
X133072167Y-64717066D01*
X133072167Y-64717066D02*
X133167405Y-64669447D01*
X133643596Y-65098019D02*
X133643596Y-64431352D01*
X133643596Y-64621828D02*
X133691215Y-64526590D01*
X133691215Y-64526590D02*
X133738834Y-64478971D01*
X133738834Y-64478971D02*
X133834072Y-64431352D01*
X133834072Y-64431352D02*
X133929310Y-64431352D01*
X134691215Y-65098019D02*
X134691215Y-64098019D01*
X134691215Y-65050400D02*
X134595977Y-65098019D01*
X134595977Y-65098019D02*
X134405501Y-65098019D01*
X134405501Y-65098019D02*
X134310263Y-65050400D01*
X134310263Y-65050400D02*
X134262644Y-65002780D01*
X134262644Y-65002780D02*
X134215025Y-64907542D01*
X134215025Y-64907542D02*
X134215025Y-64621828D01*
X134215025Y-64621828D02*
X134262644Y-64526590D01*
X134262644Y-64526590D02*
X134310263Y-64478971D01*
X134310263Y-64478971D02*
X134405501Y-64431352D01*
X134405501Y-64431352D02*
X134595977Y-64431352D01*
X134595977Y-64431352D02*
X134691215Y-64478971D01*
X130119786Y-74258019D02*
X130119786Y-74972304D01*
X130119786Y-74972304D02*
X130072167Y-75115161D01*
X130072167Y-75115161D02*
X129976929Y-75210400D01*
X129976929Y-75210400D02*
X129834072Y-75258019D01*
X129834072Y-75258019D02*
X129738834Y-75258019D01*
X131024548Y-74591352D02*
X131024548Y-75258019D01*
X130595977Y-74591352D02*
X130595977Y-75115161D01*
X130595977Y-75115161D02*
X130643596Y-75210400D01*
X130643596Y-75210400D02*
X130738834Y-75258019D01*
X130738834Y-75258019D02*
X130881691Y-75258019D01*
X130881691Y-75258019D02*
X130976929Y-75210400D01*
X130976929Y-75210400D02*
X131024548Y-75162780D01*
X131643596Y-75258019D02*
X131548358Y-75210400D01*
X131548358Y-75210400D02*
X131500739Y-75115161D01*
X131500739Y-75115161D02*
X131500739Y-74258019D01*
X132834073Y-74258019D02*
X132738835Y-74448495D01*
X133215025Y-74353257D02*
X133262644Y-74305638D01*
X133262644Y-74305638D02*
X133357882Y-74258019D01*
X133357882Y-74258019D02*
X133595977Y-74258019D01*
X133595977Y-74258019D02*
X133691215Y-74305638D01*
X133691215Y-74305638D02*
X133738834Y-74353257D01*
X133738834Y-74353257D02*
X133786453Y-74448495D01*
X133786453Y-74448495D02*
X133786453Y-74543733D01*
X133786453Y-74543733D02*
X133738834Y-74686590D01*
X133738834Y-74686590D02*
X133167406Y-75258019D01*
X133167406Y-75258019D02*
X133786453Y-75258019D01*
X134691215Y-74258019D02*
X134215025Y-74258019D01*
X134215025Y-74258019D02*
X134167406Y-74734209D01*
X134167406Y-74734209D02*
X134215025Y-74686590D01*
X134215025Y-74686590D02*
X134310263Y-74638971D01*
X134310263Y-74638971D02*
X134548358Y-74638971D01*
X134548358Y-74638971D02*
X134643596Y-74686590D01*
X134643596Y-74686590D02*
X134691215Y-74734209D01*
X134691215Y-74734209D02*
X134738834Y-74829447D01*
X134738834Y-74829447D02*
X134738834Y-75067542D01*
X134738834Y-75067542D02*
X134691215Y-75162780D01*
X134691215Y-75162780D02*
X134643596Y-75210400D01*
X134643596Y-75210400D02*
X134548358Y-75258019D01*
X134548358Y-75258019D02*
X134310263Y-75258019D01*
X134310263Y-75258019D02*
X134215025Y-75210400D01*
X134215025Y-75210400D02*
X134167406Y-75162780D01*
D11*
X120659919Y-73718885D02*
X121374204Y-73718885D01*
X121374204Y-73718885D02*
X121517061Y-73766504D01*
X121517061Y-73766504D02*
X121612300Y-73861742D01*
X121612300Y-73861742D02*
X121659919Y-74004599D01*
X121659919Y-74004599D02*
X121659919Y-74099837D01*
X121659919Y-72718885D02*
X121659919Y-73290313D01*
X121659919Y-73004599D02*
X120659919Y-73004599D01*
X120659919Y-73004599D02*
X120802776Y-73099837D01*
X120802776Y-73099837D02*
X120898014Y-73195075D01*
X120898014Y-73195075D02*
X120945633Y-73290313D01*
D12*
%TO.C,J1*%
X122205100Y-74715552D02*
X122205100Y-73385552D01*
X123535100Y-74715552D02*
X122205100Y-74715552D01*
X124805100Y-72055552D02*
X137565100Y-72055552D01*
X124805100Y-74715552D02*
X124805100Y-72055552D01*
X124805100Y-74715552D02*
X137565100Y-74715552D01*
X137565100Y-74715552D02*
X137565100Y-72055552D01*
%TO.C,SW1*%
D13*
X137815100Y-68781600D02*
G75*
G02*
X136495100Y-68781600I-660000J0D01*
G01*
X136495100Y-68781600D02*
G75*
G02*
X137815100Y-68781600I660000J0D01*
G01*
%TO.C,SW2*%
X137815100Y-74877600D02*
G75*
G02*
X136495100Y-74877600I-660000J0D01*
G01*
X136495100Y-74877600D02*
G75*
G02*
X137815100Y-74877600I660000J0D01*
G01*
%TD*%
M02*
