M48
; DRILL file {KiCad 8.0.4} date 2024-08-22T00:26:36+0530
; FORMAT={-:-/ absolute / inch / decimal}
; #@! TF.CreationDate,2024-08-22T00:26:36+05:30
; #@! TF.GenerationSoftware,Kicad,Pcbnew,8.0.4
; #@! TF.FileFunction,Plated,1,2,PTH
FMAT,2
INCH
; #@! TA.AperFunction,Plated,PTH,ViaDrill
T1C0.0118
; #@! TA.AperFunction,Plated,PTH,ComponentDrill
T2C0.0311
; #@! TA.AperFunction,Plated,PTH,ComponentDrill
T3C0.0394
; #@! TA.AperFunction,Plated,PTH,ComponentDrill
T4C0.0402
%
G90
G05
T1
X4.2441Y-2.496
X4.2835Y-3.0078
X4.2835Y-3.1259
X4.3229Y-2.3582
X4.3229Y-2.4173
X4.3229Y-2.496
X4.4115Y-3.1555
X4.5197Y-2.5354
X4.5197Y-2.6141
X4.7714Y-2.3601
X4.7953Y-2.5747
X5.0906Y-2.5354
X5.1693Y-3.0472
X5.1794Y-2.6238
X5.2635Y-2.6577
X5.5827Y-2.7716
X5.7008Y-4.7204
X6.0148Y-4.9483
T2
X5.567Y-4.3573
X5.567Y-4.436
X5.567Y-4.5148
X5.567Y-4.5935
X5.6457Y-4.3573
X5.6457Y-4.436
X5.6457Y-4.5148
X5.6457Y-4.5935
X5.7953Y-2.7825
X5.7953Y-2.8612
X5.7953Y-2.94
X5.7953Y-3.0187
X5.8741Y-2.7825
X5.8741Y-2.8612
X5.8741Y-2.94
X5.8741Y-3.0187
T3
X4.8544Y-2.9491
X4.9528Y-2.7522
X5.0512Y-2.9491
X5.3558Y-2.5157
X5.4558Y-2.5157
X5.4646Y-2.7903
X5.4646Y-2.8903
X5.4646Y-2.9903
X5.7386Y-2.5157
X5.8386Y-2.5157
T4
X4.6655Y-2.0183
X4.6655Y-2.1183
X4.7655Y-2.0183
X4.7655Y-2.1183
X4.8655Y-2.0183
X4.8655Y-2.1183
X4.9655Y-2.0183
X4.9655Y-2.1183
M30
