%TF.GenerationSoftware,KiCad,Pcbnew,8.0.4*%
%TF.CreationDate,2024-08-22T00:26:23+05:30*%
%TF.ProjectId,sanket 4.0,73616e6b-6574-4203-942e-302e6b696361,rev?*%
%TF.SameCoordinates,Original*%
%TF.FileFunction,Legend,Bot*%
%TF.FilePolarity,Positive*%
%FSLAX46Y46*%
G04 Gerber Fmt 4.6, Leading zero omitted, Abs format (unit mm)*
G04 Created by KiCad (PCBNEW 8.0.4) date 2024-08-22 00:26:23*
%MOMM*%
%LPD*%
G01*
G04 APERTURE LIST*
%ADD10C,0.250000*%
%ADD11C,0.150000*%
%ADD12C,0.254000*%
G04 APERTURE END LIST*
D10*
X179041388Y-48943891D02*
X178469960Y-48943891D01*
X178755674Y-49943891D02*
X178755674Y-48943891D01*
X178136626Y-49943891D02*
X178136626Y-48943891D01*
X178136626Y-48943891D02*
X177755674Y-48943891D01*
X177755674Y-48943891D02*
X177660436Y-48991510D01*
X177660436Y-48991510D02*
X177612817Y-49039129D01*
X177612817Y-49039129D02*
X177565198Y-49134367D01*
X177565198Y-49134367D02*
X177565198Y-49277224D01*
X177565198Y-49277224D02*
X177612817Y-49372462D01*
X177612817Y-49372462D02*
X177660436Y-49420081D01*
X177660436Y-49420081D02*
X177755674Y-49467700D01*
X177755674Y-49467700D02*
X178136626Y-49467700D01*
X176612817Y-49943891D02*
X177184245Y-49943891D01*
X176898531Y-49943891D02*
X176898531Y-48943891D01*
X176898531Y-48943891D02*
X176993769Y-49086748D01*
X176993769Y-49086748D02*
X177089007Y-49181986D01*
X177089007Y-49181986D02*
X177184245Y-49229605D01*
X176184245Y-49848652D02*
X176136626Y-49896272D01*
X176136626Y-49896272D02*
X176184245Y-49943891D01*
X176184245Y-49943891D02*
X176231864Y-49896272D01*
X176231864Y-49896272D02*
X176184245Y-49848652D01*
X176184245Y-49848652D02*
X176184245Y-49943891D01*
X176184245Y-49324843D02*
X176136626Y-49372462D01*
X176136626Y-49372462D02*
X176184245Y-49420081D01*
X176184245Y-49420081D02*
X176231864Y-49372462D01*
X176231864Y-49372462D02*
X176184245Y-49324843D01*
X176184245Y-49324843D02*
X176184245Y-49420081D01*
X175850912Y-48943891D02*
X175517579Y-49943891D01*
X175517579Y-49943891D02*
X175184246Y-48943891D01*
X174279484Y-49848652D02*
X174327103Y-49896272D01*
X174327103Y-49896272D02*
X174469960Y-49943891D01*
X174469960Y-49943891D02*
X174565198Y-49943891D01*
X174565198Y-49943891D02*
X174708055Y-49896272D01*
X174708055Y-49896272D02*
X174803293Y-49801033D01*
X174803293Y-49801033D02*
X174850912Y-49705795D01*
X174850912Y-49705795D02*
X174898531Y-49515319D01*
X174898531Y-49515319D02*
X174898531Y-49372462D01*
X174898531Y-49372462D02*
X174850912Y-49181986D01*
X174850912Y-49181986D02*
X174803293Y-49086748D01*
X174803293Y-49086748D02*
X174708055Y-48991510D01*
X174708055Y-48991510D02*
X174565198Y-48943891D01*
X174565198Y-48943891D02*
X174469960Y-48943891D01*
X174469960Y-48943891D02*
X174327103Y-48991510D01*
X174327103Y-48991510D02*
X174279484Y-49039129D01*
X173279484Y-49848652D02*
X173327103Y-49896272D01*
X173327103Y-49896272D02*
X173469960Y-49943891D01*
X173469960Y-49943891D02*
X173565198Y-49943891D01*
X173565198Y-49943891D02*
X173708055Y-49896272D01*
X173708055Y-49896272D02*
X173803293Y-49801033D01*
X173803293Y-49801033D02*
X173850912Y-49705795D01*
X173850912Y-49705795D02*
X173898531Y-49515319D01*
X173898531Y-49515319D02*
X173898531Y-49372462D01*
X173898531Y-49372462D02*
X173850912Y-49181986D01*
X173850912Y-49181986D02*
X173803293Y-49086748D01*
X173803293Y-49086748D02*
X173708055Y-48991510D01*
X173708055Y-48991510D02*
X173565198Y-48943891D01*
X173565198Y-48943891D02*
X173469960Y-48943891D01*
X173469960Y-48943891D02*
X173327103Y-48991510D01*
X173327103Y-48991510D02*
X173279484Y-49039129D01*
X171803293Y-50324843D02*
X171850912Y-50277224D01*
X171850912Y-50277224D02*
X171946150Y-50134367D01*
X171946150Y-50134367D02*
X171993769Y-50039129D01*
X171993769Y-50039129D02*
X172041388Y-49896272D01*
X172041388Y-49896272D02*
X172089007Y-49658176D01*
X172089007Y-49658176D02*
X172089007Y-49467700D01*
X172089007Y-49467700D02*
X172041388Y-49229605D01*
X172041388Y-49229605D02*
X171993769Y-49086748D01*
X171993769Y-49086748D02*
X171946150Y-48991510D01*
X171946150Y-48991510D02*
X171850912Y-48848652D01*
X171850912Y-48848652D02*
X171803293Y-48801033D01*
X171565197Y-49277224D02*
X171184245Y-49277224D01*
X171422340Y-48943891D02*
X171422340Y-49801033D01*
X171422340Y-49801033D02*
X171374721Y-49896272D01*
X171374721Y-49896272D02*
X171279483Y-49943891D01*
X171279483Y-49943891D02*
X171184245Y-49943891D01*
X170708054Y-49943891D02*
X170803292Y-49896272D01*
X170803292Y-49896272D02*
X170850911Y-49848652D01*
X170850911Y-49848652D02*
X170898530Y-49753414D01*
X170898530Y-49753414D02*
X170898530Y-49467700D01*
X170898530Y-49467700D02*
X170850911Y-49372462D01*
X170850911Y-49372462D02*
X170803292Y-49324843D01*
X170803292Y-49324843D02*
X170708054Y-49277224D01*
X170708054Y-49277224D02*
X170565197Y-49277224D01*
X170565197Y-49277224D02*
X170469959Y-49324843D01*
X170469959Y-49324843D02*
X170422340Y-49372462D01*
X170422340Y-49372462D02*
X170374721Y-49467700D01*
X170374721Y-49467700D02*
X170374721Y-49753414D01*
X170374721Y-49753414D02*
X170422340Y-49848652D01*
X170422340Y-49848652D02*
X170469959Y-49896272D01*
X170469959Y-49896272D02*
X170565197Y-49943891D01*
X170565197Y-49943891D02*
X170708054Y-49943891D01*
X168755673Y-49943891D02*
X168755673Y-48943891D01*
X168755673Y-49896272D02*
X168850911Y-49943891D01*
X168850911Y-49943891D02*
X169041387Y-49943891D01*
X169041387Y-49943891D02*
X169136625Y-49896272D01*
X169136625Y-49896272D02*
X169184244Y-49848652D01*
X169184244Y-49848652D02*
X169231863Y-49753414D01*
X169231863Y-49753414D02*
X169231863Y-49467700D01*
X169231863Y-49467700D02*
X169184244Y-49372462D01*
X169184244Y-49372462D02*
X169136625Y-49324843D01*
X169136625Y-49324843D02*
X169041387Y-49277224D01*
X169041387Y-49277224D02*
X168850911Y-49277224D01*
X168850911Y-49277224D02*
X168755673Y-49324843D01*
X167898530Y-49896272D02*
X167993768Y-49943891D01*
X167993768Y-49943891D02*
X168184244Y-49943891D01*
X168184244Y-49943891D02*
X168279482Y-49896272D01*
X168279482Y-49896272D02*
X168327101Y-49801033D01*
X168327101Y-49801033D02*
X168327101Y-49420081D01*
X168327101Y-49420081D02*
X168279482Y-49324843D01*
X168279482Y-49324843D02*
X168184244Y-49277224D01*
X168184244Y-49277224D02*
X167993768Y-49277224D01*
X167993768Y-49277224D02*
X167898530Y-49324843D01*
X167898530Y-49324843D02*
X167850911Y-49420081D01*
X167850911Y-49420081D02*
X167850911Y-49515319D01*
X167850911Y-49515319D02*
X168327101Y-49610557D01*
X167422339Y-49277224D02*
X167422339Y-50277224D01*
X167422339Y-49324843D02*
X167327101Y-49277224D01*
X167327101Y-49277224D02*
X167136625Y-49277224D01*
X167136625Y-49277224D02*
X167041387Y-49324843D01*
X167041387Y-49324843D02*
X166993768Y-49372462D01*
X166993768Y-49372462D02*
X166946149Y-49467700D01*
X166946149Y-49467700D02*
X166946149Y-49753414D01*
X166946149Y-49753414D02*
X166993768Y-49848652D01*
X166993768Y-49848652D02*
X167041387Y-49896272D01*
X167041387Y-49896272D02*
X167136625Y-49943891D01*
X167136625Y-49943891D02*
X167327101Y-49943891D01*
X167327101Y-49943891D02*
X167422339Y-49896272D01*
X165803291Y-49896272D02*
X165708053Y-49943891D01*
X165708053Y-49943891D02*
X165517577Y-49943891D01*
X165517577Y-49943891D02*
X165422339Y-49896272D01*
X165422339Y-49896272D02*
X165374720Y-49801033D01*
X165374720Y-49801033D02*
X165374720Y-49753414D01*
X165374720Y-49753414D02*
X165422339Y-49658176D01*
X165422339Y-49658176D02*
X165517577Y-49610557D01*
X165517577Y-49610557D02*
X165660434Y-49610557D01*
X165660434Y-49610557D02*
X165755672Y-49562938D01*
X165755672Y-49562938D02*
X165803291Y-49467700D01*
X165803291Y-49467700D02*
X165803291Y-49420081D01*
X165803291Y-49420081D02*
X165755672Y-49324843D01*
X165755672Y-49324843D02*
X165660434Y-49277224D01*
X165660434Y-49277224D02*
X165517577Y-49277224D01*
X165517577Y-49277224D02*
X165422339Y-49324843D01*
X165041386Y-49277224D02*
X164850910Y-49943891D01*
X164850910Y-49943891D02*
X164660434Y-49467700D01*
X164660434Y-49467700D02*
X164469958Y-49943891D01*
X164469958Y-49943891D02*
X164279482Y-49277224D01*
X163898529Y-49943891D02*
X163898529Y-49277224D01*
X163898529Y-48943891D02*
X163946148Y-48991510D01*
X163946148Y-48991510D02*
X163898529Y-49039129D01*
X163898529Y-49039129D02*
X163850910Y-48991510D01*
X163850910Y-48991510D02*
X163898529Y-48943891D01*
X163898529Y-48943891D02*
X163898529Y-49039129D01*
X163565196Y-49277224D02*
X163184244Y-49277224D01*
X163422339Y-48943891D02*
X163422339Y-49801033D01*
X163422339Y-49801033D02*
X163374720Y-49896272D01*
X163374720Y-49896272D02*
X163279482Y-49943891D01*
X163279482Y-49943891D02*
X163184244Y-49943891D01*
X162422339Y-49896272D02*
X162517577Y-49943891D01*
X162517577Y-49943891D02*
X162708053Y-49943891D01*
X162708053Y-49943891D02*
X162803291Y-49896272D01*
X162803291Y-49896272D02*
X162850910Y-49848652D01*
X162850910Y-49848652D02*
X162898529Y-49753414D01*
X162898529Y-49753414D02*
X162898529Y-49467700D01*
X162898529Y-49467700D02*
X162850910Y-49372462D01*
X162850910Y-49372462D02*
X162803291Y-49324843D01*
X162803291Y-49324843D02*
X162708053Y-49277224D01*
X162708053Y-49277224D02*
X162517577Y-49277224D01*
X162517577Y-49277224D02*
X162422339Y-49324843D01*
X161993767Y-49943891D02*
X161993767Y-48943891D01*
X161565196Y-49943891D02*
X161565196Y-49420081D01*
X161565196Y-49420081D02*
X161612815Y-49324843D01*
X161612815Y-49324843D02*
X161708053Y-49277224D01*
X161708053Y-49277224D02*
X161850910Y-49277224D01*
X161850910Y-49277224D02*
X161946148Y-49324843D01*
X161946148Y-49324843D02*
X161993767Y-49372462D01*
X160708053Y-49896272D02*
X160803291Y-49943891D01*
X160803291Y-49943891D02*
X160993767Y-49943891D01*
X160993767Y-49943891D02*
X161089005Y-49896272D01*
X161089005Y-49896272D02*
X161136624Y-49801033D01*
X161136624Y-49801033D02*
X161136624Y-49420081D01*
X161136624Y-49420081D02*
X161089005Y-49324843D01*
X161089005Y-49324843D02*
X160993767Y-49277224D01*
X160993767Y-49277224D02*
X160803291Y-49277224D01*
X160803291Y-49277224D02*
X160708053Y-49324843D01*
X160708053Y-49324843D02*
X160660434Y-49420081D01*
X160660434Y-49420081D02*
X160660434Y-49515319D01*
X160660434Y-49515319D02*
X161136624Y-49610557D01*
X160279481Y-49896272D02*
X160184243Y-49943891D01*
X160184243Y-49943891D02*
X159993767Y-49943891D01*
X159993767Y-49943891D02*
X159898529Y-49896272D01*
X159898529Y-49896272D02*
X159850910Y-49801033D01*
X159850910Y-49801033D02*
X159850910Y-49753414D01*
X159850910Y-49753414D02*
X159898529Y-49658176D01*
X159898529Y-49658176D02*
X159993767Y-49610557D01*
X159993767Y-49610557D02*
X160136624Y-49610557D01*
X160136624Y-49610557D02*
X160231862Y-49562938D01*
X160231862Y-49562938D02*
X160279481Y-49467700D01*
X160279481Y-49467700D02*
X160279481Y-49420081D01*
X160279481Y-49420081D02*
X160231862Y-49324843D01*
X160231862Y-49324843D02*
X160136624Y-49277224D01*
X160136624Y-49277224D02*
X159993767Y-49277224D01*
X159993767Y-49277224D02*
X159898529Y-49324843D01*
X159517576Y-50324843D02*
X159469957Y-50277224D01*
X159469957Y-50277224D02*
X159374719Y-50134367D01*
X159374719Y-50134367D02*
X159327100Y-50039129D01*
X159327100Y-50039129D02*
X159279481Y-49896272D01*
X159279481Y-49896272D02*
X159231862Y-49658176D01*
X159231862Y-49658176D02*
X159231862Y-49467700D01*
X159231862Y-49467700D02*
X159279481Y-49229605D01*
X159279481Y-49229605D02*
X159327100Y-49086748D01*
X159327100Y-49086748D02*
X159374719Y-48991510D01*
X159374719Y-48991510D02*
X159469957Y-48848652D01*
X159469957Y-48848652D02*
X159517576Y-48801033D01*
X179041388Y-50553835D02*
X178469960Y-50553835D01*
X178755674Y-51553835D02*
X178755674Y-50553835D01*
X178136626Y-51553835D02*
X178136626Y-50553835D01*
X178136626Y-50553835D02*
X177755674Y-50553835D01*
X177755674Y-50553835D02*
X177660436Y-50601454D01*
X177660436Y-50601454D02*
X177612817Y-50649073D01*
X177612817Y-50649073D02*
X177565198Y-50744311D01*
X177565198Y-50744311D02*
X177565198Y-50887168D01*
X177565198Y-50887168D02*
X177612817Y-50982406D01*
X177612817Y-50982406D02*
X177660436Y-51030025D01*
X177660436Y-51030025D02*
X177755674Y-51077644D01*
X177755674Y-51077644D02*
X178136626Y-51077644D01*
X177184245Y-50649073D02*
X177136626Y-50601454D01*
X177136626Y-50601454D02*
X177041388Y-50553835D01*
X177041388Y-50553835D02*
X176803293Y-50553835D01*
X176803293Y-50553835D02*
X176708055Y-50601454D01*
X176708055Y-50601454D02*
X176660436Y-50649073D01*
X176660436Y-50649073D02*
X176612817Y-50744311D01*
X176612817Y-50744311D02*
X176612817Y-50839549D01*
X176612817Y-50839549D02*
X176660436Y-50982406D01*
X176660436Y-50982406D02*
X177231864Y-51553835D01*
X177231864Y-51553835D02*
X176612817Y-51553835D01*
X176184245Y-51458596D02*
X176136626Y-51506216D01*
X176136626Y-51506216D02*
X176184245Y-51553835D01*
X176184245Y-51553835D02*
X176231864Y-51506216D01*
X176231864Y-51506216D02*
X176184245Y-51458596D01*
X176184245Y-51458596D02*
X176184245Y-51553835D01*
X176184245Y-50934787D02*
X176136626Y-50982406D01*
X176136626Y-50982406D02*
X176184245Y-51030025D01*
X176184245Y-51030025D02*
X176231864Y-50982406D01*
X176231864Y-50982406D02*
X176184245Y-50934787D01*
X176184245Y-50934787D02*
X176184245Y-51030025D01*
X175374722Y-51030025D02*
X175708055Y-51030025D01*
X175708055Y-51553835D02*
X175708055Y-50553835D01*
X175708055Y-50553835D02*
X175231865Y-50553835D01*
X174898531Y-51268120D02*
X174422341Y-51268120D01*
X174993769Y-51553835D02*
X174660436Y-50553835D01*
X174660436Y-50553835D02*
X174327103Y-51553835D01*
X173993769Y-50553835D02*
X173993769Y-51363358D01*
X173993769Y-51363358D02*
X173946150Y-51458596D01*
X173946150Y-51458596D02*
X173898531Y-51506216D01*
X173898531Y-51506216D02*
X173803293Y-51553835D01*
X173803293Y-51553835D02*
X173612817Y-51553835D01*
X173612817Y-51553835D02*
X173517579Y-51506216D01*
X173517579Y-51506216D02*
X173469960Y-51458596D01*
X173469960Y-51458596D02*
X173422341Y-51363358D01*
X173422341Y-51363358D02*
X173422341Y-50553835D01*
X172469960Y-51553835D02*
X172946150Y-51553835D01*
X172946150Y-51553835D02*
X172946150Y-50553835D01*
X172279483Y-50553835D02*
X171708055Y-50553835D01*
X171993769Y-51553835D02*
X171993769Y-50553835D01*
X171612817Y-51649073D02*
X170850912Y-51649073D01*
X170612816Y-51553835D02*
X170612816Y-50553835D01*
X170612816Y-50934787D02*
X170517578Y-50887168D01*
X170517578Y-50887168D02*
X170327102Y-50887168D01*
X170327102Y-50887168D02*
X170231864Y-50934787D01*
X170231864Y-50934787D02*
X170184245Y-50982406D01*
X170184245Y-50982406D02*
X170136626Y-51077644D01*
X170136626Y-51077644D02*
X170136626Y-51363358D01*
X170136626Y-51363358D02*
X170184245Y-51458596D01*
X170184245Y-51458596D02*
X170231864Y-51506216D01*
X170231864Y-51506216D02*
X170327102Y-51553835D01*
X170327102Y-51553835D02*
X170517578Y-51553835D01*
X170517578Y-51553835D02*
X170612816Y-51506216D01*
X169279483Y-51553835D02*
X169279483Y-51030025D01*
X169279483Y-51030025D02*
X169327102Y-50934787D01*
X169327102Y-50934787D02*
X169422340Y-50887168D01*
X169422340Y-50887168D02*
X169612816Y-50887168D01*
X169612816Y-50887168D02*
X169708054Y-50934787D01*
X169279483Y-51506216D02*
X169374721Y-51553835D01*
X169374721Y-51553835D02*
X169612816Y-51553835D01*
X169612816Y-51553835D02*
X169708054Y-51506216D01*
X169708054Y-51506216D02*
X169755673Y-51410977D01*
X169755673Y-51410977D02*
X169755673Y-51315739D01*
X169755673Y-51315739D02*
X169708054Y-51220501D01*
X169708054Y-51220501D02*
X169612816Y-51172882D01*
X169612816Y-51172882D02*
X169374721Y-51172882D01*
X169374721Y-51172882D02*
X169279483Y-51125263D01*
X168803292Y-51553835D02*
X168803292Y-50887168D01*
X168803292Y-51077644D02*
X168755673Y-50982406D01*
X168755673Y-50982406D02*
X168708054Y-50934787D01*
X168708054Y-50934787D02*
X168612816Y-50887168D01*
X168612816Y-50887168D02*
X168517578Y-50887168D01*
X179041388Y-52163779D02*
X178469960Y-52163779D01*
X178755674Y-53163779D02*
X178755674Y-52163779D01*
X178136626Y-53163779D02*
X178136626Y-52163779D01*
X178136626Y-52163779D02*
X177755674Y-52163779D01*
X177755674Y-52163779D02*
X177660436Y-52211398D01*
X177660436Y-52211398D02*
X177612817Y-52259017D01*
X177612817Y-52259017D02*
X177565198Y-52354255D01*
X177565198Y-52354255D02*
X177565198Y-52497112D01*
X177565198Y-52497112D02*
X177612817Y-52592350D01*
X177612817Y-52592350D02*
X177660436Y-52639969D01*
X177660436Y-52639969D02*
X177755674Y-52687588D01*
X177755674Y-52687588D02*
X178136626Y-52687588D01*
X177231864Y-52163779D02*
X176612817Y-52163779D01*
X176612817Y-52163779D02*
X176946150Y-52544731D01*
X176946150Y-52544731D02*
X176803293Y-52544731D01*
X176803293Y-52544731D02*
X176708055Y-52592350D01*
X176708055Y-52592350D02*
X176660436Y-52639969D01*
X176660436Y-52639969D02*
X176612817Y-52735207D01*
X176612817Y-52735207D02*
X176612817Y-52973302D01*
X176612817Y-52973302D02*
X176660436Y-53068540D01*
X176660436Y-53068540D02*
X176708055Y-53116160D01*
X176708055Y-53116160D02*
X176803293Y-53163779D01*
X176803293Y-53163779D02*
X177089007Y-53163779D01*
X177089007Y-53163779D02*
X177184245Y-53116160D01*
X177184245Y-53116160D02*
X177231864Y-53068540D01*
X176184245Y-53068540D02*
X176136626Y-53116160D01*
X176136626Y-53116160D02*
X176184245Y-53163779D01*
X176184245Y-53163779D02*
X176231864Y-53116160D01*
X176231864Y-53116160D02*
X176184245Y-53068540D01*
X176184245Y-53068540D02*
X176184245Y-53163779D01*
X176184245Y-52544731D02*
X176136626Y-52592350D01*
X176136626Y-52592350D02*
X176184245Y-52639969D01*
X176184245Y-52639969D02*
X176231864Y-52592350D01*
X176231864Y-52592350D02*
X176184245Y-52544731D01*
X176184245Y-52544731D02*
X176184245Y-52639969D01*
X175708055Y-52639969D02*
X175374722Y-52639969D01*
X175231865Y-53163779D02*
X175708055Y-53163779D01*
X175708055Y-53163779D02*
X175708055Y-52163779D01*
X175708055Y-52163779D02*
X175231865Y-52163779D01*
X174803293Y-53163779D02*
X174803293Y-52163779D01*
X174803293Y-52163779D02*
X174231865Y-53163779D01*
X174231865Y-53163779D02*
X174231865Y-52163779D01*
X179041388Y-53773723D02*
X178469960Y-53773723D01*
X178755674Y-54773723D02*
X178755674Y-53773723D01*
X178136626Y-54773723D02*
X178136626Y-53773723D01*
X178136626Y-53773723D02*
X177755674Y-53773723D01*
X177755674Y-53773723D02*
X177660436Y-53821342D01*
X177660436Y-53821342D02*
X177612817Y-53868961D01*
X177612817Y-53868961D02*
X177565198Y-53964199D01*
X177565198Y-53964199D02*
X177565198Y-54107056D01*
X177565198Y-54107056D02*
X177612817Y-54202294D01*
X177612817Y-54202294D02*
X177660436Y-54249913D01*
X177660436Y-54249913D02*
X177755674Y-54297532D01*
X177755674Y-54297532D02*
X178136626Y-54297532D01*
X176708055Y-54107056D02*
X176708055Y-54773723D01*
X176946150Y-53726104D02*
X177184245Y-54440389D01*
X177184245Y-54440389D02*
X176565198Y-54440389D01*
X176184245Y-54678484D02*
X176136626Y-54726104D01*
X176136626Y-54726104D02*
X176184245Y-54773723D01*
X176184245Y-54773723D02*
X176231864Y-54726104D01*
X176231864Y-54726104D02*
X176184245Y-54678484D01*
X176184245Y-54678484D02*
X176184245Y-54773723D01*
X176184245Y-54154675D02*
X176136626Y-54202294D01*
X176136626Y-54202294D02*
X176184245Y-54249913D01*
X176184245Y-54249913D02*
X176231864Y-54202294D01*
X176231864Y-54202294D02*
X176184245Y-54154675D01*
X176184245Y-54154675D02*
X176184245Y-54249913D01*
X175755674Y-54726104D02*
X175612817Y-54773723D01*
X175612817Y-54773723D02*
X175374722Y-54773723D01*
X175374722Y-54773723D02*
X175279484Y-54726104D01*
X175279484Y-54726104D02*
X175231865Y-54678484D01*
X175231865Y-54678484D02*
X175184246Y-54583246D01*
X175184246Y-54583246D02*
X175184246Y-54488008D01*
X175184246Y-54488008D02*
X175231865Y-54392770D01*
X175231865Y-54392770D02*
X175279484Y-54345151D01*
X175279484Y-54345151D02*
X175374722Y-54297532D01*
X175374722Y-54297532D02*
X175565198Y-54249913D01*
X175565198Y-54249913D02*
X175660436Y-54202294D01*
X175660436Y-54202294D02*
X175708055Y-54154675D01*
X175708055Y-54154675D02*
X175755674Y-54059437D01*
X175755674Y-54059437D02*
X175755674Y-53964199D01*
X175755674Y-53964199D02*
X175708055Y-53868961D01*
X175708055Y-53868961D02*
X175660436Y-53821342D01*
X175660436Y-53821342D02*
X175565198Y-53773723D01*
X175565198Y-53773723D02*
X175327103Y-53773723D01*
X175327103Y-53773723D02*
X175184246Y-53821342D01*
X174850912Y-53773723D02*
X174612817Y-54773723D01*
X174612817Y-54773723D02*
X174422341Y-54059437D01*
X174422341Y-54059437D02*
X174231865Y-54773723D01*
X174231865Y-54773723D02*
X173993770Y-53773723D01*
X173850913Y-54868961D02*
X173089008Y-54868961D01*
X172660436Y-53773723D02*
X172469960Y-53773723D01*
X172469960Y-53773723D02*
X172374722Y-53821342D01*
X172374722Y-53821342D02*
X172279484Y-53916580D01*
X172279484Y-53916580D02*
X172231865Y-54107056D01*
X172231865Y-54107056D02*
X172231865Y-54440389D01*
X172231865Y-54440389D02*
X172279484Y-54630865D01*
X172279484Y-54630865D02*
X172374722Y-54726104D01*
X172374722Y-54726104D02*
X172469960Y-54773723D01*
X172469960Y-54773723D02*
X172660436Y-54773723D01*
X172660436Y-54773723D02*
X172755674Y-54726104D01*
X172755674Y-54726104D02*
X172850912Y-54630865D01*
X172850912Y-54630865D02*
X172898531Y-54440389D01*
X172898531Y-54440389D02*
X172898531Y-54107056D01*
X172898531Y-54107056D02*
X172850912Y-53916580D01*
X172850912Y-53916580D02*
X172755674Y-53821342D01*
X172755674Y-53821342D02*
X172660436Y-53773723D01*
X171803293Y-53773723D02*
X171803293Y-54583246D01*
X171803293Y-54583246D02*
X171755674Y-54678484D01*
X171755674Y-54678484D02*
X171708055Y-54726104D01*
X171708055Y-54726104D02*
X171612817Y-54773723D01*
X171612817Y-54773723D02*
X171422341Y-54773723D01*
X171422341Y-54773723D02*
X171327103Y-54726104D01*
X171327103Y-54726104D02*
X171279484Y-54678484D01*
X171279484Y-54678484D02*
X171231865Y-54583246D01*
X171231865Y-54583246D02*
X171231865Y-53773723D01*
X170898531Y-53773723D02*
X170327103Y-53773723D01*
X170612817Y-54773723D02*
X170612817Y-53773723D01*
X179041388Y-55383667D02*
X178469960Y-55383667D01*
X178755674Y-56383667D02*
X178755674Y-55383667D01*
X178136626Y-56383667D02*
X178136626Y-55383667D01*
X178136626Y-55383667D02*
X177755674Y-55383667D01*
X177755674Y-55383667D02*
X177660436Y-55431286D01*
X177660436Y-55431286D02*
X177612817Y-55478905D01*
X177612817Y-55478905D02*
X177565198Y-55574143D01*
X177565198Y-55574143D02*
X177565198Y-55717000D01*
X177565198Y-55717000D02*
X177612817Y-55812238D01*
X177612817Y-55812238D02*
X177660436Y-55859857D01*
X177660436Y-55859857D02*
X177755674Y-55907476D01*
X177755674Y-55907476D02*
X178136626Y-55907476D01*
X176660436Y-55383667D02*
X177136626Y-55383667D01*
X177136626Y-55383667D02*
X177184245Y-55859857D01*
X177184245Y-55859857D02*
X177136626Y-55812238D01*
X177136626Y-55812238D02*
X177041388Y-55764619D01*
X177041388Y-55764619D02*
X176803293Y-55764619D01*
X176803293Y-55764619D02*
X176708055Y-55812238D01*
X176708055Y-55812238D02*
X176660436Y-55859857D01*
X176660436Y-55859857D02*
X176612817Y-55955095D01*
X176612817Y-55955095D02*
X176612817Y-56193190D01*
X176612817Y-56193190D02*
X176660436Y-56288428D01*
X176660436Y-56288428D02*
X176708055Y-56336048D01*
X176708055Y-56336048D02*
X176803293Y-56383667D01*
X176803293Y-56383667D02*
X177041388Y-56383667D01*
X177041388Y-56383667D02*
X177136626Y-56336048D01*
X177136626Y-56336048D02*
X177184245Y-56288428D01*
X176184245Y-56288428D02*
X176136626Y-56336048D01*
X176136626Y-56336048D02*
X176184245Y-56383667D01*
X176184245Y-56383667D02*
X176231864Y-56336048D01*
X176231864Y-56336048D02*
X176184245Y-56288428D01*
X176184245Y-56288428D02*
X176184245Y-56383667D01*
X176184245Y-55764619D02*
X176136626Y-55812238D01*
X176136626Y-55812238D02*
X176184245Y-55859857D01*
X176184245Y-55859857D02*
X176231864Y-55812238D01*
X176231864Y-55812238D02*
X176184245Y-55764619D01*
X176184245Y-55764619D02*
X176184245Y-55859857D01*
X175850912Y-55383667D02*
X175279484Y-55383667D01*
X175565198Y-56383667D02*
X175565198Y-55383667D01*
X174374722Y-56383667D02*
X174708055Y-55907476D01*
X174946150Y-56383667D02*
X174946150Y-55383667D01*
X174946150Y-55383667D02*
X174565198Y-55383667D01*
X174565198Y-55383667D02*
X174469960Y-55431286D01*
X174469960Y-55431286D02*
X174422341Y-55478905D01*
X174422341Y-55478905D02*
X174374722Y-55574143D01*
X174374722Y-55574143D02*
X174374722Y-55717000D01*
X174374722Y-55717000D02*
X174422341Y-55812238D01*
X174422341Y-55812238D02*
X174469960Y-55859857D01*
X174469960Y-55859857D02*
X174565198Y-55907476D01*
X174565198Y-55907476D02*
X174946150Y-55907476D01*
X173946150Y-56383667D02*
X173946150Y-55383667D01*
X172946151Y-55431286D02*
X173041389Y-55383667D01*
X173041389Y-55383667D02*
X173184246Y-55383667D01*
X173184246Y-55383667D02*
X173327103Y-55431286D01*
X173327103Y-55431286D02*
X173422341Y-55526524D01*
X173422341Y-55526524D02*
X173469960Y-55621762D01*
X173469960Y-55621762D02*
X173517579Y-55812238D01*
X173517579Y-55812238D02*
X173517579Y-55955095D01*
X173517579Y-55955095D02*
X173469960Y-56145571D01*
X173469960Y-56145571D02*
X173422341Y-56240809D01*
X173422341Y-56240809D02*
X173327103Y-56336048D01*
X173327103Y-56336048D02*
X173184246Y-56383667D01*
X173184246Y-56383667D02*
X173089008Y-56383667D01*
X173089008Y-56383667D02*
X172946151Y-56336048D01*
X172946151Y-56336048D02*
X172898532Y-56288428D01*
X172898532Y-56288428D02*
X172898532Y-55955095D01*
X172898532Y-55955095D02*
X173089008Y-55955095D01*
X171946151Y-55431286D02*
X172041389Y-55383667D01*
X172041389Y-55383667D02*
X172184246Y-55383667D01*
X172184246Y-55383667D02*
X172327103Y-55431286D01*
X172327103Y-55431286D02*
X172422341Y-55526524D01*
X172422341Y-55526524D02*
X172469960Y-55621762D01*
X172469960Y-55621762D02*
X172517579Y-55812238D01*
X172517579Y-55812238D02*
X172517579Y-55955095D01*
X172517579Y-55955095D02*
X172469960Y-56145571D01*
X172469960Y-56145571D02*
X172422341Y-56240809D01*
X172422341Y-56240809D02*
X172327103Y-56336048D01*
X172327103Y-56336048D02*
X172184246Y-56383667D01*
X172184246Y-56383667D02*
X172089008Y-56383667D01*
X172089008Y-56383667D02*
X171946151Y-56336048D01*
X171946151Y-56336048D02*
X171898532Y-56288428D01*
X171898532Y-56288428D02*
X171898532Y-55955095D01*
X171898532Y-55955095D02*
X172089008Y-55955095D01*
X171469960Y-55859857D02*
X171136627Y-55859857D01*
X170993770Y-56383667D02*
X171469960Y-56383667D01*
X171469960Y-56383667D02*
X171469960Y-55383667D01*
X171469960Y-55383667D02*
X170993770Y-55383667D01*
X169993770Y-56383667D02*
X170327103Y-55907476D01*
X170565198Y-56383667D02*
X170565198Y-55383667D01*
X170565198Y-55383667D02*
X170184246Y-55383667D01*
X170184246Y-55383667D02*
X170089008Y-55431286D01*
X170089008Y-55431286D02*
X170041389Y-55478905D01*
X170041389Y-55478905D02*
X169993770Y-55574143D01*
X169993770Y-55574143D02*
X169993770Y-55717000D01*
X169993770Y-55717000D02*
X170041389Y-55812238D01*
X170041389Y-55812238D02*
X170089008Y-55859857D01*
X170089008Y-55859857D02*
X170184246Y-55907476D01*
X170184246Y-55907476D02*
X170565198Y-55907476D01*
X169803294Y-56478905D02*
X169041389Y-56478905D01*
X168803293Y-56383667D02*
X168803293Y-55383667D01*
X168327103Y-56383667D02*
X168327103Y-55383667D01*
X168327103Y-55383667D02*
X167755675Y-56383667D01*
X167755675Y-56383667D02*
X167755675Y-55383667D01*
X179041388Y-56993611D02*
X178469960Y-56993611D01*
X178755674Y-57993611D02*
X178755674Y-56993611D01*
X178136626Y-57993611D02*
X178136626Y-56993611D01*
X178136626Y-56993611D02*
X177755674Y-56993611D01*
X177755674Y-56993611D02*
X177660436Y-57041230D01*
X177660436Y-57041230D02*
X177612817Y-57088849D01*
X177612817Y-57088849D02*
X177565198Y-57184087D01*
X177565198Y-57184087D02*
X177565198Y-57326944D01*
X177565198Y-57326944D02*
X177612817Y-57422182D01*
X177612817Y-57422182D02*
X177660436Y-57469801D01*
X177660436Y-57469801D02*
X177755674Y-57517420D01*
X177755674Y-57517420D02*
X178136626Y-57517420D01*
X176708055Y-56993611D02*
X176898531Y-56993611D01*
X176898531Y-56993611D02*
X176993769Y-57041230D01*
X176993769Y-57041230D02*
X177041388Y-57088849D01*
X177041388Y-57088849D02*
X177136626Y-57231706D01*
X177136626Y-57231706D02*
X177184245Y-57422182D01*
X177184245Y-57422182D02*
X177184245Y-57803134D01*
X177184245Y-57803134D02*
X177136626Y-57898372D01*
X177136626Y-57898372D02*
X177089007Y-57945992D01*
X177089007Y-57945992D02*
X176993769Y-57993611D01*
X176993769Y-57993611D02*
X176803293Y-57993611D01*
X176803293Y-57993611D02*
X176708055Y-57945992D01*
X176708055Y-57945992D02*
X176660436Y-57898372D01*
X176660436Y-57898372D02*
X176612817Y-57803134D01*
X176612817Y-57803134D02*
X176612817Y-57565039D01*
X176612817Y-57565039D02*
X176660436Y-57469801D01*
X176660436Y-57469801D02*
X176708055Y-57422182D01*
X176708055Y-57422182D02*
X176803293Y-57374563D01*
X176803293Y-57374563D02*
X176993769Y-57374563D01*
X176993769Y-57374563D02*
X177089007Y-57422182D01*
X177089007Y-57422182D02*
X177136626Y-57469801D01*
X177136626Y-57469801D02*
X177184245Y-57565039D01*
X176184245Y-57898372D02*
X176136626Y-57945992D01*
X176136626Y-57945992D02*
X176184245Y-57993611D01*
X176184245Y-57993611D02*
X176231864Y-57945992D01*
X176231864Y-57945992D02*
X176184245Y-57898372D01*
X176184245Y-57898372D02*
X176184245Y-57993611D01*
X176184245Y-57374563D02*
X176136626Y-57422182D01*
X176136626Y-57422182D02*
X176184245Y-57469801D01*
X176184245Y-57469801D02*
X176231864Y-57422182D01*
X176231864Y-57422182D02*
X176184245Y-57374563D01*
X176184245Y-57374563D02*
X176184245Y-57469801D01*
X175850912Y-56993611D02*
X175279484Y-56993611D01*
X175565198Y-57993611D02*
X175565198Y-56993611D01*
X174374722Y-57993611D02*
X174708055Y-57517420D01*
X174946150Y-57993611D02*
X174946150Y-56993611D01*
X174946150Y-56993611D02*
X174565198Y-56993611D01*
X174565198Y-56993611D02*
X174469960Y-57041230D01*
X174469960Y-57041230D02*
X174422341Y-57088849D01*
X174422341Y-57088849D02*
X174374722Y-57184087D01*
X174374722Y-57184087D02*
X174374722Y-57326944D01*
X174374722Y-57326944D02*
X174422341Y-57422182D01*
X174422341Y-57422182D02*
X174469960Y-57469801D01*
X174469960Y-57469801D02*
X174565198Y-57517420D01*
X174565198Y-57517420D02*
X174946150Y-57517420D01*
X173946150Y-57993611D02*
X173946150Y-56993611D01*
X172946151Y-57041230D02*
X173041389Y-56993611D01*
X173041389Y-56993611D02*
X173184246Y-56993611D01*
X173184246Y-56993611D02*
X173327103Y-57041230D01*
X173327103Y-57041230D02*
X173422341Y-57136468D01*
X173422341Y-57136468D02*
X173469960Y-57231706D01*
X173469960Y-57231706D02*
X173517579Y-57422182D01*
X173517579Y-57422182D02*
X173517579Y-57565039D01*
X173517579Y-57565039D02*
X173469960Y-57755515D01*
X173469960Y-57755515D02*
X173422341Y-57850753D01*
X173422341Y-57850753D02*
X173327103Y-57945992D01*
X173327103Y-57945992D02*
X173184246Y-57993611D01*
X173184246Y-57993611D02*
X173089008Y-57993611D01*
X173089008Y-57993611D02*
X172946151Y-57945992D01*
X172946151Y-57945992D02*
X172898532Y-57898372D01*
X172898532Y-57898372D02*
X172898532Y-57565039D01*
X172898532Y-57565039D02*
X173089008Y-57565039D01*
X171946151Y-57041230D02*
X172041389Y-56993611D01*
X172041389Y-56993611D02*
X172184246Y-56993611D01*
X172184246Y-56993611D02*
X172327103Y-57041230D01*
X172327103Y-57041230D02*
X172422341Y-57136468D01*
X172422341Y-57136468D02*
X172469960Y-57231706D01*
X172469960Y-57231706D02*
X172517579Y-57422182D01*
X172517579Y-57422182D02*
X172517579Y-57565039D01*
X172517579Y-57565039D02*
X172469960Y-57755515D01*
X172469960Y-57755515D02*
X172422341Y-57850753D01*
X172422341Y-57850753D02*
X172327103Y-57945992D01*
X172327103Y-57945992D02*
X172184246Y-57993611D01*
X172184246Y-57993611D02*
X172089008Y-57993611D01*
X172089008Y-57993611D02*
X171946151Y-57945992D01*
X171946151Y-57945992D02*
X171898532Y-57898372D01*
X171898532Y-57898372D02*
X171898532Y-57565039D01*
X171898532Y-57565039D02*
X172089008Y-57565039D01*
X171469960Y-57469801D02*
X171136627Y-57469801D01*
X170993770Y-57993611D02*
X171469960Y-57993611D01*
X171469960Y-57993611D02*
X171469960Y-56993611D01*
X171469960Y-56993611D02*
X170993770Y-56993611D01*
X169993770Y-57993611D02*
X170327103Y-57517420D01*
X170565198Y-57993611D02*
X170565198Y-56993611D01*
X170565198Y-56993611D02*
X170184246Y-56993611D01*
X170184246Y-56993611D02*
X170089008Y-57041230D01*
X170089008Y-57041230D02*
X170041389Y-57088849D01*
X170041389Y-57088849D02*
X169993770Y-57184087D01*
X169993770Y-57184087D02*
X169993770Y-57326944D01*
X169993770Y-57326944D02*
X170041389Y-57422182D01*
X170041389Y-57422182D02*
X170089008Y-57469801D01*
X170089008Y-57469801D02*
X170184246Y-57517420D01*
X170184246Y-57517420D02*
X170565198Y-57517420D01*
X169803294Y-58088849D02*
X169041389Y-58088849D01*
X168612817Y-56993611D02*
X168422341Y-56993611D01*
X168422341Y-56993611D02*
X168327103Y-57041230D01*
X168327103Y-57041230D02*
X168231865Y-57136468D01*
X168231865Y-57136468D02*
X168184246Y-57326944D01*
X168184246Y-57326944D02*
X168184246Y-57660277D01*
X168184246Y-57660277D02*
X168231865Y-57850753D01*
X168231865Y-57850753D02*
X168327103Y-57945992D01*
X168327103Y-57945992D02*
X168422341Y-57993611D01*
X168422341Y-57993611D02*
X168612817Y-57993611D01*
X168612817Y-57993611D02*
X168708055Y-57945992D01*
X168708055Y-57945992D02*
X168803293Y-57850753D01*
X168803293Y-57850753D02*
X168850912Y-57660277D01*
X168850912Y-57660277D02*
X168850912Y-57326944D01*
X168850912Y-57326944D02*
X168803293Y-57136468D01*
X168803293Y-57136468D02*
X168708055Y-57041230D01*
X168708055Y-57041230D02*
X168612817Y-56993611D01*
X167755674Y-56993611D02*
X167755674Y-57803134D01*
X167755674Y-57803134D02*
X167708055Y-57898372D01*
X167708055Y-57898372D02*
X167660436Y-57945992D01*
X167660436Y-57945992D02*
X167565198Y-57993611D01*
X167565198Y-57993611D02*
X167374722Y-57993611D01*
X167374722Y-57993611D02*
X167279484Y-57945992D01*
X167279484Y-57945992D02*
X167231865Y-57898372D01*
X167231865Y-57898372D02*
X167184246Y-57803134D01*
X167184246Y-57803134D02*
X167184246Y-56993611D01*
X166850912Y-56993611D02*
X166279484Y-56993611D01*
X166565198Y-57993611D02*
X166565198Y-56993611D01*
X179041388Y-58603555D02*
X178469960Y-58603555D01*
X178755674Y-59603555D02*
X178755674Y-58603555D01*
X178136626Y-59603555D02*
X178136626Y-58603555D01*
X178136626Y-58603555D02*
X177755674Y-58603555D01*
X177755674Y-58603555D02*
X177660436Y-58651174D01*
X177660436Y-58651174D02*
X177612817Y-58698793D01*
X177612817Y-58698793D02*
X177565198Y-58794031D01*
X177565198Y-58794031D02*
X177565198Y-58936888D01*
X177565198Y-58936888D02*
X177612817Y-59032126D01*
X177612817Y-59032126D02*
X177660436Y-59079745D01*
X177660436Y-59079745D02*
X177755674Y-59127364D01*
X177755674Y-59127364D02*
X178136626Y-59127364D01*
X177231864Y-58603555D02*
X176565198Y-58603555D01*
X176565198Y-58603555D02*
X176993769Y-59603555D01*
X176184245Y-59508316D02*
X176136626Y-59555936D01*
X176136626Y-59555936D02*
X176184245Y-59603555D01*
X176184245Y-59603555D02*
X176231864Y-59555936D01*
X176231864Y-59555936D02*
X176184245Y-59508316D01*
X176184245Y-59508316D02*
X176184245Y-59603555D01*
X176184245Y-58984507D02*
X176136626Y-59032126D01*
X176136626Y-59032126D02*
X176184245Y-59079745D01*
X176184245Y-59079745D02*
X176231864Y-59032126D01*
X176231864Y-59032126D02*
X176184245Y-58984507D01*
X176184245Y-58984507D02*
X176184245Y-59079745D01*
X175708055Y-59603555D02*
X175708055Y-58603555D01*
X175708055Y-58603555D02*
X175327103Y-58603555D01*
X175327103Y-58603555D02*
X175231865Y-58651174D01*
X175231865Y-58651174D02*
X175184246Y-58698793D01*
X175184246Y-58698793D02*
X175136627Y-58794031D01*
X175136627Y-58794031D02*
X175136627Y-58936888D01*
X175136627Y-58936888D02*
X175184246Y-59032126D01*
X175184246Y-59032126D02*
X175231865Y-59079745D01*
X175231865Y-59079745D02*
X175327103Y-59127364D01*
X175327103Y-59127364D02*
X175708055Y-59127364D01*
X174184246Y-58651174D02*
X174279484Y-58603555D01*
X174279484Y-58603555D02*
X174422341Y-58603555D01*
X174422341Y-58603555D02*
X174565198Y-58651174D01*
X174565198Y-58651174D02*
X174660436Y-58746412D01*
X174660436Y-58746412D02*
X174708055Y-58841650D01*
X174708055Y-58841650D02*
X174755674Y-59032126D01*
X174755674Y-59032126D02*
X174755674Y-59174983D01*
X174755674Y-59174983D02*
X174708055Y-59365459D01*
X174708055Y-59365459D02*
X174660436Y-59460697D01*
X174660436Y-59460697D02*
X174565198Y-59555936D01*
X174565198Y-59555936D02*
X174422341Y-59603555D01*
X174422341Y-59603555D02*
X174327103Y-59603555D01*
X174327103Y-59603555D02*
X174184246Y-59555936D01*
X174184246Y-59555936D02*
X174136627Y-59508316D01*
X174136627Y-59508316D02*
X174136627Y-59174983D01*
X174136627Y-59174983D02*
X174327103Y-59174983D01*
X179041388Y-60213499D02*
X178469960Y-60213499D01*
X178755674Y-61213499D02*
X178755674Y-60213499D01*
X178136626Y-61213499D02*
X178136626Y-60213499D01*
X178136626Y-60213499D02*
X177755674Y-60213499D01*
X177755674Y-60213499D02*
X177660436Y-60261118D01*
X177660436Y-60261118D02*
X177612817Y-60308737D01*
X177612817Y-60308737D02*
X177565198Y-60403975D01*
X177565198Y-60403975D02*
X177565198Y-60546832D01*
X177565198Y-60546832D02*
X177612817Y-60642070D01*
X177612817Y-60642070D02*
X177660436Y-60689689D01*
X177660436Y-60689689D02*
X177755674Y-60737308D01*
X177755674Y-60737308D02*
X178136626Y-60737308D01*
X176993769Y-60642070D02*
X177089007Y-60594451D01*
X177089007Y-60594451D02*
X177136626Y-60546832D01*
X177136626Y-60546832D02*
X177184245Y-60451594D01*
X177184245Y-60451594D02*
X177184245Y-60403975D01*
X177184245Y-60403975D02*
X177136626Y-60308737D01*
X177136626Y-60308737D02*
X177089007Y-60261118D01*
X177089007Y-60261118D02*
X176993769Y-60213499D01*
X176993769Y-60213499D02*
X176803293Y-60213499D01*
X176803293Y-60213499D02*
X176708055Y-60261118D01*
X176708055Y-60261118D02*
X176660436Y-60308737D01*
X176660436Y-60308737D02*
X176612817Y-60403975D01*
X176612817Y-60403975D02*
X176612817Y-60451594D01*
X176612817Y-60451594D02*
X176660436Y-60546832D01*
X176660436Y-60546832D02*
X176708055Y-60594451D01*
X176708055Y-60594451D02*
X176803293Y-60642070D01*
X176803293Y-60642070D02*
X176993769Y-60642070D01*
X176993769Y-60642070D02*
X177089007Y-60689689D01*
X177089007Y-60689689D02*
X177136626Y-60737308D01*
X177136626Y-60737308D02*
X177184245Y-60832546D01*
X177184245Y-60832546D02*
X177184245Y-61023022D01*
X177184245Y-61023022D02*
X177136626Y-61118260D01*
X177136626Y-61118260D02*
X177089007Y-61165880D01*
X177089007Y-61165880D02*
X176993769Y-61213499D01*
X176993769Y-61213499D02*
X176803293Y-61213499D01*
X176803293Y-61213499D02*
X176708055Y-61165880D01*
X176708055Y-61165880D02*
X176660436Y-61118260D01*
X176660436Y-61118260D02*
X176612817Y-61023022D01*
X176612817Y-61023022D02*
X176612817Y-60832546D01*
X176612817Y-60832546D02*
X176660436Y-60737308D01*
X176660436Y-60737308D02*
X176708055Y-60689689D01*
X176708055Y-60689689D02*
X176803293Y-60642070D01*
X176184245Y-61118260D02*
X176136626Y-61165880D01*
X176136626Y-61165880D02*
X176184245Y-61213499D01*
X176184245Y-61213499D02*
X176231864Y-61165880D01*
X176231864Y-61165880D02*
X176184245Y-61118260D01*
X176184245Y-61118260D02*
X176184245Y-61213499D01*
X176184245Y-60594451D02*
X176136626Y-60642070D01*
X176136626Y-60642070D02*
X176184245Y-60689689D01*
X176184245Y-60689689D02*
X176231864Y-60642070D01*
X176231864Y-60642070D02*
X176184245Y-60594451D01*
X176184245Y-60594451D02*
X176184245Y-60689689D01*
X175850912Y-60213499D02*
X175517579Y-61213499D01*
X175517579Y-61213499D02*
X175184246Y-60213499D01*
X175089008Y-61308737D02*
X174327103Y-61308737D01*
X173517579Y-61213499D02*
X173850912Y-60737308D01*
X174089007Y-61213499D02*
X174089007Y-60213499D01*
X174089007Y-60213499D02*
X173708055Y-60213499D01*
X173708055Y-60213499D02*
X173612817Y-60261118D01*
X173612817Y-60261118D02*
X173565198Y-60308737D01*
X173565198Y-60308737D02*
X173517579Y-60403975D01*
X173517579Y-60403975D02*
X173517579Y-60546832D01*
X173517579Y-60546832D02*
X173565198Y-60642070D01*
X173565198Y-60642070D02*
X173612817Y-60689689D01*
X173612817Y-60689689D02*
X173708055Y-60737308D01*
X173708055Y-60737308D02*
X174089007Y-60737308D01*
X173089007Y-60689689D02*
X172755674Y-60689689D01*
X172612817Y-61213499D02*
X173089007Y-61213499D01*
X173089007Y-61213499D02*
X173089007Y-60213499D01*
X173089007Y-60213499D02*
X172612817Y-60213499D01*
X171660436Y-60261118D02*
X171755674Y-60213499D01*
X171755674Y-60213499D02*
X171898531Y-60213499D01*
X171898531Y-60213499D02*
X172041388Y-60261118D01*
X172041388Y-60261118D02*
X172136626Y-60356356D01*
X172136626Y-60356356D02*
X172184245Y-60451594D01*
X172184245Y-60451594D02*
X172231864Y-60642070D01*
X172231864Y-60642070D02*
X172231864Y-60784927D01*
X172231864Y-60784927D02*
X172184245Y-60975403D01*
X172184245Y-60975403D02*
X172136626Y-61070641D01*
X172136626Y-61070641D02*
X172041388Y-61165880D01*
X172041388Y-61165880D02*
X171898531Y-61213499D01*
X171898531Y-61213499D02*
X171803293Y-61213499D01*
X171803293Y-61213499D02*
X171660436Y-61165880D01*
X171660436Y-61165880D02*
X171612817Y-61118260D01*
X171612817Y-61118260D02*
X171612817Y-60784927D01*
X171612817Y-60784927D02*
X171803293Y-60784927D01*
X170231864Y-60213499D02*
X170041388Y-60213499D01*
X170041388Y-60213499D02*
X169946150Y-60261118D01*
X169946150Y-60261118D02*
X169850912Y-60356356D01*
X169850912Y-60356356D02*
X169803293Y-60546832D01*
X169803293Y-60546832D02*
X169803293Y-60880165D01*
X169803293Y-60880165D02*
X169850912Y-61070641D01*
X169850912Y-61070641D02*
X169946150Y-61165880D01*
X169946150Y-61165880D02*
X170041388Y-61213499D01*
X170041388Y-61213499D02*
X170231864Y-61213499D01*
X170231864Y-61213499D02*
X170327102Y-61165880D01*
X170327102Y-61165880D02*
X170422340Y-61070641D01*
X170422340Y-61070641D02*
X170469959Y-60880165D01*
X170469959Y-60880165D02*
X170469959Y-60546832D01*
X170469959Y-60546832D02*
X170422340Y-60356356D01*
X170422340Y-60356356D02*
X170327102Y-60261118D01*
X170327102Y-60261118D02*
X170231864Y-60213499D01*
X169374721Y-61213499D02*
X169374721Y-60213499D01*
X169374721Y-60213499D02*
X168993769Y-60213499D01*
X168993769Y-60213499D02*
X168898531Y-60261118D01*
X168898531Y-60261118D02*
X168850912Y-60308737D01*
X168850912Y-60308737D02*
X168803293Y-60403975D01*
X168803293Y-60403975D02*
X168803293Y-60546832D01*
X168803293Y-60546832D02*
X168850912Y-60642070D01*
X168850912Y-60642070D02*
X168898531Y-60689689D01*
X168898531Y-60689689D02*
X168993769Y-60737308D01*
X168993769Y-60737308D02*
X169374721Y-60737308D01*
X179041388Y-61823443D02*
X178469960Y-61823443D01*
X178755674Y-62823443D02*
X178755674Y-61823443D01*
X178136626Y-62823443D02*
X178136626Y-61823443D01*
X178136626Y-61823443D02*
X177755674Y-61823443D01*
X177755674Y-61823443D02*
X177660436Y-61871062D01*
X177660436Y-61871062D02*
X177612817Y-61918681D01*
X177612817Y-61918681D02*
X177565198Y-62013919D01*
X177565198Y-62013919D02*
X177565198Y-62156776D01*
X177565198Y-62156776D02*
X177612817Y-62252014D01*
X177612817Y-62252014D02*
X177660436Y-62299633D01*
X177660436Y-62299633D02*
X177755674Y-62347252D01*
X177755674Y-62347252D02*
X178136626Y-62347252D01*
X177089007Y-62823443D02*
X176898531Y-62823443D01*
X176898531Y-62823443D02*
X176803293Y-62775824D01*
X176803293Y-62775824D02*
X176755674Y-62728204D01*
X176755674Y-62728204D02*
X176660436Y-62585347D01*
X176660436Y-62585347D02*
X176612817Y-62394871D01*
X176612817Y-62394871D02*
X176612817Y-62013919D01*
X176612817Y-62013919D02*
X176660436Y-61918681D01*
X176660436Y-61918681D02*
X176708055Y-61871062D01*
X176708055Y-61871062D02*
X176803293Y-61823443D01*
X176803293Y-61823443D02*
X176993769Y-61823443D01*
X176993769Y-61823443D02*
X177089007Y-61871062D01*
X177089007Y-61871062D02*
X177136626Y-61918681D01*
X177136626Y-61918681D02*
X177184245Y-62013919D01*
X177184245Y-62013919D02*
X177184245Y-62252014D01*
X177184245Y-62252014D02*
X177136626Y-62347252D01*
X177136626Y-62347252D02*
X177089007Y-62394871D01*
X177089007Y-62394871D02*
X176993769Y-62442490D01*
X176993769Y-62442490D02*
X176803293Y-62442490D01*
X176803293Y-62442490D02*
X176708055Y-62394871D01*
X176708055Y-62394871D02*
X176660436Y-62347252D01*
X176660436Y-62347252D02*
X176612817Y-62252014D01*
X176184245Y-62728204D02*
X176136626Y-62775824D01*
X176136626Y-62775824D02*
X176184245Y-62823443D01*
X176184245Y-62823443D02*
X176231864Y-62775824D01*
X176231864Y-62775824D02*
X176184245Y-62728204D01*
X176184245Y-62728204D02*
X176184245Y-62823443D01*
X176184245Y-62204395D02*
X176136626Y-62252014D01*
X176136626Y-62252014D02*
X176184245Y-62299633D01*
X176184245Y-62299633D02*
X176231864Y-62252014D01*
X176231864Y-62252014D02*
X176184245Y-62204395D01*
X176184245Y-62204395D02*
X176184245Y-62299633D01*
X175850912Y-61823443D02*
X175517579Y-62823443D01*
X175517579Y-62823443D02*
X175184246Y-61823443D01*
X175089008Y-62918681D02*
X174327103Y-62918681D01*
X173755674Y-62299633D02*
X174089007Y-62299633D01*
X174089007Y-62823443D02*
X174089007Y-61823443D01*
X174089007Y-61823443D02*
X173612817Y-61823443D01*
X172898531Y-62299633D02*
X172755674Y-62347252D01*
X172755674Y-62347252D02*
X172708055Y-62394871D01*
X172708055Y-62394871D02*
X172660436Y-62490109D01*
X172660436Y-62490109D02*
X172660436Y-62632966D01*
X172660436Y-62632966D02*
X172708055Y-62728204D01*
X172708055Y-62728204D02*
X172755674Y-62775824D01*
X172755674Y-62775824D02*
X172850912Y-62823443D01*
X172850912Y-62823443D02*
X173231864Y-62823443D01*
X173231864Y-62823443D02*
X173231864Y-61823443D01*
X173231864Y-61823443D02*
X172898531Y-61823443D01*
X172898531Y-61823443D02*
X172803293Y-61871062D01*
X172803293Y-61871062D02*
X172755674Y-61918681D01*
X172755674Y-61918681D02*
X172708055Y-62013919D01*
X172708055Y-62013919D02*
X172708055Y-62109157D01*
X172708055Y-62109157D02*
X172755674Y-62204395D01*
X172755674Y-62204395D02*
X172803293Y-62252014D01*
X172803293Y-62252014D02*
X172898531Y-62299633D01*
X172898531Y-62299633D02*
X173231864Y-62299633D01*
X179041388Y-63433387D02*
X178469960Y-63433387D01*
X178755674Y-64433387D02*
X178755674Y-63433387D01*
X178136626Y-64433387D02*
X178136626Y-63433387D01*
X178136626Y-63433387D02*
X177755674Y-63433387D01*
X177755674Y-63433387D02*
X177660436Y-63481006D01*
X177660436Y-63481006D02*
X177612817Y-63528625D01*
X177612817Y-63528625D02*
X177565198Y-63623863D01*
X177565198Y-63623863D02*
X177565198Y-63766720D01*
X177565198Y-63766720D02*
X177612817Y-63861958D01*
X177612817Y-63861958D02*
X177660436Y-63909577D01*
X177660436Y-63909577D02*
X177755674Y-63957196D01*
X177755674Y-63957196D02*
X178136626Y-63957196D01*
X176612817Y-64433387D02*
X177184245Y-64433387D01*
X176898531Y-64433387D02*
X176898531Y-63433387D01*
X176898531Y-63433387D02*
X176993769Y-63576244D01*
X176993769Y-63576244D02*
X177089007Y-63671482D01*
X177089007Y-63671482D02*
X177184245Y-63719101D01*
X175993769Y-63433387D02*
X175898531Y-63433387D01*
X175898531Y-63433387D02*
X175803293Y-63481006D01*
X175803293Y-63481006D02*
X175755674Y-63528625D01*
X175755674Y-63528625D02*
X175708055Y-63623863D01*
X175708055Y-63623863D02*
X175660436Y-63814339D01*
X175660436Y-63814339D02*
X175660436Y-64052434D01*
X175660436Y-64052434D02*
X175708055Y-64242910D01*
X175708055Y-64242910D02*
X175755674Y-64338148D01*
X175755674Y-64338148D02*
X175803293Y-64385768D01*
X175803293Y-64385768D02*
X175898531Y-64433387D01*
X175898531Y-64433387D02*
X175993769Y-64433387D01*
X175993769Y-64433387D02*
X176089007Y-64385768D01*
X176089007Y-64385768D02*
X176136626Y-64338148D01*
X176136626Y-64338148D02*
X176184245Y-64242910D01*
X176184245Y-64242910D02*
X176231864Y-64052434D01*
X176231864Y-64052434D02*
X176231864Y-63814339D01*
X176231864Y-63814339D02*
X176184245Y-63623863D01*
X176184245Y-63623863D02*
X176136626Y-63528625D01*
X176136626Y-63528625D02*
X176089007Y-63481006D01*
X176089007Y-63481006D02*
X175993769Y-63433387D01*
X175231864Y-64338148D02*
X175184245Y-64385768D01*
X175184245Y-64385768D02*
X175231864Y-64433387D01*
X175231864Y-64433387D02*
X175279483Y-64385768D01*
X175279483Y-64385768D02*
X175231864Y-64338148D01*
X175231864Y-64338148D02*
X175231864Y-64433387D01*
X175231864Y-63814339D02*
X175184245Y-63861958D01*
X175184245Y-63861958D02*
X175231864Y-63909577D01*
X175231864Y-63909577D02*
X175279483Y-63861958D01*
X175279483Y-63861958D02*
X175231864Y-63814339D01*
X175231864Y-63814339D02*
X175231864Y-63909577D01*
X174755674Y-64433387D02*
X174755674Y-63433387D01*
X174755674Y-63433387D02*
X174184246Y-64433387D01*
X174184246Y-64433387D02*
X174184246Y-63433387D01*
X173708055Y-64433387D02*
X173708055Y-63433387D01*
X172660437Y-64338148D02*
X172708056Y-64385768D01*
X172708056Y-64385768D02*
X172850913Y-64433387D01*
X172850913Y-64433387D02*
X172946151Y-64433387D01*
X172946151Y-64433387D02*
X173089008Y-64385768D01*
X173089008Y-64385768D02*
X173184246Y-64290529D01*
X173184246Y-64290529D02*
X173231865Y-64195291D01*
X173231865Y-64195291D02*
X173279484Y-64004815D01*
X173279484Y-64004815D02*
X173279484Y-63861958D01*
X173279484Y-63861958D02*
X173231865Y-63671482D01*
X173231865Y-63671482D02*
X173184246Y-63576244D01*
X173184246Y-63576244D02*
X173089008Y-63481006D01*
X173089008Y-63481006D02*
X172946151Y-63433387D01*
X172946151Y-63433387D02*
X172850913Y-63433387D01*
X172850913Y-63433387D02*
X172708056Y-63481006D01*
X172708056Y-63481006D02*
X172660437Y-63528625D01*
X172231865Y-64433387D02*
X172231865Y-63433387D01*
X172231865Y-63909577D02*
X171660437Y-63909577D01*
X171660437Y-64433387D02*
X171660437Y-63433387D01*
X170612818Y-64433387D02*
X170946151Y-63957196D01*
X171184246Y-64433387D02*
X171184246Y-63433387D01*
X171184246Y-63433387D02*
X170803294Y-63433387D01*
X170803294Y-63433387D02*
X170708056Y-63481006D01*
X170708056Y-63481006D02*
X170660437Y-63528625D01*
X170660437Y-63528625D02*
X170612818Y-63623863D01*
X170612818Y-63623863D02*
X170612818Y-63766720D01*
X170612818Y-63766720D02*
X170660437Y-63861958D01*
X170660437Y-63861958D02*
X170708056Y-63909577D01*
X170708056Y-63909577D02*
X170803294Y-63957196D01*
X170803294Y-63957196D02*
X171184246Y-63957196D01*
X169993770Y-63433387D02*
X169803294Y-63433387D01*
X169803294Y-63433387D02*
X169708056Y-63481006D01*
X169708056Y-63481006D02*
X169612818Y-63576244D01*
X169612818Y-63576244D02*
X169565199Y-63766720D01*
X169565199Y-63766720D02*
X169565199Y-64100053D01*
X169565199Y-64100053D02*
X169612818Y-64290529D01*
X169612818Y-64290529D02*
X169708056Y-64385768D01*
X169708056Y-64385768D02*
X169803294Y-64433387D01*
X169803294Y-64433387D02*
X169993770Y-64433387D01*
X169993770Y-64433387D02*
X170089008Y-64385768D01*
X170089008Y-64385768D02*
X170184246Y-64290529D01*
X170184246Y-64290529D02*
X170231865Y-64100053D01*
X170231865Y-64100053D02*
X170231865Y-63766720D01*
X170231865Y-63766720D02*
X170184246Y-63576244D01*
X170184246Y-63576244D02*
X170089008Y-63481006D01*
X170089008Y-63481006D02*
X169993770Y-63433387D01*
X169136627Y-64433387D02*
X169136627Y-63433387D01*
X169136627Y-63433387D02*
X168803294Y-64147672D01*
X168803294Y-64147672D02*
X168469961Y-63433387D01*
X168469961Y-63433387D02*
X168469961Y-64433387D01*
X167993770Y-63909577D02*
X167660437Y-63909577D01*
X167517580Y-64433387D02*
X167993770Y-64433387D01*
X167993770Y-64433387D02*
X167993770Y-63433387D01*
X167993770Y-63433387D02*
X167517580Y-63433387D01*
X165755675Y-64338148D02*
X165803294Y-64385768D01*
X165803294Y-64385768D02*
X165946151Y-64433387D01*
X165946151Y-64433387D02*
X166041389Y-64433387D01*
X166041389Y-64433387D02*
X166184246Y-64385768D01*
X166184246Y-64385768D02*
X166279484Y-64290529D01*
X166279484Y-64290529D02*
X166327103Y-64195291D01*
X166327103Y-64195291D02*
X166374722Y-64004815D01*
X166374722Y-64004815D02*
X166374722Y-63861958D01*
X166374722Y-63861958D02*
X166327103Y-63671482D01*
X166327103Y-63671482D02*
X166279484Y-63576244D01*
X166279484Y-63576244D02*
X166184246Y-63481006D01*
X166184246Y-63481006D02*
X166041389Y-63433387D01*
X166041389Y-63433387D02*
X165946151Y-63433387D01*
X165946151Y-63433387D02*
X165803294Y-63481006D01*
X165803294Y-63481006D02*
X165755675Y-63528625D01*
X165327103Y-63433387D02*
X165327103Y-64242910D01*
X165327103Y-64242910D02*
X165279484Y-64338148D01*
X165279484Y-64338148D02*
X165231865Y-64385768D01*
X165231865Y-64385768D02*
X165136627Y-64433387D01*
X165136627Y-64433387D02*
X164946151Y-64433387D01*
X164946151Y-64433387D02*
X164850913Y-64385768D01*
X164850913Y-64385768D02*
X164803294Y-64338148D01*
X164803294Y-64338148D02*
X164755675Y-64242910D01*
X164755675Y-64242910D02*
X164755675Y-63433387D01*
X163708056Y-64433387D02*
X164041389Y-63957196D01*
X164279484Y-64433387D02*
X164279484Y-63433387D01*
X164279484Y-63433387D02*
X163898532Y-63433387D01*
X163898532Y-63433387D02*
X163803294Y-63481006D01*
X163803294Y-63481006D02*
X163755675Y-63528625D01*
X163755675Y-63528625D02*
X163708056Y-63623863D01*
X163708056Y-63623863D02*
X163708056Y-63766720D01*
X163708056Y-63766720D02*
X163755675Y-63861958D01*
X163755675Y-63861958D02*
X163803294Y-63909577D01*
X163803294Y-63909577D02*
X163898532Y-63957196D01*
X163898532Y-63957196D02*
X164279484Y-63957196D01*
X162708056Y-64433387D02*
X163041389Y-63957196D01*
X163279484Y-64433387D02*
X163279484Y-63433387D01*
X163279484Y-63433387D02*
X162898532Y-63433387D01*
X162898532Y-63433387D02*
X162803294Y-63481006D01*
X162803294Y-63481006D02*
X162755675Y-63528625D01*
X162755675Y-63528625D02*
X162708056Y-63623863D01*
X162708056Y-63623863D02*
X162708056Y-63766720D01*
X162708056Y-63766720D02*
X162755675Y-63861958D01*
X162755675Y-63861958D02*
X162803294Y-63909577D01*
X162803294Y-63909577D02*
X162898532Y-63957196D01*
X162898532Y-63957196D02*
X163279484Y-63957196D01*
X162517580Y-64528625D02*
X161755675Y-64528625D01*
X161565198Y-64385768D02*
X161422341Y-64433387D01*
X161422341Y-64433387D02*
X161184246Y-64433387D01*
X161184246Y-64433387D02*
X161089008Y-64385768D01*
X161089008Y-64385768D02*
X161041389Y-64338148D01*
X161041389Y-64338148D02*
X160993770Y-64242910D01*
X160993770Y-64242910D02*
X160993770Y-64147672D01*
X160993770Y-64147672D02*
X161041389Y-64052434D01*
X161041389Y-64052434D02*
X161089008Y-64004815D01*
X161089008Y-64004815D02*
X161184246Y-63957196D01*
X161184246Y-63957196D02*
X161374722Y-63909577D01*
X161374722Y-63909577D02*
X161469960Y-63861958D01*
X161469960Y-63861958D02*
X161517579Y-63814339D01*
X161517579Y-63814339D02*
X161565198Y-63719101D01*
X161565198Y-63719101D02*
X161565198Y-63623863D01*
X161565198Y-63623863D02*
X161517579Y-63528625D01*
X161517579Y-63528625D02*
X161469960Y-63481006D01*
X161469960Y-63481006D02*
X161374722Y-63433387D01*
X161374722Y-63433387D02*
X161136627Y-63433387D01*
X161136627Y-63433387D02*
X160993770Y-63481006D01*
X160565198Y-63909577D02*
X160231865Y-63909577D01*
X160089008Y-64433387D02*
X160565198Y-64433387D01*
X160565198Y-64433387D02*
X160565198Y-63433387D01*
X160565198Y-63433387D02*
X160089008Y-63433387D01*
X159660436Y-64433387D02*
X159660436Y-63433387D01*
X159660436Y-63433387D02*
X159089008Y-64433387D01*
X159089008Y-64433387D02*
X159089008Y-63433387D01*
X158660436Y-64385768D02*
X158517579Y-64433387D01*
X158517579Y-64433387D02*
X158279484Y-64433387D01*
X158279484Y-64433387D02*
X158184246Y-64385768D01*
X158184246Y-64385768D02*
X158136627Y-64338148D01*
X158136627Y-64338148D02*
X158089008Y-64242910D01*
X158089008Y-64242910D02*
X158089008Y-64147672D01*
X158089008Y-64147672D02*
X158136627Y-64052434D01*
X158136627Y-64052434D02*
X158184246Y-64004815D01*
X158184246Y-64004815D02*
X158279484Y-63957196D01*
X158279484Y-63957196D02*
X158469960Y-63909577D01*
X158469960Y-63909577D02*
X158565198Y-63861958D01*
X158565198Y-63861958D02*
X158612817Y-63814339D01*
X158612817Y-63814339D02*
X158660436Y-63719101D01*
X158660436Y-63719101D02*
X158660436Y-63623863D01*
X158660436Y-63623863D02*
X158612817Y-63528625D01*
X158612817Y-63528625D02*
X158565198Y-63481006D01*
X158565198Y-63481006D02*
X158469960Y-63433387D01*
X158469960Y-63433387D02*
X158231865Y-63433387D01*
X158231865Y-63433387D02*
X158089008Y-63481006D01*
X157660436Y-63909577D02*
X157327103Y-63909577D01*
X157184246Y-64433387D02*
X157660436Y-64433387D01*
X157660436Y-64433387D02*
X157660436Y-63433387D01*
X157660436Y-63433387D02*
X157184246Y-63433387D01*
X179041388Y-65043331D02*
X178469960Y-65043331D01*
X178755674Y-66043331D02*
X178755674Y-65043331D01*
X178136626Y-66043331D02*
X178136626Y-65043331D01*
X178136626Y-65043331D02*
X177755674Y-65043331D01*
X177755674Y-65043331D02*
X177660436Y-65090950D01*
X177660436Y-65090950D02*
X177612817Y-65138569D01*
X177612817Y-65138569D02*
X177565198Y-65233807D01*
X177565198Y-65233807D02*
X177565198Y-65376664D01*
X177565198Y-65376664D02*
X177612817Y-65471902D01*
X177612817Y-65471902D02*
X177660436Y-65519521D01*
X177660436Y-65519521D02*
X177755674Y-65567140D01*
X177755674Y-65567140D02*
X178136626Y-65567140D01*
X176612817Y-66043331D02*
X177184245Y-66043331D01*
X176898531Y-66043331D02*
X176898531Y-65043331D01*
X176898531Y-65043331D02*
X176993769Y-65186188D01*
X176993769Y-65186188D02*
X177089007Y-65281426D01*
X177089007Y-65281426D02*
X177184245Y-65329045D01*
X175660436Y-66043331D02*
X176231864Y-66043331D01*
X175946150Y-66043331D02*
X175946150Y-65043331D01*
X175946150Y-65043331D02*
X176041388Y-65186188D01*
X176041388Y-65186188D02*
X176136626Y-65281426D01*
X176136626Y-65281426D02*
X176231864Y-65329045D01*
X175231864Y-65948092D02*
X175184245Y-65995712D01*
X175184245Y-65995712D02*
X175231864Y-66043331D01*
X175231864Y-66043331D02*
X175279483Y-65995712D01*
X175279483Y-65995712D02*
X175231864Y-65948092D01*
X175231864Y-65948092D02*
X175231864Y-66043331D01*
X175231864Y-65424283D02*
X175184245Y-65471902D01*
X175184245Y-65471902D02*
X175231864Y-65519521D01*
X175231864Y-65519521D02*
X175279483Y-65471902D01*
X175279483Y-65471902D02*
X175231864Y-65424283D01*
X175231864Y-65424283D02*
X175231864Y-65519521D01*
X174231865Y-65090950D02*
X174327103Y-65043331D01*
X174327103Y-65043331D02*
X174469960Y-65043331D01*
X174469960Y-65043331D02*
X174612817Y-65090950D01*
X174612817Y-65090950D02*
X174708055Y-65186188D01*
X174708055Y-65186188D02*
X174755674Y-65281426D01*
X174755674Y-65281426D02*
X174803293Y-65471902D01*
X174803293Y-65471902D02*
X174803293Y-65614759D01*
X174803293Y-65614759D02*
X174755674Y-65805235D01*
X174755674Y-65805235D02*
X174708055Y-65900473D01*
X174708055Y-65900473D02*
X174612817Y-65995712D01*
X174612817Y-65995712D02*
X174469960Y-66043331D01*
X174469960Y-66043331D02*
X174374722Y-66043331D01*
X174374722Y-66043331D02*
X174231865Y-65995712D01*
X174231865Y-65995712D02*
X174184246Y-65948092D01*
X174184246Y-65948092D02*
X174184246Y-65614759D01*
X174184246Y-65614759D02*
X174374722Y-65614759D01*
X173755674Y-66043331D02*
X173755674Y-65043331D01*
X173755674Y-65043331D02*
X173184246Y-66043331D01*
X173184246Y-66043331D02*
X173184246Y-65043331D01*
X172708055Y-66043331D02*
X172708055Y-65043331D01*
X172708055Y-65043331D02*
X172469960Y-65043331D01*
X172469960Y-65043331D02*
X172327103Y-65090950D01*
X172327103Y-65090950D02*
X172231865Y-65186188D01*
X172231865Y-65186188D02*
X172184246Y-65281426D01*
X172184246Y-65281426D02*
X172136627Y-65471902D01*
X172136627Y-65471902D02*
X172136627Y-65614759D01*
X172136627Y-65614759D02*
X172184246Y-65805235D01*
X172184246Y-65805235D02*
X172231865Y-65900473D01*
X172231865Y-65900473D02*
X172327103Y-65995712D01*
X172327103Y-65995712D02*
X172469960Y-66043331D01*
X172469960Y-66043331D02*
X172708055Y-66043331D01*
D11*
X128563004Y-64878419D02*
X127991576Y-64878419D01*
X128277290Y-65878419D02*
X128277290Y-64878419D01*
X127658242Y-65878419D02*
X127658242Y-64878419D01*
X127658242Y-64878419D02*
X127277290Y-64878419D01*
X127277290Y-64878419D02*
X127182052Y-64926038D01*
X127182052Y-64926038D02*
X127134433Y-64973657D01*
X127134433Y-64973657D02*
X127086814Y-65068895D01*
X127086814Y-65068895D02*
X127086814Y-65211752D01*
X127086814Y-65211752D02*
X127134433Y-65306990D01*
X127134433Y-65306990D02*
X127182052Y-65354609D01*
X127182052Y-65354609D02*
X127277290Y-65402228D01*
X127277290Y-65402228D02*
X127658242Y-65402228D01*
X126610623Y-65878419D02*
X126420147Y-65878419D01*
X126420147Y-65878419D02*
X126324909Y-65830800D01*
X126324909Y-65830800D02*
X126277290Y-65783180D01*
X126277290Y-65783180D02*
X126182052Y-65640323D01*
X126182052Y-65640323D02*
X126134433Y-65449847D01*
X126134433Y-65449847D02*
X126134433Y-65068895D01*
X126134433Y-65068895D02*
X126182052Y-64973657D01*
X126182052Y-64973657D02*
X126229671Y-64926038D01*
X126229671Y-64926038D02*
X126324909Y-64878419D01*
X126324909Y-64878419D02*
X126515385Y-64878419D01*
X126515385Y-64878419D02*
X126610623Y-64926038D01*
X126610623Y-64926038D02*
X126658242Y-64973657D01*
X126658242Y-64973657D02*
X126705861Y-65068895D01*
X126705861Y-65068895D02*
X126705861Y-65306990D01*
X126705861Y-65306990D02*
X126658242Y-65402228D01*
X126658242Y-65402228D02*
X126610623Y-65449847D01*
X126610623Y-65449847D02*
X126515385Y-65497466D01*
X126515385Y-65497466D02*
X126324909Y-65497466D01*
X126324909Y-65497466D02*
X126229671Y-65449847D01*
X126229671Y-65449847D02*
X126182052Y-65402228D01*
X126182052Y-65402228D02*
X126134433Y-65306990D01*
X108563004Y-74378419D02*
X107991576Y-74378419D01*
X108277290Y-75378419D02*
X108277290Y-74378419D01*
X107658242Y-75378419D02*
X107658242Y-74378419D01*
X107658242Y-74378419D02*
X107277290Y-74378419D01*
X107277290Y-74378419D02*
X107182052Y-74426038D01*
X107182052Y-74426038D02*
X107134433Y-74473657D01*
X107134433Y-74473657D02*
X107086814Y-74568895D01*
X107086814Y-74568895D02*
X107086814Y-74711752D01*
X107086814Y-74711752D02*
X107134433Y-74806990D01*
X107134433Y-74806990D02*
X107182052Y-74854609D01*
X107182052Y-74854609D02*
X107277290Y-74902228D01*
X107277290Y-74902228D02*
X107658242Y-74902228D01*
X106182052Y-74378419D02*
X106658242Y-74378419D01*
X106658242Y-74378419D02*
X106705861Y-74854609D01*
X106705861Y-74854609D02*
X106658242Y-74806990D01*
X106658242Y-74806990D02*
X106563004Y-74759371D01*
X106563004Y-74759371D02*
X106324909Y-74759371D01*
X106324909Y-74759371D02*
X106229671Y-74806990D01*
X106229671Y-74806990D02*
X106182052Y-74854609D01*
X106182052Y-74854609D02*
X106134433Y-74949847D01*
X106134433Y-74949847D02*
X106134433Y-75187942D01*
X106134433Y-75187942D02*
X106182052Y-75283180D01*
X106182052Y-75283180D02*
X106229671Y-75330800D01*
X106229671Y-75330800D02*
X106324909Y-75378419D01*
X106324909Y-75378419D02*
X106563004Y-75378419D01*
X106563004Y-75378419D02*
X106658242Y-75330800D01*
X106658242Y-75330800D02*
X106705861Y-75283180D01*
X119242766Y-59200022D02*
X119576099Y-58723831D01*
X119814194Y-59200022D02*
X119814194Y-58200022D01*
X119814194Y-58200022D02*
X119433242Y-58200022D01*
X119433242Y-58200022D02*
X119338004Y-58247641D01*
X119338004Y-58247641D02*
X119290385Y-58295260D01*
X119290385Y-58295260D02*
X119242766Y-58390498D01*
X119242766Y-58390498D02*
X119242766Y-58533355D01*
X119242766Y-58533355D02*
X119290385Y-58628593D01*
X119290385Y-58628593D02*
X119338004Y-58676212D01*
X119338004Y-58676212D02*
X119433242Y-58723831D01*
X119433242Y-58723831D02*
X119814194Y-58723831D01*
X118861813Y-58295260D02*
X118814194Y-58247641D01*
X118814194Y-58247641D02*
X118718956Y-58200022D01*
X118718956Y-58200022D02*
X118480861Y-58200022D01*
X118480861Y-58200022D02*
X118385623Y-58247641D01*
X118385623Y-58247641D02*
X118338004Y-58295260D01*
X118338004Y-58295260D02*
X118290385Y-58390498D01*
X118290385Y-58390498D02*
X118290385Y-58485736D01*
X118290385Y-58485736D02*
X118338004Y-58628593D01*
X118338004Y-58628593D02*
X118909432Y-59200022D01*
X118909432Y-59200022D02*
X118290385Y-59200022D01*
X134563004Y-77378419D02*
X133991576Y-77378419D01*
X134277290Y-78378419D02*
X134277290Y-77378419D01*
X133658242Y-78378419D02*
X133658242Y-77378419D01*
X133658242Y-77378419D02*
X133277290Y-77378419D01*
X133277290Y-77378419D02*
X133182052Y-77426038D01*
X133182052Y-77426038D02*
X133134433Y-77473657D01*
X133134433Y-77473657D02*
X133086814Y-77568895D01*
X133086814Y-77568895D02*
X133086814Y-77711752D01*
X133086814Y-77711752D02*
X133134433Y-77806990D01*
X133134433Y-77806990D02*
X133182052Y-77854609D01*
X133182052Y-77854609D02*
X133277290Y-77902228D01*
X133277290Y-77902228D02*
X133658242Y-77902228D01*
X132515385Y-77806990D02*
X132610623Y-77759371D01*
X132610623Y-77759371D02*
X132658242Y-77711752D01*
X132658242Y-77711752D02*
X132705861Y-77616514D01*
X132705861Y-77616514D02*
X132705861Y-77568895D01*
X132705861Y-77568895D02*
X132658242Y-77473657D01*
X132658242Y-77473657D02*
X132610623Y-77426038D01*
X132610623Y-77426038D02*
X132515385Y-77378419D01*
X132515385Y-77378419D02*
X132324909Y-77378419D01*
X132324909Y-77378419D02*
X132229671Y-77426038D01*
X132229671Y-77426038D02*
X132182052Y-77473657D01*
X132182052Y-77473657D02*
X132134433Y-77568895D01*
X132134433Y-77568895D02*
X132134433Y-77616514D01*
X132134433Y-77616514D02*
X132182052Y-77711752D01*
X132182052Y-77711752D02*
X132229671Y-77759371D01*
X132229671Y-77759371D02*
X132324909Y-77806990D01*
X132324909Y-77806990D02*
X132515385Y-77806990D01*
X132515385Y-77806990D02*
X132610623Y-77854609D01*
X132610623Y-77854609D02*
X132658242Y-77902228D01*
X132658242Y-77902228D02*
X132705861Y-77997466D01*
X132705861Y-77997466D02*
X132705861Y-78187942D01*
X132705861Y-78187942D02*
X132658242Y-78283180D01*
X132658242Y-78283180D02*
X132610623Y-78330800D01*
X132610623Y-78330800D02*
X132515385Y-78378419D01*
X132515385Y-78378419D02*
X132324909Y-78378419D01*
X132324909Y-78378419D02*
X132229671Y-78330800D01*
X132229671Y-78330800D02*
X132182052Y-78283180D01*
X132182052Y-78283180D02*
X132134433Y-78187942D01*
X132134433Y-78187942D02*
X132134433Y-77997466D01*
X132134433Y-77997466D02*
X132182052Y-77902228D01*
X132182052Y-77902228D02*
X132229671Y-77854609D01*
X132229671Y-77854609D02*
X132324909Y-77806990D01*
X108563004Y-77378419D02*
X107991576Y-77378419D01*
X108277290Y-78378419D02*
X108277290Y-77378419D01*
X107658242Y-78378419D02*
X107658242Y-77378419D01*
X107658242Y-77378419D02*
X107277290Y-77378419D01*
X107277290Y-77378419D02*
X107182052Y-77426038D01*
X107182052Y-77426038D02*
X107134433Y-77473657D01*
X107134433Y-77473657D02*
X107086814Y-77568895D01*
X107086814Y-77568895D02*
X107086814Y-77711752D01*
X107086814Y-77711752D02*
X107134433Y-77806990D01*
X107134433Y-77806990D02*
X107182052Y-77854609D01*
X107182052Y-77854609D02*
X107277290Y-77902228D01*
X107277290Y-77902228D02*
X107658242Y-77902228D01*
X106229671Y-77711752D02*
X106229671Y-78378419D01*
X106467766Y-77330800D02*
X106705861Y-78045085D01*
X106705861Y-78045085D02*
X106086814Y-78045085D01*
X130063004Y-57378419D02*
X129491576Y-57378419D01*
X129777290Y-58378419D02*
X129777290Y-57378419D01*
X129158242Y-58378419D02*
X129158242Y-57378419D01*
X129158242Y-57378419D02*
X128777290Y-57378419D01*
X128777290Y-57378419D02*
X128682052Y-57426038D01*
X128682052Y-57426038D02*
X128634433Y-57473657D01*
X128634433Y-57473657D02*
X128586814Y-57568895D01*
X128586814Y-57568895D02*
X128586814Y-57711752D01*
X128586814Y-57711752D02*
X128634433Y-57806990D01*
X128634433Y-57806990D02*
X128682052Y-57854609D01*
X128682052Y-57854609D02*
X128777290Y-57902228D01*
X128777290Y-57902228D02*
X129158242Y-57902228D01*
X128253480Y-57378419D02*
X127634433Y-57378419D01*
X127634433Y-57378419D02*
X127967766Y-57759371D01*
X127967766Y-57759371D02*
X127824909Y-57759371D01*
X127824909Y-57759371D02*
X127729671Y-57806990D01*
X127729671Y-57806990D02*
X127682052Y-57854609D01*
X127682052Y-57854609D02*
X127634433Y-57949847D01*
X127634433Y-57949847D02*
X127634433Y-58187942D01*
X127634433Y-58187942D02*
X127682052Y-58283180D01*
X127682052Y-58283180D02*
X127729671Y-58330800D01*
X127729671Y-58330800D02*
X127824909Y-58378419D01*
X127824909Y-58378419D02*
X128110623Y-58378419D01*
X128110623Y-58378419D02*
X128205861Y-58330800D01*
X128205861Y-58330800D02*
X128253480Y-58283180D01*
X113563004Y-62878419D02*
X112991576Y-62878419D01*
X113277290Y-63878419D02*
X113277290Y-62878419D01*
X112658242Y-63878419D02*
X112658242Y-62878419D01*
X112658242Y-62878419D02*
X112277290Y-62878419D01*
X112277290Y-62878419D02*
X112182052Y-62926038D01*
X112182052Y-62926038D02*
X112134433Y-62973657D01*
X112134433Y-62973657D02*
X112086814Y-63068895D01*
X112086814Y-63068895D02*
X112086814Y-63211752D01*
X112086814Y-63211752D02*
X112134433Y-63306990D01*
X112134433Y-63306990D02*
X112182052Y-63354609D01*
X112182052Y-63354609D02*
X112277290Y-63402228D01*
X112277290Y-63402228D02*
X112658242Y-63402228D01*
X111753480Y-62878419D02*
X111086814Y-62878419D01*
X111086814Y-62878419D02*
X111515385Y-63878419D01*
X109063004Y-57878419D02*
X108491576Y-57878419D01*
X108777290Y-58878419D02*
X108777290Y-57878419D01*
X108158242Y-58878419D02*
X108158242Y-57878419D01*
X108158242Y-57878419D02*
X107777290Y-57878419D01*
X107777290Y-57878419D02*
X107682052Y-57926038D01*
X107682052Y-57926038D02*
X107634433Y-57973657D01*
X107634433Y-57973657D02*
X107586814Y-58068895D01*
X107586814Y-58068895D02*
X107586814Y-58211752D01*
X107586814Y-58211752D02*
X107634433Y-58306990D01*
X107634433Y-58306990D02*
X107682052Y-58354609D01*
X107682052Y-58354609D02*
X107777290Y-58402228D01*
X107777290Y-58402228D02*
X108158242Y-58402228D01*
X106729671Y-57878419D02*
X106920147Y-57878419D01*
X106920147Y-57878419D02*
X107015385Y-57926038D01*
X107015385Y-57926038D02*
X107063004Y-57973657D01*
X107063004Y-57973657D02*
X107158242Y-58116514D01*
X107158242Y-58116514D02*
X107205861Y-58306990D01*
X107205861Y-58306990D02*
X107205861Y-58687942D01*
X107205861Y-58687942D02*
X107158242Y-58783180D01*
X107158242Y-58783180D02*
X107110623Y-58830800D01*
X107110623Y-58830800D02*
X107015385Y-58878419D01*
X107015385Y-58878419D02*
X106824909Y-58878419D01*
X106824909Y-58878419D02*
X106729671Y-58830800D01*
X106729671Y-58830800D02*
X106682052Y-58783180D01*
X106682052Y-58783180D02*
X106634433Y-58687942D01*
X106634433Y-58687942D02*
X106634433Y-58449847D01*
X106634433Y-58449847D02*
X106682052Y-58354609D01*
X106682052Y-58354609D02*
X106729671Y-58306990D01*
X106729671Y-58306990D02*
X106824909Y-58259371D01*
X106824909Y-58259371D02*
X107015385Y-58259371D01*
X107015385Y-58259371D02*
X107110623Y-58306990D01*
X107110623Y-58306990D02*
X107158242Y-58354609D01*
X107158242Y-58354609D02*
X107205861Y-58449847D01*
X134039194Y-57378419D02*
X133467766Y-57378419D01*
X133753480Y-58378419D02*
X133753480Y-57378419D01*
X133134432Y-58378419D02*
X133134432Y-57378419D01*
X133134432Y-57378419D02*
X132753480Y-57378419D01*
X132753480Y-57378419D02*
X132658242Y-57426038D01*
X132658242Y-57426038D02*
X132610623Y-57473657D01*
X132610623Y-57473657D02*
X132563004Y-57568895D01*
X132563004Y-57568895D02*
X132563004Y-57711752D01*
X132563004Y-57711752D02*
X132610623Y-57806990D01*
X132610623Y-57806990D02*
X132658242Y-57854609D01*
X132658242Y-57854609D02*
X132753480Y-57902228D01*
X132753480Y-57902228D02*
X133134432Y-57902228D01*
X131610623Y-58378419D02*
X132182051Y-58378419D01*
X131896337Y-58378419D02*
X131896337Y-57378419D01*
X131896337Y-57378419D02*
X131991575Y-57521276D01*
X131991575Y-57521276D02*
X132086813Y-57616514D01*
X132086813Y-57616514D02*
X132182051Y-57664133D01*
X130991575Y-57378419D02*
X130896337Y-57378419D01*
X130896337Y-57378419D02*
X130801099Y-57426038D01*
X130801099Y-57426038D02*
X130753480Y-57473657D01*
X130753480Y-57473657D02*
X130705861Y-57568895D01*
X130705861Y-57568895D02*
X130658242Y-57759371D01*
X130658242Y-57759371D02*
X130658242Y-57997466D01*
X130658242Y-57997466D02*
X130705861Y-58187942D01*
X130705861Y-58187942D02*
X130753480Y-58283180D01*
X130753480Y-58283180D02*
X130801099Y-58330800D01*
X130801099Y-58330800D02*
X130896337Y-58378419D01*
X130896337Y-58378419D02*
X130991575Y-58378419D01*
X130991575Y-58378419D02*
X131086813Y-58330800D01*
X131086813Y-58330800D02*
X131134432Y-58283180D01*
X131134432Y-58283180D02*
X131182051Y-58187942D01*
X131182051Y-58187942D02*
X131229670Y-57997466D01*
X131229670Y-57997466D02*
X131229670Y-57759371D01*
X131229670Y-57759371D02*
X131182051Y-57568895D01*
X131182051Y-57568895D02*
X131134432Y-57473657D01*
X131134432Y-57473657D02*
X131086813Y-57426038D01*
X131086813Y-57426038D02*
X130991575Y-57378419D01*
X115539194Y-49378419D02*
X114967766Y-49378419D01*
X115253480Y-50378419D02*
X115253480Y-49378419D01*
X114634432Y-50378419D02*
X114634432Y-49378419D01*
X114634432Y-49378419D02*
X114253480Y-49378419D01*
X114253480Y-49378419D02*
X114158242Y-49426038D01*
X114158242Y-49426038D02*
X114110623Y-49473657D01*
X114110623Y-49473657D02*
X114063004Y-49568895D01*
X114063004Y-49568895D02*
X114063004Y-49711752D01*
X114063004Y-49711752D02*
X114110623Y-49806990D01*
X114110623Y-49806990D02*
X114158242Y-49854609D01*
X114158242Y-49854609D02*
X114253480Y-49902228D01*
X114253480Y-49902228D02*
X114634432Y-49902228D01*
X113110623Y-50378419D02*
X113682051Y-50378419D01*
X113396337Y-50378419D02*
X113396337Y-49378419D01*
X113396337Y-49378419D02*
X113491575Y-49521276D01*
X113491575Y-49521276D02*
X113586813Y-49616514D01*
X113586813Y-49616514D02*
X113682051Y-49664133D01*
X112158242Y-50378419D02*
X112729670Y-50378419D01*
X112443956Y-50378419D02*
X112443956Y-49378419D01*
X112443956Y-49378419D02*
X112539194Y-49521276D01*
X112539194Y-49521276D02*
X112634432Y-49616514D01*
X112634432Y-49616514D02*
X112729670Y-49664133D01*
X124563004Y-57378419D02*
X123991576Y-57378419D01*
X124277290Y-58378419D02*
X124277290Y-57378419D01*
X123658242Y-58378419D02*
X123658242Y-57378419D01*
X123658242Y-57378419D02*
X123277290Y-57378419D01*
X123277290Y-57378419D02*
X123182052Y-57426038D01*
X123182052Y-57426038D02*
X123134433Y-57473657D01*
X123134433Y-57473657D02*
X123086814Y-57568895D01*
X123086814Y-57568895D02*
X123086814Y-57711752D01*
X123086814Y-57711752D02*
X123134433Y-57806990D01*
X123134433Y-57806990D02*
X123182052Y-57854609D01*
X123182052Y-57854609D02*
X123277290Y-57902228D01*
X123277290Y-57902228D02*
X123658242Y-57902228D01*
X122705861Y-57473657D02*
X122658242Y-57426038D01*
X122658242Y-57426038D02*
X122563004Y-57378419D01*
X122563004Y-57378419D02*
X122324909Y-57378419D01*
X122324909Y-57378419D02*
X122229671Y-57426038D01*
X122229671Y-57426038D02*
X122182052Y-57473657D01*
X122182052Y-57473657D02*
X122134433Y-57568895D01*
X122134433Y-57568895D02*
X122134433Y-57664133D01*
X122134433Y-57664133D02*
X122182052Y-57806990D01*
X122182052Y-57806990D02*
X122753480Y-58378419D01*
X122753480Y-58378419D02*
X122134433Y-58378419D01*
X143563004Y-74878419D02*
X142991576Y-74878419D01*
X143277290Y-75878419D02*
X143277290Y-74878419D01*
X142658242Y-75878419D02*
X142658242Y-74878419D01*
X142658242Y-74878419D02*
X142277290Y-74878419D01*
X142277290Y-74878419D02*
X142182052Y-74926038D01*
X142182052Y-74926038D02*
X142134433Y-74973657D01*
X142134433Y-74973657D02*
X142086814Y-75068895D01*
X142086814Y-75068895D02*
X142086814Y-75211752D01*
X142086814Y-75211752D02*
X142134433Y-75306990D01*
X142134433Y-75306990D02*
X142182052Y-75354609D01*
X142182052Y-75354609D02*
X142277290Y-75402228D01*
X142277290Y-75402228D02*
X142658242Y-75402228D01*
X141134433Y-75878419D02*
X141705861Y-75878419D01*
X141420147Y-75878419D02*
X141420147Y-74878419D01*
X141420147Y-74878419D02*
X141515385Y-75021276D01*
X141515385Y-75021276D02*
X141610623Y-75116514D01*
X141610623Y-75116514D02*
X141705861Y-75164133D01*
%TO.C,J4*%
X117107500Y-49866600D02*
X127521500Y-49866600D01*
X117107500Y-55200600D02*
X117107500Y-49866600D01*
X117107500Y-55200600D02*
X127521500Y-55200600D01*
X127521500Y-55200600D02*
X127521500Y-49866600D01*
%TO.C,DEPLOYER2*%
X140258100Y-109247685D02*
X144540100Y-109247685D01*
X140258100Y-118086885D02*
X140258100Y-109247685D01*
X140258100Y-118086885D02*
X144540100Y-118086885D01*
X144540100Y-118086885D02*
X144540100Y-109247685D01*
D12*
X145190480Y-110644685D02*
G75*
G02*
X145007320Y-110644685I-91580J0D01*
G01*
X145007320Y-110644685D02*
G75*
G02*
X145190480Y-110644685I91580J0D01*
G01*
D11*
%TO.C,DEPLOYER1*%
X146062100Y-69264085D02*
X146062100Y-78103285D01*
X150344100Y-69264085D02*
X146062100Y-69264085D01*
X150344100Y-69264085D02*
X150344100Y-78103285D01*
X150344100Y-78103285D02*
X146062100Y-78103285D01*
D12*
X145544080Y-76909485D02*
G75*
G02*
X145360920Y-76909485I-91580J0D01*
G01*
X145360920Y-76909485D02*
G75*
G02*
X145544080Y-76909485I91580J0D01*
G01*
D11*
%TO.C,TP9*%
X128001100Y-66898600D02*
G75*
G02*
X126601100Y-66898600I-700000J0D01*
G01*
X126601100Y-66898600D02*
G75*
G02*
X128001100Y-66898600I700000J0D01*
G01*
%TO.C,TP5*%
X108001100Y-76398600D02*
G75*
G02*
X106601100Y-76398600I-700000J0D01*
G01*
X106601100Y-76398600D02*
G75*
G02*
X108001100Y-76398600I700000J0D01*
G01*
%TO.C,R2*%
X117801100Y-59520203D02*
X117801100Y-60870203D01*
X117801100Y-59520203D02*
X120351100Y-59520203D01*
X117801100Y-60870203D02*
X120351100Y-60870203D01*
X120351100Y-59520203D02*
X120351100Y-60870203D01*
%TO.C,TP8*%
X134001100Y-79398600D02*
G75*
G02*
X132601100Y-79398600I-700000J0D01*
G01*
X132601100Y-79398600D02*
G75*
G02*
X134001100Y-79398600I700000J0D01*
G01*
%TO.C,TP4*%
X108001100Y-79398600D02*
G75*
G02*
X106601100Y-79398600I-700000J0D01*
G01*
X106601100Y-79398600D02*
G75*
G02*
X108001100Y-79398600I700000J0D01*
G01*
%TO.C,TP3*%
X129501100Y-59398600D02*
G75*
G02*
X128101100Y-59398600I-700000J0D01*
G01*
X128101100Y-59398600D02*
G75*
G02*
X129501100Y-59398600I700000J0D01*
G01*
%TO.C,TP7*%
X113001100Y-64898600D02*
G75*
G02*
X111601100Y-64898600I-700000J0D01*
G01*
X111601100Y-64898600D02*
G75*
G02*
X113001100Y-64898600I700000J0D01*
G01*
%TO.C,TP6*%
X108501100Y-59898600D02*
G75*
G02*
X107101100Y-59898600I-700000J0D01*
G01*
X107101100Y-59898600D02*
G75*
G02*
X108501100Y-59898600I700000J0D01*
G01*
%TO.C,TP10*%
X133001100Y-59398600D02*
G75*
G02*
X131601100Y-59398600I-700000J0D01*
G01*
X131601100Y-59398600D02*
G75*
G02*
X133001100Y-59398600I700000J0D01*
G01*
%TO.C,TP11*%
X114501100Y-51398600D02*
G75*
G02*
X113101100Y-51398600I-700000J0D01*
G01*
X113101100Y-51398600D02*
G75*
G02*
X114501100Y-51398600I700000J0D01*
G01*
%TO.C,TP2*%
X124001100Y-59398600D02*
G75*
G02*
X122601100Y-59398600I-700000J0D01*
G01*
X122601100Y-59398600D02*
G75*
G02*
X124001100Y-59398600I700000J0D01*
G01*
%TO.C,TP1*%
X143001100Y-76898600D02*
G75*
G02*
X141601100Y-76898600I-700000J0D01*
G01*
X141601100Y-76898600D02*
G75*
G02*
X143001100Y-76898600I700000J0D01*
G01*
%TD*%
M02*
