%TF.GenerationSoftware,KiCad,Pcbnew,8.0.4*%
%TF.CreationDate,2024-08-22T00:26:23+05:30*%
%TF.ProjectId,sanket 4.0,73616e6b-6574-4203-942e-302e6b696361,rev?*%
%TF.SameCoordinates,Original*%
%TF.FileFunction,Soldermask,Top*%
%TF.FilePolarity,Negative*%
%FSLAX46Y46*%
G04 Gerber Fmt 4.6, Leading zero omitted, Abs format (unit mm)*
G04 Created by KiCad (PCBNEW 8.0.4) date 2024-08-22 00:26:23*
%MOMM*%
%LPD*%
G01*
G04 APERTURE LIST*
G04 Aperture macros list*
%AMRoundRect*
0 Rectangle with rounded corners*
0 $1 Rounding radius*
0 $2 $3 $4 $5 $6 $7 $8 $9 X,Y pos of 4 corners*
0 Add a 4 corners polygon primitive as box body*
4,1,4,$2,$3,$4,$5,$6,$7,$8,$9,$2,$3,0*
0 Add four circle primitives for the rounded corners*
1,1,$1+$1,$2,$3*
1,1,$1+$1,$4,$5*
1,1,$1+$1,$6,$7*
1,1,$1+$1,$8,$9*
0 Add four rect primitives between the rounded corners*
20,1,$1+$1,$2,$3,$4,$5,0*
20,1,$1+$1,$4,$5,$6,$7,0*
20,1,$1+$1,$6,$7,$8,$9,0*
20,1,$1+$1,$8,$9,$2,$3,0*%
G04 Aperture macros list end*
%ADD10C,0.000000*%
%ADD11C,0.025400*%
%ADD12O,4.000000X2.000000*%
%ADD13R,0.650000X0.900000*%
%ADD14R,1.720000X1.720000*%
%ADD15C,1.720000*%
%ADD16R,0.900000X0.650000*%
%ADD17C,3.200000*%
%ADD18R,1.100000X1.150000*%
%ADD19R,2.000000X3.000000*%
%ADD20R,0.600000X1.250000*%
%ADD21RoundRect,0.450000X0.550000X0.450000X-0.550000X0.450000X-0.550000X-0.450000X0.550000X-0.450000X0*%
%ADD22R,1.700000X1.700000*%
%ADD23O,1.700000X1.700000*%
%ADD24R,1.150000X1.100000*%
%ADD25R,0.400000X0.900000*%
%ADD26R,0.800000X0.800000*%
%ADD27R,1.560000X1.560000*%
%ADD28C,1.560000*%
%ADD29C,10.100000*%
%ADD30C,9.100000*%
%ADD31O,6.500000X13.000000*%
%ADD32R,1.490000X1.490000*%
%ADD33C,1.490000*%
%ADD34RoundRect,0.102000X0.125000X-0.387500X0.125000X0.387500X-0.125000X0.387500X-0.125000X-0.387500X0*%
%ADD35RoundRect,0.102000X0.125000X-1.150000X0.125000X1.150000X-0.125000X1.150000X-0.125000X-1.150000X0*%
%ADD36RoundRect,0.102000X0.325000X-0.125000X0.325000X0.125000X-0.325000X0.125000X-0.325000X-0.125000X0*%
%ADD37RoundRect,0.102000X0.160000X-0.345000X0.160000X0.345000X-0.160000X0.345000X-0.160000X-0.345000X0*%
%ADD38RoundRect,0.102000X0.800000X-0.500000X0.800000X0.500000X-0.800000X0.500000X-0.800000X-0.500000X0*%
G04 APERTURE END LIST*
D10*
%TO.C,DEPLOYER2*%
G36*
X143301100Y-96675485D02*
G01*
X133301100Y-96675485D01*
X133301100Y-107966235D01*
X133301100Y-108498305D01*
X133214140Y-109558895D01*
X133040790Y-110608835D01*
X132782220Y-111641105D01*
X132440160Y-112648785D01*
X132016890Y-113625135D01*
X131515260Y-114563635D01*
X130938600Y-115458005D01*
X130290790Y-116302255D01*
X129576140Y-117090735D01*
X128799460Y-117818185D01*
X127965920Y-118479725D01*
X127081110Y-119070935D01*
X126150940Y-119587865D01*
X125181640Y-120027045D01*
X124179700Y-120385555D01*
X123665750Y-120523265D01*
X101251100Y-126529255D01*
X101251100Y-92675485D01*
X119801100Y-92675485D01*
X119801100Y-88675485D01*
X143301100Y-88675485D01*
X143301100Y-96675485D01*
G37*
%TO.C,DEPLOYER1*%
G36*
X189351100Y-94675485D02*
G01*
X170801100Y-94675485D01*
X170801100Y-98675485D01*
X147301100Y-98675485D01*
X147301100Y-90675485D01*
X157301100Y-90675485D01*
X157301100Y-79384735D01*
X157301100Y-78852665D01*
X157388060Y-77792075D01*
X157561410Y-76742135D01*
X157819980Y-75709865D01*
X158162040Y-74702185D01*
X158585310Y-73725835D01*
X159086940Y-72787335D01*
X159663600Y-71892965D01*
X160311410Y-71048715D01*
X161026060Y-70260235D01*
X161802740Y-69532785D01*
X162636280Y-68871245D01*
X163521090Y-68280035D01*
X164451260Y-67763105D01*
X165420560Y-67323925D01*
X166422500Y-66965415D01*
X166936450Y-66827705D01*
X189351100Y-60821715D01*
X189351100Y-94675485D01*
G37*
D11*
%TO.C,U6*%
X118206248Y-66698779D02*
X118215777Y-66701669D01*
X118224558Y-66706359D01*
X118232258Y-66712679D01*
X118282258Y-66762679D01*
X118288574Y-66770379D01*
X118293270Y-66779159D01*
X118296161Y-66788689D01*
X118297136Y-66798599D01*
X118297136Y-67473599D01*
X118296161Y-67483508D01*
X118293270Y-67493040D01*
X118288574Y-67501821D01*
X118282258Y-67509518D01*
X118232258Y-67559518D01*
X118224558Y-67565836D01*
X118215777Y-67570533D01*
X118206248Y-67573424D01*
X118196336Y-67574399D01*
X117521336Y-67574399D01*
X117511426Y-67573424D01*
X117501896Y-67570533D01*
X117493116Y-67565836D01*
X117485416Y-67559518D01*
X117435416Y-67509518D01*
X117429096Y-67501821D01*
X117424406Y-67493040D01*
X117421516Y-67483508D01*
X117420536Y-67473599D01*
X117420536Y-67223599D01*
X117421516Y-67213686D01*
X117424406Y-67204158D01*
X117429096Y-67195377D01*
X117435416Y-67187677D01*
X117485416Y-67137677D01*
X117493116Y-67131361D01*
X117501896Y-67126665D01*
X117511426Y-67123774D01*
X117521336Y-67122799D01*
X117925296Y-67122799D01*
X117945536Y-67102558D01*
X117945536Y-66798599D01*
X117946506Y-66788689D01*
X117949406Y-66779159D01*
X117954096Y-66770379D01*
X117960416Y-66762679D01*
X118010416Y-66712679D01*
X118018116Y-66706359D01*
X118026896Y-66701669D01*
X118036426Y-66698779D01*
X118046336Y-66697799D01*
X118196336Y-66697799D01*
X118206248Y-66698779D01*
G36*
X118206248Y-66698779D02*
G01*
X118215777Y-66701669D01*
X118224558Y-66706359D01*
X118232258Y-66712679D01*
X118282258Y-66762679D01*
X118288574Y-66770379D01*
X118293270Y-66779159D01*
X118296161Y-66788689D01*
X118297136Y-66798599D01*
X118297136Y-67473599D01*
X118296161Y-67483508D01*
X118293270Y-67493040D01*
X118288574Y-67501821D01*
X118282258Y-67509518D01*
X118232258Y-67559518D01*
X118224558Y-67565836D01*
X118215777Y-67570533D01*
X118206248Y-67573424D01*
X118196336Y-67574399D01*
X117521336Y-67574399D01*
X117511426Y-67573424D01*
X117501896Y-67570533D01*
X117493116Y-67565836D01*
X117485416Y-67559518D01*
X117435416Y-67509518D01*
X117429096Y-67501821D01*
X117424406Y-67493040D01*
X117421516Y-67483508D01*
X117420536Y-67473599D01*
X117420536Y-67223599D01*
X117421516Y-67213686D01*
X117424406Y-67204158D01*
X117429096Y-67195377D01*
X117435416Y-67187677D01*
X117485416Y-67137677D01*
X117493116Y-67131361D01*
X117501896Y-67126665D01*
X117511426Y-67123774D01*
X117521336Y-67122799D01*
X117925296Y-67122799D01*
X117945536Y-67102558D01*
X117945536Y-66798599D01*
X117946506Y-66788689D01*
X117949406Y-66779159D01*
X117954096Y-66770379D01*
X117960416Y-66762679D01*
X118010416Y-66712679D01*
X118018116Y-66706359D01*
X118026896Y-66701669D01*
X118036426Y-66698779D01*
X118046336Y-66697799D01*
X118196336Y-66697799D01*
X118206248Y-66698779D01*
G37*
X118206248Y-68223774D02*
X118215777Y-68226665D01*
X118224558Y-68231362D01*
X118232258Y-68237680D01*
X118282258Y-68287680D01*
X118288574Y-68295377D01*
X118293270Y-68304158D01*
X118296161Y-68313690D01*
X118297136Y-68323599D01*
X118297136Y-68998599D01*
X118296161Y-69008509D01*
X118293270Y-69018039D01*
X118288574Y-69026819D01*
X118282258Y-69034519D01*
X118232258Y-69084519D01*
X118224558Y-69090839D01*
X118215777Y-69095529D01*
X118206248Y-69098419D01*
X118196336Y-69099399D01*
X118046336Y-69099399D01*
X118036426Y-69098419D01*
X118026896Y-69095529D01*
X118018116Y-69090839D01*
X118010416Y-69084519D01*
X117960416Y-69034519D01*
X117954096Y-69026819D01*
X117949406Y-69018039D01*
X117946506Y-69008509D01*
X117945536Y-68998599D01*
X117945536Y-68694640D01*
X117925296Y-68674399D01*
X117521336Y-68674399D01*
X117511426Y-68673424D01*
X117501896Y-68670533D01*
X117493116Y-68665837D01*
X117485416Y-68659521D01*
X117435416Y-68609521D01*
X117429096Y-68601821D01*
X117424406Y-68593040D01*
X117421516Y-68583512D01*
X117420536Y-68573599D01*
X117420536Y-68323599D01*
X117421516Y-68313690D01*
X117424406Y-68304158D01*
X117429096Y-68295377D01*
X117435416Y-68287680D01*
X117485416Y-68237680D01*
X117493116Y-68231362D01*
X117501896Y-68226665D01*
X117511426Y-68223774D01*
X117521336Y-68222799D01*
X118196336Y-68222799D01*
X118206248Y-68223774D01*
G36*
X118206248Y-68223774D02*
G01*
X118215777Y-68226665D01*
X118224558Y-68231362D01*
X118232258Y-68237680D01*
X118282258Y-68287680D01*
X118288574Y-68295377D01*
X118293270Y-68304158D01*
X118296161Y-68313690D01*
X118297136Y-68323599D01*
X118297136Y-68998599D01*
X118296161Y-69008509D01*
X118293270Y-69018039D01*
X118288574Y-69026819D01*
X118282258Y-69034519D01*
X118232258Y-69084519D01*
X118224558Y-69090839D01*
X118215777Y-69095529D01*
X118206248Y-69098419D01*
X118196336Y-69099399D01*
X118046336Y-69099399D01*
X118036426Y-69098419D01*
X118026896Y-69095529D01*
X118018116Y-69090839D01*
X118010416Y-69084519D01*
X117960416Y-69034519D01*
X117954096Y-69026819D01*
X117949406Y-69018039D01*
X117946506Y-69008509D01*
X117945536Y-68998599D01*
X117945536Y-68694640D01*
X117925296Y-68674399D01*
X117521336Y-68674399D01*
X117511426Y-68673424D01*
X117501896Y-68670533D01*
X117493116Y-68665837D01*
X117485416Y-68659521D01*
X117435416Y-68609521D01*
X117429096Y-68601821D01*
X117424406Y-68593040D01*
X117421516Y-68583512D01*
X117420536Y-68573599D01*
X117420536Y-68323599D01*
X117421516Y-68313690D01*
X117424406Y-68304158D01*
X117429096Y-68295377D01*
X117435416Y-68287680D01*
X117485416Y-68237680D01*
X117493116Y-68231362D01*
X117501896Y-68226665D01*
X117511426Y-68223774D01*
X117521336Y-68222799D01*
X118196336Y-68222799D01*
X118206248Y-68223774D01*
G37*
X120731246Y-68223774D02*
X120740776Y-68226665D01*
X120749566Y-68231362D01*
X120757256Y-68237680D01*
X120807256Y-68287680D01*
X120813576Y-68295377D01*
X120818266Y-68304158D01*
X120821156Y-68313690D01*
X120822136Y-68323599D01*
X120822136Y-68573599D01*
X120821156Y-68583512D01*
X120818266Y-68593040D01*
X120813576Y-68601821D01*
X120807256Y-68609521D01*
X120757256Y-68659521D01*
X120749566Y-68665837D01*
X120740776Y-68670533D01*
X120731246Y-68673424D01*
X120721336Y-68674399D01*
X120317376Y-68674399D01*
X120297136Y-68694640D01*
X120297136Y-68998599D01*
X120296166Y-69008509D01*
X120293266Y-69018039D01*
X120288576Y-69026819D01*
X120282256Y-69034519D01*
X120232256Y-69084519D01*
X120224556Y-69090839D01*
X120215776Y-69095529D01*
X120206246Y-69098419D01*
X120196336Y-69099399D01*
X120046339Y-69099399D01*
X120036427Y-69098419D01*
X120026895Y-69095529D01*
X120018117Y-69090839D01*
X120010417Y-69084519D01*
X119960417Y-69034519D01*
X119954102Y-69026819D01*
X119949405Y-69018039D01*
X119946514Y-69008509D01*
X119945539Y-68998599D01*
X119945539Y-68323599D01*
X119946514Y-68313690D01*
X119949405Y-68304158D01*
X119954102Y-68295377D01*
X119960417Y-68287680D01*
X120010417Y-68237680D01*
X120018117Y-68231362D01*
X120026895Y-68226665D01*
X120036427Y-68223774D01*
X120046339Y-68222799D01*
X120721336Y-68222799D01*
X120731246Y-68223774D01*
G36*
X120731246Y-68223774D02*
G01*
X120740776Y-68226665D01*
X120749566Y-68231362D01*
X120757256Y-68237680D01*
X120807256Y-68287680D01*
X120813576Y-68295377D01*
X120818266Y-68304158D01*
X120821156Y-68313690D01*
X120822136Y-68323599D01*
X120822136Y-68573599D01*
X120821156Y-68583512D01*
X120818266Y-68593040D01*
X120813576Y-68601821D01*
X120807256Y-68609521D01*
X120757256Y-68659521D01*
X120749566Y-68665837D01*
X120740776Y-68670533D01*
X120731246Y-68673424D01*
X120721336Y-68674399D01*
X120317376Y-68674399D01*
X120297136Y-68694640D01*
X120297136Y-68998599D01*
X120296166Y-69008509D01*
X120293266Y-69018039D01*
X120288576Y-69026819D01*
X120282256Y-69034519D01*
X120232256Y-69084519D01*
X120224556Y-69090839D01*
X120215776Y-69095529D01*
X120206246Y-69098419D01*
X120196336Y-69099399D01*
X120046339Y-69099399D01*
X120036427Y-69098419D01*
X120026895Y-69095529D01*
X120018117Y-69090839D01*
X120010417Y-69084519D01*
X119960417Y-69034519D01*
X119954102Y-69026819D01*
X119949405Y-69018039D01*
X119946514Y-69008509D01*
X119945539Y-68998599D01*
X119945539Y-68323599D01*
X119946514Y-68313690D01*
X119949405Y-68304158D01*
X119954102Y-68295377D01*
X119960417Y-68287680D01*
X120010417Y-68237680D01*
X120018117Y-68231362D01*
X120026895Y-68226665D01*
X120036427Y-68223774D01*
X120046339Y-68222799D01*
X120721336Y-68222799D01*
X120731246Y-68223774D01*
G37*
X120206246Y-66698779D02*
X120215776Y-66701669D01*
X120224556Y-66706359D01*
X120232256Y-66712679D01*
X120282256Y-66762679D01*
X120288576Y-66770379D01*
X120293266Y-66779159D01*
X120296166Y-66788689D01*
X120297136Y-66798599D01*
X120297136Y-67102558D01*
X120317376Y-67122799D01*
X120721336Y-67122799D01*
X120731246Y-67123774D01*
X120740776Y-67126665D01*
X120749566Y-67131361D01*
X120757256Y-67137677D01*
X120807256Y-67187677D01*
X120813576Y-67195377D01*
X120818266Y-67204158D01*
X120821156Y-67213686D01*
X120822136Y-67223599D01*
X120822136Y-67473599D01*
X120821156Y-67483508D01*
X120818266Y-67493040D01*
X120813576Y-67501821D01*
X120807256Y-67509518D01*
X120757256Y-67559518D01*
X120749566Y-67565836D01*
X120740776Y-67570533D01*
X120731246Y-67573424D01*
X120721336Y-67574399D01*
X120046339Y-67574399D01*
X120036427Y-67573424D01*
X120026895Y-67570533D01*
X120018117Y-67565836D01*
X120010417Y-67559518D01*
X119960417Y-67509518D01*
X119954102Y-67501821D01*
X119949405Y-67493040D01*
X119946514Y-67483508D01*
X119945539Y-67473599D01*
X119945539Y-66798599D01*
X119946514Y-66788689D01*
X119949405Y-66779159D01*
X119954102Y-66770379D01*
X119960417Y-66762679D01*
X120010417Y-66712679D01*
X120018117Y-66706359D01*
X120026895Y-66701669D01*
X120036427Y-66698779D01*
X120046339Y-66697799D01*
X120196336Y-66697799D01*
X120206246Y-66698779D01*
G36*
X120206246Y-66698779D02*
G01*
X120215776Y-66701669D01*
X120224556Y-66706359D01*
X120232256Y-66712679D01*
X120282256Y-66762679D01*
X120288576Y-66770379D01*
X120293266Y-66779159D01*
X120296166Y-66788689D01*
X120297136Y-66798599D01*
X120297136Y-67102558D01*
X120317376Y-67122799D01*
X120721336Y-67122799D01*
X120731246Y-67123774D01*
X120740776Y-67126665D01*
X120749566Y-67131361D01*
X120757256Y-67137677D01*
X120807256Y-67187677D01*
X120813576Y-67195377D01*
X120818266Y-67204158D01*
X120821156Y-67213686D01*
X120822136Y-67223599D01*
X120822136Y-67473599D01*
X120821156Y-67483508D01*
X120818266Y-67493040D01*
X120813576Y-67501821D01*
X120807256Y-67509518D01*
X120757256Y-67559518D01*
X120749566Y-67565836D01*
X120740776Y-67570533D01*
X120731246Y-67573424D01*
X120721336Y-67574399D01*
X120046339Y-67574399D01*
X120036427Y-67573424D01*
X120026895Y-67570533D01*
X120018117Y-67565836D01*
X120010417Y-67559518D01*
X119960417Y-67509518D01*
X119954102Y-67501821D01*
X119949405Y-67493040D01*
X119946514Y-67483508D01*
X119945539Y-67473599D01*
X119945539Y-66798599D01*
X119946514Y-66788689D01*
X119949405Y-66779159D01*
X119954102Y-66770379D01*
X119960417Y-66762679D01*
X120010417Y-66712679D01*
X120018117Y-66706359D01*
X120026895Y-66701669D01*
X120036427Y-66698779D01*
X120046339Y-66697799D01*
X120196336Y-66697799D01*
X120206246Y-66698779D01*
G37*
%TD*%
D12*
%TO.C,MISC1*%
X176543300Y-126094400D03*
X176543300Y-109594400D03*
X158543300Y-126094400D03*
X158543300Y-109594400D03*
%TD*%
D13*
%TO.C,R10*%
X146351100Y-126398600D03*
X147801100Y-126398600D03*
%TD*%
D14*
%TO.C,J4*%
X118504500Y-51263600D03*
D15*
X118504500Y-53803600D03*
X121044500Y-51263600D03*
X121044500Y-53803600D03*
X123584500Y-51263600D03*
X123584500Y-53803600D03*
X126124500Y-51263600D03*
X126124500Y-53803600D03*
%TD*%
D16*
%TO.C,R7*%
X110301100Y-77623600D03*
X110301100Y-76173600D03*
%TD*%
D17*
%TO.C,H1*%
X105181900Y-132598600D03*
%TD*%
D18*
%TO.C,CFF1*%
X130301100Y-71098600D03*
X130301100Y-72898600D03*
%TD*%
D19*
%TO.C,BLEEDER1*%
X146355280Y-123431360D03*
%TD*%
D16*
%TO.C,R4*%
X141301100Y-66673600D03*
X141301100Y-68123600D03*
%TD*%
D20*
%TO.C,U5*%
X135751100Y-68648600D03*
X134801100Y-68648600D03*
X133851100Y-68648600D03*
X133851100Y-71148600D03*
X135751100Y-71148600D03*
%TD*%
D18*
%TO.C,C4*%
X119214691Y-77498600D03*
X119214691Y-79298600D03*
%TD*%
D13*
%TO.C,RSENSE1*%
X134076100Y-73398600D03*
X135526100Y-73398600D03*
%TD*%
D17*
%TO.C,H2*%
X185181900Y-52598600D03*
%TD*%
D21*
%TO.C,L1*%
X119051100Y-72567690D03*
X114551100Y-72567690D03*
%TD*%
D22*
%TO.C,J3*%
X138576100Y-63898600D03*
D23*
X136036100Y-63898600D03*
%TD*%
D24*
%TO.C,C3*%
X120030170Y-65088575D03*
X118230170Y-65088575D03*
%TD*%
D18*
%TO.C,C7*%
X109633707Y-66347641D03*
X109633707Y-68147641D03*
%TD*%
D13*
%TO.C,R_ILIM1*%
X120469372Y-61209901D03*
X121919372Y-61209901D03*
%TD*%
D16*
%TO.C,R5*%
X123123460Y-67133984D03*
X123123460Y-65683984D03*
%TD*%
D25*
%TO.C,U3*%
X109651100Y-72498600D03*
X110301100Y-72498600D03*
X110951100Y-72498600D03*
X110951100Y-70298600D03*
X109651100Y-70298600D03*
%TD*%
D13*
%TO.C,R11*%
X149402170Y-126424650D03*
X150852170Y-126424650D03*
%TD*%
D26*
%TO.C,D1*%
X139701100Y-60398600D03*
X141301100Y-60398600D03*
%TD*%
D24*
%TO.C,C6*%
X108514710Y-74402132D03*
X110314710Y-74402132D03*
%TD*%
D13*
%TO.C,R1*%
X124026100Y-56398600D03*
X122576100Y-56398600D03*
%TD*%
D18*
%TO.C,C9*%
X121214691Y-77498600D03*
X121214691Y-79298600D03*
%TD*%
D13*
%TO.C,R6*%
X114076100Y-67898600D03*
X115526100Y-67898600D03*
%TD*%
D17*
%TO.C,H3*%
X185181900Y-132598600D03*
%TD*%
D22*
%TO.C,J1*%
X138801100Y-70873600D03*
D23*
X138801100Y-73413600D03*
X138801100Y-75953600D03*
%TD*%
D27*
%TO.C,RV1*%
X128301100Y-74906421D03*
D28*
X125801100Y-69906421D03*
X123301100Y-74906421D03*
%TD*%
D17*
%TO.C,DEPLOYER2*%
X104701100Y-90175485D03*
D29*
X113301100Y-90175485D03*
D30*
X129401100Y-86675485D03*
D29*
X133301100Y-116675485D03*
D31*
X137301100Y-103075485D03*
D30*
X137401100Y-86675485D03*
D32*
X143401100Y-110675485D03*
D33*
X141401100Y-110675485D03*
X143401100Y-112675485D03*
X141401100Y-112675485D03*
X143401100Y-114675485D03*
X141401100Y-114675485D03*
X143401100Y-116675485D03*
X141401100Y-116675485D03*
%TD*%
D16*
%TO.C,R8*%
X112076100Y-76173600D03*
X112076100Y-77623600D03*
%TD*%
D24*
%TO.C,C1*%
X116401100Y-56398600D03*
X118201100Y-56398600D03*
%TD*%
D17*
%TO.C,H5*%
X105181900Y-52598600D03*
%TD*%
%TO.C,DEPLOYER1*%
X185901100Y-97175485D03*
D29*
X177301100Y-97175485D03*
D30*
X161201100Y-100675485D03*
D29*
X157301100Y-70675485D03*
D31*
X153301100Y-84275485D03*
D30*
X153201100Y-100675485D03*
D32*
X147201100Y-76675485D03*
D33*
X149201100Y-76675485D03*
X147201100Y-74675485D03*
X149201100Y-74675485D03*
X147201100Y-72675485D03*
X149201100Y-72675485D03*
X147201100Y-70675485D03*
X149201100Y-70675485D03*
%TD*%
D18*
%TO.C,C10*%
X123214691Y-77498600D03*
X123214691Y-79298600D03*
%TD*%
D24*
%TO.C,C2*%
X120062923Y-63052123D03*
X118262923Y-63052123D03*
%TD*%
%TO.C,C8*%
X127901100Y-67398600D03*
X129701100Y-67398600D03*
%TD*%
D22*
%TO.C,DIR_PW1*%
X148301100Y-63898600D03*
D23*
X145761100Y-63898600D03*
%TD*%
D34*
%TO.C,U6*%
X118121336Y-68659499D03*
D35*
X118621336Y-67898599D03*
X119121336Y-67898599D03*
X119621336Y-67898599D03*
D34*
X120121333Y-68659499D03*
D36*
X120446336Y-67898599D03*
D34*
X120121336Y-67137699D03*
X118121336Y-67137699D03*
D36*
X117796336Y-67898599D03*
%TD*%
D37*
%TO.C,U4*%
X119894373Y-58918600D03*
X120544373Y-58918600D03*
X121194373Y-58918600D03*
X121194373Y-56878600D03*
X120544373Y-56878600D03*
X119894373Y-56878600D03*
D38*
X120544373Y-57898600D03*
%TD*%
D18*
%TO.C,C5*%
X125032633Y-65524580D03*
X125032633Y-67324580D03*
%TD*%
M02*
