%TF.GenerationSoftware,KiCad,Pcbnew,8.0.8+dfsg-1*%
%TF.CreationDate,2025-07-13T00:01:04+05:30*%
%TF.ProjectId,resistor_board,72657369-7374-46f7-925f-626f6172642e,rev?*%
%TF.SameCoordinates,Original*%
%TF.FileFunction,Copper,L1,Top*%
%TF.FilePolarity,Positive*%
%FSLAX46Y46*%
G04 Gerber Fmt 4.6, Leading zero omitted, Abs format (unit mm)*
G04 Created by KiCad (PCBNEW 8.0.8+dfsg-1) date 2025-07-13 00:01:04*
%MOMM*%
%LPD*%
G01*
G04 APERTURE LIST*
%TA.AperFunction,ComponentPad*%
%ADD10R,1.700000X1.700000*%
%TD*%
%TA.AperFunction,ComponentPad*%
%ADD11O,1.700000X1.700000*%
%TD*%
%TA.AperFunction,ComponentPad*%
%ADD12C,1.530000*%
%TD*%
%TA.AperFunction,ComponentPad*%
%ADD13C,1.701800*%
%TD*%
%TA.AperFunction,Conductor*%
%ADD14C,1.500000*%
%TD*%
%TA.AperFunction,Conductor*%
%ADD15C,0.200000*%
%TD*%
G04 APERTURE END LIST*
D10*
%TO.P,J1,1,Pin_1*%
%TO.N,/BurnWireIN*%
X123535100Y-73385552D03*
D11*
%TO.P,J1,2,Pin_2*%
X126075100Y-73385552D03*
%TO.P,J1,3,Pin_3*%
%TO.N,/GND*%
X128615100Y-73385552D03*
%TO.P,J1,4,Pin_4*%
X131155100Y-73385552D03*
%TO.P,J1,5,Pin_5*%
%TO.N,/DeployerDetectionSWIN*%
X133695100Y-73385552D03*
%TO.P,J1,6,Pin_6*%
%TO.N,/DeployerDetectionSWOUT*%
X136235100Y-73385552D03*
%TD*%
D12*
%TO.P,TP1,TP*%
%TO.N,/BurnWireIN*%
X118945100Y-64685600D03*
%TD*%
D13*
%TO.P,SW1,1,A*%
%TO.N,/DeployerDetectionSWIN*%
X140965100Y-68781600D03*
%TO.P,SW1,2,B*%
%TO.N,/DeployerDetectionSWOUT*%
X146045100Y-68781600D03*
%TO.P,SW1,3,C*%
%TO.N,unconnected-(SW1-C-Pad3)*%
X151125100Y-68781600D03*
%TD*%
%TO.P,SW2,1,A*%
%TO.N,/DeployerDetectionSWIN*%
X140965100Y-74877600D03*
%TO.P,SW2,2,B*%
%TO.N,/DeployerDetectionSWOUT*%
X146045100Y-74877600D03*
%TO.P,SW2,3,C*%
%TO.N,unconnected-(SW2-C-Pad3)*%
X151125100Y-74877600D03*
%TD*%
D12*
%TO.P,TP2,TP*%
%TO.N,/GND*%
X118945100Y-75685600D03*
%TD*%
D14*
%TO.N,/BurnWireIN*%
X123535100Y-73385552D02*
X126075100Y-73385552D01*
%TO.N,/GND*%
X128615100Y-73385552D02*
X131155100Y-73385552D01*
X128615100Y-75482600D02*
X126516100Y-75482600D01*
X126516100Y-75482600D02*
X126313100Y-75685600D01*
X131155100Y-73385552D02*
X129028052Y-75512600D01*
X129028052Y-75512600D02*
X128645100Y-75512600D01*
X128615100Y-75482600D02*
X128645100Y-75512600D01*
X128615100Y-73385552D02*
X128615100Y-75482600D01*
D15*
%TO.N,/DeployerDetectionSWIN*%
X133695100Y-73385552D02*
X138299052Y-68781600D01*
X138299052Y-68781600D02*
X140965100Y-68781600D01*
D14*
X140965100Y-68985600D02*
X140965100Y-74785600D01*
%TO.N,/BurnWireIN*%
X120571446Y-64685600D02*
X118945100Y-64685600D01*
D15*
%TO.N,/DeployerDetectionSWOUT*%
X144267100Y-76655600D02*
X146045100Y-74877600D01*
D14*
X146045100Y-68985600D02*
X146045100Y-74785600D01*
D15*
X136065100Y-72645600D02*
X140075100Y-76655600D01*
X140075100Y-76655600D02*
X144267100Y-76655600D01*
D14*
%TO.N,/GND*%
X118945100Y-75685600D02*
X126313100Y-75685600D01*
%TO.N,/BurnWireIN*%
X126075100Y-71432470D02*
X126075100Y-73385552D01*
X125964230Y-71321600D02*
X126075100Y-71432470D01*
X123535100Y-73385552D02*
X123535100Y-71351600D01*
X123535100Y-71351600D02*
X123565100Y-71321600D01*
%TD*%
%TA.AperFunction,Conductor*%
%TO.N,/GND*%
G36*
X131405100Y-74716185D02*
G01*
X131618583Y-74658985D01*
X131618592Y-74658982D01*
X131770695Y-74588055D01*
X131839772Y-74577563D01*
X131903556Y-74606083D01*
X131941796Y-74664559D01*
X131947100Y-74700437D01*
X131947100Y-75395507D01*
X131946503Y-75407661D01*
X131929082Y-75584534D01*
X131924340Y-75608375D01*
X131874524Y-75772598D01*
X131865221Y-75795056D01*
X131784327Y-75946398D01*
X131770822Y-75966610D01*
X131661954Y-76099266D01*
X131644766Y-76116454D01*
X131512110Y-76225322D01*
X131491898Y-76238827D01*
X131340556Y-76319721D01*
X131318098Y-76329024D01*
X131153875Y-76378840D01*
X131130034Y-76383582D01*
X130953161Y-76401003D01*
X130941007Y-76401600D01*
X120201638Y-76401600D01*
X120134599Y-76381915D01*
X120088844Y-76329111D01*
X120078900Y-76259953D01*
X120089256Y-76225196D01*
X120138349Y-76119914D01*
X120138354Y-76119900D01*
X120195638Y-75906109D01*
X120195640Y-75906099D01*
X120214932Y-75685600D01*
X120214932Y-75685599D01*
X120195640Y-75465100D01*
X120195638Y-75465090D01*
X120138354Y-75251299D01*
X120138350Y-75251290D01*
X120044806Y-75050684D01*
X119998994Y-74985257D01*
X119436227Y-75548023D01*
X119420345Y-75488747D01*
X119353202Y-75372453D01*
X119258247Y-75277498D01*
X119141953Y-75210355D01*
X119082673Y-75194471D01*
X119645441Y-74631704D01*
X119644742Y-74623708D01*
X119614742Y-74586177D01*
X119607548Y-74516679D01*
X119639071Y-74454324D01*
X119693492Y-74420519D01*
X119786332Y-74392357D01*
X119810156Y-74387618D01*
X119987039Y-74370197D01*
X119999193Y-74369600D01*
X120887059Y-74369600D01*
X120895307Y-74369875D01*
X121015664Y-74377898D01*
X121032012Y-74380087D01*
X121064407Y-74386643D01*
X121150266Y-74404019D01*
X121158251Y-74405913D01*
X122267649Y-74708477D01*
X122423466Y-74737940D01*
X122581982Y-74742401D01*
X122702646Y-74736213D01*
X122708924Y-74736051D01*
X124432972Y-74736051D01*
X124492583Y-74729643D01*
X124627431Y-74679348D01*
X124652228Y-74660785D01*
X124717692Y-74636368D01*
X124726539Y-74636052D01*
X125533759Y-74636052D01*
X125586163Y-74647670D01*
X125611430Y-74659452D01*
X125611432Y-74659452D01*
X125611437Y-74659455D01*
X125611442Y-74659456D01*
X125611444Y-74659457D01*
X125666385Y-74674178D01*
X125839692Y-74720615D01*
X126016134Y-74736052D01*
X126075099Y-74741211D01*
X126075100Y-74741211D01*
X126075101Y-74741211D01*
X126134066Y-74736052D01*
X126310508Y-74720615D01*
X126538763Y-74659455D01*
X126752930Y-74559587D01*
X126753552Y-74559152D01*
X126759441Y-74555027D01*
X126777610Y-74542305D01*
X126826796Y-74521833D01*
X126953897Y-74498986D01*
X127091937Y-74435489D01*
X127209664Y-74339431D01*
X127299567Y-74216938D01*
X127305120Y-74203030D01*
X127348257Y-74148071D01*
X127414262Y-74125157D01*
X127482178Y-74141565D01*
X127521853Y-74177887D01*
X127576990Y-74256630D01*
X127744017Y-74423657D01*
X127937521Y-74559152D01*
X128151607Y-74658981D01*
X128151616Y-74658985D01*
X128365100Y-74716186D01*
X128365100Y-73818564D01*
X128422107Y-73851477D01*
X128549274Y-73885552D01*
X128680926Y-73885552D01*
X128808093Y-73851477D01*
X128865100Y-73818564D01*
X128865100Y-74716185D01*
X129078583Y-74658985D01*
X129078592Y-74658981D01*
X129292678Y-74559152D01*
X129486182Y-74423657D01*
X129653205Y-74256634D01*
X129783525Y-74070520D01*
X129838102Y-74026896D01*
X129907601Y-74019703D01*
X129969955Y-74051225D01*
X129986675Y-74070520D01*
X130116994Y-74256634D01*
X130284017Y-74423657D01*
X130477521Y-74559152D01*
X130691607Y-74658981D01*
X130691616Y-74658985D01*
X130905100Y-74716186D01*
X130905100Y-73818564D01*
X130962107Y-73851477D01*
X131089274Y-73885552D01*
X131220926Y-73885552D01*
X131348093Y-73851477D01*
X131405100Y-73818564D01*
X131405100Y-74716185D01*
G37*
%TD.AperFunction*%
%TA.AperFunction,Conductor*%
G36*
X130655100Y-73451378D02*
G01*
X130689175Y-73578545D01*
X130722088Y-73635552D01*
X129048112Y-73635552D01*
X129081025Y-73578545D01*
X129115100Y-73451378D01*
X129115100Y-73353600D01*
X130655100Y-73353600D01*
X130655100Y-73451378D01*
G37*
%TD.AperFunction*%
%TD*%
%TA.AperFunction,Conductor*%
%TO.N,/BurnWireIN*%
G36*
X125609175Y-73192559D02*
G01*
X125575100Y-73319726D01*
X125575100Y-73451378D01*
X125609175Y-73578545D01*
X125642088Y-73635552D01*
X123968112Y-73635552D01*
X124001025Y-73578545D01*
X124035100Y-73451378D01*
X124035100Y-73319726D01*
X124001025Y-73192559D01*
X123968112Y-73135552D01*
X125642088Y-73135552D01*
X125609175Y-73192559D01*
G37*
%TD.AperFunction*%
%TA.AperFunction,Conductor*%
G36*
X125873161Y-63702197D02*
G01*
X126050041Y-63719618D01*
X126073869Y-63724357D01*
X126238101Y-63774176D01*
X126260553Y-63783477D01*
X126411898Y-63864372D01*
X126432110Y-63877877D01*
X126564766Y-63986745D01*
X126581954Y-64003933D01*
X126690822Y-64136589D01*
X126704327Y-64156801D01*
X126785221Y-64308143D01*
X126794524Y-64330601D01*
X126844340Y-64494824D01*
X126849082Y-64518665D01*
X126866503Y-64695538D01*
X126867100Y-64707692D01*
X126867100Y-72070666D01*
X126847415Y-72137705D01*
X126794611Y-72183460D01*
X126725453Y-72193404D01*
X126690696Y-72183048D01*
X126538597Y-72112123D01*
X126538586Y-72112119D01*
X126325100Y-72054916D01*
X126325100Y-72952540D01*
X126268093Y-72919627D01*
X126140926Y-72885552D01*
X126009274Y-72885552D01*
X125882107Y-72919627D01*
X125825100Y-72952540D01*
X125825100Y-72054916D01*
X125825099Y-72054916D01*
X125611613Y-72112119D01*
X125611607Y-72112122D01*
X125397522Y-72211951D01*
X125397520Y-72211952D01*
X125204026Y-72347438D01*
X125081577Y-72469887D01*
X125020254Y-72503371D01*
X124950562Y-72498387D01*
X124894629Y-72456515D01*
X124877714Y-72425538D01*
X124828454Y-72293465D01*
X124828450Y-72293458D01*
X124742290Y-72178364D01*
X124742287Y-72178361D01*
X124627193Y-72092201D01*
X124627186Y-72092197D01*
X124492479Y-72041955D01*
X124492472Y-72041953D01*
X124432944Y-72035552D01*
X123785100Y-72035552D01*
X123785100Y-72952540D01*
X123728093Y-72919627D01*
X123600926Y-72885552D01*
X123469274Y-72885552D01*
X123342107Y-72919627D01*
X123285100Y-72952540D01*
X123285100Y-72035552D01*
X122673100Y-72035552D01*
X122606061Y-72015867D01*
X122560306Y-71963063D01*
X122549100Y-71911552D01*
X122549100Y-67965367D01*
X122549099Y-67965350D01*
X122526504Y-67753988D01*
X122526502Y-67753981D01*
X122459733Y-67552152D01*
X122351808Y-67368995D01*
X122207605Y-67212792D01*
X120799869Y-65981023D01*
X120654748Y-65875440D01*
X120654749Y-65875440D01*
X120654747Y-65875439D01*
X120493090Y-65797496D01*
X120320109Y-65749704D01*
X120320108Y-65749703D01*
X120141365Y-65733600D01*
X119755100Y-65733600D01*
X119624872Y-65718926D01*
X119082674Y-65176728D01*
X119141953Y-65160845D01*
X119258247Y-65093702D01*
X119353202Y-64998747D01*
X119420345Y-64882453D01*
X119436228Y-64823174D01*
X119998995Y-65385941D01*
X120044805Y-65320519D01*
X120044809Y-65320511D01*
X120138349Y-65119914D01*
X120138354Y-65119900D01*
X120195638Y-64906109D01*
X120195640Y-64906099D01*
X120214932Y-64685600D01*
X120214932Y-64685599D01*
X120195640Y-64465100D01*
X120195638Y-64465090D01*
X120138354Y-64251299D01*
X120138350Y-64251290D01*
X120044806Y-64050684D01*
X119937002Y-63896724D01*
X119914675Y-63830518D01*
X119931685Y-63762750D01*
X119982633Y-63714937D01*
X120038577Y-63701600D01*
X125861007Y-63701600D01*
X125873161Y-63702197D01*
G37*
%TD.AperFunction*%
%TD*%
%TA.AperFunction,Conductor*%
%TO.N,/DeployerDetectionSWIN*%
G36*
X134828537Y-72115681D02*
G01*
X134831590Y-72117879D01*
X134962772Y-72249061D01*
X134966199Y-72257334D01*
X134965594Y-72261047D01*
X134484375Y-73698948D01*
X134478500Y-73705706D01*
X134469567Y-73706330D01*
X134468814Y-73706049D01*
X133698885Y-73388114D01*
X133692547Y-73381790D01*
X133374602Y-72611836D01*
X133374611Y-72602882D01*
X133380950Y-72596557D01*
X133381681Y-72596283D01*
X134819606Y-72115057D01*
X134828537Y-72115681D01*
G37*
%TD.AperFunction*%
%TD*%
%TA.AperFunction,Conductor*%
%TO.N,/DeployerDetectionSWIN*%
G36*
X141712347Y-73179227D02*
G01*
X141715753Y-73186808D01*
X141815266Y-74865222D01*
X141812335Y-74873683D01*
X141804279Y-74877593D01*
X141803601Y-74877614D01*
X140965114Y-74878599D01*
X140965086Y-74878599D01*
X140126598Y-74877614D01*
X140118329Y-74874177D01*
X140114912Y-74865900D01*
X140114932Y-74865253D01*
X140214447Y-73186807D01*
X140218357Y-73178752D01*
X140226126Y-73175800D01*
X141704074Y-73175800D01*
X141712347Y-73179227D01*
G37*
%TD.AperFunction*%
%TD*%
%TA.AperFunction,Conductor*%
%TO.N,/DeployerDetectionSWOUT*%
G36*
X145270541Y-74556753D02*
G01*
X146041315Y-74875038D01*
X146047652Y-74881361D01*
X146047662Y-74881385D01*
X146365941Y-75652144D01*
X146365932Y-75661099D01*
X146359593Y-75667424D01*
X146358840Y-75667705D01*
X144919323Y-76149366D01*
X144910390Y-76148742D01*
X144907337Y-76146544D01*
X144776155Y-76015362D01*
X144772728Y-76007089D01*
X144773332Y-76003380D01*
X145254995Y-74563857D01*
X145260869Y-74557101D01*
X145269802Y-74556477D01*
X145270541Y-74556753D01*
G37*
%TD.AperFunction*%
%TD*%
%TA.AperFunction,Conductor*%
%TO.N,/DeployerDetectionSWOUT*%
G36*
X146792347Y-73179227D02*
G01*
X146795753Y-73186808D01*
X146895266Y-74865222D01*
X146892335Y-74873683D01*
X146884279Y-74877593D01*
X146883601Y-74877614D01*
X146045114Y-74878599D01*
X146045086Y-74878599D01*
X145206598Y-74877614D01*
X145198329Y-74874177D01*
X145194912Y-74865900D01*
X145194932Y-74865253D01*
X145294447Y-73186807D01*
X145298357Y-73178752D01*
X145306126Y-73175800D01*
X146784074Y-73175800D01*
X146792347Y-73179227D01*
G37*
%TD.AperFunction*%
%TD*%
%TA.AperFunction,Conductor*%
%TO.N,/DeployerDetectionSWOUT*%
G36*
X137020264Y-73064032D02*
G01*
X137025659Y-73068576D01*
X137705376Y-74141555D01*
X137706908Y-74150378D01*
X137703765Y-74156089D01*
X137572596Y-74287258D01*
X137564323Y-74290685D01*
X137563838Y-74290675D01*
X136246305Y-74236016D01*
X136238181Y-74232249D01*
X136235090Y-74224337D01*
X136234399Y-73392677D01*
X136237819Y-73384403D01*
X136241631Y-73381855D01*
X137011311Y-73064023D01*
X137020264Y-73064032D01*
G37*
%TD.AperFunction*%
%TD*%
M02*
