%TF.GenerationSoftware,KiCad,Pcbnew,8.0.8+dfsg-1*%
%TF.CreationDate,2025-07-13T00:35:59+05:30*%
%TF.ProjectId,sanket,73616e6b-6574-42e6-9b69-6361645f7063,4.1*%
%TF.SameCoordinates,Original*%
%TF.FileFunction,Legend,Bot*%
%TF.FilePolarity,Positive*%
%FSLAX46Y46*%
G04 Gerber Fmt 4.6, Leading zero omitted, Abs format (unit mm)*
G04 Created by KiCad (PCBNEW 8.0.8+dfsg-1) date 2025-07-13 00:35:59*
%MOMM*%
%LPD*%
G01*
G04 APERTURE LIST*
%ADD10C,0.359004*%
%ADD11C,0.100000*%
%ADD12C,0.300000*%
%ADD13C,0.150000*%
%ADD14C,0.120000*%
%ADD15C,0.152400*%
G04 APERTURE END LIST*
D10*
X131773402Y-80003400D02*
G75*
G02*
X131414398Y-80003400I-179502J0D01*
G01*
X131414398Y-80003400D02*
G75*
G02*
X131773402Y-80003400I179502J0D01*
G01*
X111148602Y-65525400D02*
G75*
G02*
X110789598Y-65525400I-179502J0D01*
G01*
X110789598Y-65525400D02*
G75*
G02*
X111148602Y-65525400I179502J0D01*
G01*
X129843002Y-62985400D02*
G75*
G02*
X129483998Y-62985400I-179502J0D01*
G01*
X129483998Y-62985400D02*
G75*
G02*
X129843002Y-62985400I179502J0D01*
G01*
D11*
X134153519Y-79788487D02*
X134105900Y-79836106D01*
X134105900Y-79836106D02*
X134058280Y-79978963D01*
X134058280Y-79978963D02*
X134058280Y-80074201D01*
X134058280Y-80074201D02*
X134105900Y-80217058D01*
X134105900Y-80217058D02*
X134201138Y-80312296D01*
X134201138Y-80312296D02*
X134296376Y-80359915D01*
X134296376Y-80359915D02*
X134486852Y-80407534D01*
X134486852Y-80407534D02*
X134629709Y-80407534D01*
X134629709Y-80407534D02*
X134820185Y-80359915D01*
X134820185Y-80359915D02*
X134915423Y-80312296D01*
X134915423Y-80312296D02*
X135010661Y-80217058D01*
X135010661Y-80217058D02*
X135058280Y-80074201D01*
X135058280Y-80074201D02*
X135058280Y-79978963D01*
X135058280Y-79978963D02*
X135010661Y-79836106D01*
X135010661Y-79836106D02*
X134963042Y-79788487D01*
X134724947Y-78931344D02*
X134058280Y-78931344D01*
X134724947Y-79359915D02*
X134201138Y-79359915D01*
X134201138Y-79359915D02*
X134105900Y-79312296D01*
X134105900Y-79312296D02*
X134058280Y-79217058D01*
X134058280Y-79217058D02*
X134058280Y-79074201D01*
X134058280Y-79074201D02*
X134105900Y-78978963D01*
X134105900Y-78978963D02*
X134153519Y-78931344D01*
X134058280Y-78455153D02*
X134724947Y-78455153D01*
X134534471Y-78455153D02*
X134629709Y-78407534D01*
X134629709Y-78407534D02*
X134677328Y-78359915D01*
X134677328Y-78359915D02*
X134724947Y-78264677D01*
X134724947Y-78264677D02*
X134724947Y-78169439D01*
X134058280Y-77836105D02*
X134724947Y-77836105D01*
X134534471Y-77836105D02*
X134629709Y-77788486D01*
X134629709Y-77788486D02*
X134677328Y-77740867D01*
X134677328Y-77740867D02*
X134724947Y-77645629D01*
X134724947Y-77645629D02*
X134724947Y-77550391D01*
X134105900Y-76836105D02*
X134058280Y-76931343D01*
X134058280Y-76931343D02*
X134058280Y-77121819D01*
X134058280Y-77121819D02*
X134105900Y-77217057D01*
X134105900Y-77217057D02*
X134201138Y-77264676D01*
X134201138Y-77264676D02*
X134582090Y-77264676D01*
X134582090Y-77264676D02*
X134677328Y-77217057D01*
X134677328Y-77217057D02*
X134724947Y-77121819D01*
X134724947Y-77121819D02*
X134724947Y-76931343D01*
X134724947Y-76931343D02*
X134677328Y-76836105D01*
X134677328Y-76836105D02*
X134582090Y-76788486D01*
X134582090Y-76788486D02*
X134486852Y-76788486D01*
X134486852Y-76788486D02*
X134391614Y-77264676D01*
X134724947Y-76359914D02*
X134058280Y-76359914D01*
X134629709Y-76359914D02*
X134677328Y-76312295D01*
X134677328Y-76312295D02*
X134724947Y-76217057D01*
X134724947Y-76217057D02*
X134724947Y-76074200D01*
X134724947Y-76074200D02*
X134677328Y-75978962D01*
X134677328Y-75978962D02*
X134582090Y-75931343D01*
X134582090Y-75931343D02*
X134058280Y-75931343D01*
X134724947Y-75598009D02*
X134724947Y-75217057D01*
X135058280Y-75455152D02*
X134201138Y-75455152D01*
X134201138Y-75455152D02*
X134105900Y-75407533D01*
X134105900Y-75407533D02*
X134058280Y-75312295D01*
X134058280Y-75312295D02*
X134058280Y-75217057D01*
X134105900Y-74169437D02*
X134058280Y-74026580D01*
X134058280Y-74026580D02*
X134058280Y-73788485D01*
X134058280Y-73788485D02*
X134105900Y-73693247D01*
X134105900Y-73693247D02*
X134153519Y-73645628D01*
X134153519Y-73645628D02*
X134248757Y-73598009D01*
X134248757Y-73598009D02*
X134343995Y-73598009D01*
X134343995Y-73598009D02*
X134439233Y-73645628D01*
X134439233Y-73645628D02*
X134486852Y-73693247D01*
X134486852Y-73693247D02*
X134534471Y-73788485D01*
X134534471Y-73788485D02*
X134582090Y-73978961D01*
X134582090Y-73978961D02*
X134629709Y-74074199D01*
X134629709Y-74074199D02*
X134677328Y-74121818D01*
X134677328Y-74121818D02*
X134772566Y-74169437D01*
X134772566Y-74169437D02*
X134867804Y-74169437D01*
X134867804Y-74169437D02*
X134963042Y-74121818D01*
X134963042Y-74121818D02*
X135010661Y-74074199D01*
X135010661Y-74074199D02*
X135058280Y-73978961D01*
X135058280Y-73978961D02*
X135058280Y-73740866D01*
X135058280Y-73740866D02*
X135010661Y-73598009D01*
X134105900Y-72788485D02*
X134058280Y-72883723D01*
X134058280Y-72883723D02*
X134058280Y-73074199D01*
X134058280Y-73074199D02*
X134105900Y-73169437D01*
X134105900Y-73169437D02*
X134201138Y-73217056D01*
X134201138Y-73217056D02*
X134582090Y-73217056D01*
X134582090Y-73217056D02*
X134677328Y-73169437D01*
X134677328Y-73169437D02*
X134724947Y-73074199D01*
X134724947Y-73074199D02*
X134724947Y-72883723D01*
X134724947Y-72883723D02*
X134677328Y-72788485D01*
X134677328Y-72788485D02*
X134582090Y-72740866D01*
X134582090Y-72740866D02*
X134486852Y-72740866D01*
X134486852Y-72740866D02*
X134391614Y-73217056D01*
X134724947Y-72312294D02*
X134058280Y-72312294D01*
X134629709Y-72312294D02*
X134677328Y-72264675D01*
X134677328Y-72264675D02*
X134724947Y-72169437D01*
X134724947Y-72169437D02*
X134724947Y-72026580D01*
X134724947Y-72026580D02*
X134677328Y-71931342D01*
X134677328Y-71931342D02*
X134582090Y-71883723D01*
X134582090Y-71883723D02*
X134058280Y-71883723D01*
X134105900Y-71455151D02*
X134058280Y-71359913D01*
X134058280Y-71359913D02*
X134058280Y-71169437D01*
X134058280Y-71169437D02*
X134105900Y-71074199D01*
X134105900Y-71074199D02*
X134201138Y-71026580D01*
X134201138Y-71026580D02*
X134248757Y-71026580D01*
X134248757Y-71026580D02*
X134343995Y-71074199D01*
X134343995Y-71074199D02*
X134391614Y-71169437D01*
X134391614Y-71169437D02*
X134391614Y-71312294D01*
X134391614Y-71312294D02*
X134439233Y-71407532D01*
X134439233Y-71407532D02*
X134534471Y-71455151D01*
X134534471Y-71455151D02*
X134582090Y-71455151D01*
X134582090Y-71455151D02*
X134677328Y-71407532D01*
X134677328Y-71407532D02*
X134724947Y-71312294D01*
X134724947Y-71312294D02*
X134724947Y-71169437D01*
X134724947Y-71169437D02*
X134677328Y-71074199D01*
X134058280Y-70455151D02*
X134105900Y-70550389D01*
X134105900Y-70550389D02*
X134153519Y-70598008D01*
X134153519Y-70598008D02*
X134248757Y-70645627D01*
X134248757Y-70645627D02*
X134534471Y-70645627D01*
X134534471Y-70645627D02*
X134629709Y-70598008D01*
X134629709Y-70598008D02*
X134677328Y-70550389D01*
X134677328Y-70550389D02*
X134724947Y-70455151D01*
X134724947Y-70455151D02*
X134724947Y-70312294D01*
X134724947Y-70312294D02*
X134677328Y-70217056D01*
X134677328Y-70217056D02*
X134629709Y-70169437D01*
X134629709Y-70169437D02*
X134534471Y-70121818D01*
X134534471Y-70121818D02*
X134248757Y-70121818D01*
X134248757Y-70121818D02*
X134153519Y-70169437D01*
X134153519Y-70169437D02*
X134105900Y-70217056D01*
X134105900Y-70217056D02*
X134058280Y-70312294D01*
X134058280Y-70312294D02*
X134058280Y-70455151D01*
X134058280Y-69693246D02*
X134724947Y-69693246D01*
X134534471Y-69693246D02*
X134629709Y-69645627D01*
X134629709Y-69645627D02*
X134677328Y-69598008D01*
X134677328Y-69598008D02*
X134724947Y-69502770D01*
X134724947Y-69502770D02*
X134724947Y-69407532D01*
D12*
X184946112Y-74323476D02*
X184327065Y-74323476D01*
X185069922Y-74694904D02*
X184636589Y-73394904D01*
X184636589Y-73394904D02*
X184203255Y-74694904D01*
X183769922Y-73828238D02*
X183769922Y-74694904D01*
X183769922Y-73952047D02*
X183708017Y-73890142D01*
X183708017Y-73890142D02*
X183584207Y-73828238D01*
X183584207Y-73828238D02*
X183398493Y-73828238D01*
X183398493Y-73828238D02*
X183274684Y-73890142D01*
X183274684Y-73890142D02*
X183212779Y-74013952D01*
X183212779Y-74013952D02*
X183212779Y-74694904D01*
X182779446Y-73828238D02*
X182284208Y-73828238D01*
X182593732Y-73394904D02*
X182593732Y-74509190D01*
X182593732Y-74509190D02*
X182531827Y-74633000D01*
X182531827Y-74633000D02*
X182408017Y-74694904D01*
X182408017Y-74694904D02*
X182284208Y-74694904D01*
X181355637Y-74633000D02*
X181479446Y-74694904D01*
X181479446Y-74694904D02*
X181727065Y-74694904D01*
X181727065Y-74694904D02*
X181850875Y-74633000D01*
X181850875Y-74633000D02*
X181912779Y-74509190D01*
X181912779Y-74509190D02*
X181912779Y-74013952D01*
X181912779Y-74013952D02*
X181850875Y-73890142D01*
X181850875Y-73890142D02*
X181727065Y-73828238D01*
X181727065Y-73828238D02*
X181479446Y-73828238D01*
X181479446Y-73828238D02*
X181355637Y-73890142D01*
X181355637Y-73890142D02*
X181293732Y-74013952D01*
X181293732Y-74013952D02*
X181293732Y-74137761D01*
X181293732Y-74137761D02*
X181912779Y-74261571D01*
X180736589Y-73828238D02*
X180736589Y-74694904D01*
X180736589Y-73952047D02*
X180674684Y-73890142D01*
X180674684Y-73890142D02*
X180550874Y-73828238D01*
X180550874Y-73828238D02*
X180365160Y-73828238D01*
X180365160Y-73828238D02*
X180241351Y-73890142D01*
X180241351Y-73890142D02*
X180179446Y-74013952D01*
X180179446Y-74013952D02*
X180179446Y-74694904D01*
X179560399Y-73828238D02*
X179560399Y-74694904D01*
X179560399Y-73952047D02*
X179498494Y-73890142D01*
X179498494Y-73890142D02*
X179374684Y-73828238D01*
X179374684Y-73828238D02*
X179188970Y-73828238D01*
X179188970Y-73828238D02*
X179065161Y-73890142D01*
X179065161Y-73890142D02*
X179003256Y-74013952D01*
X179003256Y-74013952D02*
X179003256Y-74694904D01*
X177827066Y-74694904D02*
X177827066Y-74013952D01*
X177827066Y-74013952D02*
X177888971Y-73890142D01*
X177888971Y-73890142D02*
X178012780Y-73828238D01*
X178012780Y-73828238D02*
X178260399Y-73828238D01*
X178260399Y-73828238D02*
X178384209Y-73890142D01*
X177827066Y-74633000D02*
X177950875Y-74694904D01*
X177950875Y-74694904D02*
X178260399Y-74694904D01*
X178260399Y-74694904D02*
X178384209Y-74633000D01*
X178384209Y-74633000D02*
X178446113Y-74509190D01*
X178446113Y-74509190D02*
X178446113Y-74385380D01*
X178446113Y-74385380D02*
X178384209Y-74261571D01*
X178384209Y-74261571D02*
X178260399Y-74199666D01*
X178260399Y-74199666D02*
X177950875Y-74199666D01*
X177950875Y-74199666D02*
X177827066Y-74137761D01*
X176217543Y-74694904D02*
X176217543Y-73394904D01*
X176217543Y-73394904D02*
X175908019Y-73394904D01*
X175908019Y-73394904D02*
X175722305Y-73456809D01*
X175722305Y-73456809D02*
X175598495Y-73580619D01*
X175598495Y-73580619D02*
X175536590Y-73704428D01*
X175536590Y-73704428D02*
X175474686Y-73952047D01*
X175474686Y-73952047D02*
X175474686Y-74137761D01*
X175474686Y-74137761D02*
X175536590Y-74385380D01*
X175536590Y-74385380D02*
X175598495Y-74509190D01*
X175598495Y-74509190D02*
X175722305Y-74633000D01*
X175722305Y-74633000D02*
X175908019Y-74694904D01*
X175908019Y-74694904D02*
X176217543Y-74694904D01*
X174422305Y-74633000D02*
X174546114Y-74694904D01*
X174546114Y-74694904D02*
X174793733Y-74694904D01*
X174793733Y-74694904D02*
X174917543Y-74633000D01*
X174917543Y-74633000D02*
X174979447Y-74509190D01*
X174979447Y-74509190D02*
X174979447Y-74013952D01*
X174979447Y-74013952D02*
X174917543Y-73890142D01*
X174917543Y-73890142D02*
X174793733Y-73828238D01*
X174793733Y-73828238D02*
X174546114Y-73828238D01*
X174546114Y-73828238D02*
X174422305Y-73890142D01*
X174422305Y-73890142D02*
X174360400Y-74013952D01*
X174360400Y-74013952D02*
X174360400Y-74137761D01*
X174360400Y-74137761D02*
X174979447Y-74261571D01*
X173803257Y-73828238D02*
X173803257Y-75128238D01*
X173803257Y-73890142D02*
X173679447Y-73828238D01*
X173679447Y-73828238D02*
X173431828Y-73828238D01*
X173431828Y-73828238D02*
X173308019Y-73890142D01*
X173308019Y-73890142D02*
X173246114Y-73952047D01*
X173246114Y-73952047D02*
X173184209Y-74075857D01*
X173184209Y-74075857D02*
X173184209Y-74447285D01*
X173184209Y-74447285D02*
X173246114Y-74571095D01*
X173246114Y-74571095D02*
X173308019Y-74633000D01*
X173308019Y-74633000D02*
X173431828Y-74694904D01*
X173431828Y-74694904D02*
X173679447Y-74694904D01*
X173679447Y-74694904D02*
X173803257Y-74633000D01*
X172441352Y-74694904D02*
X172565162Y-74633000D01*
X172565162Y-74633000D02*
X172627067Y-74509190D01*
X172627067Y-74509190D02*
X172627067Y-73394904D01*
X171760400Y-74694904D02*
X171884210Y-74633000D01*
X171884210Y-74633000D02*
X171946115Y-74571095D01*
X171946115Y-74571095D02*
X172008019Y-74447285D01*
X172008019Y-74447285D02*
X172008019Y-74075857D01*
X172008019Y-74075857D02*
X171946115Y-73952047D01*
X171946115Y-73952047D02*
X171884210Y-73890142D01*
X171884210Y-73890142D02*
X171760400Y-73828238D01*
X171760400Y-73828238D02*
X171574686Y-73828238D01*
X171574686Y-73828238D02*
X171450877Y-73890142D01*
X171450877Y-73890142D02*
X171388972Y-73952047D01*
X171388972Y-73952047D02*
X171327067Y-74075857D01*
X171327067Y-74075857D02*
X171327067Y-74447285D01*
X171327067Y-74447285D02*
X171388972Y-74571095D01*
X171388972Y-74571095D02*
X171450877Y-74633000D01*
X171450877Y-74633000D02*
X171574686Y-74694904D01*
X171574686Y-74694904D02*
X171760400Y-74694904D01*
X170893734Y-73828238D02*
X170584210Y-74694904D01*
X170274687Y-73828238D02*
X170584210Y-74694904D01*
X170584210Y-74694904D02*
X170708020Y-75004428D01*
X170708020Y-75004428D02*
X170769925Y-75066333D01*
X170769925Y-75066333D02*
X170893734Y-75128238D01*
X169779449Y-74694904D02*
X169779449Y-73828238D01*
X169779449Y-73952047D02*
X169717544Y-73890142D01*
X169717544Y-73890142D02*
X169593734Y-73828238D01*
X169593734Y-73828238D02*
X169408020Y-73828238D01*
X169408020Y-73828238D02*
X169284211Y-73890142D01*
X169284211Y-73890142D02*
X169222306Y-74013952D01*
X169222306Y-74013952D02*
X169222306Y-74694904D01*
X169222306Y-74013952D02*
X169160401Y-73890142D01*
X169160401Y-73890142D02*
X169036592Y-73828238D01*
X169036592Y-73828238D02*
X168850877Y-73828238D01*
X168850877Y-73828238D02*
X168727068Y-73890142D01*
X168727068Y-73890142D02*
X168665163Y-74013952D01*
X168665163Y-74013952D02*
X168665163Y-74694904D01*
X167550878Y-74633000D02*
X167674687Y-74694904D01*
X167674687Y-74694904D02*
X167922306Y-74694904D01*
X167922306Y-74694904D02*
X168046116Y-74633000D01*
X168046116Y-74633000D02*
X168108020Y-74509190D01*
X168108020Y-74509190D02*
X168108020Y-74013952D01*
X168108020Y-74013952D02*
X168046116Y-73890142D01*
X168046116Y-73890142D02*
X167922306Y-73828238D01*
X167922306Y-73828238D02*
X167674687Y-73828238D01*
X167674687Y-73828238D02*
X167550878Y-73890142D01*
X167550878Y-73890142D02*
X167488973Y-74013952D01*
X167488973Y-74013952D02*
X167488973Y-74137761D01*
X167488973Y-74137761D02*
X168108020Y-74261571D01*
X166931830Y-73828238D02*
X166931830Y-74694904D01*
X166931830Y-73952047D02*
X166869925Y-73890142D01*
X166869925Y-73890142D02*
X166746115Y-73828238D01*
X166746115Y-73828238D02*
X166560401Y-73828238D01*
X166560401Y-73828238D02*
X166436592Y-73890142D01*
X166436592Y-73890142D02*
X166374687Y-74013952D01*
X166374687Y-74013952D02*
X166374687Y-74694904D01*
X165941354Y-73828238D02*
X165446116Y-73828238D01*
X165755640Y-73394904D02*
X165755640Y-74509190D01*
X165755640Y-74509190D02*
X165693735Y-74633000D01*
X165693735Y-74633000D02*
X165569925Y-74694904D01*
X165569925Y-74694904D02*
X165446116Y-74694904D01*
X163588973Y-74013952D02*
X163403259Y-74075857D01*
X163403259Y-74075857D02*
X163341354Y-74137761D01*
X163341354Y-74137761D02*
X163279450Y-74261571D01*
X163279450Y-74261571D02*
X163279450Y-74447285D01*
X163279450Y-74447285D02*
X163341354Y-74571095D01*
X163341354Y-74571095D02*
X163403259Y-74633000D01*
X163403259Y-74633000D02*
X163527069Y-74694904D01*
X163527069Y-74694904D02*
X164022307Y-74694904D01*
X164022307Y-74694904D02*
X164022307Y-73394904D01*
X164022307Y-73394904D02*
X163588973Y-73394904D01*
X163588973Y-73394904D02*
X163465164Y-73456809D01*
X163465164Y-73456809D02*
X163403259Y-73518714D01*
X163403259Y-73518714D02*
X163341354Y-73642523D01*
X163341354Y-73642523D02*
X163341354Y-73766333D01*
X163341354Y-73766333D02*
X163403259Y-73890142D01*
X163403259Y-73890142D02*
X163465164Y-73952047D01*
X163465164Y-73952047D02*
X163588973Y-74013952D01*
X163588973Y-74013952D02*
X164022307Y-74013952D01*
X162536592Y-74694904D02*
X162660402Y-74633000D01*
X162660402Y-74633000D02*
X162722307Y-74571095D01*
X162722307Y-74571095D02*
X162784211Y-74447285D01*
X162784211Y-74447285D02*
X162784211Y-74075857D01*
X162784211Y-74075857D02*
X162722307Y-73952047D01*
X162722307Y-73952047D02*
X162660402Y-73890142D01*
X162660402Y-73890142D02*
X162536592Y-73828238D01*
X162536592Y-73828238D02*
X162350878Y-73828238D01*
X162350878Y-73828238D02*
X162227069Y-73890142D01*
X162227069Y-73890142D02*
X162165164Y-73952047D01*
X162165164Y-73952047D02*
X162103259Y-74075857D01*
X162103259Y-74075857D02*
X162103259Y-74447285D01*
X162103259Y-74447285D02*
X162165164Y-74571095D01*
X162165164Y-74571095D02*
X162227069Y-74633000D01*
X162227069Y-74633000D02*
X162350878Y-74694904D01*
X162350878Y-74694904D02*
X162536592Y-74694904D01*
X160988974Y-74694904D02*
X160988974Y-74013952D01*
X160988974Y-74013952D02*
X161050879Y-73890142D01*
X161050879Y-73890142D02*
X161174688Y-73828238D01*
X161174688Y-73828238D02*
X161422307Y-73828238D01*
X161422307Y-73828238D02*
X161546117Y-73890142D01*
X160988974Y-74633000D02*
X161112783Y-74694904D01*
X161112783Y-74694904D02*
X161422307Y-74694904D01*
X161422307Y-74694904D02*
X161546117Y-74633000D01*
X161546117Y-74633000D02*
X161608021Y-74509190D01*
X161608021Y-74509190D02*
X161608021Y-74385380D01*
X161608021Y-74385380D02*
X161546117Y-74261571D01*
X161546117Y-74261571D02*
X161422307Y-74199666D01*
X161422307Y-74199666D02*
X161112783Y-74199666D01*
X161112783Y-74199666D02*
X160988974Y-74137761D01*
X160369927Y-74694904D02*
X160369927Y-73828238D01*
X160369927Y-74075857D02*
X160308022Y-73952047D01*
X160308022Y-73952047D02*
X160246117Y-73890142D01*
X160246117Y-73890142D02*
X160122308Y-73828238D01*
X160122308Y-73828238D02*
X159998498Y-73828238D01*
X159008022Y-74694904D02*
X159008022Y-73394904D01*
X159008022Y-74633000D02*
X159131831Y-74694904D01*
X159131831Y-74694904D02*
X159379450Y-74694904D01*
X159379450Y-74694904D02*
X159503260Y-74633000D01*
X159503260Y-74633000D02*
X159565165Y-74571095D01*
X159565165Y-74571095D02*
X159627069Y-74447285D01*
X159627069Y-74447285D02*
X159627069Y-74075857D01*
X159627069Y-74075857D02*
X159565165Y-73952047D01*
X159565165Y-73952047D02*
X159503260Y-73890142D01*
X159503260Y-73890142D02*
X159379450Y-73828238D01*
X159379450Y-73828238D02*
X159131831Y-73828238D01*
X159131831Y-73828238D02*
X159008022Y-73890142D01*
X156841356Y-73828238D02*
X156841356Y-74694904D01*
X157150880Y-73333000D02*
X157460403Y-74261571D01*
X157460403Y-74261571D02*
X156655642Y-74261571D01*
X156160404Y-74571095D02*
X156098499Y-74633000D01*
X156098499Y-74633000D02*
X156160404Y-74694904D01*
X156160404Y-74694904D02*
X156222308Y-74633000D01*
X156222308Y-74633000D02*
X156160404Y-74571095D01*
X156160404Y-74571095D02*
X156160404Y-74694904D01*
X154860403Y-74694904D02*
X155603260Y-74694904D01*
X155231832Y-74694904D02*
X155231832Y-73394904D01*
X155231832Y-73394904D02*
X155355641Y-73580619D01*
X155355641Y-73580619D02*
X155479451Y-73704428D01*
X155479451Y-73704428D02*
X155603260Y-73766333D01*
X184636589Y-76168784D02*
X184636589Y-76787831D01*
X185069922Y-75487831D02*
X184636589Y-76168784D01*
X184636589Y-76168784D02*
X184203255Y-75487831D01*
X183769922Y-76664022D02*
X183708017Y-76725927D01*
X183708017Y-76725927D02*
X183769922Y-76787831D01*
X183769922Y-76787831D02*
X183831826Y-76725927D01*
X183831826Y-76725927D02*
X183769922Y-76664022D01*
X183769922Y-76664022D02*
X183769922Y-76787831D01*
X183150874Y-75487831D02*
X183150874Y-76540212D01*
X183150874Y-76540212D02*
X183088969Y-76664022D01*
X183088969Y-76664022D02*
X183027064Y-76725927D01*
X183027064Y-76725927D02*
X182903255Y-76787831D01*
X182903255Y-76787831D02*
X182655636Y-76787831D01*
X182655636Y-76787831D02*
X182531826Y-76725927D01*
X182531826Y-76725927D02*
X182469921Y-76664022D01*
X182469921Y-76664022D02*
X182408017Y-76540212D01*
X182408017Y-76540212D02*
X182408017Y-75487831D01*
X181788969Y-76664022D02*
X181727064Y-76725927D01*
X181727064Y-76725927D02*
X181788969Y-76787831D01*
X181788969Y-76787831D02*
X181850873Y-76725927D01*
X181850873Y-76725927D02*
X181788969Y-76664022D01*
X181788969Y-76664022D02*
X181788969Y-76787831D01*
X181169921Y-76787831D02*
X181169921Y-75487831D01*
X181169921Y-75487831D02*
X180674683Y-75487831D01*
X180674683Y-75487831D02*
X180550873Y-75549736D01*
X180550873Y-75549736D02*
X180488968Y-75611641D01*
X180488968Y-75611641D02*
X180427064Y-75735450D01*
X180427064Y-75735450D02*
X180427064Y-75921165D01*
X180427064Y-75921165D02*
X180488968Y-76044974D01*
X180488968Y-76044974D02*
X180550873Y-76106879D01*
X180550873Y-76106879D02*
X180674683Y-76168784D01*
X180674683Y-76168784D02*
X181169921Y-76168784D01*
X179869921Y-76664022D02*
X179808016Y-76725927D01*
X179808016Y-76725927D02*
X179869921Y-76787831D01*
X179869921Y-76787831D02*
X179931825Y-76725927D01*
X179931825Y-76725927D02*
X179869921Y-76664022D01*
X179869921Y-76664022D02*
X179869921Y-76787831D01*
X179188968Y-76725927D02*
X179188968Y-76787831D01*
X179188968Y-76787831D02*
X179250873Y-76911641D01*
X179250873Y-76911641D02*
X179312777Y-76973546D01*
X177641349Y-76787831D02*
X177641349Y-75487831D01*
X177022301Y-76787831D02*
X177022301Y-75487831D01*
X176588967Y-75487831D02*
X175846110Y-75487831D01*
X176217538Y-76787831D02*
X176217538Y-75487831D01*
X174979443Y-76106879D02*
X174793729Y-76168784D01*
X174793729Y-76168784D02*
X174731824Y-76230688D01*
X174731824Y-76230688D02*
X174669920Y-76354498D01*
X174669920Y-76354498D02*
X174669920Y-76540212D01*
X174669920Y-76540212D02*
X174731824Y-76664022D01*
X174731824Y-76664022D02*
X174793729Y-76725927D01*
X174793729Y-76725927D02*
X174917539Y-76787831D01*
X174917539Y-76787831D02*
X175412777Y-76787831D01*
X175412777Y-76787831D02*
X175412777Y-75487831D01*
X175412777Y-75487831D02*
X174979443Y-75487831D01*
X174979443Y-75487831D02*
X174855634Y-75549736D01*
X174855634Y-75549736D02*
X174793729Y-75611641D01*
X174793729Y-75611641D02*
X174731824Y-75735450D01*
X174731824Y-75735450D02*
X174731824Y-75859260D01*
X174731824Y-75859260D02*
X174793729Y-75983069D01*
X174793729Y-75983069D02*
X174855634Y-76044974D01*
X174855634Y-76044974D02*
X174979443Y-76106879D01*
X174979443Y-76106879D02*
X175412777Y-76106879D01*
X174174681Y-76725927D02*
X173988967Y-76787831D01*
X173988967Y-76787831D02*
X173679443Y-76787831D01*
X173679443Y-76787831D02*
X173555634Y-76725927D01*
X173555634Y-76725927D02*
X173493729Y-76664022D01*
X173493729Y-76664022D02*
X173431824Y-76540212D01*
X173431824Y-76540212D02*
X173431824Y-76416403D01*
X173431824Y-76416403D02*
X173493729Y-76292593D01*
X173493729Y-76292593D02*
X173555634Y-76230688D01*
X173555634Y-76230688D02*
X173679443Y-76168784D01*
X173679443Y-76168784D02*
X173927062Y-76106879D01*
X173927062Y-76106879D02*
X174050872Y-76044974D01*
X174050872Y-76044974D02*
X174112777Y-75983069D01*
X174112777Y-75983069D02*
X174174681Y-75859260D01*
X174174681Y-75859260D02*
X174174681Y-75735450D01*
X174174681Y-75735450D02*
X174112777Y-75611641D01*
X174112777Y-75611641D02*
X174050872Y-75549736D01*
X174050872Y-75549736D02*
X173927062Y-75487831D01*
X173927062Y-75487831D02*
X173617539Y-75487831D01*
X173617539Y-75487831D02*
X173431824Y-75549736D01*
X172936586Y-76725927D02*
X172750872Y-76787831D01*
X172750872Y-76787831D02*
X172441348Y-76787831D01*
X172441348Y-76787831D02*
X172317539Y-76725927D01*
X172317539Y-76725927D02*
X172255634Y-76664022D01*
X172255634Y-76664022D02*
X172193729Y-76540212D01*
X172193729Y-76540212D02*
X172193729Y-76416403D01*
X172193729Y-76416403D02*
X172255634Y-76292593D01*
X172255634Y-76292593D02*
X172317539Y-76230688D01*
X172317539Y-76230688D02*
X172441348Y-76168784D01*
X172441348Y-76168784D02*
X172688967Y-76106879D01*
X172688967Y-76106879D02*
X172812777Y-76044974D01*
X172812777Y-76044974D02*
X172874682Y-75983069D01*
X172874682Y-75983069D02*
X172936586Y-75859260D01*
X172936586Y-75859260D02*
X172936586Y-75735450D01*
X172936586Y-75735450D02*
X172874682Y-75611641D01*
X172874682Y-75611641D02*
X172812777Y-75549736D01*
X172812777Y-75549736D02*
X172688967Y-75487831D01*
X172688967Y-75487831D02*
X172379444Y-75487831D01*
X172379444Y-75487831D02*
X172193729Y-75549736D01*
X171636587Y-76787831D02*
X171636587Y-75487831D01*
X171636587Y-75487831D02*
X171141349Y-75487831D01*
X171141349Y-75487831D02*
X171017539Y-75549736D01*
X171017539Y-75549736D02*
X170955634Y-75611641D01*
X170955634Y-75611641D02*
X170893730Y-75735450D01*
X170893730Y-75735450D02*
X170893730Y-75921165D01*
X170893730Y-75921165D02*
X170955634Y-76044974D01*
X170955634Y-76044974D02*
X171017539Y-76106879D01*
X171017539Y-76106879D02*
X171141349Y-76168784D01*
X171141349Y-76168784D02*
X171636587Y-76168784D01*
X184946112Y-77704568D02*
X184884208Y-77642663D01*
X184884208Y-77642663D02*
X184760398Y-77580758D01*
X184760398Y-77580758D02*
X184450874Y-77580758D01*
X184450874Y-77580758D02*
X184327065Y-77642663D01*
X184327065Y-77642663D02*
X184265160Y-77704568D01*
X184265160Y-77704568D02*
X184203255Y-77828377D01*
X184203255Y-77828377D02*
X184203255Y-77952187D01*
X184203255Y-77952187D02*
X184265160Y-78137901D01*
X184265160Y-78137901D02*
X185008017Y-78880758D01*
X185008017Y-78880758D02*
X184203255Y-78880758D01*
X183398494Y-77580758D02*
X183274684Y-77580758D01*
X183274684Y-77580758D02*
X183150875Y-77642663D01*
X183150875Y-77642663D02*
X183088970Y-77704568D01*
X183088970Y-77704568D02*
X183027065Y-77828377D01*
X183027065Y-77828377D02*
X182965160Y-78075996D01*
X182965160Y-78075996D02*
X182965160Y-78385520D01*
X182965160Y-78385520D02*
X183027065Y-78633139D01*
X183027065Y-78633139D02*
X183088970Y-78756949D01*
X183088970Y-78756949D02*
X183150875Y-78818854D01*
X183150875Y-78818854D02*
X183274684Y-78880758D01*
X183274684Y-78880758D02*
X183398494Y-78880758D01*
X183398494Y-78880758D02*
X183522303Y-78818854D01*
X183522303Y-78818854D02*
X183584208Y-78756949D01*
X183584208Y-78756949D02*
X183646113Y-78633139D01*
X183646113Y-78633139D02*
X183708017Y-78385520D01*
X183708017Y-78385520D02*
X183708017Y-78075996D01*
X183708017Y-78075996D02*
X183646113Y-77828377D01*
X183646113Y-77828377D02*
X183584208Y-77704568D01*
X183584208Y-77704568D02*
X183522303Y-77642663D01*
X183522303Y-77642663D02*
X183398494Y-77580758D01*
X182469922Y-77704568D02*
X182408018Y-77642663D01*
X182408018Y-77642663D02*
X182284208Y-77580758D01*
X182284208Y-77580758D02*
X181974684Y-77580758D01*
X181974684Y-77580758D02*
X181850875Y-77642663D01*
X181850875Y-77642663D02*
X181788970Y-77704568D01*
X181788970Y-77704568D02*
X181727065Y-77828377D01*
X181727065Y-77828377D02*
X181727065Y-77952187D01*
X181727065Y-77952187D02*
X181788970Y-78137901D01*
X181788970Y-78137901D02*
X182531827Y-78880758D01*
X182531827Y-78880758D02*
X181727065Y-78880758D01*
X180550875Y-77580758D02*
X181169923Y-77580758D01*
X181169923Y-77580758D02*
X181231827Y-78199806D01*
X181231827Y-78199806D02*
X181169923Y-78137901D01*
X181169923Y-78137901D02*
X181046113Y-78075996D01*
X181046113Y-78075996D02*
X180736589Y-78075996D01*
X180736589Y-78075996D02*
X180612780Y-78137901D01*
X180612780Y-78137901D02*
X180550875Y-78199806D01*
X180550875Y-78199806D02*
X180488970Y-78323615D01*
X180488970Y-78323615D02*
X180488970Y-78633139D01*
X180488970Y-78633139D02*
X180550875Y-78756949D01*
X180550875Y-78756949D02*
X180612780Y-78818854D01*
X180612780Y-78818854D02*
X180736589Y-78880758D01*
X180736589Y-78880758D02*
X181046113Y-78880758D01*
X181046113Y-78880758D02*
X181169923Y-78818854D01*
X181169923Y-78818854D02*
X181231827Y-78756949D01*
X179931828Y-78385520D02*
X178941352Y-78385520D01*
X178074685Y-77580758D02*
X177950875Y-77580758D01*
X177950875Y-77580758D02*
X177827066Y-77642663D01*
X177827066Y-77642663D02*
X177765161Y-77704568D01*
X177765161Y-77704568D02*
X177703256Y-77828377D01*
X177703256Y-77828377D02*
X177641351Y-78075996D01*
X177641351Y-78075996D02*
X177641351Y-78385520D01*
X177641351Y-78385520D02*
X177703256Y-78633139D01*
X177703256Y-78633139D02*
X177765161Y-78756949D01*
X177765161Y-78756949D02*
X177827066Y-78818854D01*
X177827066Y-78818854D02*
X177950875Y-78880758D01*
X177950875Y-78880758D02*
X178074685Y-78880758D01*
X178074685Y-78880758D02*
X178198494Y-78818854D01*
X178198494Y-78818854D02*
X178260399Y-78756949D01*
X178260399Y-78756949D02*
X178322304Y-78633139D01*
X178322304Y-78633139D02*
X178384208Y-78385520D01*
X178384208Y-78385520D02*
X178384208Y-78075996D01*
X178384208Y-78075996D02*
X178322304Y-77828377D01*
X178322304Y-77828377D02*
X178260399Y-77704568D01*
X178260399Y-77704568D02*
X178198494Y-77642663D01*
X178198494Y-77642663D02*
X178074685Y-77580758D01*
X177208018Y-77580758D02*
X176341352Y-77580758D01*
X176341352Y-77580758D02*
X176898494Y-78880758D01*
X175846114Y-78385520D02*
X174855638Y-78385520D01*
X173555637Y-78880758D02*
X174298494Y-78880758D01*
X173927066Y-78880758D02*
X173927066Y-77580758D01*
X173927066Y-77580758D02*
X174050875Y-77766473D01*
X174050875Y-77766473D02*
X174174685Y-77890282D01*
X174174685Y-77890282D02*
X174298494Y-77952187D01*
X172750876Y-77580758D02*
X172627066Y-77580758D01*
X172627066Y-77580758D02*
X172503257Y-77642663D01*
X172503257Y-77642663D02*
X172441352Y-77704568D01*
X172441352Y-77704568D02*
X172379447Y-77828377D01*
X172379447Y-77828377D02*
X172317542Y-78075996D01*
X172317542Y-78075996D02*
X172317542Y-78385520D01*
X172317542Y-78385520D02*
X172379447Y-78633139D01*
X172379447Y-78633139D02*
X172441352Y-78756949D01*
X172441352Y-78756949D02*
X172503257Y-78818854D01*
X172503257Y-78818854D02*
X172627066Y-78880758D01*
X172627066Y-78880758D02*
X172750876Y-78880758D01*
X172750876Y-78880758D02*
X172874685Y-78818854D01*
X172874685Y-78818854D02*
X172936590Y-78756949D01*
X172936590Y-78756949D02*
X172998495Y-78633139D01*
X172998495Y-78633139D02*
X173060399Y-78385520D01*
X173060399Y-78385520D02*
X173060399Y-78075996D01*
X173060399Y-78075996D02*
X172998495Y-77828377D01*
X172998495Y-77828377D02*
X172936590Y-77704568D01*
X172936590Y-77704568D02*
X172874685Y-77642663D01*
X172874685Y-77642663D02*
X172750876Y-77580758D01*
D11*
X179286472Y-106411019D02*
X178715044Y-106411019D01*
X179000758Y-107411019D02*
X179000758Y-106411019D01*
X178000758Y-107363400D02*
X178095996Y-107411019D01*
X178095996Y-107411019D02*
X178286472Y-107411019D01*
X178286472Y-107411019D02*
X178381710Y-107363400D01*
X178381710Y-107363400D02*
X178429329Y-107268161D01*
X178429329Y-107268161D02*
X178429329Y-106887209D01*
X178429329Y-106887209D02*
X178381710Y-106791971D01*
X178381710Y-106791971D02*
X178286472Y-106744352D01*
X178286472Y-106744352D02*
X178095996Y-106744352D01*
X178095996Y-106744352D02*
X178000758Y-106791971D01*
X178000758Y-106791971D02*
X177953139Y-106887209D01*
X177953139Y-106887209D02*
X177953139Y-106982447D01*
X177953139Y-106982447D02*
X178429329Y-107077685D01*
X177572186Y-107363400D02*
X177476948Y-107411019D01*
X177476948Y-107411019D02*
X177286472Y-107411019D01*
X177286472Y-107411019D02*
X177191234Y-107363400D01*
X177191234Y-107363400D02*
X177143615Y-107268161D01*
X177143615Y-107268161D02*
X177143615Y-107220542D01*
X177143615Y-107220542D02*
X177191234Y-107125304D01*
X177191234Y-107125304D02*
X177286472Y-107077685D01*
X177286472Y-107077685D02*
X177429329Y-107077685D01*
X177429329Y-107077685D02*
X177524567Y-107030066D01*
X177524567Y-107030066D02*
X177572186Y-106934828D01*
X177572186Y-106934828D02*
X177572186Y-106887209D01*
X177572186Y-106887209D02*
X177524567Y-106791971D01*
X177524567Y-106791971D02*
X177429329Y-106744352D01*
X177429329Y-106744352D02*
X177286472Y-106744352D01*
X177286472Y-106744352D02*
X177191234Y-106791971D01*
X176857900Y-106744352D02*
X176476948Y-106744352D01*
X176715043Y-106411019D02*
X176715043Y-107268161D01*
X176715043Y-107268161D02*
X176667424Y-107363400D01*
X176667424Y-107363400D02*
X176572186Y-107411019D01*
X176572186Y-107411019D02*
X176476948Y-107411019D01*
X176143614Y-106744352D02*
X176143614Y-107744352D01*
X176143614Y-106791971D02*
X176048376Y-106744352D01*
X176048376Y-106744352D02*
X175857900Y-106744352D01*
X175857900Y-106744352D02*
X175762662Y-106791971D01*
X175762662Y-106791971D02*
X175715043Y-106839590D01*
X175715043Y-106839590D02*
X175667424Y-106934828D01*
X175667424Y-106934828D02*
X175667424Y-107220542D01*
X175667424Y-107220542D02*
X175715043Y-107315780D01*
X175715043Y-107315780D02*
X175762662Y-107363400D01*
X175762662Y-107363400D02*
X175857900Y-107411019D01*
X175857900Y-107411019D02*
X176048376Y-107411019D01*
X176048376Y-107411019D02*
X176143614Y-107363400D01*
X175095995Y-107411019D02*
X175191233Y-107363400D01*
X175191233Y-107363400D02*
X175238852Y-107315780D01*
X175238852Y-107315780D02*
X175286471Y-107220542D01*
X175286471Y-107220542D02*
X175286471Y-106934828D01*
X175286471Y-106934828D02*
X175238852Y-106839590D01*
X175238852Y-106839590D02*
X175191233Y-106791971D01*
X175191233Y-106791971D02*
X175095995Y-106744352D01*
X175095995Y-106744352D02*
X174953138Y-106744352D01*
X174953138Y-106744352D02*
X174857900Y-106791971D01*
X174857900Y-106791971D02*
X174810281Y-106839590D01*
X174810281Y-106839590D02*
X174762662Y-106934828D01*
X174762662Y-106934828D02*
X174762662Y-107220542D01*
X174762662Y-107220542D02*
X174810281Y-107315780D01*
X174810281Y-107315780D02*
X174857900Y-107363400D01*
X174857900Y-107363400D02*
X174953138Y-107411019D01*
X174953138Y-107411019D02*
X175095995Y-107411019D01*
X174334090Y-107411019D02*
X174334090Y-106744352D01*
X174334090Y-106411019D02*
X174381709Y-106458638D01*
X174381709Y-106458638D02*
X174334090Y-106506257D01*
X174334090Y-106506257D02*
X174286471Y-106458638D01*
X174286471Y-106458638D02*
X174334090Y-106411019D01*
X174334090Y-106411019D02*
X174334090Y-106506257D01*
X173857900Y-106744352D02*
X173857900Y-107411019D01*
X173857900Y-106839590D02*
X173810281Y-106791971D01*
X173810281Y-106791971D02*
X173715043Y-106744352D01*
X173715043Y-106744352D02*
X173572186Y-106744352D01*
X173572186Y-106744352D02*
X173476948Y-106791971D01*
X173476948Y-106791971D02*
X173429329Y-106887209D01*
X173429329Y-106887209D02*
X173429329Y-107411019D01*
X173095995Y-106744352D02*
X172715043Y-106744352D01*
X172953138Y-106411019D02*
X172953138Y-107268161D01*
X172953138Y-107268161D02*
X172905519Y-107363400D01*
X172905519Y-107363400D02*
X172810281Y-107411019D01*
X172810281Y-107411019D02*
X172715043Y-107411019D01*
X172429328Y-107363400D02*
X172334090Y-107411019D01*
X172334090Y-107411019D02*
X172143614Y-107411019D01*
X172143614Y-107411019D02*
X172048376Y-107363400D01*
X172048376Y-107363400D02*
X172000757Y-107268161D01*
X172000757Y-107268161D02*
X172000757Y-107220542D01*
X172000757Y-107220542D02*
X172048376Y-107125304D01*
X172048376Y-107125304D02*
X172143614Y-107077685D01*
X172143614Y-107077685D02*
X172286471Y-107077685D01*
X172286471Y-107077685D02*
X172381709Y-107030066D01*
X172381709Y-107030066D02*
X172429328Y-106934828D01*
X172429328Y-106934828D02*
X172429328Y-106887209D01*
X172429328Y-106887209D02*
X172381709Y-106791971D01*
X172381709Y-106791971D02*
X172286471Y-106744352D01*
X172286471Y-106744352D02*
X172143614Y-106744352D01*
X172143614Y-106744352D02*
X172048376Y-106791971D01*
X171572185Y-107315780D02*
X171524566Y-107363400D01*
X171524566Y-107363400D02*
X171572185Y-107411019D01*
X171572185Y-107411019D02*
X171619804Y-107363400D01*
X171619804Y-107363400D02*
X171572185Y-107315780D01*
X171572185Y-107315780D02*
X171572185Y-107411019D01*
X171572185Y-106791971D02*
X171524566Y-106839590D01*
X171524566Y-106839590D02*
X171572185Y-106887209D01*
X171572185Y-106887209D02*
X171619804Y-106839590D01*
X171619804Y-106839590D02*
X171572185Y-106791971D01*
X171572185Y-106791971D02*
X171572185Y-106887209D01*
X179286472Y-108020963D02*
X178715044Y-108020963D01*
X179000758Y-109020963D02*
X179000758Y-108020963D01*
X178381710Y-109020963D02*
X178381710Y-108020963D01*
X178381710Y-108020963D02*
X178000758Y-108020963D01*
X178000758Y-108020963D02*
X177905520Y-108068582D01*
X177905520Y-108068582D02*
X177857901Y-108116201D01*
X177857901Y-108116201D02*
X177810282Y-108211439D01*
X177810282Y-108211439D02*
X177810282Y-108354296D01*
X177810282Y-108354296D02*
X177857901Y-108449534D01*
X177857901Y-108449534D02*
X177905520Y-108497153D01*
X177905520Y-108497153D02*
X178000758Y-108544772D01*
X178000758Y-108544772D02*
X178381710Y-108544772D01*
X176857901Y-109020963D02*
X177429329Y-109020963D01*
X177143615Y-109020963D02*
X177143615Y-108020963D01*
X177143615Y-108020963D02*
X177238853Y-108163820D01*
X177238853Y-108163820D02*
X177334091Y-108259058D01*
X177334091Y-108259058D02*
X177429329Y-108306677D01*
X176429329Y-108925724D02*
X176381710Y-108973344D01*
X176381710Y-108973344D02*
X176429329Y-109020963D01*
X176429329Y-109020963D02*
X176476948Y-108973344D01*
X176476948Y-108973344D02*
X176429329Y-108925724D01*
X176429329Y-108925724D02*
X176429329Y-109020963D01*
X176429329Y-108401915D02*
X176381710Y-108449534D01*
X176381710Y-108449534D02*
X176429329Y-108497153D01*
X176429329Y-108497153D02*
X176476948Y-108449534D01*
X176476948Y-108449534D02*
X176429329Y-108401915D01*
X176429329Y-108401915D02*
X176429329Y-108497153D01*
X175334091Y-108020963D02*
X174762663Y-108020963D01*
X175048377Y-109020963D02*
X175048377Y-108020963D01*
X174429329Y-109020963D02*
X174429329Y-108354296D01*
X174429329Y-108544772D02*
X174381710Y-108449534D01*
X174381710Y-108449534D02*
X174334091Y-108401915D01*
X174334091Y-108401915D02*
X174238853Y-108354296D01*
X174238853Y-108354296D02*
X174143615Y-108354296D01*
X173810281Y-109020963D02*
X173810281Y-108354296D01*
X173810281Y-108020963D02*
X173857900Y-108068582D01*
X173857900Y-108068582D02*
X173810281Y-108116201D01*
X173810281Y-108116201D02*
X173762662Y-108068582D01*
X173762662Y-108068582D02*
X173810281Y-108020963D01*
X173810281Y-108020963D02*
X173810281Y-108116201D01*
X172905520Y-108354296D02*
X172905520Y-109163820D01*
X172905520Y-109163820D02*
X172953139Y-109259058D01*
X172953139Y-109259058D02*
X173000758Y-109306677D01*
X173000758Y-109306677D02*
X173095996Y-109354296D01*
X173095996Y-109354296D02*
X173238853Y-109354296D01*
X173238853Y-109354296D02*
X173334091Y-109306677D01*
X172905520Y-108973344D02*
X173000758Y-109020963D01*
X173000758Y-109020963D02*
X173191234Y-109020963D01*
X173191234Y-109020963D02*
X173286472Y-108973344D01*
X173286472Y-108973344D02*
X173334091Y-108925724D01*
X173334091Y-108925724D02*
X173381710Y-108830486D01*
X173381710Y-108830486D02*
X173381710Y-108544772D01*
X173381710Y-108544772D02*
X173334091Y-108449534D01*
X173334091Y-108449534D02*
X173286472Y-108401915D01*
X173286472Y-108401915D02*
X173191234Y-108354296D01*
X173191234Y-108354296D02*
X173000758Y-108354296D01*
X173000758Y-108354296D02*
X172905520Y-108401915D01*
X172000758Y-108354296D02*
X172000758Y-109163820D01*
X172000758Y-109163820D02*
X172048377Y-109259058D01*
X172048377Y-109259058D02*
X172095996Y-109306677D01*
X172095996Y-109306677D02*
X172191234Y-109354296D01*
X172191234Y-109354296D02*
X172334091Y-109354296D01*
X172334091Y-109354296D02*
X172429329Y-109306677D01*
X172000758Y-108973344D02*
X172095996Y-109020963D01*
X172095996Y-109020963D02*
X172286472Y-109020963D01*
X172286472Y-109020963D02*
X172381710Y-108973344D01*
X172381710Y-108973344D02*
X172429329Y-108925724D01*
X172429329Y-108925724D02*
X172476948Y-108830486D01*
X172476948Y-108830486D02*
X172476948Y-108544772D01*
X172476948Y-108544772D02*
X172429329Y-108449534D01*
X172429329Y-108449534D02*
X172381710Y-108401915D01*
X172381710Y-108401915D02*
X172286472Y-108354296D01*
X172286472Y-108354296D02*
X172095996Y-108354296D01*
X172095996Y-108354296D02*
X172000758Y-108401915D01*
X171143615Y-108973344D02*
X171238853Y-109020963D01*
X171238853Y-109020963D02*
X171429329Y-109020963D01*
X171429329Y-109020963D02*
X171524567Y-108973344D01*
X171524567Y-108973344D02*
X171572186Y-108878105D01*
X171572186Y-108878105D02*
X171572186Y-108497153D01*
X171572186Y-108497153D02*
X171524567Y-108401915D01*
X171524567Y-108401915D02*
X171429329Y-108354296D01*
X171429329Y-108354296D02*
X171238853Y-108354296D01*
X171238853Y-108354296D02*
X171143615Y-108401915D01*
X171143615Y-108401915D02*
X171095996Y-108497153D01*
X171095996Y-108497153D02*
X171095996Y-108592391D01*
X171095996Y-108592391D02*
X171572186Y-108687629D01*
X170667424Y-109020963D02*
X170667424Y-108354296D01*
X170667424Y-108544772D02*
X170619805Y-108449534D01*
X170619805Y-108449534D02*
X170572186Y-108401915D01*
X170572186Y-108401915D02*
X170476948Y-108354296D01*
X170476948Y-108354296D02*
X170381710Y-108354296D01*
X169857900Y-108020963D02*
X169667424Y-108020963D01*
X169667424Y-108020963D02*
X169572186Y-108068582D01*
X169572186Y-108068582D02*
X169476948Y-108163820D01*
X169476948Y-108163820D02*
X169429329Y-108354296D01*
X169429329Y-108354296D02*
X169429329Y-108687629D01*
X169429329Y-108687629D02*
X169476948Y-108878105D01*
X169476948Y-108878105D02*
X169572186Y-108973344D01*
X169572186Y-108973344D02*
X169667424Y-109020963D01*
X169667424Y-109020963D02*
X169857900Y-109020963D01*
X169857900Y-109020963D02*
X169953138Y-108973344D01*
X169953138Y-108973344D02*
X170048376Y-108878105D01*
X170048376Y-108878105D02*
X170095995Y-108687629D01*
X170095995Y-108687629D02*
X170095995Y-108354296D01*
X170095995Y-108354296D02*
X170048376Y-108163820D01*
X170048376Y-108163820D02*
X169953138Y-108068582D01*
X169953138Y-108068582D02*
X169857900Y-108020963D01*
X169000757Y-108020963D02*
X169000757Y-108830486D01*
X169000757Y-108830486D02*
X168953138Y-108925724D01*
X168953138Y-108925724D02*
X168905519Y-108973344D01*
X168905519Y-108973344D02*
X168810281Y-109020963D01*
X168810281Y-109020963D02*
X168619805Y-109020963D01*
X168619805Y-109020963D02*
X168524567Y-108973344D01*
X168524567Y-108973344D02*
X168476948Y-108925724D01*
X168476948Y-108925724D02*
X168429329Y-108830486D01*
X168429329Y-108830486D02*
X168429329Y-108020963D01*
X168095995Y-108020963D02*
X167524567Y-108020963D01*
X167810281Y-109020963D02*
X167810281Y-108020963D01*
X179286472Y-109630907D02*
X178715044Y-109630907D01*
X179000758Y-110630907D02*
X179000758Y-109630907D01*
X178381710Y-110630907D02*
X178381710Y-109630907D01*
X178381710Y-109630907D02*
X178000758Y-109630907D01*
X178000758Y-109630907D02*
X177905520Y-109678526D01*
X177905520Y-109678526D02*
X177857901Y-109726145D01*
X177857901Y-109726145D02*
X177810282Y-109821383D01*
X177810282Y-109821383D02*
X177810282Y-109964240D01*
X177810282Y-109964240D02*
X177857901Y-110059478D01*
X177857901Y-110059478D02*
X177905520Y-110107097D01*
X177905520Y-110107097D02*
X178000758Y-110154716D01*
X178000758Y-110154716D02*
X178381710Y-110154716D01*
X177429329Y-109726145D02*
X177381710Y-109678526D01*
X177381710Y-109678526D02*
X177286472Y-109630907D01*
X177286472Y-109630907D02*
X177048377Y-109630907D01*
X177048377Y-109630907D02*
X176953139Y-109678526D01*
X176953139Y-109678526D02*
X176905520Y-109726145D01*
X176905520Y-109726145D02*
X176857901Y-109821383D01*
X176857901Y-109821383D02*
X176857901Y-109916621D01*
X176857901Y-109916621D02*
X176905520Y-110059478D01*
X176905520Y-110059478D02*
X177476948Y-110630907D01*
X177476948Y-110630907D02*
X176857901Y-110630907D01*
X176429329Y-110535668D02*
X176381710Y-110583288D01*
X176381710Y-110583288D02*
X176429329Y-110630907D01*
X176429329Y-110630907D02*
X176476948Y-110583288D01*
X176476948Y-110583288D02*
X176429329Y-110535668D01*
X176429329Y-110535668D02*
X176429329Y-110630907D01*
X176429329Y-110011859D02*
X176381710Y-110059478D01*
X176381710Y-110059478D02*
X176429329Y-110107097D01*
X176429329Y-110107097D02*
X176476948Y-110059478D01*
X176476948Y-110059478D02*
X176429329Y-110011859D01*
X176429329Y-110011859D02*
X176429329Y-110107097D01*
X175334091Y-109630907D02*
X174762663Y-109630907D01*
X175048377Y-110630907D02*
X175048377Y-109630907D01*
X174429329Y-110630907D02*
X174429329Y-109964240D01*
X174429329Y-110154716D02*
X174381710Y-110059478D01*
X174381710Y-110059478D02*
X174334091Y-110011859D01*
X174334091Y-110011859D02*
X174238853Y-109964240D01*
X174238853Y-109964240D02*
X174143615Y-109964240D01*
X173810281Y-110630907D02*
X173810281Y-109964240D01*
X173810281Y-109630907D02*
X173857900Y-109678526D01*
X173857900Y-109678526D02*
X173810281Y-109726145D01*
X173810281Y-109726145D02*
X173762662Y-109678526D01*
X173762662Y-109678526D02*
X173810281Y-109630907D01*
X173810281Y-109630907D02*
X173810281Y-109726145D01*
X172905520Y-109964240D02*
X172905520Y-110773764D01*
X172905520Y-110773764D02*
X172953139Y-110869002D01*
X172953139Y-110869002D02*
X173000758Y-110916621D01*
X173000758Y-110916621D02*
X173095996Y-110964240D01*
X173095996Y-110964240D02*
X173238853Y-110964240D01*
X173238853Y-110964240D02*
X173334091Y-110916621D01*
X172905520Y-110583288D02*
X173000758Y-110630907D01*
X173000758Y-110630907D02*
X173191234Y-110630907D01*
X173191234Y-110630907D02*
X173286472Y-110583288D01*
X173286472Y-110583288D02*
X173334091Y-110535668D01*
X173334091Y-110535668D02*
X173381710Y-110440430D01*
X173381710Y-110440430D02*
X173381710Y-110154716D01*
X173381710Y-110154716D02*
X173334091Y-110059478D01*
X173334091Y-110059478D02*
X173286472Y-110011859D01*
X173286472Y-110011859D02*
X173191234Y-109964240D01*
X173191234Y-109964240D02*
X173000758Y-109964240D01*
X173000758Y-109964240D02*
X172905520Y-110011859D01*
X172000758Y-109964240D02*
X172000758Y-110773764D01*
X172000758Y-110773764D02*
X172048377Y-110869002D01*
X172048377Y-110869002D02*
X172095996Y-110916621D01*
X172095996Y-110916621D02*
X172191234Y-110964240D01*
X172191234Y-110964240D02*
X172334091Y-110964240D01*
X172334091Y-110964240D02*
X172429329Y-110916621D01*
X172000758Y-110583288D02*
X172095996Y-110630907D01*
X172095996Y-110630907D02*
X172286472Y-110630907D01*
X172286472Y-110630907D02*
X172381710Y-110583288D01*
X172381710Y-110583288D02*
X172429329Y-110535668D01*
X172429329Y-110535668D02*
X172476948Y-110440430D01*
X172476948Y-110440430D02*
X172476948Y-110154716D01*
X172476948Y-110154716D02*
X172429329Y-110059478D01*
X172429329Y-110059478D02*
X172381710Y-110011859D01*
X172381710Y-110011859D02*
X172286472Y-109964240D01*
X172286472Y-109964240D02*
X172095996Y-109964240D01*
X172095996Y-109964240D02*
X172000758Y-110011859D01*
X171143615Y-110583288D02*
X171238853Y-110630907D01*
X171238853Y-110630907D02*
X171429329Y-110630907D01*
X171429329Y-110630907D02*
X171524567Y-110583288D01*
X171524567Y-110583288D02*
X171572186Y-110488049D01*
X171572186Y-110488049D02*
X171572186Y-110107097D01*
X171572186Y-110107097D02*
X171524567Y-110011859D01*
X171524567Y-110011859D02*
X171429329Y-109964240D01*
X171429329Y-109964240D02*
X171238853Y-109964240D01*
X171238853Y-109964240D02*
X171143615Y-110011859D01*
X171143615Y-110011859D02*
X171095996Y-110107097D01*
X171095996Y-110107097D02*
X171095996Y-110202335D01*
X171095996Y-110202335D02*
X171572186Y-110297573D01*
X170667424Y-110630907D02*
X170667424Y-109964240D01*
X170667424Y-110154716D02*
X170619805Y-110059478D01*
X170619805Y-110059478D02*
X170572186Y-110011859D01*
X170572186Y-110011859D02*
X170476948Y-109964240D01*
X170476948Y-109964240D02*
X170381710Y-109964240D01*
X170048376Y-110630907D02*
X170048376Y-109630907D01*
X169572186Y-110630907D02*
X169572186Y-109630907D01*
X169572186Y-109630907D02*
X169000758Y-110630907D01*
X169000758Y-110630907D02*
X169000758Y-109630907D01*
X179286472Y-111240851D02*
X178715044Y-111240851D01*
X179000758Y-112240851D02*
X179000758Y-111240851D01*
X178381710Y-112240851D02*
X178381710Y-111240851D01*
X178381710Y-111240851D02*
X178000758Y-111240851D01*
X178000758Y-111240851D02*
X177905520Y-111288470D01*
X177905520Y-111288470D02*
X177857901Y-111336089D01*
X177857901Y-111336089D02*
X177810282Y-111431327D01*
X177810282Y-111431327D02*
X177810282Y-111574184D01*
X177810282Y-111574184D02*
X177857901Y-111669422D01*
X177857901Y-111669422D02*
X177905520Y-111717041D01*
X177905520Y-111717041D02*
X178000758Y-111764660D01*
X178000758Y-111764660D02*
X178381710Y-111764660D01*
X177476948Y-111240851D02*
X176857901Y-111240851D01*
X176857901Y-111240851D02*
X177191234Y-111621803D01*
X177191234Y-111621803D02*
X177048377Y-111621803D01*
X177048377Y-111621803D02*
X176953139Y-111669422D01*
X176953139Y-111669422D02*
X176905520Y-111717041D01*
X176905520Y-111717041D02*
X176857901Y-111812279D01*
X176857901Y-111812279D02*
X176857901Y-112050374D01*
X176857901Y-112050374D02*
X176905520Y-112145612D01*
X176905520Y-112145612D02*
X176953139Y-112193232D01*
X176953139Y-112193232D02*
X177048377Y-112240851D01*
X177048377Y-112240851D02*
X177334091Y-112240851D01*
X177334091Y-112240851D02*
X177429329Y-112193232D01*
X177429329Y-112193232D02*
X177476948Y-112145612D01*
X176429329Y-112145612D02*
X176381710Y-112193232D01*
X176381710Y-112193232D02*
X176429329Y-112240851D01*
X176429329Y-112240851D02*
X176476948Y-112193232D01*
X176476948Y-112193232D02*
X176429329Y-112145612D01*
X176429329Y-112145612D02*
X176429329Y-112240851D01*
X176429329Y-111621803D02*
X176381710Y-111669422D01*
X176381710Y-111669422D02*
X176429329Y-111717041D01*
X176429329Y-111717041D02*
X176476948Y-111669422D01*
X176476948Y-111669422D02*
X176429329Y-111621803D01*
X176429329Y-111621803D02*
X176429329Y-111717041D01*
X174857901Y-111717041D02*
X175191234Y-111717041D01*
X175191234Y-112240851D02*
X175191234Y-111240851D01*
X175191234Y-111240851D02*
X174715044Y-111240851D01*
X174381710Y-111955136D02*
X173905520Y-111955136D01*
X174476948Y-112240851D02*
X174143615Y-111240851D01*
X174143615Y-111240851D02*
X173810282Y-112240851D01*
X173476948Y-111240851D02*
X173476948Y-112050374D01*
X173476948Y-112050374D02*
X173429329Y-112145612D01*
X173429329Y-112145612D02*
X173381710Y-112193232D01*
X173381710Y-112193232D02*
X173286472Y-112240851D01*
X173286472Y-112240851D02*
X173095996Y-112240851D01*
X173095996Y-112240851D02*
X173000758Y-112193232D01*
X173000758Y-112193232D02*
X172953139Y-112145612D01*
X172953139Y-112145612D02*
X172905520Y-112050374D01*
X172905520Y-112050374D02*
X172905520Y-111240851D01*
X171953139Y-112240851D02*
X172429329Y-112240851D01*
X172429329Y-112240851D02*
X172429329Y-111240851D01*
X171762662Y-111240851D02*
X171191234Y-111240851D01*
X171476948Y-112240851D02*
X171476948Y-111240851D01*
X175329330Y-110963232D02*
X171195996Y-110963232D01*
X179286472Y-112850795D02*
X178715044Y-112850795D01*
X179000758Y-113850795D02*
X179000758Y-112850795D01*
X178381710Y-113850795D02*
X178381710Y-112850795D01*
X178381710Y-112850795D02*
X178000758Y-112850795D01*
X178000758Y-112850795D02*
X177905520Y-112898414D01*
X177905520Y-112898414D02*
X177857901Y-112946033D01*
X177857901Y-112946033D02*
X177810282Y-113041271D01*
X177810282Y-113041271D02*
X177810282Y-113184128D01*
X177810282Y-113184128D02*
X177857901Y-113279366D01*
X177857901Y-113279366D02*
X177905520Y-113326985D01*
X177905520Y-113326985D02*
X178000758Y-113374604D01*
X178000758Y-113374604D02*
X178381710Y-113374604D01*
X176953139Y-113184128D02*
X176953139Y-113850795D01*
X177191234Y-112803176D02*
X177429329Y-113517461D01*
X177429329Y-113517461D02*
X176810282Y-113517461D01*
X176429329Y-113755556D02*
X176381710Y-113803176D01*
X176381710Y-113803176D02*
X176429329Y-113850795D01*
X176429329Y-113850795D02*
X176476948Y-113803176D01*
X176476948Y-113803176D02*
X176429329Y-113755556D01*
X176429329Y-113755556D02*
X176429329Y-113850795D01*
X176429329Y-113231747D02*
X176381710Y-113279366D01*
X176381710Y-113279366D02*
X176429329Y-113326985D01*
X176429329Y-113326985D02*
X176476948Y-113279366D01*
X176476948Y-113279366D02*
X176429329Y-113231747D01*
X176429329Y-113231747D02*
X176429329Y-113326985D01*
X175286472Y-112850795D02*
X174667425Y-112850795D01*
X174667425Y-112850795D02*
X175000758Y-113231747D01*
X175000758Y-113231747D02*
X174857901Y-113231747D01*
X174857901Y-113231747D02*
X174762663Y-113279366D01*
X174762663Y-113279366D02*
X174715044Y-113326985D01*
X174715044Y-113326985D02*
X174667425Y-113422223D01*
X174667425Y-113422223D02*
X174667425Y-113660318D01*
X174667425Y-113660318D02*
X174715044Y-113755556D01*
X174715044Y-113755556D02*
X174762663Y-113803176D01*
X174762663Y-113803176D02*
X174857901Y-113850795D01*
X174857901Y-113850795D02*
X175143615Y-113850795D01*
X175143615Y-113850795D02*
X175238853Y-113803176D01*
X175238853Y-113803176D02*
X175286472Y-113755556D01*
X174381710Y-112850795D02*
X174048377Y-113850795D01*
X174048377Y-113850795D02*
X173715044Y-112850795D01*
X173476948Y-112850795D02*
X172857901Y-112850795D01*
X172857901Y-112850795D02*
X173191234Y-113231747D01*
X173191234Y-113231747D02*
X173048377Y-113231747D01*
X173048377Y-113231747D02*
X172953139Y-113279366D01*
X172953139Y-113279366D02*
X172905520Y-113326985D01*
X172905520Y-113326985D02*
X172857901Y-113422223D01*
X172857901Y-113422223D02*
X172857901Y-113660318D01*
X172857901Y-113660318D02*
X172905520Y-113755556D01*
X172905520Y-113755556D02*
X172953139Y-113803176D01*
X172953139Y-113803176D02*
X173048377Y-113850795D01*
X173048377Y-113850795D02*
X173334091Y-113850795D01*
X173334091Y-113850795D02*
X173429329Y-113803176D01*
X173429329Y-113803176D02*
X173476948Y-113755556D01*
D13*
X109024812Y-65978180D02*
X109072431Y-66025800D01*
X109072431Y-66025800D02*
X109215288Y-66073419D01*
X109215288Y-66073419D02*
X109310526Y-66073419D01*
X109310526Y-66073419D02*
X109453383Y-66025800D01*
X109453383Y-66025800D02*
X109548621Y-65930561D01*
X109548621Y-65930561D02*
X109596240Y-65835323D01*
X109596240Y-65835323D02*
X109643859Y-65644847D01*
X109643859Y-65644847D02*
X109643859Y-65501990D01*
X109643859Y-65501990D02*
X109596240Y-65311514D01*
X109596240Y-65311514D02*
X109548621Y-65216276D01*
X109548621Y-65216276D02*
X109453383Y-65121038D01*
X109453383Y-65121038D02*
X109310526Y-65073419D01*
X109310526Y-65073419D02*
X109215288Y-65073419D01*
X109215288Y-65073419D02*
X109072431Y-65121038D01*
X109072431Y-65121038D02*
X109024812Y-65168657D01*
X108167669Y-65073419D02*
X108358145Y-65073419D01*
X108358145Y-65073419D02*
X108453383Y-65121038D01*
X108453383Y-65121038D02*
X108501002Y-65168657D01*
X108501002Y-65168657D02*
X108596240Y-65311514D01*
X108596240Y-65311514D02*
X108643859Y-65501990D01*
X108643859Y-65501990D02*
X108643859Y-65882942D01*
X108643859Y-65882942D02*
X108596240Y-65978180D01*
X108596240Y-65978180D02*
X108548621Y-66025800D01*
X108548621Y-66025800D02*
X108453383Y-66073419D01*
X108453383Y-66073419D02*
X108262907Y-66073419D01*
X108262907Y-66073419D02*
X108167669Y-66025800D01*
X108167669Y-66025800D02*
X108120050Y-65978180D01*
X108120050Y-65978180D02*
X108072431Y-65882942D01*
X108072431Y-65882942D02*
X108072431Y-65644847D01*
X108072431Y-65644847D02*
X108120050Y-65549609D01*
X108120050Y-65549609D02*
X108167669Y-65501990D01*
X108167669Y-65501990D02*
X108262907Y-65454371D01*
X108262907Y-65454371D02*
X108453383Y-65454371D01*
X108453383Y-65454371D02*
X108548621Y-65501990D01*
X108548621Y-65501990D02*
X108596240Y-65549609D01*
X108596240Y-65549609D02*
X108643859Y-65644847D01*
X134924433Y-67723419D02*
X134924433Y-68437704D01*
X134924433Y-68437704D02*
X134972052Y-68580561D01*
X134972052Y-68580561D02*
X135067290Y-68675800D01*
X135067290Y-68675800D02*
X135210147Y-68723419D01*
X135210147Y-68723419D02*
X135305385Y-68723419D01*
X134019671Y-68056752D02*
X134019671Y-68723419D01*
X134257766Y-67675800D02*
X134495861Y-68390085D01*
X134495861Y-68390085D02*
X133876814Y-68390085D01*
X116862965Y-60731933D02*
X116386774Y-60398600D01*
X116862965Y-60160505D02*
X115862965Y-60160505D01*
X115862965Y-60160505D02*
X115862965Y-60541457D01*
X115862965Y-60541457D02*
X115910584Y-60636695D01*
X115910584Y-60636695D02*
X115958203Y-60684314D01*
X115958203Y-60684314D02*
X116053441Y-60731933D01*
X116053441Y-60731933D02*
X116196298Y-60731933D01*
X116196298Y-60731933D02*
X116291536Y-60684314D01*
X116291536Y-60684314D02*
X116339155Y-60636695D01*
X116339155Y-60636695D02*
X116386774Y-60541457D01*
X116386774Y-60541457D02*
X116386774Y-60160505D01*
X115862965Y-61065267D02*
X115862965Y-61731933D01*
X115862965Y-61731933D02*
X116862965Y-61303362D01*
X103637012Y-79991419D02*
X104113202Y-79991419D01*
X104113202Y-79991419D02*
X104113202Y-78991419D01*
X102779869Y-79991419D02*
X103351297Y-79991419D01*
X103065583Y-79991419D02*
X103065583Y-78991419D01*
X103065583Y-78991419D02*
X103160821Y-79134276D01*
X103160821Y-79134276D02*
X103256059Y-79229514D01*
X103256059Y-79229514D02*
X103351297Y-79277133D01*
X120432166Y-69942619D02*
X120765499Y-69466428D01*
X121003594Y-69942619D02*
X121003594Y-68942619D01*
X121003594Y-68942619D02*
X120622642Y-68942619D01*
X120622642Y-68942619D02*
X120527404Y-68990238D01*
X120527404Y-68990238D02*
X120479785Y-69037857D01*
X120479785Y-69037857D02*
X120432166Y-69133095D01*
X120432166Y-69133095D02*
X120432166Y-69275952D01*
X120432166Y-69275952D02*
X120479785Y-69371190D01*
X120479785Y-69371190D02*
X120527404Y-69418809D01*
X120527404Y-69418809D02*
X120622642Y-69466428D01*
X120622642Y-69466428D02*
X121003594Y-69466428D01*
X119860737Y-69371190D02*
X119955975Y-69323571D01*
X119955975Y-69323571D02*
X120003594Y-69275952D01*
X120003594Y-69275952D02*
X120051213Y-69180714D01*
X120051213Y-69180714D02*
X120051213Y-69133095D01*
X120051213Y-69133095D02*
X120003594Y-69037857D01*
X120003594Y-69037857D02*
X119955975Y-68990238D01*
X119955975Y-68990238D02*
X119860737Y-68942619D01*
X119860737Y-68942619D02*
X119670261Y-68942619D01*
X119670261Y-68942619D02*
X119575023Y-68990238D01*
X119575023Y-68990238D02*
X119527404Y-69037857D01*
X119527404Y-69037857D02*
X119479785Y-69133095D01*
X119479785Y-69133095D02*
X119479785Y-69180714D01*
X119479785Y-69180714D02*
X119527404Y-69275952D01*
X119527404Y-69275952D02*
X119575023Y-69323571D01*
X119575023Y-69323571D02*
X119670261Y-69371190D01*
X119670261Y-69371190D02*
X119860737Y-69371190D01*
X119860737Y-69371190D02*
X119955975Y-69418809D01*
X119955975Y-69418809D02*
X120003594Y-69466428D01*
X120003594Y-69466428D02*
X120051213Y-69561666D01*
X120051213Y-69561666D02*
X120051213Y-69752142D01*
X120051213Y-69752142D02*
X120003594Y-69847380D01*
X120003594Y-69847380D02*
X119955975Y-69895000D01*
X119955975Y-69895000D02*
X119860737Y-69942619D01*
X119860737Y-69942619D02*
X119670261Y-69942619D01*
X119670261Y-69942619D02*
X119575023Y-69895000D01*
X119575023Y-69895000D02*
X119527404Y-69847380D01*
X119527404Y-69847380D02*
X119479785Y-69752142D01*
X119479785Y-69752142D02*
X119479785Y-69561666D01*
X119479785Y-69561666D02*
X119527404Y-69466428D01*
X119527404Y-69466428D02*
X119575023Y-69418809D01*
X119575023Y-69418809D02*
X119670261Y-69371190D01*
X115900680Y-72248542D02*
X115948300Y-72200923D01*
X115948300Y-72200923D02*
X115995919Y-72058066D01*
X115995919Y-72058066D02*
X115995919Y-71962828D01*
X115995919Y-71962828D02*
X115948300Y-71819971D01*
X115948300Y-71819971D02*
X115853061Y-71724733D01*
X115853061Y-71724733D02*
X115757823Y-71677114D01*
X115757823Y-71677114D02*
X115567347Y-71629495D01*
X115567347Y-71629495D02*
X115424490Y-71629495D01*
X115424490Y-71629495D02*
X115234014Y-71677114D01*
X115234014Y-71677114D02*
X115138776Y-71724733D01*
X115138776Y-71724733D02*
X115043538Y-71819971D01*
X115043538Y-71819971D02*
X114995919Y-71962828D01*
X114995919Y-71962828D02*
X114995919Y-72058066D01*
X114995919Y-72058066D02*
X115043538Y-72200923D01*
X115043538Y-72200923D02*
X115091157Y-72248542D01*
X115995919Y-73200923D02*
X115995919Y-72629495D01*
X115995919Y-72915209D02*
X114995919Y-72915209D01*
X114995919Y-72915209D02*
X115138776Y-72819971D01*
X115138776Y-72819971D02*
X115234014Y-72724733D01*
X115234014Y-72724733D02*
X115281633Y-72629495D01*
X114995919Y-73819971D02*
X114995919Y-73915209D01*
X114995919Y-73915209D02*
X115043538Y-74010447D01*
X115043538Y-74010447D02*
X115091157Y-74058066D01*
X115091157Y-74058066D02*
X115186395Y-74105685D01*
X115186395Y-74105685D02*
X115376871Y-74153304D01*
X115376871Y-74153304D02*
X115614966Y-74153304D01*
X115614966Y-74153304D02*
X115805442Y-74105685D01*
X115805442Y-74105685D02*
X115900680Y-74058066D01*
X115900680Y-74058066D02*
X115948300Y-74010447D01*
X115948300Y-74010447D02*
X115995919Y-73915209D01*
X115995919Y-73915209D02*
X115995919Y-73819971D01*
X115995919Y-73819971D02*
X115948300Y-73724733D01*
X115948300Y-73724733D02*
X115900680Y-73677114D01*
X115900680Y-73677114D02*
X115805442Y-73629495D01*
X115805442Y-73629495D02*
X115614966Y-73581876D01*
X115614966Y-73581876D02*
X115376871Y-73581876D01*
X115376871Y-73581876D02*
X115186395Y-73629495D01*
X115186395Y-73629495D02*
X115091157Y-73677114D01*
X115091157Y-73677114D02*
X115043538Y-73724733D01*
X115043538Y-73724733D02*
X114995919Y-73819971D01*
X101862965Y-70160505D02*
X100862965Y-70160505D01*
X100862965Y-70160505D02*
X100862965Y-70398600D01*
X100862965Y-70398600D02*
X100910584Y-70541457D01*
X100910584Y-70541457D02*
X101005822Y-70636695D01*
X101005822Y-70636695D02*
X101101060Y-70684314D01*
X101101060Y-70684314D02*
X101291536Y-70731933D01*
X101291536Y-70731933D02*
X101434393Y-70731933D01*
X101434393Y-70731933D02*
X101624869Y-70684314D01*
X101624869Y-70684314D02*
X101720107Y-70636695D01*
X101720107Y-70636695D02*
X101815346Y-70541457D01*
X101815346Y-70541457D02*
X101862965Y-70398600D01*
X101862965Y-70398600D02*
X101862965Y-70160505D01*
X101862965Y-71684314D02*
X101862965Y-71112886D01*
X101862965Y-71398600D02*
X100862965Y-71398600D01*
X100862965Y-71398600D02*
X101005822Y-71303362D01*
X101005822Y-71303362D02*
X101101060Y-71208124D01*
X101101060Y-71208124D02*
X101148679Y-71112886D01*
X108065919Y-54035266D02*
X108780204Y-54035266D01*
X108780204Y-54035266D02*
X108923061Y-53987647D01*
X108923061Y-53987647D02*
X109018300Y-53892409D01*
X109018300Y-53892409D02*
X109065919Y-53749552D01*
X109065919Y-53749552D02*
X109065919Y-53654314D01*
X108065919Y-54987647D02*
X108065919Y-54511457D01*
X108065919Y-54511457D02*
X108542109Y-54463838D01*
X108542109Y-54463838D02*
X108494490Y-54511457D01*
X108494490Y-54511457D02*
X108446871Y-54606695D01*
X108446871Y-54606695D02*
X108446871Y-54844790D01*
X108446871Y-54844790D02*
X108494490Y-54940028D01*
X108494490Y-54940028D02*
X108542109Y-54987647D01*
X108542109Y-54987647D02*
X108637347Y-55035266D01*
X108637347Y-55035266D02*
X108875442Y-55035266D01*
X108875442Y-55035266D02*
X108970680Y-54987647D01*
X108970680Y-54987647D02*
X109018300Y-54940028D01*
X109018300Y-54940028D02*
X109065919Y-54844790D01*
X109065919Y-54844790D02*
X109065919Y-54606695D01*
X109065919Y-54606695D02*
X109018300Y-54511457D01*
X109018300Y-54511457D02*
X108970680Y-54463838D01*
X129019266Y-70704619D02*
X129352599Y-70228428D01*
X129590694Y-70704619D02*
X129590694Y-69704619D01*
X129590694Y-69704619D02*
X129209742Y-69704619D01*
X129209742Y-69704619D02*
X129114504Y-69752238D01*
X129114504Y-69752238D02*
X129066885Y-69799857D01*
X129066885Y-69799857D02*
X129019266Y-69895095D01*
X129019266Y-69895095D02*
X129019266Y-70037952D01*
X129019266Y-70037952D02*
X129066885Y-70133190D01*
X129066885Y-70133190D02*
X129114504Y-70180809D01*
X129114504Y-70180809D02*
X129209742Y-70228428D01*
X129209742Y-70228428D02*
X129590694Y-70228428D01*
X128162123Y-70037952D02*
X128162123Y-70704619D01*
X128400218Y-69657000D02*
X128638313Y-70371285D01*
X128638313Y-70371285D02*
X128019266Y-70371285D01*
X114065519Y-77578142D02*
X113589328Y-77244809D01*
X114065519Y-77006714D02*
X113065519Y-77006714D01*
X113065519Y-77006714D02*
X113065519Y-77387666D01*
X113065519Y-77387666D02*
X113113138Y-77482904D01*
X113113138Y-77482904D02*
X113160757Y-77530523D01*
X113160757Y-77530523D02*
X113255995Y-77578142D01*
X113255995Y-77578142D02*
X113398852Y-77578142D01*
X113398852Y-77578142D02*
X113494090Y-77530523D01*
X113494090Y-77530523D02*
X113541709Y-77482904D01*
X113541709Y-77482904D02*
X113589328Y-77387666D01*
X113589328Y-77387666D02*
X113589328Y-77006714D01*
X114065519Y-78530523D02*
X114065519Y-77959095D01*
X114065519Y-78244809D02*
X113065519Y-78244809D01*
X113065519Y-78244809D02*
X113208376Y-78149571D01*
X113208376Y-78149571D02*
X113303614Y-78054333D01*
X113303614Y-78054333D02*
X113351233Y-77959095D01*
X114065519Y-79482904D02*
X114065519Y-78911476D01*
X114065519Y-79197190D02*
X113065519Y-79197190D01*
X113065519Y-79197190D02*
X113208376Y-79101952D01*
X113208376Y-79101952D02*
X113303614Y-79006714D01*
X113303614Y-79006714D02*
X113351233Y-78911476D01*
X116329166Y-84274580D02*
X116376785Y-84322200D01*
X116376785Y-84322200D02*
X116519642Y-84369819D01*
X116519642Y-84369819D02*
X116614880Y-84369819D01*
X116614880Y-84369819D02*
X116757737Y-84322200D01*
X116757737Y-84322200D02*
X116852975Y-84226961D01*
X116852975Y-84226961D02*
X116900594Y-84131723D01*
X116900594Y-84131723D02*
X116948213Y-83941247D01*
X116948213Y-83941247D02*
X116948213Y-83798390D01*
X116948213Y-83798390D02*
X116900594Y-83607914D01*
X116900594Y-83607914D02*
X116852975Y-83512676D01*
X116852975Y-83512676D02*
X116757737Y-83417438D01*
X116757737Y-83417438D02*
X116614880Y-83369819D01*
X116614880Y-83369819D02*
X116519642Y-83369819D01*
X116519642Y-83369819D02*
X116376785Y-83417438D01*
X116376785Y-83417438D02*
X116329166Y-83465057D01*
X115995832Y-83369819D02*
X115329166Y-83369819D01*
X115329166Y-83369819D02*
X115757737Y-84369819D01*
X122653004Y-71501419D02*
X122653004Y-72310942D01*
X122653004Y-72310942D02*
X122605385Y-72406180D01*
X122605385Y-72406180D02*
X122557766Y-72453800D01*
X122557766Y-72453800D02*
X122462528Y-72501419D01*
X122462528Y-72501419D02*
X122272052Y-72501419D01*
X122272052Y-72501419D02*
X122176814Y-72453800D01*
X122176814Y-72453800D02*
X122129195Y-72406180D01*
X122129195Y-72406180D02*
X122081576Y-72310942D01*
X122081576Y-72310942D02*
X122081576Y-71501419D01*
X121700623Y-71501419D02*
X121081576Y-71501419D01*
X121081576Y-71501419D02*
X121414909Y-71882371D01*
X121414909Y-71882371D02*
X121272052Y-71882371D01*
X121272052Y-71882371D02*
X121176814Y-71929990D01*
X121176814Y-71929990D02*
X121129195Y-71977609D01*
X121129195Y-71977609D02*
X121081576Y-72072847D01*
X121081576Y-72072847D02*
X121081576Y-72310942D01*
X121081576Y-72310942D02*
X121129195Y-72406180D01*
X121129195Y-72406180D02*
X121176814Y-72453800D01*
X121176814Y-72453800D02*
X121272052Y-72501419D01*
X121272052Y-72501419D02*
X121557766Y-72501419D01*
X121557766Y-72501419D02*
X121653004Y-72453800D01*
X121653004Y-72453800D02*
X121700623Y-72406180D01*
X120482966Y-68424980D02*
X120530585Y-68472600D01*
X120530585Y-68472600D02*
X120673442Y-68520219D01*
X120673442Y-68520219D02*
X120768680Y-68520219D01*
X120768680Y-68520219D02*
X120911537Y-68472600D01*
X120911537Y-68472600D02*
X121006775Y-68377361D01*
X121006775Y-68377361D02*
X121054394Y-68282123D01*
X121054394Y-68282123D02*
X121102013Y-68091647D01*
X121102013Y-68091647D02*
X121102013Y-67948790D01*
X121102013Y-67948790D02*
X121054394Y-67758314D01*
X121054394Y-67758314D02*
X121006775Y-67663076D01*
X121006775Y-67663076D02*
X120911537Y-67567838D01*
X120911537Y-67567838D02*
X120768680Y-67520219D01*
X120768680Y-67520219D02*
X120673442Y-67520219D01*
X120673442Y-67520219D02*
X120530585Y-67567838D01*
X120530585Y-67567838D02*
X120482966Y-67615457D01*
X119625823Y-67853552D02*
X119625823Y-68520219D01*
X119863918Y-67472600D02*
X120102013Y-68186885D01*
X120102013Y-68186885D02*
X119482966Y-68186885D01*
X114362965Y-60631933D02*
X113886774Y-60298600D01*
X114362965Y-60060505D02*
X113362965Y-60060505D01*
X113362965Y-60060505D02*
X113362965Y-60441457D01*
X113362965Y-60441457D02*
X113410584Y-60536695D01*
X113410584Y-60536695D02*
X113458203Y-60584314D01*
X113458203Y-60584314D02*
X113553441Y-60631933D01*
X113553441Y-60631933D02*
X113696298Y-60631933D01*
X113696298Y-60631933D02*
X113791536Y-60584314D01*
X113791536Y-60584314D02*
X113839155Y-60536695D01*
X113839155Y-60536695D02*
X113886774Y-60441457D01*
X113886774Y-60441457D02*
X113886774Y-60060505D01*
X113362965Y-61489076D02*
X113362965Y-61298600D01*
X113362965Y-61298600D02*
X113410584Y-61203362D01*
X113410584Y-61203362D02*
X113458203Y-61155743D01*
X113458203Y-61155743D02*
X113601060Y-61060505D01*
X113601060Y-61060505D02*
X113791536Y-61012886D01*
X113791536Y-61012886D02*
X114172488Y-61012886D01*
X114172488Y-61012886D02*
X114267726Y-61060505D01*
X114267726Y-61060505D02*
X114315346Y-61108124D01*
X114315346Y-61108124D02*
X114362965Y-61203362D01*
X114362965Y-61203362D02*
X114362965Y-61393838D01*
X114362965Y-61393838D02*
X114315346Y-61489076D01*
X114315346Y-61489076D02*
X114267726Y-61536695D01*
X114267726Y-61536695D02*
X114172488Y-61584314D01*
X114172488Y-61584314D02*
X113934393Y-61584314D01*
X113934393Y-61584314D02*
X113839155Y-61536695D01*
X113839155Y-61536695D02*
X113791536Y-61489076D01*
X113791536Y-61489076D02*
X113743917Y-61393838D01*
X113743917Y-61393838D02*
X113743917Y-61203362D01*
X113743917Y-61203362D02*
X113791536Y-61108124D01*
X113791536Y-61108124D02*
X113839155Y-61060505D01*
X113839155Y-61060505D02*
X113934393Y-61012886D01*
X108522080Y-91498333D02*
X108569700Y-91450714D01*
X108569700Y-91450714D02*
X108617319Y-91307857D01*
X108617319Y-91307857D02*
X108617319Y-91212619D01*
X108617319Y-91212619D02*
X108569700Y-91069762D01*
X108569700Y-91069762D02*
X108474461Y-90974524D01*
X108474461Y-90974524D02*
X108379223Y-90926905D01*
X108379223Y-90926905D02*
X108188747Y-90879286D01*
X108188747Y-90879286D02*
X108045890Y-90879286D01*
X108045890Y-90879286D02*
X107855414Y-90926905D01*
X107855414Y-90926905D02*
X107760176Y-90974524D01*
X107760176Y-90974524D02*
X107664938Y-91069762D01*
X107664938Y-91069762D02*
X107617319Y-91212619D01*
X107617319Y-91212619D02*
X107617319Y-91307857D01*
X107617319Y-91307857D02*
X107664938Y-91450714D01*
X107664938Y-91450714D02*
X107712557Y-91498333D01*
X108617319Y-91974524D02*
X108617319Y-92165000D01*
X108617319Y-92165000D02*
X108569700Y-92260238D01*
X108569700Y-92260238D02*
X108522080Y-92307857D01*
X108522080Y-92307857D02*
X108379223Y-92403095D01*
X108379223Y-92403095D02*
X108188747Y-92450714D01*
X108188747Y-92450714D02*
X107807795Y-92450714D01*
X107807795Y-92450714D02*
X107712557Y-92403095D01*
X107712557Y-92403095D02*
X107664938Y-92355476D01*
X107664938Y-92355476D02*
X107617319Y-92260238D01*
X107617319Y-92260238D02*
X107617319Y-92069762D01*
X107617319Y-92069762D02*
X107664938Y-91974524D01*
X107664938Y-91974524D02*
X107712557Y-91926905D01*
X107712557Y-91926905D02*
X107807795Y-91879286D01*
X107807795Y-91879286D02*
X108045890Y-91879286D01*
X108045890Y-91879286D02*
X108141128Y-91926905D01*
X108141128Y-91926905D02*
X108188747Y-91974524D01*
X108188747Y-91974524D02*
X108236366Y-92069762D01*
X108236366Y-92069762D02*
X108236366Y-92260238D01*
X108236366Y-92260238D02*
X108188747Y-92355476D01*
X108188747Y-92355476D02*
X108141128Y-92403095D01*
X108141128Y-92403095D02*
X108045890Y-92450714D01*
X105598566Y-64259380D02*
X105646185Y-64307000D01*
X105646185Y-64307000D02*
X105789042Y-64354619D01*
X105789042Y-64354619D02*
X105884280Y-64354619D01*
X105884280Y-64354619D02*
X106027137Y-64307000D01*
X106027137Y-64307000D02*
X106122375Y-64211761D01*
X106122375Y-64211761D02*
X106169994Y-64116523D01*
X106169994Y-64116523D02*
X106217613Y-63926047D01*
X106217613Y-63926047D02*
X106217613Y-63783190D01*
X106217613Y-63783190D02*
X106169994Y-63592714D01*
X106169994Y-63592714D02*
X106122375Y-63497476D01*
X106122375Y-63497476D02*
X106027137Y-63402238D01*
X106027137Y-63402238D02*
X105884280Y-63354619D01*
X105884280Y-63354619D02*
X105789042Y-63354619D01*
X105789042Y-63354619D02*
X105646185Y-63402238D01*
X105646185Y-63402238D02*
X105598566Y-63449857D01*
X105265232Y-63354619D02*
X104646185Y-63354619D01*
X104646185Y-63354619D02*
X104979518Y-63735571D01*
X104979518Y-63735571D02*
X104836661Y-63735571D01*
X104836661Y-63735571D02*
X104741423Y-63783190D01*
X104741423Y-63783190D02*
X104693804Y-63830809D01*
X104693804Y-63830809D02*
X104646185Y-63926047D01*
X104646185Y-63926047D02*
X104646185Y-64164142D01*
X104646185Y-64164142D02*
X104693804Y-64259380D01*
X104693804Y-64259380D02*
X104741423Y-64307000D01*
X104741423Y-64307000D02*
X104836661Y-64354619D01*
X104836661Y-64354619D02*
X105122375Y-64354619D01*
X105122375Y-64354619D02*
X105217613Y-64307000D01*
X105217613Y-64307000D02*
X105265232Y-64259380D01*
X130778719Y-59872333D02*
X130302528Y-59539000D01*
X130778719Y-59300905D02*
X129778719Y-59300905D01*
X129778719Y-59300905D02*
X129778719Y-59681857D01*
X129778719Y-59681857D02*
X129826338Y-59777095D01*
X129826338Y-59777095D02*
X129873957Y-59824714D01*
X129873957Y-59824714D02*
X129969195Y-59872333D01*
X129969195Y-59872333D02*
X130112052Y-59872333D01*
X130112052Y-59872333D02*
X130207290Y-59824714D01*
X130207290Y-59824714D02*
X130254909Y-59777095D01*
X130254909Y-59777095D02*
X130302528Y-59681857D01*
X130302528Y-59681857D02*
X130302528Y-59300905D01*
X129778719Y-60205667D02*
X129778719Y-60824714D01*
X129778719Y-60824714D02*
X130159671Y-60491381D01*
X130159671Y-60491381D02*
X130159671Y-60634238D01*
X130159671Y-60634238D02*
X130207290Y-60729476D01*
X130207290Y-60729476D02*
X130254909Y-60777095D01*
X130254909Y-60777095D02*
X130350147Y-60824714D01*
X130350147Y-60824714D02*
X130588242Y-60824714D01*
X130588242Y-60824714D02*
X130683480Y-60777095D01*
X130683480Y-60777095D02*
X130731100Y-60729476D01*
X130731100Y-60729476D02*
X130778719Y-60634238D01*
X130778719Y-60634238D02*
X130778719Y-60348524D01*
X130778719Y-60348524D02*
X130731100Y-60253286D01*
X130731100Y-60253286D02*
X130683480Y-60205667D01*
X122110157Y-61977761D02*
X122062538Y-61882523D01*
X122062538Y-61882523D02*
X121967300Y-61787285D01*
X121967300Y-61787285D02*
X121824442Y-61644428D01*
X121824442Y-61644428D02*
X121776823Y-61549190D01*
X121776823Y-61549190D02*
X121776823Y-61453952D01*
X122014919Y-61501571D02*
X121967300Y-61406333D01*
X121967300Y-61406333D02*
X121872061Y-61311095D01*
X121872061Y-61311095D02*
X121681585Y-61263476D01*
X121681585Y-61263476D02*
X121348252Y-61263476D01*
X121348252Y-61263476D02*
X121157776Y-61311095D01*
X121157776Y-61311095D02*
X121062538Y-61406333D01*
X121062538Y-61406333D02*
X121014919Y-61501571D01*
X121014919Y-61501571D02*
X121014919Y-61692047D01*
X121014919Y-61692047D02*
X121062538Y-61787285D01*
X121062538Y-61787285D02*
X121157776Y-61882523D01*
X121157776Y-61882523D02*
X121348252Y-61930142D01*
X121348252Y-61930142D02*
X121681585Y-61930142D01*
X121681585Y-61930142D02*
X121872061Y-61882523D01*
X121872061Y-61882523D02*
X121967300Y-61787285D01*
X121967300Y-61787285D02*
X122014919Y-61692047D01*
X122014919Y-61692047D02*
X122014919Y-61501571D01*
X122014919Y-62882523D02*
X122014919Y-62311095D01*
X122014919Y-62596809D02*
X121014919Y-62596809D01*
X121014919Y-62596809D02*
X121157776Y-62501571D01*
X121157776Y-62501571D02*
X121253014Y-62406333D01*
X121253014Y-62406333D02*
X121300633Y-62311095D01*
X109412965Y-68686695D02*
X110222488Y-68686695D01*
X110222488Y-68686695D02*
X110317726Y-68734314D01*
X110317726Y-68734314D02*
X110365346Y-68781933D01*
X110365346Y-68781933D02*
X110412965Y-68877171D01*
X110412965Y-68877171D02*
X110412965Y-69067647D01*
X110412965Y-69067647D02*
X110365346Y-69162885D01*
X110365346Y-69162885D02*
X110317726Y-69210504D01*
X110317726Y-69210504D02*
X110222488Y-69258123D01*
X110222488Y-69258123D02*
X109412965Y-69258123D01*
X109508203Y-69686695D02*
X109460584Y-69734314D01*
X109460584Y-69734314D02*
X109412965Y-69829552D01*
X109412965Y-69829552D02*
X109412965Y-70067647D01*
X109412965Y-70067647D02*
X109460584Y-70162885D01*
X109460584Y-70162885D02*
X109508203Y-70210504D01*
X109508203Y-70210504D02*
X109603441Y-70258123D01*
X109603441Y-70258123D02*
X109698679Y-70258123D01*
X109698679Y-70258123D02*
X109841536Y-70210504D01*
X109841536Y-70210504D02*
X110412965Y-69639076D01*
X110412965Y-69639076D02*
X110412965Y-70258123D01*
X117993766Y-82185419D02*
X118327099Y-81709228D01*
X118565194Y-82185419D02*
X118565194Y-81185419D01*
X118565194Y-81185419D02*
X118184242Y-81185419D01*
X118184242Y-81185419D02*
X118089004Y-81233038D01*
X118089004Y-81233038D02*
X118041385Y-81280657D01*
X118041385Y-81280657D02*
X117993766Y-81375895D01*
X117993766Y-81375895D02*
X117993766Y-81518752D01*
X117993766Y-81518752D02*
X118041385Y-81613990D01*
X118041385Y-81613990D02*
X118089004Y-81661609D01*
X118089004Y-81661609D02*
X118184242Y-81709228D01*
X118184242Y-81709228D02*
X118565194Y-81709228D01*
X117517575Y-82185419D02*
X117327099Y-82185419D01*
X117327099Y-82185419D02*
X117231861Y-82137800D01*
X117231861Y-82137800D02*
X117184242Y-82090180D01*
X117184242Y-82090180D02*
X117089004Y-81947323D01*
X117089004Y-81947323D02*
X117041385Y-81756847D01*
X117041385Y-81756847D02*
X117041385Y-81375895D01*
X117041385Y-81375895D02*
X117089004Y-81280657D01*
X117089004Y-81280657D02*
X117136623Y-81233038D01*
X117136623Y-81233038D02*
X117231861Y-81185419D01*
X117231861Y-81185419D02*
X117422337Y-81185419D01*
X117422337Y-81185419D02*
X117517575Y-81233038D01*
X117517575Y-81233038D02*
X117565194Y-81280657D01*
X117565194Y-81280657D02*
X117612813Y-81375895D01*
X117612813Y-81375895D02*
X117612813Y-81613990D01*
X117612813Y-81613990D02*
X117565194Y-81709228D01*
X117565194Y-81709228D02*
X117517575Y-81756847D01*
X117517575Y-81756847D02*
X117422337Y-81804466D01*
X117422337Y-81804466D02*
X117231861Y-81804466D01*
X117231861Y-81804466D02*
X117136623Y-81756847D01*
X117136623Y-81756847D02*
X117089004Y-81709228D01*
X117089004Y-81709228D02*
X117041385Y-81613990D01*
X132373919Y-77205361D02*
X131897728Y-76872028D01*
X132373919Y-76633933D02*
X131373919Y-76633933D01*
X131373919Y-76633933D02*
X131373919Y-77014885D01*
X131373919Y-77014885D02*
X131421538Y-77110123D01*
X131421538Y-77110123D02*
X131469157Y-77157742D01*
X131469157Y-77157742D02*
X131564395Y-77205361D01*
X131564395Y-77205361D02*
X131707252Y-77205361D01*
X131707252Y-77205361D02*
X131802490Y-77157742D01*
X131802490Y-77157742D02*
X131850109Y-77110123D01*
X131850109Y-77110123D02*
X131897728Y-77014885D01*
X131897728Y-77014885D02*
X131897728Y-76633933D01*
X131373919Y-77491076D02*
X132373919Y-77824409D01*
X132373919Y-77824409D02*
X131373919Y-78157742D01*
X132373919Y-79014885D02*
X132373919Y-78443457D01*
X132373919Y-78729171D02*
X131373919Y-78729171D01*
X131373919Y-78729171D02*
X131516776Y-78633933D01*
X131516776Y-78633933D02*
X131612014Y-78538695D01*
X131612014Y-78538695D02*
X131659633Y-78443457D01*
X116329166Y-86674580D02*
X116376785Y-86722200D01*
X116376785Y-86722200D02*
X116519642Y-86769819D01*
X116519642Y-86769819D02*
X116614880Y-86769819D01*
X116614880Y-86769819D02*
X116757737Y-86722200D01*
X116757737Y-86722200D02*
X116852975Y-86626961D01*
X116852975Y-86626961D02*
X116900594Y-86531723D01*
X116900594Y-86531723D02*
X116948213Y-86341247D01*
X116948213Y-86341247D02*
X116948213Y-86198390D01*
X116948213Y-86198390D02*
X116900594Y-86007914D01*
X116900594Y-86007914D02*
X116852975Y-85912676D01*
X116852975Y-85912676D02*
X116757737Y-85817438D01*
X116757737Y-85817438D02*
X116614880Y-85769819D01*
X116614880Y-85769819D02*
X116519642Y-85769819D01*
X116519642Y-85769819D02*
X116376785Y-85817438D01*
X116376785Y-85817438D02*
X116329166Y-85865057D01*
X115757737Y-86198390D02*
X115852975Y-86150771D01*
X115852975Y-86150771D02*
X115900594Y-86103152D01*
X115900594Y-86103152D02*
X115948213Y-86007914D01*
X115948213Y-86007914D02*
X115948213Y-85960295D01*
X115948213Y-85960295D02*
X115900594Y-85865057D01*
X115900594Y-85865057D02*
X115852975Y-85817438D01*
X115852975Y-85817438D02*
X115757737Y-85769819D01*
X115757737Y-85769819D02*
X115567261Y-85769819D01*
X115567261Y-85769819D02*
X115472023Y-85817438D01*
X115472023Y-85817438D02*
X115424404Y-85865057D01*
X115424404Y-85865057D02*
X115376785Y-85960295D01*
X115376785Y-85960295D02*
X115376785Y-86007914D01*
X115376785Y-86007914D02*
X115424404Y-86103152D01*
X115424404Y-86103152D02*
X115472023Y-86150771D01*
X115472023Y-86150771D02*
X115567261Y-86198390D01*
X115567261Y-86198390D02*
X115757737Y-86198390D01*
X115757737Y-86198390D02*
X115852975Y-86246009D01*
X115852975Y-86246009D02*
X115900594Y-86293628D01*
X115900594Y-86293628D02*
X115948213Y-86388866D01*
X115948213Y-86388866D02*
X115948213Y-86579342D01*
X115948213Y-86579342D02*
X115900594Y-86674580D01*
X115900594Y-86674580D02*
X115852975Y-86722200D01*
X115852975Y-86722200D02*
X115757737Y-86769819D01*
X115757737Y-86769819D02*
X115567261Y-86769819D01*
X115567261Y-86769819D02*
X115472023Y-86722200D01*
X115472023Y-86722200D02*
X115424404Y-86674580D01*
X115424404Y-86674580D02*
X115376785Y-86579342D01*
X115376785Y-86579342D02*
X115376785Y-86388866D01*
X115376785Y-86388866D02*
X115424404Y-86293628D01*
X115424404Y-86293628D02*
X115472023Y-86246009D01*
X115472023Y-86246009D02*
X115567261Y-86198390D01*
X131079766Y-73962180D02*
X131127385Y-74009800D01*
X131127385Y-74009800D02*
X131270242Y-74057419D01*
X131270242Y-74057419D02*
X131365480Y-74057419D01*
X131365480Y-74057419D02*
X131508337Y-74009800D01*
X131508337Y-74009800D02*
X131603575Y-73914561D01*
X131603575Y-73914561D02*
X131651194Y-73819323D01*
X131651194Y-73819323D02*
X131698813Y-73628847D01*
X131698813Y-73628847D02*
X131698813Y-73485990D01*
X131698813Y-73485990D02*
X131651194Y-73295514D01*
X131651194Y-73295514D02*
X131603575Y-73200276D01*
X131603575Y-73200276D02*
X131508337Y-73105038D01*
X131508337Y-73105038D02*
X131365480Y-73057419D01*
X131365480Y-73057419D02*
X131270242Y-73057419D01*
X131270242Y-73057419D02*
X131127385Y-73105038D01*
X131127385Y-73105038D02*
X131079766Y-73152657D01*
X130175004Y-73057419D02*
X130651194Y-73057419D01*
X130651194Y-73057419D02*
X130698813Y-73533609D01*
X130698813Y-73533609D02*
X130651194Y-73485990D01*
X130651194Y-73485990D02*
X130555956Y-73438371D01*
X130555956Y-73438371D02*
X130317861Y-73438371D01*
X130317861Y-73438371D02*
X130222623Y-73485990D01*
X130222623Y-73485990D02*
X130175004Y-73533609D01*
X130175004Y-73533609D02*
X130127385Y-73628847D01*
X130127385Y-73628847D02*
X130127385Y-73866942D01*
X130127385Y-73866942D02*
X130175004Y-73962180D01*
X130175004Y-73962180D02*
X130222623Y-74009800D01*
X130222623Y-74009800D02*
X130317861Y-74057419D01*
X130317861Y-74057419D02*
X130555956Y-74057419D01*
X130555956Y-74057419D02*
X130651194Y-74009800D01*
X130651194Y-74009800D02*
X130698813Y-73962180D01*
X110103119Y-74128142D02*
X109626928Y-73794809D01*
X110103119Y-73556714D02*
X109103119Y-73556714D01*
X109103119Y-73556714D02*
X109103119Y-73937666D01*
X109103119Y-73937666D02*
X109150738Y-74032904D01*
X109150738Y-74032904D02*
X109198357Y-74080523D01*
X109198357Y-74080523D02*
X109293595Y-74128142D01*
X109293595Y-74128142D02*
X109436452Y-74128142D01*
X109436452Y-74128142D02*
X109531690Y-74080523D01*
X109531690Y-74080523D02*
X109579309Y-74032904D01*
X109579309Y-74032904D02*
X109626928Y-73937666D01*
X109626928Y-73937666D02*
X109626928Y-73556714D01*
X110103119Y-75080523D02*
X110103119Y-74509095D01*
X110103119Y-74794809D02*
X109103119Y-74794809D01*
X109103119Y-74794809D02*
X109245976Y-74699571D01*
X109245976Y-74699571D02*
X109341214Y-74604333D01*
X109341214Y-74604333D02*
X109388833Y-74509095D01*
X109103119Y-75699571D02*
X109103119Y-75794809D01*
X109103119Y-75794809D02*
X109150738Y-75890047D01*
X109150738Y-75890047D02*
X109198357Y-75937666D01*
X109198357Y-75937666D02*
X109293595Y-75985285D01*
X109293595Y-75985285D02*
X109484071Y-76032904D01*
X109484071Y-76032904D02*
X109722166Y-76032904D01*
X109722166Y-76032904D02*
X109912642Y-75985285D01*
X109912642Y-75985285D02*
X110007880Y-75937666D01*
X110007880Y-75937666D02*
X110055500Y-75890047D01*
X110055500Y-75890047D02*
X110103119Y-75794809D01*
X110103119Y-75794809D02*
X110103119Y-75699571D01*
X110103119Y-75699571D02*
X110055500Y-75604333D01*
X110055500Y-75604333D02*
X110007880Y-75556714D01*
X110007880Y-75556714D02*
X109912642Y-75509095D01*
X109912642Y-75509095D02*
X109722166Y-75461476D01*
X109722166Y-75461476D02*
X109484071Y-75461476D01*
X109484071Y-75461476D02*
X109293595Y-75509095D01*
X109293595Y-75509095D02*
X109198357Y-75556714D01*
X109198357Y-75556714D02*
X109150738Y-75604333D01*
X109150738Y-75604333D02*
X109103119Y-75699571D01*
D14*
%TO.C,C6*%
X108596894Y-66563600D02*
X109119398Y-66563600D01*
X108596894Y-68033600D02*
X109119398Y-68033600D01*
%TO.C,J4*%
X130059100Y-66684600D02*
X130059100Y-69284600D01*
X130059100Y-71884600D02*
X130059100Y-70554600D01*
X131389100Y-71884600D02*
X130059100Y-71884600D01*
X132719100Y-66684600D02*
X130059100Y-66684600D01*
X132719100Y-66684600D02*
X132719100Y-69284600D01*
X132719100Y-69284600D02*
X130059100Y-69284600D01*
%TO.C,R7*%
X115673146Y-63587348D02*
X115673146Y-64109852D01*
X117143146Y-63587348D02*
X117143146Y-64109852D01*
%TO.C,L1*%
X105360346Y-78276600D02*
X105360346Y-76576600D01*
X105360346Y-80596600D02*
X105360346Y-82296600D01*
X111580346Y-76576600D02*
X105360346Y-76576600D01*
X111580346Y-78276600D02*
X111580346Y-76576600D01*
X111580346Y-80596600D02*
X111580346Y-82296600D01*
X111580346Y-82296600D02*
X105360346Y-82296600D01*
%TO.C,R8*%
X117392352Y-68448000D02*
X116869848Y-68448000D01*
X117392352Y-69918000D02*
X116869848Y-69918000D01*
%TO.C,C10*%
X117396900Y-73137452D02*
X117396900Y-72614948D01*
X118866900Y-73137452D02*
X118866900Y-72614948D01*
%TO.C,D1*%
X102508146Y-68498600D02*
X102508146Y-76158600D01*
X102508146Y-76158600D02*
X106808146Y-76158600D01*
X106808146Y-68498600D02*
X106808146Y-76158600D01*
%TO.C,J5*%
X109611100Y-53038600D02*
X110941100Y-53038600D01*
X109611100Y-54368600D02*
X109611100Y-53038600D01*
X112211100Y-55698600D02*
X112211100Y-53038600D01*
X119891100Y-53038600D02*
X112211100Y-53038600D01*
X119891100Y-55698600D02*
X112211100Y-55698600D01*
X119891100Y-55698600D02*
X119891100Y-53038600D01*
%TO.C,R4*%
X126283764Y-69514800D02*
X125829636Y-69514800D01*
X126283764Y-70984800D02*
X125829636Y-70984800D01*
%TO.C,R11*%
X112875700Y-75032252D02*
X112875700Y-74509748D01*
X114345700Y-75032252D02*
X114345700Y-74509748D01*
%TO.C,C7*%
X111426248Y-83005000D02*
X112848752Y-83005000D01*
X111426248Y-84825000D02*
X112848752Y-84825000D01*
%TO.C,U3*%
X120891100Y-72886600D02*
X122891100Y-72886600D01*
X120891100Y-75106600D02*
X122891100Y-75106600D01*
X123411100Y-72986600D02*
X123131100Y-72986600D01*
X123131100Y-72706600D01*
X123411100Y-72986600D01*
G36*
X123411100Y-72986600D02*
G01*
X123131100Y-72986600D01*
X123131100Y-72706600D01*
X123411100Y-72986600D01*
G37*
%TO.C,C4*%
X116890248Y-66162000D02*
X117412752Y-66162000D01*
X116890248Y-67632000D02*
X117412752Y-67632000D01*
%TO.C,R6*%
X113173146Y-64109852D02*
X113173146Y-63587348D01*
X114643146Y-64109852D02*
X114643146Y-63587348D01*
%TO.C,C9*%
X107427500Y-87603748D02*
X107427500Y-88126252D01*
X108897500Y-87603748D02*
X108897500Y-88126252D01*
%TO.C,C3*%
X108705552Y-63164800D02*
X108183048Y-63164800D01*
X108705552Y-64634800D02*
X108183048Y-64634800D01*
%TO.C,R3*%
X127252100Y-60249452D02*
X127252100Y-59726948D01*
X128722100Y-60249452D02*
X128722100Y-59726948D01*
D15*
%TO.C,Q1*%
X122883100Y-61971000D02*
X122883100Y-63569657D01*
X122883100Y-67176343D02*
X122883100Y-68775000D01*
X122883100Y-68775000D02*
X126687100Y-68775000D01*
X126687100Y-61971000D02*
X122883100Y-61971000D01*
X126687100Y-62419657D02*
X126687100Y-61971000D01*
X126687100Y-64719657D02*
X126687100Y-63726343D01*
X126687100Y-67019657D02*
X126687100Y-66026343D01*
X126687100Y-68775000D02*
X126687100Y-68326344D01*
X128462100Y-60828000D02*
G75*
G02*
X128208100Y-60828000I-127000J0D01*
G01*
X128208100Y-60828000D02*
G75*
G02*
X128462100Y-60828000I127000J0D01*
G01*
D14*
%TO.C,U2*%
X110798146Y-67948600D02*
X110798146Y-69448600D01*
X110798146Y-70948600D02*
X110798146Y-69448600D01*
X114018146Y-67948600D02*
X114018146Y-69448600D01*
X114018146Y-70948600D02*
X114018146Y-69448600D01*
X110998146Y-67261100D02*
X110668146Y-67501100D01*
X110668146Y-67021100D01*
X110998146Y-67261100D01*
G36*
X110998146Y-67261100D02*
G01*
X110668146Y-67501100D01*
X110668146Y-67021100D01*
X110998146Y-67261100D01*
G37*
%TO.C,R9*%
X117565848Y-78963600D02*
X118088352Y-78963600D01*
X117565848Y-80433600D02*
X118088352Y-80433600D01*
%TO.C,RV1*%
X124899100Y-75430600D02*
X124899100Y-76540600D01*
X124899100Y-75430600D02*
X129639100Y-75430600D01*
X124899100Y-79060600D02*
X124899100Y-80170600D01*
X124899100Y-80170600D02*
X129639100Y-80170600D01*
X129639100Y-75430600D02*
X129639100Y-75740600D01*
X129639100Y-77560600D02*
X129639100Y-78040600D01*
X129639100Y-79860600D02*
X129639100Y-80170600D01*
%TO.C,C8*%
X111426248Y-85505000D02*
X112848752Y-85505000D01*
X111426248Y-87325000D02*
X112848752Y-87325000D01*
%TO.C,C5*%
X127791848Y-73121600D02*
X128314352Y-73121600D01*
X127791848Y-74591600D02*
X128314352Y-74591600D01*
%TO.C,R10*%
X110691300Y-74509748D02*
X110691300Y-75032252D01*
X112161300Y-74509748D02*
X112161300Y-75032252D01*
%TD*%
M02*
