%TF.GenerationSoftware,KiCad,Pcbnew,8.0.8+dfsg-1*%
%TF.CreationDate,2025-07-13T00:35:59+05:30*%
%TF.ProjectId,sanket,73616e6b-6574-42e6-9b69-6361645f7063,4.1*%
%TF.SameCoordinates,Original*%
%TF.FileFunction,Copper,L2,Bot*%
%TF.FilePolarity,Positive*%
%FSLAX46Y46*%
G04 Gerber Fmt 4.6, Leading zero omitted, Abs format (unit mm)*
G04 Created by KiCad (PCBNEW 8.0.8+dfsg-1) date 2025-07-13 00:35:59*
%MOMM*%
%LPD*%
G01*
G04 APERTURE LIST*
G04 Aperture macros list*
%AMRoundRect*
0 Rectangle with rounded corners*
0 $1 Rounding radius*
0 $2 $3 $4 $5 $6 $7 $8 $9 X,Y pos of 4 corners*
0 Add a 4 corners polygon primitive as box body*
4,1,4,$2,$3,$4,$5,$6,$7,$8,$9,$2,$3,0*
0 Add four circle primitives for the rounded corners*
1,1,$1+$1,$2,$3*
1,1,$1+$1,$4,$5*
1,1,$1+$1,$6,$7*
1,1,$1+$1,$8,$9*
0 Add four rect primitives between the rounded corners*
20,1,$1+$1,$2,$3,$4,$5,0*
20,1,$1+$1,$4,$5,$6,$7,0*
20,1,$1+$1,$6,$7,$8,$9,0*
20,1,$1+$1,$8,$9,$2,$3,0*%
%AMOutline4P*
0 Free polygon, 4 corners , with rotation*
0 The origin of the aperture is its center*
0 number of corners: always 4*
0 $1 to $8 corner X, Y*
0 $9 Rotation angle, in degrees counterclockwise*
0 create outline with 4 corners*
4,1,4,$1,$2,$3,$4,$5,$6,$7,$8,$1,$2,$9*%
G04 Aperture macros list end*
%TA.AperFunction,ComponentPad*%
%ADD10R,1.000000X1.000000*%
%TD*%
%TA.AperFunction,ComponentPad*%
%ADD11R,1.700000X1.700000*%
%TD*%
%TA.AperFunction,ComponentPad*%
%ADD12O,1.700000X1.700000*%
%TD*%
%TA.AperFunction,SMDPad,CuDef*%
%ADD13RoundRect,0.250000X0.250000X0.475000X-0.250000X0.475000X-0.250000X-0.475000X0.250000X-0.475000X0*%
%TD*%
%TA.AperFunction,SMDPad,CuDef*%
%ADD14RoundRect,0.250000X0.475000X-0.250000X0.475000X0.250000X-0.475000X0.250000X-0.475000X-0.250000X0*%
%TD*%
%TA.AperFunction,SMDPad,CuDef*%
%ADD15RoundRect,0.250000X-0.750000X-0.650000X0.750000X-0.650000X0.750000X0.650000X-0.750000X0.650000X0*%
%TD*%
%TA.AperFunction,SMDPad,CuDef*%
%ADD16RoundRect,0.250000X-0.250000X-0.475000X0.250000X-0.475000X0.250000X0.475000X-0.250000X0.475000X0*%
%TD*%
%TA.AperFunction,SMDPad,CuDef*%
%ADD17RoundRect,0.250000X-0.475000X0.250000X-0.475000X-0.250000X0.475000X-0.250000X0.475000X0.250000X0*%
%TD*%
%TA.AperFunction,SMDPad,CuDef*%
%ADD18Outline4P,-1.800000X-1.150000X1.800000X-0.550000X1.800000X0.550000X-1.800000X1.150000X90.000000*%
%TD*%
%TA.AperFunction,SMDPad,CuDef*%
%ADD19Outline4P,-1.800000X-1.150000X1.800000X-0.550000X1.800000X0.550000X-1.800000X1.150000X270.000000*%
%TD*%
%TA.AperFunction,SMDPad,CuDef*%
%ADD20RoundRect,0.250000X-0.262500X-0.450000X0.262500X-0.450000X0.262500X0.450000X-0.262500X0.450000X0*%
%TD*%
%TA.AperFunction,SMDPad,CuDef*%
%ADD21RoundRect,0.250000X0.325000X0.650000X-0.325000X0.650000X-0.325000X-0.650000X0.325000X-0.650000X0*%
%TD*%
%TA.AperFunction,SMDPad,CuDef*%
%ADD22RoundRect,0.093750X0.093750X0.106250X-0.093750X0.106250X-0.093750X-0.106250X0.093750X-0.106250X0*%
%TD*%
%TA.AperFunction,HeatsinkPad*%
%ADD23R,1.000000X1.600000*%
%TD*%
%TA.AperFunction,SMDPad,CuDef*%
%ADD24R,1.761200X0.850800*%
%TD*%
%TA.AperFunction,SMDPad,CuDef*%
%ADD25R,1.761200X3.150799*%
%TD*%
%TA.AperFunction,SMDPad,CuDef*%
%ADD26RoundRect,0.075000X-0.075000X0.650000X-0.075000X-0.650000X0.075000X-0.650000X0.075000X0.650000X0*%
%TD*%
%TA.AperFunction,HeatsinkPad*%
%ADD27R,1.880000X1.570000*%
%TD*%
%TA.AperFunction,SMDPad,CuDef*%
%ADD28RoundRect,0.250000X0.400000X-0.400000X0.400000X0.400000X-0.400000X0.400000X-0.400000X-0.400000X0*%
%TD*%
%TA.AperFunction,SMDPad,CuDef*%
%ADD29RoundRect,0.250000X0.400000X-0.750000X0.400000X0.750000X-0.400000X0.750000X-0.400000X-0.750000X0*%
%TD*%
%TA.AperFunction,ViaPad*%
%ADD30C,0.800000*%
%TD*%
%TA.AperFunction,ViaPad*%
%ADD31C,0.500000*%
%TD*%
%TA.AperFunction,Conductor*%
%ADD32C,1.000000*%
%TD*%
%TA.AperFunction,Conductor*%
%ADD33C,0.200000*%
%TD*%
%TA.AperFunction,Conductor*%
%ADD34C,1.500000*%
%TD*%
%TA.AperFunction,Conductor*%
%ADD35C,0.600000*%
%TD*%
%TA.AperFunction,Conductor*%
%ADD36C,0.400000*%
%TD*%
G04 APERTURE END LIST*
D10*
%TO.P,TP4,1,1*%
%TO.N,/3V3*%
X105216100Y-86955000D03*
%TD*%
%TO.P,TP1,1,1*%
%TO.N,/DeployerDetectionSW2OUT*%
X140483900Y-64204600D03*
%TD*%
D11*
%TO.P,J2,1,Pin_1*%
%TO.N,Net-(J2-Pin_1)*%
X124177100Y-57092600D03*
D12*
%TO.P,J2,2,Pin_2*%
%TO.N,GND*%
X124177100Y-54552600D03*
%TD*%
D11*
%TO.P,J6,1,Pin_1*%
%TO.N,Net-(J6-Pin_1)*%
X150339100Y-110940600D03*
%TD*%
D10*
%TO.P,TP3,1,1*%
%TO.N,Net-(U3-\u002AFAULT)*%
X121789500Y-79647800D03*
%TD*%
D11*
%TO.P,J3,1,Pin_1*%
%TO.N,/DeployerDetectionSW1OUT*%
X145361100Y-75853600D03*
D12*
%TO.P,J3,2,Pin_2*%
%TO.N,/DeployerDetectionSW2OUT*%
X145361100Y-73313600D03*
%TO.P,J3,3,Pin_3*%
%TO.N,/BurnWireIN*%
X145361100Y-70773600D03*
%TO.P,J3,4,Pin_4*%
X145361100Y-68233600D03*
%TO.P,J3,5,Pin_5*%
%TO.N,GND*%
X145361100Y-65693600D03*
%TO.P,J3,6,Pin_6*%
X145361100Y-63153600D03*
%TD*%
D11*
%TO.P,J1,1,Pin_1*%
%TO.N,/3V3*%
X139240300Y-118616229D03*
D12*
%TO.P,J1,2,Pin_2*%
%TO.N,/DeployerDetectionSW1OUT*%
X139240300Y-121156229D03*
%TO.P,J1,3,Pin_3*%
%TO.N,/BurnWireIN*%
X139240300Y-123696229D03*
%TO.P,J1,4,Pin_4*%
X139240300Y-126236229D03*
%TO.P,J1,5,Pin_5*%
%TO.N,GND*%
X139240300Y-128776229D03*
%TO.P,J1,6,Pin_6*%
X139240300Y-131316229D03*
%TD*%
D10*
%TO.P,TP2,1,1*%
%TO.N,/TriggerOUT*%
X113551100Y-58898600D03*
%TD*%
D13*
%TO.P,C6,1*%
%TO.N,Net-(U2-BOOT)*%
X109808146Y-67298600D03*
%TO.P,C6,2*%
%TO.N,Net-(D1-K)*%
X107908146Y-67298600D03*
%TD*%
D11*
%TO.P,J4,1,Pin_1*%
%TO.N,/burn*%
X131389100Y-70554600D03*
D12*
%TO.P,J4,2,Pin_2*%
%TO.N,Net-(J4-Pin_2)*%
X131389100Y-68014600D03*
%TD*%
D14*
%TO.P,R7,1*%
%TO.N,Net-(U2-EN)*%
X116408146Y-64798600D03*
%TO.P,R7,2*%
%TO.N,GND*%
X116408146Y-62898600D03*
%TD*%
D15*
%TO.P,L1,1,1*%
%TO.N,Net-(D1-K)*%
X106220346Y-79436600D03*
%TO.P,L1,2,2*%
%TO.N,/3V3*%
X110720346Y-79436600D03*
%TD*%
D16*
%TO.P,R8,1*%
%TO.N,Net-(U2-RT{slash}CLK)*%
X116181100Y-69183000D03*
%TO.P,R8,2*%
%TO.N,GND*%
X118081100Y-69183000D03*
%TD*%
D17*
%TO.P,C10,1*%
%TO.N,GND*%
X118131900Y-71926200D03*
%TO.P,C10,2*%
%TO.N,/3V3*%
X118131900Y-73826200D03*
%TD*%
D18*
%TO.P,D1,1,K*%
%TO.N,Net-(D1-K)*%
X104658146Y-74098600D03*
D19*
%TO.P,D1,2,A*%
%TO.N,GND*%
X104658146Y-68298600D03*
%TD*%
D11*
%TO.P,J5,1,Pin_1*%
%TO.N,/12V*%
X110941100Y-54368600D03*
D12*
%TO.P,J5,2,Pin_2*%
%TO.N,/TriggerOUT*%
X113481100Y-54368600D03*
%TO.P,J5,3,Pin_3*%
%TO.N,/EN*%
X116021100Y-54368600D03*
%TO.P,J5,4,Pin_4*%
%TO.N,GND*%
X118561100Y-54368600D03*
%TD*%
D20*
%TO.P,R4,1*%
%TO.N,Net-(Q1-G)*%
X125144200Y-70249800D03*
%TO.P,R4,2*%
%TO.N,/burn*%
X126969200Y-70249800D03*
%TD*%
D17*
%TO.P,R11,1*%
%TO.N,Net-(U2-VSENSE)*%
X113610700Y-73821000D03*
%TO.P,R11,2*%
%TO.N,GND*%
X113610700Y-75721000D03*
%TD*%
D21*
%TO.P,C7,1*%
%TO.N,GND*%
X113612500Y-83915000D03*
%TO.P,C7,2*%
%TO.N,/3V3*%
X110662500Y-83915000D03*
%TD*%
D22*
%TO.P,U3,1,OUT*%
%TO.N,/burn*%
X122778600Y-73346600D03*
%TO.P,U3,2,ILIM*%
%TO.N,Net-(U3-ILIM)*%
X122778600Y-73996600D03*
%TO.P,U3,3,\u002AFAULT*%
%TO.N,Net-(U3-\u002AFAULT)*%
X122778600Y-74646600D03*
%TO.P,U3,4,EN*%
%TO.N,/EN*%
X121003600Y-74646600D03*
%TO.P,U3,5,GND*%
%TO.N,GND*%
X121003600Y-73996600D03*
%TO.P,U3,6,IN*%
%TO.N,/3V3*%
X121003600Y-73346600D03*
D23*
%TO.P,U3,7,EPAD*%
%TO.N,GND*%
X121891100Y-73996600D03*
%TD*%
D13*
%TO.P,C4,1*%
%TO.N,GND*%
X118101500Y-66897000D03*
%TO.P,C4,2*%
%TO.N,Net-(U2-SS{slash}TR)*%
X116201500Y-66897000D03*
%TD*%
D17*
%TO.P,R6,1*%
%TO.N,/12V*%
X113908146Y-62898600D03*
%TO.P,R6,2*%
%TO.N,Net-(U2-EN)*%
X113908146Y-64798600D03*
%TD*%
D14*
%TO.P,C9,1*%
%TO.N,GND*%
X108162500Y-88815000D03*
%TO.P,C9,2*%
%TO.N,/3V3*%
X108162500Y-86915000D03*
%TD*%
D16*
%TO.P,C3,1*%
%TO.N,GND*%
X107494300Y-63899800D03*
%TO.P,C3,2*%
%TO.N,/12V*%
X109394300Y-63899800D03*
%TD*%
D17*
%TO.P,R3,1*%
%TO.N,Net-(J2-Pin_1)*%
X127987100Y-59038200D03*
%TO.P,R3,2*%
%TO.N,Net-(Q1-G)*%
X127987100Y-60938200D03*
%TD*%
D24*
%TO.P,Q1,1,G*%
%TO.N,Net-(Q1-G)*%
X127810100Y-63073000D03*
%TO.P,Q1,2,D*%
%TO.N,/BurnWireIN*%
X127810100Y-65373000D03*
%TO.P,Q1,3,S*%
%TO.N,Net-(J4-Pin_2)*%
X127810100Y-67673000D03*
D25*
%TO.P,Q1,4,D*%
%TO.N,/BurnWireIN*%
X121760100Y-65373000D03*
%TD*%
D26*
%TO.P,U2,1,BOOT*%
%TO.N,Net-(U2-BOOT)*%
X111408146Y-67298600D03*
%TO.P,U2,2,VIN*%
%TO.N,/12V*%
X111908146Y-67298600D03*
%TO.P,U2,3,EN*%
%TO.N,Net-(U2-EN)*%
X112408146Y-67298600D03*
%TO.P,U2,4,SS/TR*%
%TO.N,Net-(U2-SS{slash}TR)*%
X112908146Y-67298600D03*
%TO.P,U2,5,RT/CLK*%
%TO.N,Net-(U2-RT{slash}CLK)*%
X113408146Y-67298600D03*
%TO.P,U2,6,PWRGD*%
%TO.N,unconnected-(U2-PWRGD-Pad6)*%
X113408146Y-71598600D03*
%TO.P,U2,7,VSENSE*%
%TO.N,Net-(U2-VSENSE)*%
X112908146Y-71598600D03*
%TO.P,U2,8,COMP*%
%TO.N,unconnected-(U2-COMP-Pad8)*%
X112408146Y-71598600D03*
%TO.P,U2,9,GND*%
%TO.N,GND*%
X111908146Y-71598600D03*
%TO.P,U2,10,PH*%
%TO.N,Net-(D1-K)*%
X111408146Y-71598600D03*
D27*
%TO.P,U2,11,GND*%
%TO.N,GND*%
X112408146Y-69448600D03*
%TD*%
D13*
%TO.P,R9,1*%
%TO.N,Net-(U3-\u002AFAULT)*%
X118777100Y-79698600D03*
%TO.P,R9,2*%
%TO.N,/3V3*%
X116877100Y-79698600D03*
%TD*%
D28*
%TO.P,RV1,1,1*%
%TO.N,unconnected-(RV1-Pad1)*%
X130019100Y-78950600D03*
D29*
%TO.P,RV1,2,2*%
%TO.N,Net-(U3-ILIM)*%
X124519100Y-77800600D03*
D28*
%TO.P,RV1,3,3*%
%TO.N,GND*%
X130019100Y-76650600D03*
%TD*%
D21*
%TO.P,C8,1*%
%TO.N,GND*%
X113612500Y-86415000D03*
%TO.P,C8,2*%
%TO.N,/3V3*%
X110662500Y-86415000D03*
%TD*%
D13*
%TO.P,C5,1*%
%TO.N,GND*%
X129003100Y-73856600D03*
%TO.P,C5,2*%
%TO.N,/burn*%
X127103100Y-73856600D03*
%TD*%
D14*
%TO.P,R10,1*%
%TO.N,/3V3*%
X111426300Y-75721000D03*
%TO.P,R10,2*%
%TO.N,Net-(U2-VSENSE)*%
X111426300Y-73821000D03*
%TD*%
D30*
%TO.N,GND*%
X125243900Y-71977000D03*
X113661500Y-81171800D03*
X128901500Y-72281800D03*
X122907100Y-71926200D03*
X113661500Y-78073000D03*
X120875100Y-75787000D03*
X120875100Y-71926200D03*
D31*
%TO.N,/3V3*%
X116877100Y-76991000D03*
%TO.N,Net-(D1-K)*%
X107921100Y-68675000D03*
D30*
X107186146Y-71570600D03*
D31*
%TO.N,/EN*%
X119960700Y-74669400D03*
%TO.N,/DeployerDetectionSW1OUT*%
X141558778Y-124766278D03*
%TO.N,/DeployerDetectionSW2OUT*%
X143227100Y-68776600D03*
%TO.N,/TriggerOUT*%
X133829100Y-56279800D03*
%TD*%
D32*
%TO.N,GND*%
X115464900Y-71088000D02*
X116303100Y-71926200D01*
X118081100Y-71875400D02*
X118131900Y-71926200D01*
X115464900Y-71088000D02*
X115693500Y-71316600D01*
X118101500Y-63866954D02*
X118101500Y-66897000D01*
X118081100Y-70249800D02*
X118081100Y-71875400D01*
X121891100Y-72196600D02*
X121891100Y-73996600D01*
X113612500Y-88159800D02*
X113612500Y-86415000D01*
X118101500Y-69162600D02*
X118081100Y-69183000D01*
X118561100Y-56765000D02*
X118561100Y-54368600D01*
X113825500Y-69448600D02*
X115464900Y-71088000D01*
D33*
X111908146Y-69948600D02*
X112408146Y-69448600D01*
D32*
X113661500Y-75771800D02*
X113610700Y-75721000D01*
X115693500Y-71316600D02*
X117420700Y-71316600D01*
D34*
X124177100Y-54552600D02*
X118745100Y-54552600D01*
X118745100Y-54552600D02*
X118561100Y-54368600D01*
D32*
X119351100Y-71926200D02*
X121620700Y-71926200D01*
X104658146Y-64673554D02*
X104658146Y-68298600D01*
X116252300Y-72485000D02*
X116811100Y-71926200D01*
D33*
X111908146Y-71598600D02*
X111908146Y-69948600D01*
D32*
X116408146Y-58917954D02*
X118561100Y-56765000D01*
X105136146Y-68776600D02*
X104658146Y-68298600D01*
X118081100Y-70656200D02*
X119351100Y-71926200D01*
X107494300Y-63899800D02*
X105431900Y-63899800D01*
X128901500Y-72281800D02*
X129003100Y-72383400D01*
X130019100Y-74872600D02*
X129003100Y-73856600D01*
X118131900Y-71926200D02*
X119351100Y-71926200D01*
X112408146Y-69448600D02*
X113825500Y-69448600D01*
X117420700Y-71316600D02*
X118081100Y-70656200D01*
X117133146Y-62898600D02*
X118101500Y-63866954D01*
X116408146Y-62898600D02*
X117133146Y-62898600D01*
X118081100Y-70656200D02*
X118081100Y-70249800D01*
X116252300Y-71977000D02*
X116303100Y-71926200D01*
X121620700Y-71926200D02*
X125193100Y-71926200D01*
X108162500Y-88815000D02*
X112957300Y-88815000D01*
X116303100Y-71926200D02*
X116811100Y-71926200D01*
X116811100Y-71926200D02*
X118081100Y-70656200D01*
X118101500Y-66897000D02*
X118101500Y-69162600D01*
X116252300Y-73804400D02*
X116252300Y-72789800D01*
X105939900Y-68776600D02*
X105136146Y-68776600D01*
X114335700Y-75721000D02*
X116252300Y-73804400D01*
X113610700Y-75721000D02*
X114335700Y-75721000D01*
X116408146Y-62898600D02*
X116408146Y-58917954D01*
X116252300Y-72789800D02*
X116252300Y-71977000D01*
X112957300Y-88815000D02*
X113612500Y-88159800D01*
X105431900Y-63899800D02*
X104658146Y-64673554D01*
X129003100Y-72383400D02*
X129003100Y-73856600D01*
X125193100Y-71926200D02*
X125243900Y-71977000D01*
X113661500Y-78073000D02*
X113661500Y-75771800D01*
X130019100Y-76650600D02*
X130019100Y-74872600D01*
X113612500Y-81220800D02*
X113612500Y-86415000D01*
X121620700Y-71926200D02*
X121891100Y-72196600D01*
X116252300Y-72789800D02*
X116252300Y-72485000D01*
X113661500Y-81171800D02*
X113612500Y-81220800D01*
X118081100Y-69183000D02*
X118081100Y-70249800D01*
D34*
X139240300Y-128776229D02*
X139240300Y-131316229D01*
D32*
X116811100Y-71926200D02*
X118131900Y-71926200D01*
D34*
X145361100Y-65693600D02*
X145361100Y-63153600D01*
D32*
%TO.N,/3V3*%
X110832346Y-79548600D02*
X116727100Y-79548600D01*
X110162500Y-86915000D02*
X110662500Y-86415000D01*
D33*
X117928700Y-81984600D02*
X130171500Y-81984600D01*
D32*
X116877100Y-79698600D02*
X116877100Y-76991000D01*
X110720346Y-79436600D02*
X110720346Y-76426954D01*
D33*
X139240300Y-113454200D02*
X139240300Y-118616229D01*
D32*
X110720346Y-76426954D02*
X111426300Y-75721000D01*
X108162500Y-86915000D02*
X110162500Y-86915000D01*
X110651700Y-79554200D02*
X110651700Y-86404200D01*
X116727100Y-79548600D02*
X116877100Y-79698600D01*
D33*
X119961488Y-73346600D02*
X121003600Y-73346600D01*
X119661349Y-73646739D02*
X119961488Y-73346600D01*
X116877100Y-80933000D02*
X117928700Y-81984600D01*
D35*
X118131900Y-73826200D02*
X118311361Y-73646739D01*
X105256100Y-86915000D02*
X108162500Y-86915000D01*
D32*
X110651700Y-86404200D02*
X110662500Y-86415000D01*
X118233500Y-75634600D02*
X118233500Y-74009000D01*
D33*
X140382300Y-92195400D02*
X140382300Y-112312200D01*
D32*
X116877100Y-76991000D02*
X118233500Y-75634600D01*
D33*
X116877100Y-79698600D02*
X116877100Y-80933000D01*
X130171500Y-81984600D02*
X140382300Y-92195400D01*
D32*
X105216100Y-86955000D02*
X105256100Y-86915000D01*
D33*
X140382300Y-112312200D02*
X139240300Y-113454200D01*
D35*
X118311361Y-73646739D02*
X119661349Y-73646739D01*
D32*
X110720346Y-79436600D02*
X110832346Y-79548600D01*
D36*
%TO.N,/12V*%
X111095556Y-65728600D02*
X109953100Y-65728600D01*
D32*
X110164777Y-60707877D02*
X110367977Y-60504677D01*
X110941100Y-59931554D02*
X110164777Y-60707877D01*
D36*
X109953100Y-65728600D02*
X109394300Y-65169800D01*
D32*
X111514223Y-60504677D02*
X111847023Y-60837477D01*
X110941100Y-54368600D02*
X110941100Y-59931554D01*
X110941100Y-59931554D02*
X111847023Y-60837477D01*
X109408146Y-61464508D02*
X109408146Y-64298600D01*
X110164777Y-60707877D02*
X109408146Y-61464508D01*
X110367977Y-60504677D02*
X111514223Y-60504677D01*
X111847023Y-60837477D02*
X113908146Y-62898600D01*
D36*
X109394300Y-65169800D02*
X109394300Y-63899800D01*
D33*
X111908146Y-66541190D02*
X111095556Y-65728600D01*
X111908146Y-67298600D02*
X111908146Y-66541190D01*
%TO.N,Net-(U2-SS{slash}TR)*%
X115490300Y-66185800D02*
X116201500Y-66897000D01*
X112908146Y-66541190D02*
X113263536Y-66185800D01*
X112908146Y-67298600D02*
X112908146Y-66541190D01*
X113263536Y-66185800D02*
X115490300Y-66185800D01*
D32*
%TO.N,/burn*%
X127656900Y-70935600D02*
X127555300Y-70935600D01*
X127656900Y-70935600D02*
X128037900Y-70554600D01*
X125461713Y-73856600D02*
X127103100Y-73856600D01*
X126969200Y-70349500D02*
X126969200Y-70249800D01*
X127103100Y-71489400D02*
X127656900Y-70935600D01*
X127555300Y-70935600D02*
X126969200Y-70349500D01*
X128037900Y-70554600D02*
X131389100Y-70554600D01*
D36*
X125360585Y-73755472D02*
X124951713Y-73346600D01*
D32*
X125360585Y-73755472D02*
X125461713Y-73856600D01*
D33*
X123973900Y-73346600D02*
X122778600Y-73346600D01*
D32*
X127103100Y-73856600D02*
X127103100Y-71489400D01*
D36*
X124951713Y-73346600D02*
X123973900Y-73346600D01*
D33*
%TO.N,Net-(D1-K)*%
X107908146Y-68662046D02*
X107921100Y-68675000D01*
D32*
X104658146Y-77874400D02*
X104658146Y-74098600D01*
D36*
X107908146Y-67298600D02*
X107908146Y-68662046D01*
D35*
X107186146Y-71570600D02*
X111258146Y-71570600D01*
D32*
X106220346Y-79436600D02*
X104658146Y-77874400D01*
X107186146Y-71570600D02*
X104658146Y-74098600D01*
D33*
%TO.N,Net-(U2-BOOT)*%
X109808146Y-67298600D02*
X111408146Y-67298600D01*
D35*
%TO.N,Net-(J2-Pin_1)*%
X124177100Y-58311800D02*
X124177100Y-57092600D01*
X124888300Y-59023000D02*
X124177100Y-58311800D01*
X127987100Y-59038200D02*
X127971900Y-59023000D01*
X127971900Y-59023000D02*
X124888300Y-59023000D01*
%TO.N,Net-(J4-Pin_2)*%
X127810100Y-67673000D02*
X131047500Y-67673000D01*
X131047500Y-67673000D02*
X131389100Y-68014600D01*
D33*
%TO.N,/EN*%
X121003600Y-74646600D02*
X119983500Y-74646600D01*
X119983500Y-74646600D02*
X119960700Y-74669400D01*
D36*
%TO.N,Net-(Q1-G)*%
X123093801Y-70249800D02*
X119859100Y-67015099D01*
X120875100Y-60750200D02*
X127810100Y-60750200D01*
D35*
X127810100Y-63073000D02*
X127810100Y-61115200D01*
X127810100Y-61115200D02*
X127987100Y-60938200D01*
D36*
X119859100Y-67015099D02*
X119859100Y-61766200D01*
X119859100Y-61766200D02*
X120875100Y-60750200D01*
X125144200Y-70249800D02*
X123093801Y-70249800D01*
%TO.N,Net-(U2-EN)*%
X112774946Y-65931800D02*
X113908146Y-64798600D01*
D33*
X112408146Y-67298600D02*
X112408146Y-66298600D01*
X112408146Y-66298600D02*
X112774946Y-65931800D01*
D36*
X113908146Y-64798600D02*
X116408146Y-64798600D01*
%TO.N,Net-(U2-RT{slash}CLK)*%
X114113900Y-67298600D02*
X115998300Y-69183000D01*
D33*
X115998300Y-69183000D02*
X116181100Y-69183000D01*
D36*
X113559900Y-67298600D02*
X114113900Y-67298600D01*
D33*
%TO.N,Net-(U3-\u002AFAULT)*%
X122778600Y-78658700D02*
X121789500Y-79647800D01*
D35*
X121738700Y-79698600D02*
X121789500Y-79647800D01*
D33*
X122778600Y-74646600D02*
X122778600Y-78658700D01*
D35*
X118777100Y-79698600D02*
X121738700Y-79698600D01*
D33*
%TO.N,Net-(U2-VSENSE)*%
X112908146Y-71598600D02*
X112908146Y-73118446D01*
X112908146Y-73118446D02*
X113610700Y-73821000D01*
D35*
X113524300Y-73907400D02*
X113610700Y-73821000D01*
X111512700Y-73907400D02*
X113524300Y-73907400D01*
X111426300Y-73821000D02*
X111512700Y-73907400D01*
D33*
%TO.N,Net-(U3-ILIM)*%
X122778600Y-73996600D02*
X122966099Y-73996600D01*
X124519100Y-75549601D02*
X124519100Y-77800600D01*
X122966099Y-73996600D02*
X124519100Y-75549601D01*
%TO.N,/DeployerDetectionSW1OUT*%
X145224456Y-121100600D02*
X145259100Y-121100600D01*
X145259100Y-121100600D02*
X145361100Y-120998600D01*
X141558778Y-124766278D02*
X145224456Y-121100600D01*
X145361100Y-120998600D02*
X145361100Y-75853600D01*
D32*
%TO.N,/BurnWireIN*%
X132559100Y-65373000D02*
X127810100Y-65373000D01*
D34*
X137537500Y-65373000D02*
X142769900Y-70605400D01*
X142769900Y-121303800D02*
X140377471Y-123696229D01*
X140377471Y-123696229D02*
X139240300Y-123696229D01*
X142769900Y-70605400D02*
X142769900Y-121303800D01*
D32*
X127810100Y-65373000D02*
X121760100Y-65373000D01*
D34*
X139240300Y-123696229D02*
X139240300Y-126236229D01*
X142938100Y-70773600D02*
X145361100Y-70773600D01*
X142769900Y-70605400D02*
X142938100Y-70773600D01*
D32*
X133829100Y-65373000D02*
X132559100Y-65373000D01*
D34*
X133829100Y-65373000D02*
X137537500Y-65373000D01*
D33*
%TO.N,/DeployerDetectionSW2OUT*%
X143227100Y-68776600D02*
X140483900Y-66033400D01*
X140483900Y-66033400D02*
X140483900Y-64204600D01*
D32*
%TO.N,/TriggerOUT*%
X113551100Y-54438600D02*
X113481100Y-54368600D01*
D36*
X133829100Y-54552600D02*
X131441500Y-52165000D01*
X131441500Y-52165000D02*
X115744300Y-52165000D01*
D32*
X113551100Y-58898600D02*
X113551100Y-54438600D01*
D36*
X115744300Y-52165000D02*
X113540700Y-54368600D01*
X133829100Y-56279800D02*
X133829100Y-54552600D01*
X113540700Y-54368600D02*
X113481100Y-54368600D01*
%TD*%
%TA.AperFunction,Conductor*%
%TO.N,GND*%
G36*
X106461451Y-63106685D02*
G01*
X106507206Y-63159489D01*
X106517150Y-63228647D01*
X106512117Y-63250005D01*
X106504795Y-63272097D01*
X106504793Y-63272109D01*
X106494300Y-63374813D01*
X106494300Y-63649800D01*
X107370300Y-63649800D01*
X107437339Y-63669485D01*
X107483094Y-63722289D01*
X107494300Y-63773800D01*
X107494300Y-63899800D01*
X107620300Y-63899800D01*
X107687339Y-63919485D01*
X107733094Y-63972289D01*
X107744300Y-64023800D01*
X107744300Y-65124799D01*
X107794272Y-65124799D01*
X107794286Y-65124798D01*
X107896997Y-65114305D01*
X108063419Y-65059158D01*
X108063426Y-65059155D01*
X108099197Y-65037091D01*
X108166589Y-65018650D01*
X108233253Y-65039572D01*
X108244892Y-65048395D01*
X108297112Y-65093058D01*
X108297116Y-65093061D01*
X108473700Y-65190771D01*
X108666308Y-65251035D01*
X108867093Y-65271400D01*
X108918909Y-65271400D01*
X108985948Y-65291085D01*
X109026294Y-65333397D01*
X109073820Y-65415713D01*
X109073821Y-65415714D01*
X109073822Y-65415715D01*
X109628279Y-65970171D01*
X109628289Y-65970182D01*
X109707188Y-66049081D01*
X109722879Y-66058140D01*
X109791241Y-66097608D01*
X109791243Y-66097610D01*
X109798510Y-66101806D01*
X109798512Y-66101806D01*
X109798513Y-66101807D01*
X109900373Y-66129101D01*
X109900375Y-66129101D01*
X109901211Y-66129325D01*
X109960871Y-66165690D01*
X109991400Y-66228538D01*
X109983105Y-66297913D01*
X109938620Y-66351791D01*
X109872067Y-66373065D01*
X109869117Y-66373100D01*
X109503876Y-66373100D01*
X109473446Y-66375953D01*
X109473444Y-66375953D01*
X109345265Y-66420806D01*
X109345263Y-66420807D01*
X109235996Y-66501450D01*
X109155353Y-66610717D01*
X109155352Y-66610719D01*
X109110499Y-66738898D01*
X109110499Y-66738900D01*
X109107646Y-66769330D01*
X109107646Y-67827869D01*
X109110499Y-67858299D01*
X109110499Y-67858301D01*
X109151592Y-67975735D01*
X109155353Y-67986482D01*
X109235996Y-68095750D01*
X109345264Y-68176393D01*
X109378901Y-68188163D01*
X109473445Y-68221246D01*
X109503876Y-68224100D01*
X109503880Y-68224100D01*
X110112416Y-68224100D01*
X110142845Y-68221246D01*
X110142847Y-68221246D01*
X110206936Y-68198819D01*
X110271028Y-68176393D01*
X110380296Y-68095750D01*
X110460939Y-67986482D01*
X110473606Y-67950278D01*
X110513651Y-67894034D01*
X110852155Y-67625900D01*
X110916928Y-67599704D01*
X110929149Y-67599100D01*
X110933647Y-67599100D01*
X111000686Y-67618785D01*
X111046441Y-67671589D01*
X111057647Y-67723100D01*
X111057647Y-67975732D01*
X111072140Y-68048599D01*
X111073631Y-68056095D01*
X111134521Y-68147224D01*
X111171022Y-68171613D01*
X111225651Y-68208115D01*
X111225654Y-68208115D01*
X111225655Y-68208116D01*
X111252679Y-68213491D01*
X111306013Y-68224100D01*
X111510278Y-68224099D01*
X111590641Y-68208115D01*
X111590644Y-68208112D01*
X111601924Y-68203441D01*
X111602522Y-68204886D01*
X111655928Y-68188163D01*
X111714089Y-68204116D01*
X111714369Y-68203442D01*
X111719736Y-68205665D01*
X111723308Y-68206645D01*
X111725497Y-68208051D01*
X111725652Y-68208116D01*
X111779103Y-68218747D01*
X111806013Y-68224100D01*
X112010278Y-68224099D01*
X112090641Y-68208115D01*
X112090644Y-68208112D01*
X112101924Y-68203441D01*
X112102522Y-68204886D01*
X112155928Y-68188163D01*
X112214089Y-68204116D01*
X112214369Y-68203442D01*
X112219736Y-68205665D01*
X112223308Y-68206645D01*
X112225497Y-68208051D01*
X112225652Y-68208116D01*
X112279103Y-68218747D01*
X112306013Y-68224100D01*
X112510278Y-68224099D01*
X112590641Y-68208115D01*
X112590644Y-68208112D01*
X112601924Y-68203441D01*
X112602522Y-68204886D01*
X112655928Y-68188163D01*
X112714089Y-68204116D01*
X112714369Y-68203442D01*
X112719736Y-68205665D01*
X112723308Y-68206645D01*
X112725497Y-68208051D01*
X112725652Y-68208116D01*
X112779103Y-68218747D01*
X112806013Y-68224100D01*
X113010278Y-68224099D01*
X113090641Y-68208115D01*
X113090644Y-68208112D01*
X113101924Y-68203441D01*
X113102522Y-68204886D01*
X113155928Y-68188163D01*
X113214089Y-68204116D01*
X113214369Y-68203442D01*
X113219736Y-68205665D01*
X113223308Y-68206645D01*
X113225497Y-68208051D01*
X113225652Y-68208116D01*
X113279103Y-68218747D01*
X113306013Y-68224100D01*
X113510278Y-68224099D01*
X113590641Y-68208115D01*
X113681770Y-68147224D01*
X113742661Y-68056095D01*
X113758646Y-67975733D01*
X113758646Y-67823100D01*
X113778331Y-67756061D01*
X113831135Y-67710306D01*
X113882646Y-67699100D01*
X113896645Y-67699100D01*
X113963684Y-67718785D01*
X113984326Y-67735419D01*
X114876868Y-68627961D01*
X114910353Y-68689284D01*
X114913181Y-68714472D01*
X114922023Y-69651709D01*
X114921542Y-69663856D01*
X114905824Y-69840715D01*
X114901316Y-69864578D01*
X114853146Y-70029113D01*
X114844074Y-70051638D01*
X114764762Y-70203629D01*
X114751473Y-70223955D01*
X114644061Y-70357570D01*
X114627065Y-70374917D01*
X114495666Y-70485039D01*
X114475617Y-70498739D01*
X114325281Y-70581137D01*
X114302945Y-70590668D01*
X114139425Y-70642188D01*
X114115659Y-70647182D01*
X113939170Y-70666507D01*
X113927036Y-70667237D01*
X113394158Y-70673093D01*
X113392796Y-70673100D01*
X113306007Y-70673100D01*
X113300406Y-70673652D01*
X113289629Y-70674241D01*
X113043242Y-70676949D01*
X113017692Y-70674574D01*
X113010280Y-70673100D01*
X112806015Y-70673100D01*
X112782959Y-70677686D01*
X112760137Y-70680060D01*
X112569421Y-70682156D01*
X112543868Y-70679781D01*
X112516015Y-70674241D01*
X112510279Y-70673100D01*
X112510278Y-70673100D01*
X112306014Y-70673100D01*
X112306012Y-70673101D01*
X112253721Y-70683501D01*
X112230895Y-70685876D01*
X111621771Y-70692569D01*
X111596219Y-70690194D01*
X111545269Y-70680060D01*
X111510279Y-70673100D01*
X111510277Y-70673100D01*
X111306016Y-70673100D01*
X111260488Y-70682156D01*
X111225651Y-70689085D01*
X111225650Y-70689085D01*
X111213673Y-70691468D01*
X111213578Y-70690991D01*
X111182258Y-70697399D01*
X110364953Y-70706381D01*
X110361574Y-70706372D01*
X110312133Y-70705568D01*
X110305379Y-70705273D01*
X110256072Y-70701777D01*
X110252704Y-70701492D01*
X110150794Y-70691468D01*
X109638289Y-70641057D01*
X106756169Y-70357570D01*
X105821346Y-70265620D01*
X105756555Y-70239468D01*
X105716189Y-70182439D01*
X105711171Y-70121830D01*
X105973377Y-68548600D01*
X104782146Y-68548600D01*
X104715107Y-68528915D01*
X104669352Y-68476111D01*
X104658146Y-68424600D01*
X104658146Y-68298600D01*
X104532146Y-68298600D01*
X104465107Y-68278915D01*
X104419352Y-68226111D01*
X104408146Y-68174600D01*
X104408146Y-68048600D01*
X104908146Y-68048600D01*
X106056710Y-68048600D01*
X106056710Y-68048599D01*
X106269921Y-66769330D01*
X107207646Y-66769330D01*
X107207646Y-67827869D01*
X107210499Y-67858294D01*
X107210501Y-67858304D01*
X107232664Y-67921646D01*
X107236917Y-67936838D01*
X107241195Y-67956982D01*
X107349004Y-68208051D01*
X107465545Y-68479456D01*
X107475263Y-68537589D01*
X107467097Y-68647258D01*
X107466689Y-68654461D01*
X107466398Y-68661941D01*
X107466096Y-68661929D01*
X107465939Y-68666132D01*
X107465967Y-68666132D01*
X107465967Y-68674999D01*
X107484402Y-68803225D01*
X107538217Y-68921061D01*
X107538218Y-68921063D01*
X107611724Y-69005895D01*
X107618640Y-69013877D01*
X107623051Y-69018967D01*
X107732031Y-69089004D01*
X107856325Y-69125499D01*
X107856327Y-69125500D01*
X107856328Y-69125500D01*
X107985873Y-69125500D01*
X107985873Y-69125499D01*
X108110169Y-69089004D01*
X108219149Y-69018967D01*
X108303982Y-68921063D01*
X108357797Y-68803226D01*
X108376233Y-68675000D01*
X108374321Y-68661710D01*
X108373614Y-68642164D01*
X108373482Y-68642168D01*
X108373313Y-68636090D01*
X108373314Y-68636081D01*
X108357103Y-68507998D01*
X108366181Y-68443508D01*
X108575097Y-67956982D01*
X108585594Y-67925896D01*
X108586500Y-67922284D01*
X108588753Y-67910810D01*
X108593385Y-67893752D01*
X108605792Y-67858299D01*
X108608646Y-67827866D01*
X108608646Y-66769334D01*
X108605792Y-66738901D01*
X108605792Y-66738900D01*
X108605792Y-66738898D01*
X108572152Y-66642763D01*
X108560939Y-66610718D01*
X108480296Y-66501450D01*
X108371028Y-66420807D01*
X108371026Y-66420806D01*
X108242846Y-66375953D01*
X108212416Y-66373100D01*
X108212412Y-66373100D01*
X107603880Y-66373100D01*
X107603876Y-66373100D01*
X107573446Y-66375953D01*
X107573444Y-66375953D01*
X107445265Y-66420806D01*
X107445263Y-66420807D01*
X107335996Y-66501450D01*
X107255353Y-66610717D01*
X107255352Y-66610719D01*
X107210499Y-66738898D01*
X107210499Y-66738900D01*
X107207646Y-66769330D01*
X106269921Y-66769330D01*
X106312299Y-66515060D01*
X106312302Y-66515037D01*
X106313255Y-66504250D01*
X106313255Y-66504238D01*
X106294386Y-66361713D01*
X106294384Y-66361705D01*
X106236123Y-66230264D01*
X106143190Y-66120560D01*
X106143188Y-66120558D01*
X106023109Y-66041479D01*
X106023109Y-66041478D01*
X105885627Y-65999436D01*
X105885617Y-65999434D01*
X105874801Y-65998600D01*
X104908146Y-65998600D01*
X104908146Y-68048600D01*
X104408146Y-68048600D01*
X104408146Y-65998600D01*
X103574700Y-65998600D01*
X103507661Y-65978915D01*
X103461906Y-65926111D01*
X103450700Y-65874600D01*
X103450700Y-64424786D01*
X106494301Y-64424786D01*
X106504794Y-64527497D01*
X106559941Y-64693919D01*
X106559943Y-64693924D01*
X106651984Y-64843145D01*
X106775954Y-64967115D01*
X106925175Y-65059156D01*
X106925180Y-65059158D01*
X107091602Y-65114305D01*
X107091609Y-65114306D01*
X107194319Y-65124799D01*
X107244299Y-65124798D01*
X107244300Y-65124798D01*
X107244300Y-64149800D01*
X106494301Y-64149800D01*
X106494301Y-64424786D01*
X103450700Y-64424786D01*
X103450700Y-64093092D01*
X103451297Y-64080938D01*
X103468718Y-63904056D01*
X103473457Y-63880232D01*
X103523277Y-63715994D01*
X103532575Y-63693549D01*
X103613475Y-63542195D01*
X103626972Y-63521995D01*
X103735849Y-63389328D01*
X103753028Y-63372149D01*
X103885695Y-63263272D01*
X103905895Y-63249775D01*
X104057249Y-63168875D01*
X104079694Y-63159577D01*
X104243932Y-63109757D01*
X104267756Y-63105018D01*
X104444639Y-63087597D01*
X104456793Y-63087000D01*
X106394412Y-63087000D01*
X106461451Y-63106685D01*
G37*
%TD.AperFunction*%
%TD*%
%TA.AperFunction,Conductor*%
%TO.N,GND*%
G36*
X123235577Y-71183885D02*
G01*
X123256219Y-71200519D01*
X123683581Y-71627881D01*
X123717066Y-71689204D01*
X123719900Y-71715562D01*
X123719900Y-72922100D01*
X123700215Y-72989139D01*
X123647411Y-73034894D01*
X123595900Y-73046100D01*
X123225967Y-73046100D01*
X123183075Y-73038446D01*
X123173440Y-73034894D01*
X122995572Y-72969321D01*
X122988955Y-72967787D01*
X122966856Y-72960421D01*
X122940887Y-72948954D01*
X122940889Y-72948954D01*
X122916285Y-72946100D01*
X122640923Y-72946100D01*
X122640914Y-72946101D01*
X122616313Y-72948954D01*
X122616309Y-72948955D01*
X122515678Y-72993388D01*
X122437889Y-73071177D01*
X122393454Y-73171812D01*
X122390600Y-73196411D01*
X122390600Y-73496776D01*
X122390601Y-73496785D01*
X122393454Y-73521386D01*
X122393455Y-73521390D01*
X122437664Y-73621513D01*
X122446736Y-73690791D01*
X122437665Y-73721685D01*
X122393454Y-73821813D01*
X122390600Y-73846411D01*
X122390600Y-74146776D01*
X122390601Y-74146785D01*
X122393454Y-74171386D01*
X122393455Y-74171390D01*
X122437664Y-74271513D01*
X122446736Y-74340791D01*
X122437665Y-74371685D01*
X122393454Y-74471813D01*
X122390600Y-74496411D01*
X122390600Y-74796776D01*
X122390601Y-74796785D01*
X122393454Y-74821386D01*
X122393455Y-74821390D01*
X122396058Y-74827285D01*
X122403563Y-74854614D01*
X122404159Y-74854482D01*
X122405478Y-74860428D01*
X122467394Y-75049477D01*
X122471939Y-75063352D01*
X122478100Y-75101952D01*
X122478100Y-76221800D01*
X122458415Y-76288839D01*
X122405611Y-76334594D01*
X122354100Y-76345800D01*
X120766062Y-76345800D01*
X120699023Y-76326115D01*
X120678381Y-76309481D01*
X120251019Y-75882119D01*
X120217534Y-75820796D01*
X120214700Y-75794438D01*
X120214700Y-75144810D01*
X120234385Y-75077771D01*
X120287189Y-75032016D01*
X120294157Y-75029086D01*
X120485831Y-74955364D01*
X120530345Y-74947100D01*
X120556234Y-74947100D01*
X120599125Y-74954753D01*
X120786627Y-75023878D01*
X120793243Y-75025411D01*
X120815339Y-75032777D01*
X120841311Y-75044245D01*
X120841314Y-75044246D01*
X120865915Y-75047100D01*
X121141284Y-75047099D01*
X121165886Y-75044246D01*
X121266522Y-74999811D01*
X121344311Y-74922022D01*
X121388746Y-74821386D01*
X121391600Y-74796785D01*
X121391599Y-74686617D01*
X121411283Y-74619580D01*
X121440113Y-74588243D01*
X121520815Y-74526318D01*
X121615991Y-74402283D01*
X121615991Y-74402282D01*
X121675815Y-74257853D01*
X121675816Y-74257848D01*
X121685526Y-74184100D01*
X121127600Y-74184100D01*
X121060561Y-74164415D01*
X121014806Y-74111611D01*
X121003600Y-74060100D01*
X121003600Y-73933100D01*
X121023285Y-73866061D01*
X121076089Y-73820306D01*
X121127600Y-73809100D01*
X121685525Y-73809100D01*
X121685525Y-73809099D01*
X121675816Y-73735351D01*
X121675815Y-73735346D01*
X121615991Y-73590917D01*
X121615991Y-73590916D01*
X121520814Y-73466881D01*
X121440112Y-73404955D01*
X121398910Y-73348527D01*
X121391599Y-73306580D01*
X121391599Y-73196423D01*
X121391599Y-73196416D01*
X121388746Y-73171814D01*
X121357340Y-73100687D01*
X121344311Y-73071178D01*
X121266522Y-72993389D01*
X121165887Y-72948954D01*
X121141285Y-72946100D01*
X120865923Y-72946100D01*
X120865914Y-72946101D01*
X120841313Y-72948954D01*
X120841311Y-72948954D01*
X120814728Y-72960692D01*
X120792384Y-72967271D01*
X120792518Y-72967785D01*
X120786633Y-72969318D01*
X120599123Y-73038446D01*
X120556231Y-73046100D01*
X120338700Y-73046100D01*
X120271661Y-73026415D01*
X120225906Y-72973611D01*
X120214700Y-72922100D01*
X120214700Y-71715562D01*
X120234385Y-71648523D01*
X120251019Y-71627881D01*
X120678381Y-71200519D01*
X120739704Y-71167034D01*
X120766062Y-71164200D01*
X123168538Y-71164200D01*
X123235577Y-71183885D01*
G37*
%TD.AperFunction*%
%TD*%
%TA.AperFunction,Conductor*%
%TO.N,/12V*%
G36*
X110949366Y-54375876D02*
G01*
X111785591Y-55213084D01*
X111789013Y-55221359D01*
X111788132Y-55225807D01*
X111444083Y-56061355D01*
X111437764Y-56067700D01*
X111433264Y-56068600D01*
X110448936Y-56068600D01*
X110440663Y-56065173D01*
X110438117Y-56061355D01*
X110339817Y-55822627D01*
X110094067Y-55225805D01*
X110094086Y-55216852D01*
X110096604Y-55213088D01*
X110932823Y-54375886D01*
X110941093Y-54372455D01*
X110949366Y-54375876D01*
G37*
%TD.AperFunction*%
%TD*%
%TA.AperFunction,Conductor*%
%TO.N,/DeployerDetectionSW1OUT*%
G36*
X145369366Y-75860876D02*
G01*
X146203337Y-76695828D01*
X146206759Y-76704102D01*
X146203832Y-76711836D01*
X145464593Y-77549641D01*
X145456550Y-77553577D01*
X145455820Y-77553600D01*
X145266380Y-77553600D01*
X145258107Y-77550173D01*
X145257607Y-77549641D01*
X144518367Y-76711836D01*
X144515463Y-76703365D01*
X144518860Y-76695830D01*
X145352823Y-75860886D01*
X145361093Y-75857455D01*
X145369366Y-75860876D01*
G37*
%TD.AperFunction*%
%TD*%
%TA.AperFunction,Conductor*%
%TO.N,Net-(U3-ILIM)*%
G36*
X122968777Y-73875570D02*
G01*
X123160338Y-74050217D01*
X123164143Y-74058323D01*
X123161101Y-74066746D01*
X123160728Y-74067136D01*
X123031460Y-74196404D01*
X123023187Y-74199831D01*
X123023036Y-74199830D01*
X122784151Y-74196752D01*
X122775923Y-74193219D01*
X122772603Y-74184902D01*
X122772607Y-74184726D01*
X122777726Y-74001835D01*
X122781383Y-73993663D01*
X122782784Y-73992528D01*
X122954265Y-73874575D01*
X122963022Y-73872711D01*
X122968777Y-73875570D01*
G37*
%TD.AperFunction*%
%TD*%
%TA.AperFunction,Conductor*%
%TO.N,Net-(U2-VSENSE)*%
G36*
X113009373Y-73364972D02*
G01*
X113011777Y-73366377D01*
X113325975Y-73604477D01*
X113601263Y-73813091D01*
X113605787Y-73820819D01*
X113603522Y-73829482D01*
X113602671Y-73830483D01*
X113139901Y-74316586D01*
X113131715Y-74320215D01*
X113129675Y-74320087D01*
X112395648Y-74208906D01*
X112387981Y-74204279D01*
X112385700Y-74197338D01*
X112385700Y-73615360D01*
X112389127Y-73607087D01*
X112393101Y-73604479D01*
X113000420Y-73364821D01*
X113009373Y-73364972D01*
G37*
%TD.AperFunction*%
%TD*%
%TA.AperFunction,Conductor*%
%TO.N,/EN*%
G36*
X120866658Y-74462490D02*
G01*
X120871164Y-74466157D01*
X120999455Y-74639643D01*
X121001619Y-74648333D01*
X120999455Y-74653557D01*
X120871164Y-74827042D01*
X120863490Y-74831656D01*
X120857710Y-74831063D01*
X120636253Y-74749421D01*
X120629676Y-74743344D01*
X120628600Y-74738443D01*
X120628600Y-74554756D01*
X120632027Y-74546483D01*
X120636250Y-74543779D01*
X120857710Y-74462136D01*
X120866658Y-74462490D01*
G37*
%TD.AperFunction*%
%TD*%
%TA.AperFunction,Conductor*%
%TO.N,Net-(D1-K)*%
G36*
X105078570Y-77584783D02*
G01*
X106584781Y-78531348D01*
X106589963Y-78538651D01*
X106589370Y-78545721D01*
X106223248Y-79431992D01*
X106216922Y-79438330D01*
X106215504Y-79438815D01*
X105228876Y-79707072D01*
X105219993Y-79705936D01*
X105215785Y-79701820D01*
X104368286Y-78294764D01*
X104366954Y-78285911D01*
X104370034Y-78280458D01*
X105064076Y-77586416D01*
X105072348Y-77582990D01*
X105078570Y-77584783D01*
G37*
%TD.AperFunction*%
%TD*%
%TA.AperFunction,Conductor*%
%TO.N,GND*%
G36*
X146198707Y-63153585D02*
G01*
X146206975Y-63157022D01*
X146210392Y-63165299D01*
X146210372Y-63165972D01*
X146111748Y-64842587D01*
X146107841Y-64850645D01*
X146100068Y-64853600D01*
X144622132Y-64853600D01*
X144613859Y-64850173D01*
X144610452Y-64842587D01*
X144511827Y-63165970D01*
X144514762Y-63157512D01*
X144522820Y-63153605D01*
X144523478Y-63153585D01*
X145361100Y-63152600D01*
X146198707Y-63153585D01*
G37*
%TD.AperFunction*%
%TD*%
%TA.AperFunction,Conductor*%
%TO.N,Net-(Q1-G)*%
G36*
X128109624Y-62225627D02*
G01*
X128112574Y-62230592D01*
X128233537Y-62640942D01*
X128232589Y-62649846D01*
X128230597Y-62652513D01*
X127818383Y-63065697D01*
X127810114Y-63069134D01*
X127801837Y-63065717D01*
X127801817Y-63065697D01*
X127389602Y-62652513D01*
X127386185Y-62644236D01*
X127386661Y-62640946D01*
X127507626Y-62230591D01*
X127513253Y-62223625D01*
X127518849Y-62222200D01*
X128101351Y-62222200D01*
X128109624Y-62225627D01*
G37*
%TD.AperFunction*%
%TD*%
%TA.AperFunction,Conductor*%
%TO.N,/3V3*%
G36*
X116884632Y-79706820D02*
G01*
X116886053Y-79708241D01*
X117352768Y-80262969D01*
X117355472Y-80271505D01*
X117353926Y-80276388D01*
X116980485Y-80917787D01*
X116973361Y-80923212D01*
X116970374Y-80923600D01*
X116783826Y-80923600D01*
X116775553Y-80920173D01*
X116773715Y-80917787D01*
X116400272Y-80276386D01*
X116399072Y-80267514D01*
X116401429Y-80262972D01*
X116868147Y-79708240D01*
X116876096Y-79704116D01*
X116884632Y-79706820D01*
G37*
%TD.AperFunction*%
%TD*%
%TA.AperFunction,Conductor*%
%TO.N,Net-(U3-\u002AFAULT)*%
G36*
X122577943Y-78729137D02*
G01*
X122708162Y-78859356D01*
X122711589Y-78867629D01*
X122710643Y-78872238D01*
X122294045Y-79844300D01*
X122287636Y-79850554D01*
X122278832Y-79850508D01*
X121793295Y-79650362D01*
X121786952Y-79644041D01*
X121786937Y-79644004D01*
X121586791Y-79158467D01*
X121586806Y-79149512D01*
X121592997Y-79143255D01*
X122565062Y-78726655D01*
X122574015Y-78726547D01*
X122577943Y-78729137D01*
G37*
%TD.AperFunction*%
%TD*%
%TA.AperFunction,Conductor*%
%TO.N,Net-(U2-BOOT)*%
G36*
X111260243Y-67151513D02*
G01*
X111263257Y-67153677D01*
X111400789Y-67290299D01*
X111404243Y-67298561D01*
X111400844Y-67306846D01*
X111400789Y-67306901D01*
X111263257Y-67443522D01*
X111254972Y-67446921D01*
X111251311Y-67446321D01*
X111116146Y-67401266D01*
X111109381Y-67395398D01*
X111108146Y-67390166D01*
X111108146Y-67207033D01*
X111111573Y-67198760D01*
X111116144Y-67195933D01*
X111251311Y-67150878D01*
X111260243Y-67151513D01*
G37*
%TD.AperFunction*%
%TD*%
%TA.AperFunction,Conductor*%
%TO.N,Net-(J2-Pin_1)*%
G36*
X124184671Y-57100267D02*
G01*
X124185611Y-57101111D01*
X125020643Y-57936143D01*
X125024070Y-57944416D01*
X125022406Y-57950431D01*
X124729948Y-58438408D01*
X124728185Y-58440666D01*
X124313751Y-58855100D01*
X124305478Y-58858527D01*
X124297205Y-58855100D01*
X124296704Y-58854567D01*
X123498675Y-57949991D01*
X123495772Y-57941520D01*
X123498331Y-57934919D01*
X124168224Y-57102049D01*
X124176077Y-57097752D01*
X124184671Y-57100267D01*
G37*
%TD.AperFunction*%
%TD*%
%TA.AperFunction,Conductor*%
%TO.N,/3V3*%
G36*
X111220834Y-77640027D02*
G01*
X111223353Y-77643781D01*
X111617210Y-78584443D01*
X111617244Y-78593398D01*
X111614430Y-78597489D01*
X110728358Y-79430071D01*
X110719982Y-79433238D01*
X110712334Y-79430071D01*
X109826261Y-78597489D01*
X109822579Y-78589326D01*
X109823481Y-78584443D01*
X110217339Y-77643781D01*
X110223695Y-77637474D01*
X110228131Y-77636600D01*
X111212561Y-77636600D01*
X111220834Y-77640027D01*
G37*
%TD.AperFunction*%
%TD*%
%TA.AperFunction,Conductor*%
%TO.N,/BurnWireIN*%
G36*
X145357187Y-69927262D02*
G01*
X145361094Y-69935320D01*
X145361114Y-69935993D01*
X145362100Y-70773600D01*
X145362100Y-70773628D01*
X145361114Y-71611206D01*
X145357677Y-71619475D01*
X145349400Y-71622892D01*
X145348727Y-71622872D01*
X143672113Y-71524247D01*
X143664055Y-71520340D01*
X143661100Y-71512567D01*
X143661100Y-70034632D01*
X143664527Y-70026359D01*
X143672112Y-70022952D01*
X145348729Y-69924327D01*
X145357187Y-69927262D01*
G37*
%TD.AperFunction*%
%TD*%
%TA.AperFunction,Conductor*%
%TO.N,/EN*%
G36*
X120447521Y-74544261D02*
G01*
X120454612Y-74549730D01*
X120456165Y-74555555D01*
X120456165Y-74738564D01*
X120452738Y-74746837D01*
X120448665Y-74749484D01*
X120066976Y-74896290D01*
X120058024Y-74896062D01*
X120051983Y-74889887D01*
X119961589Y-74673915D01*
X119961557Y-74664963D01*
X120052414Y-74447882D01*
X120058770Y-74441574D01*
X120066261Y-74441106D01*
X120447521Y-74544261D01*
G37*
%TD.AperFunction*%
%TD*%
%TA.AperFunction,Conductor*%
%TO.N,GND*%
G36*
X112007065Y-70727027D02*
G01*
X112010205Y-70732725D01*
X112051873Y-70917399D01*
X112051905Y-70922404D01*
X111919591Y-71545686D01*
X111914521Y-71553067D01*
X111905716Y-71554701D01*
X111898335Y-71549631D01*
X111896701Y-71545686D01*
X111871030Y-71424762D01*
X111764386Y-70922400D01*
X111764417Y-70917403D01*
X111806087Y-70732724D01*
X111811251Y-70725409D01*
X111817500Y-70723600D01*
X111998792Y-70723600D01*
X112007065Y-70727027D01*
G37*
%TD.AperFunction*%
%TD*%
%TA.AperFunction,Conductor*%
%TO.N,/BurnWireIN*%
G36*
X140248264Y-122771111D02*
G01*
X140248932Y-122771729D01*
X141292935Y-123815732D01*
X141296362Y-123824005D01*
X141292935Y-123832278D01*
X141288772Y-123834959D01*
X139576160Y-124477557D01*
X139567211Y-124477255D01*
X139561245Y-124471092D01*
X139240488Y-123699091D01*
X139239594Y-123694599D01*
X139240291Y-122857042D01*
X139243725Y-122848773D01*
X139251080Y-122845388D01*
X140239751Y-122768337D01*
X140248264Y-122771111D01*
G37*
%TD.AperFunction*%
%TD*%
%TA.AperFunction,Conductor*%
%TO.N,/3V3*%
G36*
X111149396Y-84943427D02*
G01*
X111152764Y-84950524D01*
X111232072Y-85735289D01*
X111229494Y-85743864D01*
X111229374Y-85744009D01*
X110671239Y-86405640D01*
X110663285Y-86409754D01*
X110654752Y-86407039D01*
X110653527Y-86405841D01*
X110090780Y-85768713D01*
X110087871Y-85760244D01*
X110087884Y-85760060D01*
X110089145Y-85743864D01*
X110150860Y-84950791D01*
X110154919Y-84942810D01*
X110162525Y-84940000D01*
X111141123Y-84940000D01*
X111149396Y-84943427D01*
G37*
%TD.AperFunction*%
%TD*%
%TA.AperFunction,Conductor*%
%TO.N,Net-(Q1-G)*%
G36*
X124650569Y-69743884D02*
G01*
X125137203Y-70241621D01*
X125140536Y-70249932D01*
X125137203Y-70257979D01*
X124650569Y-70755715D01*
X124642335Y-70759235D01*
X124636218Y-70757589D01*
X124124915Y-70453202D01*
X124119559Y-70446026D01*
X124119200Y-70443149D01*
X124119200Y-70056450D01*
X124122627Y-70048177D01*
X124124910Y-70046400D01*
X124636220Y-69742009D01*
X124645080Y-69740722D01*
X124650569Y-69743884D01*
G37*
%TD.AperFunction*%
%TD*%
%TA.AperFunction,Conductor*%
%TO.N,Net-(U2-VSENSE)*%
G36*
X112917957Y-71647568D02*
G01*
X112919591Y-71651513D01*
X113051905Y-72274795D01*
X113051873Y-72279800D01*
X113010205Y-72464475D01*
X113005041Y-72471791D01*
X112998792Y-72473600D01*
X112817500Y-72473600D01*
X112809227Y-72470173D01*
X112806087Y-72464475D01*
X112764417Y-72279796D01*
X112764386Y-72274799D01*
X112896701Y-71651512D01*
X112901771Y-71644132D01*
X112910576Y-71642498D01*
X112917957Y-71647568D01*
G37*
%TD.AperFunction*%
%TD*%
%TA.AperFunction,Conductor*%
%TO.N,Net-(J4-Pin_2)*%
G36*
X131384568Y-67168636D02*
G01*
X131389020Y-67176406D01*
X131389115Y-67177881D01*
X131390097Y-68012257D01*
X131389202Y-68016760D01*
X131069160Y-68787041D01*
X131062821Y-68793366D01*
X131053866Y-68793357D01*
X131052076Y-68792424D01*
X130512680Y-68449092D01*
X129770124Y-67976448D01*
X129764984Y-67969115D01*
X129764706Y-67966578D01*
X129764706Y-67383294D01*
X129768133Y-67375021D01*
X129774914Y-67371690D01*
X131375926Y-67166290D01*
X131384568Y-67168636D01*
G37*
%TD.AperFunction*%
%TD*%
%TA.AperFunction,Conductor*%
%TO.N,Net-(J2-Pin_1)*%
G36*
X127419475Y-58559993D02*
G01*
X127421019Y-58561092D01*
X127977458Y-59029247D01*
X127981583Y-59037196D01*
X127978879Y-59045732D01*
X127977458Y-59047153D01*
X127421265Y-59515100D01*
X127412729Y-59517804D01*
X127410373Y-59517354D01*
X126770440Y-59325500D01*
X126763499Y-59319842D01*
X126762100Y-59314293D01*
X126762100Y-58732105D01*
X126765527Y-58723832D01*
X126770924Y-58720764D01*
X127410614Y-58558703D01*
X127419475Y-58559993D01*
G37*
%TD.AperFunction*%
%TD*%
%TA.AperFunction,Conductor*%
%TO.N,/3V3*%
G36*
X111621282Y-78591045D02*
G01*
X112613519Y-79045473D01*
X112619613Y-79052032D01*
X112620346Y-79056109D01*
X112620346Y-80039510D01*
X112616919Y-80047783D01*
X112611538Y-80050847D01*
X111572621Y-80315885D01*
X111563758Y-80314609D01*
X111561293Y-80312655D01*
X111309678Y-80050847D01*
X110727504Y-79445089D01*
X110724243Y-79436751D01*
X110727834Y-79428547D01*
X111608360Y-78593194D01*
X111616720Y-78589987D01*
X111621282Y-78591045D01*
G37*
%TD.AperFunction*%
%TD*%
%TA.AperFunction,Conductor*%
%TO.N,/TriggerOUT*%
G36*
X114317314Y-54368583D02*
G01*
X114325582Y-54372020D01*
X114328999Y-54380297D01*
X114328841Y-54382200D01*
X114052725Y-56044893D01*
X114047989Y-56052493D01*
X114041183Y-56054676D01*
X113060137Y-56054676D01*
X113051864Y-56051249D01*
X113048817Y-56045932D01*
X113035639Y-55995463D01*
X112698374Y-54703732D01*
X112699599Y-54694863D01*
X112705202Y-54689975D01*
X113478943Y-54368496D01*
X113483438Y-54367602D01*
X114317314Y-54368583D01*
G37*
%TD.AperFunction*%
%TD*%
%TA.AperFunction,Conductor*%
%TO.N,Net-(U2-VSENSE)*%
G36*
X113010561Y-72911935D02*
G01*
X113250406Y-73028012D01*
X113845211Y-73315881D01*
X113851165Y-73322569D01*
X113850645Y-73331509D01*
X113850624Y-73331553D01*
X113614535Y-73814159D01*
X113607821Y-73820085D01*
X113602092Y-73820557D01*
X112894535Y-73702017D01*
X112886942Y-73697270D01*
X112884824Y-73691621D01*
X112847927Y-73315881D01*
X112809407Y-72923608D01*
X112812009Y-72915041D01*
X112819908Y-72910822D01*
X112821051Y-72910766D01*
X113005464Y-72910766D01*
X113010561Y-72911935D01*
G37*
%TD.AperFunction*%
%TD*%
%TA.AperFunction,Conductor*%
%TO.N,/TriggerOUT*%
G36*
X134026785Y-55783227D02*
G01*
X134030154Y-55790336D01*
X134077818Y-56266987D01*
X134075231Y-56275560D01*
X134067340Y-56279793D01*
X134066223Y-56279851D01*
X133829147Y-56280799D01*
X133829053Y-56280799D01*
X133591976Y-56279851D01*
X133583717Y-56276391D01*
X133580323Y-56268104D01*
X133580381Y-56266987D01*
X133628046Y-55790336D01*
X133632279Y-55782445D01*
X133639688Y-55779800D01*
X134018512Y-55779800D01*
X134026785Y-55783227D01*
G37*
%TD.AperFunction*%
%TD*%
%TA.AperFunction,Conductor*%
%TO.N,/12V*%
G36*
X109401832Y-63908020D02*
G01*
X109403253Y-63909441D01*
X109870625Y-64464951D01*
X109873329Y-64473487D01*
X109872423Y-64477099D01*
X109597342Y-65117716D01*
X109590929Y-65123966D01*
X109586591Y-65124800D01*
X109202009Y-65124800D01*
X109193736Y-65121373D01*
X109191258Y-65117716D01*
X108916176Y-64477099D01*
X108916061Y-64468145D01*
X108917974Y-64464951D01*
X109385347Y-63909441D01*
X109393296Y-63905316D01*
X109401832Y-63908020D01*
G37*
%TD.AperFunction*%
%TD*%
%TA.AperFunction,Conductor*%
%TO.N,/burn*%
G36*
X122924489Y-73162136D02*
G01*
X123145948Y-73243779D01*
X123152524Y-73249855D01*
X123153600Y-73254756D01*
X123153600Y-73438443D01*
X123150173Y-73446716D01*
X123145947Y-73449421D01*
X122924489Y-73531063D01*
X122915541Y-73530709D01*
X122911035Y-73527042D01*
X122853635Y-73449421D01*
X122782743Y-73353555D01*
X122780580Y-73344867D01*
X122782743Y-73339644D01*
X122911035Y-73166156D01*
X122918709Y-73161543D01*
X122924489Y-73162136D01*
G37*
%TD.AperFunction*%
%TD*%
%TA.AperFunction,Conductor*%
%TO.N,/DeployerDetectionSW2OUT*%
G36*
X142951832Y-68356204D02*
G01*
X143313184Y-68540734D01*
X143318993Y-68547548D01*
X143318688Y-68555591D01*
X143229664Y-68772776D01*
X143223355Y-68779131D01*
X143223276Y-68779164D01*
X143006091Y-68868188D01*
X142997136Y-68868155D01*
X142991234Y-68862684D01*
X142806704Y-68501333D01*
X142805994Y-68492408D01*
X142808850Y-68487742D01*
X142938241Y-68358351D01*
X142946513Y-68354925D01*
X142951832Y-68356204D01*
G37*
%TD.AperFunction*%
%TD*%
%TA.AperFunction,Conductor*%
%TO.N,/3V3*%
G36*
X110093907Y-86042496D02*
G01*
X110654220Y-86408931D01*
X110659268Y-86416327D01*
X110657937Y-86424592D01*
X110180043Y-87248694D01*
X110172929Y-87254132D01*
X110172691Y-87254193D01*
X109526969Y-87411475D01*
X109518120Y-87410103D01*
X109512832Y-87402876D01*
X109512500Y-87400107D01*
X109512500Y-86421322D01*
X109515927Y-86413049D01*
X109517783Y-86411538D01*
X110081095Y-86042501D01*
X110089892Y-86040835D01*
X110093907Y-86042496D01*
G37*
%TD.AperFunction*%
%TD*%
%TA.AperFunction,Conductor*%
%TO.N,Net-(U3-\u002AFAULT)*%
G36*
X119279301Y-79201441D02*
G01*
X119769708Y-79395672D01*
X119776138Y-79401905D01*
X119777100Y-79406550D01*
X119777100Y-79990649D01*
X119773673Y-79998922D01*
X119769708Y-80001527D01*
X119279304Y-80195757D01*
X119270351Y-80195617D01*
X119266690Y-80193119D01*
X119044568Y-79969218D01*
X118784273Y-79706839D01*
X118780880Y-79698553D01*
X118784273Y-79690360D01*
X119266690Y-79204079D01*
X119274949Y-79200620D01*
X119279301Y-79201441D01*
G37*
%TD.AperFunction*%
%TD*%
%TA.AperFunction,Conductor*%
%TO.N,Net-(U3-\u002AFAULT)*%
G36*
X121295204Y-79177993D02*
G01*
X121781775Y-79639524D01*
X121785419Y-79647704D01*
X121782212Y-79656065D01*
X121781988Y-79656294D01*
X121294432Y-80142877D01*
X121286155Y-80146296D01*
X121282821Y-80145807D01*
X120797854Y-80001092D01*
X120790907Y-79995443D01*
X120789500Y-79989881D01*
X120789500Y-79406150D01*
X120792927Y-79397877D01*
X120796378Y-79395490D01*
X121282334Y-79175820D01*
X121291283Y-79175536D01*
X121295204Y-79177993D01*
G37*
%TD.AperFunction*%
%TD*%
%TA.AperFunction,Conductor*%
%TO.N,GND*%
G36*
X118574741Y-53520929D02*
G01*
X120214770Y-53800938D01*
X120222348Y-53805708D01*
X120224500Y-53812471D01*
X120224500Y-55290294D01*
X120221073Y-55298567D01*
X120212800Y-55301994D01*
X120212210Y-55301979D01*
X118572196Y-55219160D01*
X118564106Y-55215320D01*
X118561086Y-55207491D01*
X118560100Y-54368600D01*
X118561083Y-53532447D01*
X118564520Y-53524180D01*
X118572797Y-53520763D01*
X118574741Y-53520929D01*
G37*
%TD.AperFunction*%
%TD*%
%TA.AperFunction,Conductor*%
%TO.N,GND*%
G36*
X146108341Y-63997027D02*
G01*
X146111748Y-64004613D01*
X146210372Y-65681227D01*
X146207437Y-65689687D01*
X146199379Y-65693594D01*
X146198706Y-65693614D01*
X145361114Y-65694599D01*
X145361086Y-65694599D01*
X144523493Y-65693614D01*
X144515224Y-65690177D01*
X144511807Y-65681900D01*
X144511826Y-65681255D01*
X144610452Y-64004612D01*
X144614359Y-63996555D01*
X144622132Y-63993600D01*
X146100068Y-63993600D01*
X146108341Y-63997027D01*
G37*
%TD.AperFunction*%
%TD*%
%TA.AperFunction,Conductor*%
%TO.N,Net-(U2-RT{slash}CLK)*%
G36*
X115474766Y-68371670D02*
G01*
X116059105Y-68456757D01*
X116066797Y-68461340D01*
X116068976Y-68466517D01*
X116180458Y-69175138D01*
X116178358Y-69183843D01*
X116173998Y-69187487D01*
X115690446Y-69421587D01*
X115681507Y-69422107D01*
X115675497Y-69417368D01*
X115624515Y-69337807D01*
X115191204Y-68661593D01*
X115189627Y-68652781D01*
X115192781Y-68647012D01*
X115464818Y-68374975D01*
X115473090Y-68371549D01*
X115474766Y-68371670D01*
G37*
%TD.AperFunction*%
%TD*%
%TA.AperFunction,Conductor*%
%TO.N,/3V3*%
G36*
X120866658Y-73162490D02*
G01*
X120871164Y-73166157D01*
X120999455Y-73339643D01*
X121001619Y-73348333D01*
X120999455Y-73353557D01*
X120871164Y-73527042D01*
X120863490Y-73531656D01*
X120857710Y-73531063D01*
X120636253Y-73449421D01*
X120629676Y-73443344D01*
X120628600Y-73438443D01*
X120628600Y-73254756D01*
X120632027Y-73246483D01*
X120636250Y-73243779D01*
X120857710Y-73162136D01*
X120866658Y-73162490D01*
G37*
%TD.AperFunction*%
%TD*%
%TA.AperFunction,Conductor*%
%TO.N,/3V3*%
G36*
X139343293Y-116919656D02*
G01*
X139343793Y-116920188D01*
X140083032Y-117757992D01*
X140085936Y-117766463D01*
X140082537Y-117774001D01*
X139248578Y-118608941D01*
X139240307Y-118612373D01*
X139232032Y-118608951D01*
X139232022Y-118608941D01*
X139039168Y-118415861D01*
X138398061Y-117773999D01*
X138394640Y-117765726D01*
X138397566Y-117757993D01*
X139136807Y-116920188D01*
X139144850Y-116916252D01*
X139145580Y-116916229D01*
X139335020Y-116916229D01*
X139343293Y-116919656D01*
G37*
%TD.AperFunction*%
%TD*%
%TA.AperFunction,Conductor*%
%TO.N,/DeployerDetectionSW1OUT*%
G36*
X141847637Y-124348030D02*
G01*
X141977025Y-124477418D01*
X141980452Y-124485691D01*
X141979172Y-124491012D01*
X141794644Y-124852361D01*
X141787829Y-124858171D01*
X141779787Y-124857866D01*
X141562600Y-124768841D01*
X141556246Y-124762533D01*
X141467189Y-124545266D01*
X141467222Y-124536314D01*
X141472691Y-124530413D01*
X141834044Y-124345882D01*
X141842969Y-124345172D01*
X141847637Y-124348030D01*
G37*
%TD.AperFunction*%
%TD*%
%TA.AperFunction,Conductor*%
%TO.N,/BurnWireIN*%
G36*
X139987541Y-124539656D02*
G01*
X139990948Y-124547242D01*
X140089572Y-126223856D01*
X140086637Y-126232316D01*
X140078579Y-126236223D01*
X140077906Y-126236243D01*
X139240314Y-126237228D01*
X139240286Y-126237228D01*
X138402693Y-126236243D01*
X138394424Y-126232806D01*
X138391007Y-126224529D01*
X138391026Y-126223884D01*
X138489652Y-124547241D01*
X138493559Y-124539184D01*
X138501332Y-124536229D01*
X139979268Y-124536229D01*
X139987541Y-124539656D01*
G37*
%TD.AperFunction*%
%TD*%
%TA.AperFunction,Conductor*%
%TO.N,Net-(U3-\u002AFAULT)*%
G36*
X122785871Y-74651370D02*
G01*
X122952582Y-74783663D01*
X122956932Y-74791489D01*
X122956428Y-74796469D01*
X122881239Y-75026042D01*
X122875407Y-75032837D01*
X122870120Y-75034100D01*
X122687080Y-75034100D01*
X122678807Y-75030673D01*
X122675961Y-75026042D01*
X122662689Y-74985521D01*
X122600771Y-74796467D01*
X122601453Y-74787540D01*
X122604613Y-74783665D01*
X122771327Y-74651370D01*
X122779938Y-74648913D01*
X122785871Y-74651370D01*
G37*
%TD.AperFunction*%
%TD*%
%TA.AperFunction,Conductor*%
%TO.N,Net-(D1-K)*%
G36*
X108106107Y-68181004D02*
G01*
X108109441Y-68187808D01*
X108169440Y-68661883D01*
X108167079Y-68670521D01*
X108159302Y-68674959D01*
X108157880Y-68675052D01*
X107921147Y-68675999D01*
X107921053Y-68675999D01*
X107683653Y-68675050D01*
X107675394Y-68671590D01*
X107672000Y-68663303D01*
X107672032Y-68662481D01*
X107707339Y-68188408D01*
X107711371Y-68180412D01*
X107719007Y-68177577D01*
X108097834Y-68177577D01*
X108106107Y-68181004D01*
G37*
%TD.AperFunction*%
%TD*%
%TA.AperFunction,Conductor*%
%TO.N,/DeployerDetectionSW2OUT*%
G36*
X140492164Y-64211880D02*
G01*
X140694705Y-64414826D01*
X140976509Y-64697195D01*
X140979928Y-64705472D01*
X140977364Y-64712769D01*
X140587413Y-65200209D01*
X140579569Y-65204528D01*
X140578277Y-65204600D01*
X140389523Y-65204600D01*
X140381250Y-65201173D01*
X140380387Y-65200209D01*
X139990435Y-64712769D01*
X139987943Y-64704168D01*
X139991290Y-64697195D01*
X140475619Y-64211896D01*
X140483888Y-64208462D01*
X140492164Y-64211880D01*
G37*
%TD.AperFunction*%
%TD*%
%TA.AperFunction,Conductor*%
%TO.N,/3V3*%
G36*
X105722881Y-86457170D02*
G01*
X106207966Y-86612397D01*
X106214801Y-86618182D01*
X106216100Y-86623540D01*
X106216100Y-87207370D01*
X106212673Y-87215643D01*
X106209119Y-87218076D01*
X105723265Y-87432219D01*
X105714312Y-87432420D01*
X105710448Y-87429958D01*
X105223732Y-86963277D01*
X105220133Y-86955078D01*
X105223385Y-86946734D01*
X105223516Y-86946599D01*
X105711057Y-86460032D01*
X105719333Y-86456614D01*
X105722881Y-86457170D01*
G37*
%TD.AperFunction*%
%TD*%
%TA.AperFunction,Conductor*%
%TO.N,Net-(U2-EN)*%
G36*
X112507065Y-66427027D02*
G01*
X112510205Y-66432725D01*
X112551873Y-66617399D01*
X112551905Y-66622404D01*
X112419591Y-67245686D01*
X112414521Y-67253067D01*
X112405716Y-67254701D01*
X112398335Y-67249631D01*
X112396701Y-67245686D01*
X112371030Y-67124762D01*
X112264386Y-66622400D01*
X112264417Y-66617403D01*
X112306087Y-66432724D01*
X112311251Y-66425409D01*
X112317500Y-66423600D01*
X112498792Y-66423600D01*
X112507065Y-66427027D01*
G37*
%TD.AperFunction*%
%TD*%
%TA.AperFunction,Conductor*%
%TO.N,Net-(U2-EN)*%
G36*
X114485445Y-64320476D02*
G01*
X115126062Y-64595558D01*
X115132312Y-64601971D01*
X115133146Y-64606309D01*
X115133146Y-64990890D01*
X115129719Y-64999163D01*
X115126062Y-65001641D01*
X114485445Y-65276723D01*
X114476491Y-65276838D01*
X114473297Y-65274925D01*
X113917787Y-64807553D01*
X113913662Y-64799604D01*
X113916366Y-64791068D01*
X113917787Y-64789647D01*
X114148478Y-64595558D01*
X114473297Y-64322273D01*
X114481833Y-64319570D01*
X114485445Y-64320476D01*
G37*
%TD.AperFunction*%
%TD*%
%TA.AperFunction,Conductor*%
%TO.N,Net-(D1-K)*%
G36*
X105269267Y-72349482D02*
G01*
X105630601Y-72414784D01*
X105636792Y-72418023D01*
X106334789Y-73116020D01*
X106338216Y-73124293D01*
X106336493Y-73130405D01*
X105563303Y-74392450D01*
X105556059Y-74397714D01*
X105549618Y-74397435D01*
X104668363Y-74102957D01*
X104661602Y-74097085D01*
X104660918Y-74088326D01*
X105211883Y-72349480D01*
X105217647Y-72342630D01*
X105225116Y-72341503D01*
X105269267Y-72349482D01*
G37*
%TD.AperFunction*%
%TD*%
%TA.AperFunction,Conductor*%
%TO.N,/BurnWireIN*%
G36*
X140077907Y-123696214D02*
G01*
X140086175Y-123699651D01*
X140089592Y-123707928D01*
X140089572Y-123708601D01*
X139990948Y-125385216D01*
X139987041Y-125393274D01*
X139979268Y-125396229D01*
X138501332Y-125396229D01*
X138493059Y-125392802D01*
X138489652Y-125385216D01*
X138391027Y-123708599D01*
X138393962Y-123700141D01*
X138402020Y-123696234D01*
X138402678Y-123696214D01*
X139240300Y-123695229D01*
X140077907Y-123696214D01*
G37*
%TD.AperFunction*%
%TD*%
%TA.AperFunction,Conductor*%
%TO.N,Net-(U2-EN)*%
G36*
X113909162Y-64801313D02*
G01*
X113911921Y-64805336D01*
X114111224Y-65288826D01*
X114111209Y-65297781D01*
X114105937Y-65303596D01*
X113207819Y-65785318D01*
X113198909Y-65786208D01*
X113194016Y-65783280D01*
X112922699Y-65511963D01*
X112919272Y-65503690D01*
X112920053Y-65499488D01*
X113180339Y-64823779D01*
X113186509Y-64817294D01*
X113190950Y-64816292D01*
X113900804Y-64798099D01*
X113909162Y-64801313D01*
G37*
%TD.AperFunction*%
%TD*%
%TA.AperFunction,Conductor*%
%TO.N,Net-(Q1-G)*%
G36*
X127994414Y-60945942D02*
G01*
X128400955Y-61431850D01*
X128403636Y-61440394D01*
X128402049Y-61445321D01*
X128113498Y-61932463D01*
X128106333Y-61937834D01*
X128103431Y-61938200D01*
X127519566Y-61938200D01*
X127511293Y-61934773D01*
X127508124Y-61928942D01*
X127397991Y-61412932D01*
X127399615Y-61404128D01*
X127402157Y-61401330D01*
X127978171Y-60944284D01*
X127986780Y-60941827D01*
X127994414Y-60945942D01*
G37*
%TD.AperFunction*%
%TD*%
%TA.AperFunction,Conductor*%
%TO.N,Net-(D1-K)*%
G36*
X107199252Y-71172238D02*
G01*
X107975898Y-71269319D01*
X107983681Y-71273745D01*
X107986146Y-71280928D01*
X107986146Y-71860271D01*
X107982719Y-71868544D01*
X107975897Y-71871881D01*
X107199263Y-71968960D01*
X107190629Y-71966585D01*
X107186202Y-71958801D01*
X107186112Y-71957394D01*
X107185146Y-71570600D01*
X107186112Y-71183817D01*
X107189560Y-71175555D01*
X107197841Y-71172149D01*
X107199252Y-71172238D01*
G37*
%TD.AperFunction*%
%TD*%
%TA.AperFunction,Conductor*%
%TO.N,Net-(D1-K)*%
G36*
X107915678Y-67306820D02*
G01*
X107917099Y-67308241D01*
X108384471Y-67863751D01*
X108387175Y-67872287D01*
X108386269Y-67875899D01*
X108111188Y-68516516D01*
X108104775Y-68522766D01*
X108100437Y-68523600D01*
X107715855Y-68523600D01*
X107707582Y-68520173D01*
X107705104Y-68516516D01*
X107430022Y-67875899D01*
X107429907Y-67866945D01*
X107431820Y-67863751D01*
X107899193Y-67308241D01*
X107907142Y-67304116D01*
X107915678Y-67306820D01*
G37*
%TD.AperFunction*%
%TD*%
%TA.AperFunction,Conductor*%
%TO.N,Net-(U2-VSENSE)*%
G36*
X112036577Y-73364820D02*
G01*
X112643896Y-73604478D01*
X112650332Y-73610701D01*
X112651300Y-73615360D01*
X112651300Y-74197338D01*
X112647873Y-74205611D01*
X112641352Y-74208906D01*
X111907324Y-74320087D01*
X111898631Y-74317938D01*
X111897098Y-74316586D01*
X111434328Y-73830483D01*
X111431106Y-73822128D01*
X111434735Y-73813942D01*
X111435729Y-73813096D01*
X112025220Y-73366378D01*
X112033881Y-73364114D01*
X112036577Y-73364820D01*
G37*
%TD.AperFunction*%
%TD*%
%TA.AperFunction,Conductor*%
%TO.N,/3V3*%
G36*
X110728107Y-79443359D02*
G01*
X111582141Y-80297122D01*
X111585569Y-80305394D01*
X111584469Y-80310349D01*
X111154852Y-81229853D01*
X111148245Y-81235897D01*
X111144252Y-81236600D01*
X110159844Y-81236600D01*
X110151571Y-81233173D01*
X110148872Y-81228963D01*
X109806840Y-80305394D01*
X109791224Y-80263225D01*
X109791565Y-80254280D01*
X109794465Y-80250384D01*
X110712108Y-79442849D01*
X110720580Y-79439957D01*
X110728107Y-79443359D01*
G37*
%TD.AperFunction*%
%TD*%
%TA.AperFunction,Conductor*%
%TO.N,Net-(U2-EN)*%
G36*
X115842994Y-64322274D02*
G01*
X116398504Y-64789647D01*
X116402629Y-64797596D01*
X116399925Y-64806132D01*
X116398504Y-64807553D01*
X115842994Y-65274925D01*
X115834458Y-65277629D01*
X115830846Y-65276723D01*
X115190230Y-65001641D01*
X115183980Y-64995228D01*
X115183146Y-64990890D01*
X115183146Y-64606309D01*
X115186573Y-64598036D01*
X115190230Y-64595558D01*
X115830847Y-64320475D01*
X115839800Y-64320361D01*
X115842994Y-64322274D01*
G37*
%TD.AperFunction*%
%TD*%
%TA.AperFunction,Conductor*%
%TO.N,/burn*%
G36*
X130540847Y-69707586D02*
G01*
X130544613Y-69710106D01*
X130886524Y-70051616D01*
X131381812Y-70546322D01*
X131385244Y-70554593D01*
X131381822Y-70562868D01*
X131381812Y-70562878D01*
X130544615Y-71399091D01*
X130536340Y-71402513D01*
X130531892Y-71401632D01*
X129696345Y-71057583D01*
X129690000Y-71051264D01*
X129689100Y-71046764D01*
X129689100Y-70062435D01*
X129692527Y-70054162D01*
X129696342Y-70051617D01*
X130531894Y-69707567D01*
X130540847Y-69707586D01*
G37*
%TD.AperFunction*%
%TD*%
%TA.AperFunction,Conductor*%
%TO.N,Net-(D1-K)*%
G36*
X104663140Y-74114432D02*
G01*
X104668727Y-74120019D01*
X105505941Y-75893927D01*
X105506373Y-75902872D01*
X105506179Y-75903376D01*
X105161129Y-76741355D01*
X105154810Y-76747700D01*
X105150310Y-76748600D01*
X104165982Y-76748600D01*
X104157709Y-76745173D01*
X104155163Y-76741355D01*
X104056577Y-76501932D01*
X103810112Y-75903374D01*
X103810131Y-75894421D01*
X103810327Y-75893978D01*
X104647565Y-74120018D01*
X104654195Y-74114000D01*
X104663140Y-74114432D01*
G37*
%TD.AperFunction*%
%TD*%
%TA.AperFunction,Conductor*%
%TO.N,Net-(U2-SS{slash}TR)*%
G36*
X112929035Y-66396674D02*
G01*
X112932162Y-66398909D01*
X113058553Y-66525300D01*
X113061980Y-66533573D01*
X113061980Y-66533632D01*
X113061646Y-66600260D01*
X113061421Y-66602483D01*
X113057646Y-66621466D01*
X113057646Y-67287937D01*
X113054219Y-67296210D01*
X113045946Y-67299637D01*
X113045918Y-67299637D01*
X112917915Y-67299331D01*
X112909650Y-67295884D01*
X112906311Y-67288891D01*
X112906208Y-67287937D01*
X112829314Y-66577798D01*
X112830437Y-66571396D01*
X112913383Y-66402034D01*
X112920098Y-66396113D01*
X112929035Y-66396674D01*
G37*
%TD.AperFunction*%
%TD*%
%TA.AperFunction,Conductor*%
%TO.N,/BurnWireIN*%
G36*
X122647990Y-64495551D02*
G01*
X122917289Y-64611943D01*
X123514242Y-64869949D01*
X123520476Y-64876377D01*
X123521300Y-64880689D01*
X123521300Y-65865310D01*
X123517873Y-65873583D01*
X123514242Y-65876050D01*
X122647990Y-66250448D01*
X122639036Y-66250584D01*
X122635080Y-66247986D01*
X121767387Y-65381278D01*
X121763955Y-65373007D01*
X121767377Y-65364732D01*
X121767387Y-65364722D01*
X122251970Y-64880689D01*
X122635081Y-64498012D01*
X122643355Y-64494591D01*
X122647990Y-64495551D01*
G37*
%TD.AperFunction*%
%TD*%
%TA.AperFunction,Conductor*%
%TO.N,GND*%
G36*
X118565584Y-54369463D02*
G01*
X119337465Y-54690169D01*
X119343790Y-54696508D01*
X119344432Y-54703351D01*
X119063035Y-56059277D01*
X119057998Y-56066682D01*
X119051579Y-56068600D01*
X118070621Y-56068600D01*
X118062348Y-56065173D01*
X118059165Y-56059277D01*
X117777767Y-54703351D01*
X117779441Y-54694555D01*
X117784731Y-54690170D01*
X118556611Y-54369464D01*
X118565566Y-54369456D01*
X118565584Y-54369463D01*
G37*
%TD.AperFunction*%
%TD*%
%TA.AperFunction,Conductor*%
%TO.N,/3V3*%
G36*
X107594778Y-86436770D02*
G01*
X107596542Y-86437996D01*
X108152858Y-86906047D01*
X108156983Y-86913996D01*
X108154279Y-86922532D01*
X108152858Y-86923953D01*
X107596542Y-87392003D01*
X107588006Y-87394707D01*
X107585891Y-87394327D01*
X106946081Y-87217373D01*
X106939021Y-87211864D01*
X106937500Y-87206096D01*
X106937500Y-86623903D01*
X106940927Y-86615630D01*
X106946078Y-86612627D01*
X107585891Y-86435672D01*
X107594778Y-86436770D01*
G37*
%TD.AperFunction*%
%TD*%
%TA.AperFunction,Conductor*%
%TO.N,/12V*%
G36*
X111900675Y-66398909D02*
G01*
X111902910Y-66402036D01*
X111985853Y-66571394D01*
X111986977Y-66577800D01*
X111909980Y-67288891D01*
X111905682Y-67296747D01*
X111898376Y-67299331D01*
X111770373Y-67299637D01*
X111762092Y-67296230D01*
X111758645Y-67287965D01*
X111758645Y-66621468D01*
X111757089Y-66613647D01*
X111754868Y-66602479D01*
X111754645Y-66600271D01*
X111754311Y-66533629D01*
X111757696Y-66525342D01*
X111884130Y-66398908D01*
X111892402Y-66395482D01*
X111900675Y-66398909D01*
G37*
%TD.AperFunction*%
%TD*%
%TA.AperFunction,Conductor*%
%TO.N,/3V3*%
G36*
X119345520Y-73346427D02*
G01*
X119353697Y-73350079D01*
X119356900Y-73358123D01*
X119356900Y-73939588D01*
X119353473Y-73947861D01*
X119350537Y-73950000D01*
X118802116Y-74231133D01*
X118793191Y-74231857D01*
X118790664Y-74230696D01*
X118143235Y-73833762D01*
X118137973Y-73826516D01*
X118139375Y-73817672D01*
X118140871Y-73815725D01*
X118603310Y-73329970D01*
X118611495Y-73326342D01*
X118612085Y-73326342D01*
X119345520Y-73346427D01*
G37*
%TD.AperFunction*%
%TD*%
%TA.AperFunction,Conductor*%
%TO.N,GND*%
G36*
X130517462Y-75354027D02*
G01*
X130520730Y-75360377D01*
X130667807Y-76242846D01*
X130665787Y-76251569D01*
X130662409Y-76254727D01*
X130025243Y-76647810D01*
X130016403Y-76649237D01*
X130012957Y-76647810D01*
X129375790Y-76254727D01*
X129370548Y-76247466D01*
X129370392Y-76242846D01*
X129517470Y-75360377D01*
X129522211Y-75352779D01*
X129529011Y-75350600D01*
X130509189Y-75350600D01*
X130517462Y-75354027D01*
G37*
%TD.AperFunction*%
%TD*%
%TA.AperFunction,Conductor*%
%TO.N,GND*%
G36*
X139987541Y-129619656D02*
G01*
X139990948Y-129627242D01*
X140089572Y-131303856D01*
X140086637Y-131312316D01*
X140078579Y-131316223D01*
X140077906Y-131316243D01*
X139240314Y-131317228D01*
X139240286Y-131317228D01*
X138402693Y-131316243D01*
X138394424Y-131312806D01*
X138391007Y-131304529D01*
X138391026Y-131303884D01*
X138489652Y-129627241D01*
X138493559Y-129619184D01*
X138501332Y-129616229D01*
X139979268Y-129616229D01*
X139987541Y-129619656D01*
G37*
%TD.AperFunction*%
%TD*%
%TA.AperFunction,Conductor*%
%TO.N,GND*%
G36*
X140077907Y-128776214D02*
G01*
X140086175Y-128779651D01*
X140089592Y-128787928D01*
X140089572Y-128788601D01*
X139990948Y-130465216D01*
X139987041Y-130473274D01*
X139979268Y-130476229D01*
X138501332Y-130476229D01*
X138493059Y-130472802D01*
X138489652Y-130465216D01*
X138391027Y-128788599D01*
X138393962Y-128780141D01*
X138402020Y-128776234D01*
X138402678Y-128776214D01*
X139240300Y-128775229D01*
X140077907Y-128776214D01*
G37*
%TD.AperFunction*%
%TD*%
%TA.AperFunction,Conductor*%
%TO.N,GND*%
G36*
X113620245Y-86422904D02*
G01*
X113621269Y-86423928D01*
X114184160Y-87061218D01*
X114187069Y-87069687D01*
X114187043Y-87070022D01*
X114113467Y-87879359D01*
X114109305Y-87887288D01*
X114101815Y-87890000D01*
X113123185Y-87890000D01*
X113114912Y-87886573D01*
X113111533Y-87879359D01*
X113082102Y-87555624D01*
X113037956Y-87070020D01*
X113040620Y-87061473D01*
X113040787Y-87061278D01*
X113603731Y-86423927D01*
X113611776Y-86419995D01*
X113620245Y-86422904D01*
G37*
%TD.AperFunction*%
%TD*%
%TA.AperFunction,Conductor*%
%TO.N,/TriggerOUT*%
G36*
X114567546Y-53063769D02*
G01*
X114570936Y-53066129D01*
X114842860Y-53338053D01*
X114846287Y-53346326D01*
X114845331Y-53350958D01*
X114270958Y-54683301D01*
X114264536Y-54689541D01*
X114255748Y-54689483D01*
X113484885Y-54371162D01*
X113478547Y-54364838D01*
X113160451Y-53594519D01*
X113160460Y-53585566D01*
X113166799Y-53579241D01*
X113167172Y-53579094D01*
X114558599Y-53063431D01*
X114567546Y-53063769D01*
G37*
%TD.AperFunction*%
%TD*%
%TA.AperFunction,Conductor*%
%TO.N,Net-(U2-SS{slash}TR)*%
G36*
X115307810Y-66087208D02*
G01*
X115847020Y-66145817D01*
X116079011Y-66171033D01*
X116086866Y-66175333D01*
X116089304Y-66180837D01*
X116201144Y-66888426D01*
X116199050Y-66897133D01*
X116194687Y-66900783D01*
X115712099Y-67134512D01*
X115703159Y-67135034D01*
X115696469Y-67129082D01*
X115696436Y-67129013D01*
X115295985Y-66288187D01*
X115294848Y-66283156D01*
X115294848Y-66098840D01*
X115298275Y-66090567D01*
X115306548Y-66087140D01*
X115307810Y-66087208D01*
G37*
%TD.AperFunction*%
%TD*%
%TA.AperFunction,Conductor*%
%TO.N,Net-(U3-ILIM)*%
G36*
X124621077Y-76154027D02*
G01*
X124622568Y-76155854D01*
X125145546Y-76948076D01*
X125147244Y-76956869D01*
X125145163Y-76961513D01*
X124528481Y-77789012D01*
X124520790Y-77793598D01*
X124512109Y-77791402D01*
X124509719Y-77789012D01*
X124477478Y-77745750D01*
X123893035Y-76961511D01*
X123890840Y-76952832D01*
X123892651Y-76948079D01*
X124415632Y-76155854D01*
X124423049Y-76150838D01*
X124425396Y-76150600D01*
X124612804Y-76150600D01*
X124621077Y-76154027D01*
G37*
%TD.AperFunction*%
%TD*%
%TA.AperFunction,Conductor*%
%TO.N,Net-(J4-Pin_2)*%
G36*
X129107708Y-67370526D02*
G01*
X129114675Y-67376153D01*
X129116100Y-67381749D01*
X129116100Y-67964250D01*
X129112673Y-67972523D01*
X129107708Y-67975473D01*
X128695027Y-68097124D01*
X128686634Y-68096438D01*
X128412687Y-67964250D01*
X127830935Y-67683536D01*
X127824975Y-67676856D01*
X127825484Y-67667915D01*
X127830935Y-67662463D01*
X128686636Y-67249560D01*
X128695025Y-67248875D01*
X129107708Y-67370526D01*
G37*
%TD.AperFunction*%
%TD*%
%TA.AperFunction,Conductor*%
%TO.N,Net-(U2-BOOT)*%
G36*
X110311372Y-66805095D02*
G01*
X110803711Y-67195087D01*
X110808068Y-67202909D01*
X110808146Y-67204257D01*
X110808146Y-67392942D01*
X110804719Y-67401215D01*
X110803711Y-67402113D01*
X110311375Y-67792103D01*
X110302762Y-67794554D01*
X110295804Y-67791172D01*
X109909836Y-67402113D01*
X109815319Y-67306839D01*
X109811926Y-67298553D01*
X109815319Y-67290360D01*
X110295805Y-66806026D01*
X110304063Y-66802567D01*
X110311372Y-66805095D01*
G37*
%TD.AperFunction*%
%TD*%
%TA.AperFunction,Conductor*%
%TO.N,GND*%
G36*
X124173187Y-53706262D02*
G01*
X124177094Y-53714320D01*
X124177114Y-53714993D01*
X124178100Y-54552600D01*
X124178100Y-54552628D01*
X124177114Y-55390206D01*
X124173677Y-55398475D01*
X124165400Y-55401892D01*
X124164727Y-55401872D01*
X122488113Y-55303247D01*
X122480055Y-55299340D01*
X122477100Y-55291567D01*
X122477100Y-53813632D01*
X122480527Y-53805359D01*
X122488112Y-53801952D01*
X124164729Y-53703327D01*
X124173187Y-53706262D01*
G37*
%TD.AperFunction*%
%TD*%
%TA.AperFunction,Conductor*%
%TO.N,GND*%
G36*
X114110088Y-84943427D02*
G01*
X114113467Y-84950641D01*
X114187043Y-85759977D01*
X114184379Y-85768526D01*
X114184160Y-85768781D01*
X113621269Y-86406071D01*
X113613224Y-86410004D01*
X113604755Y-86407095D01*
X113603731Y-86406071D01*
X113271493Y-86029921D01*
X113040838Y-85768779D01*
X113037930Y-85760312D01*
X113037952Y-85760024D01*
X113111533Y-84950641D01*
X113115695Y-84942712D01*
X113123185Y-84940000D01*
X114101815Y-84940000D01*
X114110088Y-84943427D01*
G37*
%TD.AperFunction*%
%TD*%
%TA.AperFunction,Conductor*%
%TO.N,Net-(Q1-G)*%
G36*
X127514778Y-60441265D02*
G01*
X127516291Y-60442602D01*
X127978051Y-60927644D01*
X127981273Y-60935999D01*
X127977644Y-60944185D01*
X127975622Y-60945729D01*
X127326192Y-61337604D01*
X127317338Y-61338944D01*
X127313425Y-61337163D01*
X126767078Y-60953693D01*
X126762275Y-60946135D01*
X126762100Y-60944116D01*
X126762100Y-60560282D01*
X126765527Y-60552009D01*
X126772069Y-60548711D01*
X127506090Y-60439097D01*
X127514778Y-60441265D01*
G37*
%TD.AperFunction*%
%TD*%
M02*
