%TF.GenerationSoftware,KiCad,Pcbnew,8.0.8+dfsg-1*%
%TF.CreationDate,2025-07-13T00:35:59+05:30*%
%TF.ProjectId,sanket,73616e6b-6574-42e6-9b69-6361645f7063,4.1*%
%TF.SameCoordinates,Original*%
%TF.FileFunction,Legend,Top*%
%TF.FilePolarity,Positive*%
%FSLAX46Y46*%
G04 Gerber Fmt 4.6, Leading zero omitted, Abs format (unit mm)*
G04 Created by KiCad (PCBNEW 8.0.8+dfsg-1) date 2025-07-13 00:35:59*
%MOMM*%
%LPD*%
G01*
G04 APERTURE LIST*
%ADD10C,0.359004*%
%ADD11C,0.100000*%
%ADD12C,0.150000*%
%ADD13C,0.120000*%
G04 APERTURE END LIST*
D10*
X132129002Y-60750200D02*
G75*
G02*
X131769998Y-60750200I-179502J0D01*
G01*
X131769998Y-60750200D02*
G75*
G02*
X132129002Y-60750200I179502J0D01*
G01*
D11*
X153598927Y-106411019D02*
X154170355Y-106411019D01*
X153884641Y-107411019D02*
X153884641Y-106411019D01*
X154884641Y-107363400D02*
X154789403Y-107411019D01*
X154789403Y-107411019D02*
X154598927Y-107411019D01*
X154598927Y-107411019D02*
X154503689Y-107363400D01*
X154503689Y-107363400D02*
X154456070Y-107268161D01*
X154456070Y-107268161D02*
X154456070Y-106887209D01*
X154456070Y-106887209D02*
X154503689Y-106791971D01*
X154503689Y-106791971D02*
X154598927Y-106744352D01*
X154598927Y-106744352D02*
X154789403Y-106744352D01*
X154789403Y-106744352D02*
X154884641Y-106791971D01*
X154884641Y-106791971D02*
X154932260Y-106887209D01*
X154932260Y-106887209D02*
X154932260Y-106982447D01*
X154932260Y-106982447D02*
X154456070Y-107077685D01*
X155313213Y-107363400D02*
X155408451Y-107411019D01*
X155408451Y-107411019D02*
X155598927Y-107411019D01*
X155598927Y-107411019D02*
X155694165Y-107363400D01*
X155694165Y-107363400D02*
X155741784Y-107268161D01*
X155741784Y-107268161D02*
X155741784Y-107220542D01*
X155741784Y-107220542D02*
X155694165Y-107125304D01*
X155694165Y-107125304D02*
X155598927Y-107077685D01*
X155598927Y-107077685D02*
X155456070Y-107077685D01*
X155456070Y-107077685D02*
X155360832Y-107030066D01*
X155360832Y-107030066D02*
X155313213Y-106934828D01*
X155313213Y-106934828D02*
X155313213Y-106887209D01*
X155313213Y-106887209D02*
X155360832Y-106791971D01*
X155360832Y-106791971D02*
X155456070Y-106744352D01*
X155456070Y-106744352D02*
X155598927Y-106744352D01*
X155598927Y-106744352D02*
X155694165Y-106791971D01*
X156027499Y-106744352D02*
X156408451Y-106744352D01*
X156170356Y-106411019D02*
X156170356Y-107268161D01*
X156170356Y-107268161D02*
X156217975Y-107363400D01*
X156217975Y-107363400D02*
X156313213Y-107411019D01*
X156313213Y-107411019D02*
X156408451Y-107411019D01*
X156741785Y-106744352D02*
X156741785Y-107744352D01*
X156741785Y-106791971D02*
X156837023Y-106744352D01*
X156837023Y-106744352D02*
X157027499Y-106744352D01*
X157027499Y-106744352D02*
X157122737Y-106791971D01*
X157122737Y-106791971D02*
X157170356Y-106839590D01*
X157170356Y-106839590D02*
X157217975Y-106934828D01*
X157217975Y-106934828D02*
X157217975Y-107220542D01*
X157217975Y-107220542D02*
X157170356Y-107315780D01*
X157170356Y-107315780D02*
X157122737Y-107363400D01*
X157122737Y-107363400D02*
X157027499Y-107411019D01*
X157027499Y-107411019D02*
X156837023Y-107411019D01*
X156837023Y-107411019D02*
X156741785Y-107363400D01*
X157789404Y-107411019D02*
X157694166Y-107363400D01*
X157694166Y-107363400D02*
X157646547Y-107315780D01*
X157646547Y-107315780D02*
X157598928Y-107220542D01*
X157598928Y-107220542D02*
X157598928Y-106934828D01*
X157598928Y-106934828D02*
X157646547Y-106839590D01*
X157646547Y-106839590D02*
X157694166Y-106791971D01*
X157694166Y-106791971D02*
X157789404Y-106744352D01*
X157789404Y-106744352D02*
X157932261Y-106744352D01*
X157932261Y-106744352D02*
X158027499Y-106791971D01*
X158027499Y-106791971D02*
X158075118Y-106839590D01*
X158075118Y-106839590D02*
X158122737Y-106934828D01*
X158122737Y-106934828D02*
X158122737Y-107220542D01*
X158122737Y-107220542D02*
X158075118Y-107315780D01*
X158075118Y-107315780D02*
X158027499Y-107363400D01*
X158027499Y-107363400D02*
X157932261Y-107411019D01*
X157932261Y-107411019D02*
X157789404Y-107411019D01*
X158551309Y-107411019D02*
X158551309Y-106744352D01*
X158551309Y-106411019D02*
X158503690Y-106458638D01*
X158503690Y-106458638D02*
X158551309Y-106506257D01*
X158551309Y-106506257D02*
X158598928Y-106458638D01*
X158598928Y-106458638D02*
X158551309Y-106411019D01*
X158551309Y-106411019D02*
X158551309Y-106506257D01*
X159027499Y-106744352D02*
X159027499Y-107411019D01*
X159027499Y-106839590D02*
X159075118Y-106791971D01*
X159075118Y-106791971D02*
X159170356Y-106744352D01*
X159170356Y-106744352D02*
X159313213Y-106744352D01*
X159313213Y-106744352D02*
X159408451Y-106791971D01*
X159408451Y-106791971D02*
X159456070Y-106887209D01*
X159456070Y-106887209D02*
X159456070Y-107411019D01*
X159789404Y-106744352D02*
X160170356Y-106744352D01*
X159932261Y-106411019D02*
X159932261Y-107268161D01*
X159932261Y-107268161D02*
X159979880Y-107363400D01*
X159979880Y-107363400D02*
X160075118Y-107411019D01*
X160075118Y-107411019D02*
X160170356Y-107411019D01*
X160456071Y-107363400D02*
X160551309Y-107411019D01*
X160551309Y-107411019D02*
X160741785Y-107411019D01*
X160741785Y-107411019D02*
X160837023Y-107363400D01*
X160837023Y-107363400D02*
X160884642Y-107268161D01*
X160884642Y-107268161D02*
X160884642Y-107220542D01*
X160884642Y-107220542D02*
X160837023Y-107125304D01*
X160837023Y-107125304D02*
X160741785Y-107077685D01*
X160741785Y-107077685D02*
X160598928Y-107077685D01*
X160598928Y-107077685D02*
X160503690Y-107030066D01*
X160503690Y-107030066D02*
X160456071Y-106934828D01*
X160456071Y-106934828D02*
X160456071Y-106887209D01*
X160456071Y-106887209D02*
X160503690Y-106791971D01*
X160503690Y-106791971D02*
X160598928Y-106744352D01*
X160598928Y-106744352D02*
X160741785Y-106744352D01*
X160741785Y-106744352D02*
X160837023Y-106791971D01*
X161313214Y-107315780D02*
X161360833Y-107363400D01*
X161360833Y-107363400D02*
X161313214Y-107411019D01*
X161313214Y-107411019D02*
X161265595Y-107363400D01*
X161265595Y-107363400D02*
X161313214Y-107315780D01*
X161313214Y-107315780D02*
X161313214Y-107411019D01*
X161313214Y-106791971D02*
X161360833Y-106839590D01*
X161360833Y-106839590D02*
X161313214Y-106887209D01*
X161313214Y-106887209D02*
X161265595Y-106839590D01*
X161265595Y-106839590D02*
X161313214Y-106791971D01*
X161313214Y-106791971D02*
X161313214Y-106887209D01*
X153598927Y-108020963D02*
X154170355Y-108020963D01*
X153884641Y-109020963D02*
X153884641Y-108020963D01*
X154503689Y-109020963D02*
X154503689Y-108020963D01*
X154503689Y-108020963D02*
X154884641Y-108020963D01*
X154884641Y-108020963D02*
X154979879Y-108068582D01*
X154979879Y-108068582D02*
X155027498Y-108116201D01*
X155027498Y-108116201D02*
X155075117Y-108211439D01*
X155075117Y-108211439D02*
X155075117Y-108354296D01*
X155075117Y-108354296D02*
X155027498Y-108449534D01*
X155027498Y-108449534D02*
X154979879Y-108497153D01*
X154979879Y-108497153D02*
X154884641Y-108544772D01*
X154884641Y-108544772D02*
X154503689Y-108544772D01*
X156027498Y-109020963D02*
X155456070Y-109020963D01*
X155741784Y-109020963D02*
X155741784Y-108020963D01*
X155741784Y-108020963D02*
X155646546Y-108163820D01*
X155646546Y-108163820D02*
X155551308Y-108259058D01*
X155551308Y-108259058D02*
X155456070Y-108306677D01*
X156456070Y-108925724D02*
X156503689Y-108973344D01*
X156503689Y-108973344D02*
X156456070Y-109020963D01*
X156456070Y-109020963D02*
X156408451Y-108973344D01*
X156408451Y-108973344D02*
X156456070Y-108925724D01*
X156456070Y-108925724D02*
X156456070Y-109020963D01*
X156456070Y-108401915D02*
X156503689Y-108449534D01*
X156503689Y-108449534D02*
X156456070Y-108497153D01*
X156456070Y-108497153D02*
X156408451Y-108449534D01*
X156408451Y-108449534D02*
X156456070Y-108401915D01*
X156456070Y-108401915D02*
X156456070Y-108497153D01*
X157551308Y-108020963D02*
X158122736Y-108020963D01*
X157837022Y-109020963D02*
X157837022Y-108020963D01*
X158456070Y-109020963D02*
X158456070Y-108354296D01*
X158456070Y-108544772D02*
X158503689Y-108449534D01*
X158503689Y-108449534D02*
X158551308Y-108401915D01*
X158551308Y-108401915D02*
X158646546Y-108354296D01*
X158646546Y-108354296D02*
X158741784Y-108354296D01*
X159075118Y-109020963D02*
X159075118Y-108354296D01*
X159075118Y-108020963D02*
X159027499Y-108068582D01*
X159027499Y-108068582D02*
X159075118Y-108116201D01*
X159075118Y-108116201D02*
X159122737Y-108068582D01*
X159122737Y-108068582D02*
X159075118Y-108020963D01*
X159075118Y-108020963D02*
X159075118Y-108116201D01*
X159979879Y-108354296D02*
X159979879Y-109163820D01*
X159979879Y-109163820D02*
X159932260Y-109259058D01*
X159932260Y-109259058D02*
X159884641Y-109306677D01*
X159884641Y-109306677D02*
X159789403Y-109354296D01*
X159789403Y-109354296D02*
X159646546Y-109354296D01*
X159646546Y-109354296D02*
X159551308Y-109306677D01*
X159979879Y-108973344D02*
X159884641Y-109020963D01*
X159884641Y-109020963D02*
X159694165Y-109020963D01*
X159694165Y-109020963D02*
X159598927Y-108973344D01*
X159598927Y-108973344D02*
X159551308Y-108925724D01*
X159551308Y-108925724D02*
X159503689Y-108830486D01*
X159503689Y-108830486D02*
X159503689Y-108544772D01*
X159503689Y-108544772D02*
X159551308Y-108449534D01*
X159551308Y-108449534D02*
X159598927Y-108401915D01*
X159598927Y-108401915D02*
X159694165Y-108354296D01*
X159694165Y-108354296D02*
X159884641Y-108354296D01*
X159884641Y-108354296D02*
X159979879Y-108401915D01*
X160884641Y-108354296D02*
X160884641Y-109163820D01*
X160884641Y-109163820D02*
X160837022Y-109259058D01*
X160837022Y-109259058D02*
X160789403Y-109306677D01*
X160789403Y-109306677D02*
X160694165Y-109354296D01*
X160694165Y-109354296D02*
X160551308Y-109354296D01*
X160551308Y-109354296D02*
X160456070Y-109306677D01*
X160884641Y-108973344D02*
X160789403Y-109020963D01*
X160789403Y-109020963D02*
X160598927Y-109020963D01*
X160598927Y-109020963D02*
X160503689Y-108973344D01*
X160503689Y-108973344D02*
X160456070Y-108925724D01*
X160456070Y-108925724D02*
X160408451Y-108830486D01*
X160408451Y-108830486D02*
X160408451Y-108544772D01*
X160408451Y-108544772D02*
X160456070Y-108449534D01*
X160456070Y-108449534D02*
X160503689Y-108401915D01*
X160503689Y-108401915D02*
X160598927Y-108354296D01*
X160598927Y-108354296D02*
X160789403Y-108354296D01*
X160789403Y-108354296D02*
X160884641Y-108401915D01*
X161741784Y-108973344D02*
X161646546Y-109020963D01*
X161646546Y-109020963D02*
X161456070Y-109020963D01*
X161456070Y-109020963D02*
X161360832Y-108973344D01*
X161360832Y-108973344D02*
X161313213Y-108878105D01*
X161313213Y-108878105D02*
X161313213Y-108497153D01*
X161313213Y-108497153D02*
X161360832Y-108401915D01*
X161360832Y-108401915D02*
X161456070Y-108354296D01*
X161456070Y-108354296D02*
X161646546Y-108354296D01*
X161646546Y-108354296D02*
X161741784Y-108401915D01*
X161741784Y-108401915D02*
X161789403Y-108497153D01*
X161789403Y-108497153D02*
X161789403Y-108592391D01*
X161789403Y-108592391D02*
X161313213Y-108687629D01*
X162217975Y-109020963D02*
X162217975Y-108354296D01*
X162217975Y-108544772D02*
X162265594Y-108449534D01*
X162265594Y-108449534D02*
X162313213Y-108401915D01*
X162313213Y-108401915D02*
X162408451Y-108354296D01*
X162408451Y-108354296D02*
X162503689Y-108354296D01*
X163027499Y-108020963D02*
X163217975Y-108020963D01*
X163217975Y-108020963D02*
X163313213Y-108068582D01*
X163313213Y-108068582D02*
X163408451Y-108163820D01*
X163408451Y-108163820D02*
X163456070Y-108354296D01*
X163456070Y-108354296D02*
X163456070Y-108687629D01*
X163456070Y-108687629D02*
X163408451Y-108878105D01*
X163408451Y-108878105D02*
X163313213Y-108973344D01*
X163313213Y-108973344D02*
X163217975Y-109020963D01*
X163217975Y-109020963D02*
X163027499Y-109020963D01*
X163027499Y-109020963D02*
X162932261Y-108973344D01*
X162932261Y-108973344D02*
X162837023Y-108878105D01*
X162837023Y-108878105D02*
X162789404Y-108687629D01*
X162789404Y-108687629D02*
X162789404Y-108354296D01*
X162789404Y-108354296D02*
X162837023Y-108163820D01*
X162837023Y-108163820D02*
X162932261Y-108068582D01*
X162932261Y-108068582D02*
X163027499Y-108020963D01*
X163884642Y-108020963D02*
X163884642Y-108830486D01*
X163884642Y-108830486D02*
X163932261Y-108925724D01*
X163932261Y-108925724D02*
X163979880Y-108973344D01*
X163979880Y-108973344D02*
X164075118Y-109020963D01*
X164075118Y-109020963D02*
X164265594Y-109020963D01*
X164265594Y-109020963D02*
X164360832Y-108973344D01*
X164360832Y-108973344D02*
X164408451Y-108925724D01*
X164408451Y-108925724D02*
X164456070Y-108830486D01*
X164456070Y-108830486D02*
X164456070Y-108020963D01*
X164789404Y-108020963D02*
X165360832Y-108020963D01*
X165075118Y-109020963D02*
X165075118Y-108020963D01*
X153598927Y-109630907D02*
X154170355Y-109630907D01*
X153884641Y-110630907D02*
X153884641Y-109630907D01*
X154503689Y-110630907D02*
X154503689Y-109630907D01*
X154503689Y-109630907D02*
X154884641Y-109630907D01*
X154884641Y-109630907D02*
X154979879Y-109678526D01*
X154979879Y-109678526D02*
X155027498Y-109726145D01*
X155027498Y-109726145D02*
X155075117Y-109821383D01*
X155075117Y-109821383D02*
X155075117Y-109964240D01*
X155075117Y-109964240D02*
X155027498Y-110059478D01*
X155027498Y-110059478D02*
X154979879Y-110107097D01*
X154979879Y-110107097D02*
X154884641Y-110154716D01*
X154884641Y-110154716D02*
X154503689Y-110154716D01*
X155456070Y-109726145D02*
X155503689Y-109678526D01*
X155503689Y-109678526D02*
X155598927Y-109630907D01*
X155598927Y-109630907D02*
X155837022Y-109630907D01*
X155837022Y-109630907D02*
X155932260Y-109678526D01*
X155932260Y-109678526D02*
X155979879Y-109726145D01*
X155979879Y-109726145D02*
X156027498Y-109821383D01*
X156027498Y-109821383D02*
X156027498Y-109916621D01*
X156027498Y-109916621D02*
X155979879Y-110059478D01*
X155979879Y-110059478D02*
X155408451Y-110630907D01*
X155408451Y-110630907D02*
X156027498Y-110630907D01*
X156456070Y-110535668D02*
X156503689Y-110583288D01*
X156503689Y-110583288D02*
X156456070Y-110630907D01*
X156456070Y-110630907D02*
X156408451Y-110583288D01*
X156408451Y-110583288D02*
X156456070Y-110535668D01*
X156456070Y-110535668D02*
X156456070Y-110630907D01*
X156456070Y-110011859D02*
X156503689Y-110059478D01*
X156503689Y-110059478D02*
X156456070Y-110107097D01*
X156456070Y-110107097D02*
X156408451Y-110059478D01*
X156408451Y-110059478D02*
X156456070Y-110011859D01*
X156456070Y-110011859D02*
X156456070Y-110107097D01*
X157551308Y-109630907D02*
X158122736Y-109630907D01*
X157837022Y-110630907D02*
X157837022Y-109630907D01*
X158456070Y-110630907D02*
X158456070Y-109964240D01*
X158456070Y-110154716D02*
X158503689Y-110059478D01*
X158503689Y-110059478D02*
X158551308Y-110011859D01*
X158551308Y-110011859D02*
X158646546Y-109964240D01*
X158646546Y-109964240D02*
X158741784Y-109964240D01*
X159075118Y-110630907D02*
X159075118Y-109964240D01*
X159075118Y-109630907D02*
X159027499Y-109678526D01*
X159027499Y-109678526D02*
X159075118Y-109726145D01*
X159075118Y-109726145D02*
X159122737Y-109678526D01*
X159122737Y-109678526D02*
X159075118Y-109630907D01*
X159075118Y-109630907D02*
X159075118Y-109726145D01*
X159979879Y-109964240D02*
X159979879Y-110773764D01*
X159979879Y-110773764D02*
X159932260Y-110869002D01*
X159932260Y-110869002D02*
X159884641Y-110916621D01*
X159884641Y-110916621D02*
X159789403Y-110964240D01*
X159789403Y-110964240D02*
X159646546Y-110964240D01*
X159646546Y-110964240D02*
X159551308Y-110916621D01*
X159979879Y-110583288D02*
X159884641Y-110630907D01*
X159884641Y-110630907D02*
X159694165Y-110630907D01*
X159694165Y-110630907D02*
X159598927Y-110583288D01*
X159598927Y-110583288D02*
X159551308Y-110535668D01*
X159551308Y-110535668D02*
X159503689Y-110440430D01*
X159503689Y-110440430D02*
X159503689Y-110154716D01*
X159503689Y-110154716D02*
X159551308Y-110059478D01*
X159551308Y-110059478D02*
X159598927Y-110011859D01*
X159598927Y-110011859D02*
X159694165Y-109964240D01*
X159694165Y-109964240D02*
X159884641Y-109964240D01*
X159884641Y-109964240D02*
X159979879Y-110011859D01*
X160884641Y-109964240D02*
X160884641Y-110773764D01*
X160884641Y-110773764D02*
X160837022Y-110869002D01*
X160837022Y-110869002D02*
X160789403Y-110916621D01*
X160789403Y-110916621D02*
X160694165Y-110964240D01*
X160694165Y-110964240D02*
X160551308Y-110964240D01*
X160551308Y-110964240D02*
X160456070Y-110916621D01*
X160884641Y-110583288D02*
X160789403Y-110630907D01*
X160789403Y-110630907D02*
X160598927Y-110630907D01*
X160598927Y-110630907D02*
X160503689Y-110583288D01*
X160503689Y-110583288D02*
X160456070Y-110535668D01*
X160456070Y-110535668D02*
X160408451Y-110440430D01*
X160408451Y-110440430D02*
X160408451Y-110154716D01*
X160408451Y-110154716D02*
X160456070Y-110059478D01*
X160456070Y-110059478D02*
X160503689Y-110011859D01*
X160503689Y-110011859D02*
X160598927Y-109964240D01*
X160598927Y-109964240D02*
X160789403Y-109964240D01*
X160789403Y-109964240D02*
X160884641Y-110011859D01*
X161741784Y-110583288D02*
X161646546Y-110630907D01*
X161646546Y-110630907D02*
X161456070Y-110630907D01*
X161456070Y-110630907D02*
X161360832Y-110583288D01*
X161360832Y-110583288D02*
X161313213Y-110488049D01*
X161313213Y-110488049D02*
X161313213Y-110107097D01*
X161313213Y-110107097D02*
X161360832Y-110011859D01*
X161360832Y-110011859D02*
X161456070Y-109964240D01*
X161456070Y-109964240D02*
X161646546Y-109964240D01*
X161646546Y-109964240D02*
X161741784Y-110011859D01*
X161741784Y-110011859D02*
X161789403Y-110107097D01*
X161789403Y-110107097D02*
X161789403Y-110202335D01*
X161789403Y-110202335D02*
X161313213Y-110297573D01*
X162217975Y-110630907D02*
X162217975Y-109964240D01*
X162217975Y-110154716D02*
X162265594Y-110059478D01*
X162265594Y-110059478D02*
X162313213Y-110011859D01*
X162313213Y-110011859D02*
X162408451Y-109964240D01*
X162408451Y-109964240D02*
X162503689Y-109964240D01*
X162837023Y-110630907D02*
X162837023Y-109630907D01*
X163313213Y-110630907D02*
X163313213Y-109630907D01*
X163313213Y-109630907D02*
X163884641Y-110630907D01*
X163884641Y-110630907D02*
X163884641Y-109630907D01*
X153598927Y-111240851D02*
X154170355Y-111240851D01*
X153884641Y-112240851D02*
X153884641Y-111240851D01*
X154503689Y-112240851D02*
X154503689Y-111240851D01*
X154503689Y-111240851D02*
X154884641Y-111240851D01*
X154884641Y-111240851D02*
X154979879Y-111288470D01*
X154979879Y-111288470D02*
X155027498Y-111336089D01*
X155027498Y-111336089D02*
X155075117Y-111431327D01*
X155075117Y-111431327D02*
X155075117Y-111574184D01*
X155075117Y-111574184D02*
X155027498Y-111669422D01*
X155027498Y-111669422D02*
X154979879Y-111717041D01*
X154979879Y-111717041D02*
X154884641Y-111764660D01*
X154884641Y-111764660D02*
X154503689Y-111764660D01*
X155408451Y-111240851D02*
X156027498Y-111240851D01*
X156027498Y-111240851D02*
X155694165Y-111621803D01*
X155694165Y-111621803D02*
X155837022Y-111621803D01*
X155837022Y-111621803D02*
X155932260Y-111669422D01*
X155932260Y-111669422D02*
X155979879Y-111717041D01*
X155979879Y-111717041D02*
X156027498Y-111812279D01*
X156027498Y-111812279D02*
X156027498Y-112050374D01*
X156027498Y-112050374D02*
X155979879Y-112145612D01*
X155979879Y-112145612D02*
X155932260Y-112193232D01*
X155932260Y-112193232D02*
X155837022Y-112240851D01*
X155837022Y-112240851D02*
X155551308Y-112240851D01*
X155551308Y-112240851D02*
X155456070Y-112193232D01*
X155456070Y-112193232D02*
X155408451Y-112145612D01*
X156456070Y-112145612D02*
X156503689Y-112193232D01*
X156503689Y-112193232D02*
X156456070Y-112240851D01*
X156456070Y-112240851D02*
X156408451Y-112193232D01*
X156408451Y-112193232D02*
X156456070Y-112145612D01*
X156456070Y-112145612D02*
X156456070Y-112240851D01*
X156456070Y-111621803D02*
X156503689Y-111669422D01*
X156503689Y-111669422D02*
X156456070Y-111717041D01*
X156456070Y-111717041D02*
X156408451Y-111669422D01*
X156408451Y-111669422D02*
X156456070Y-111621803D01*
X156456070Y-111621803D02*
X156456070Y-111717041D01*
X158027498Y-111717041D02*
X157694165Y-111717041D01*
X157694165Y-112240851D02*
X157694165Y-111240851D01*
X157694165Y-111240851D02*
X158170355Y-111240851D01*
X158503689Y-111955136D02*
X158979879Y-111955136D01*
X158408451Y-112240851D02*
X158741784Y-111240851D01*
X158741784Y-111240851D02*
X159075117Y-112240851D01*
X159408451Y-111240851D02*
X159408451Y-112050374D01*
X159408451Y-112050374D02*
X159456070Y-112145612D01*
X159456070Y-112145612D02*
X159503689Y-112193232D01*
X159503689Y-112193232D02*
X159598927Y-112240851D01*
X159598927Y-112240851D02*
X159789403Y-112240851D01*
X159789403Y-112240851D02*
X159884641Y-112193232D01*
X159884641Y-112193232D02*
X159932260Y-112145612D01*
X159932260Y-112145612D02*
X159979879Y-112050374D01*
X159979879Y-112050374D02*
X159979879Y-111240851D01*
X160932260Y-112240851D02*
X160456070Y-112240851D01*
X160456070Y-112240851D02*
X160456070Y-111240851D01*
X161122737Y-111240851D02*
X161694165Y-111240851D01*
X161408451Y-112240851D02*
X161408451Y-111240851D01*
X157556070Y-110963232D02*
X161689404Y-110963232D01*
X153598927Y-112850795D02*
X154170355Y-112850795D01*
X153884641Y-113850795D02*
X153884641Y-112850795D01*
X154503689Y-113850795D02*
X154503689Y-112850795D01*
X154503689Y-112850795D02*
X154884641Y-112850795D01*
X154884641Y-112850795D02*
X154979879Y-112898414D01*
X154979879Y-112898414D02*
X155027498Y-112946033D01*
X155027498Y-112946033D02*
X155075117Y-113041271D01*
X155075117Y-113041271D02*
X155075117Y-113184128D01*
X155075117Y-113184128D02*
X155027498Y-113279366D01*
X155027498Y-113279366D02*
X154979879Y-113326985D01*
X154979879Y-113326985D02*
X154884641Y-113374604D01*
X154884641Y-113374604D02*
X154503689Y-113374604D01*
X155932260Y-113184128D02*
X155932260Y-113850795D01*
X155694165Y-112803176D02*
X155456070Y-113517461D01*
X155456070Y-113517461D02*
X156075117Y-113517461D01*
X156456070Y-113755556D02*
X156503689Y-113803176D01*
X156503689Y-113803176D02*
X156456070Y-113850795D01*
X156456070Y-113850795D02*
X156408451Y-113803176D01*
X156408451Y-113803176D02*
X156456070Y-113755556D01*
X156456070Y-113755556D02*
X156456070Y-113850795D01*
X156456070Y-113231747D02*
X156503689Y-113279366D01*
X156503689Y-113279366D02*
X156456070Y-113326985D01*
X156456070Y-113326985D02*
X156408451Y-113279366D01*
X156408451Y-113279366D02*
X156456070Y-113231747D01*
X156456070Y-113231747D02*
X156456070Y-113326985D01*
X157598927Y-112850795D02*
X158217974Y-112850795D01*
X158217974Y-112850795D02*
X157884641Y-113231747D01*
X157884641Y-113231747D02*
X158027498Y-113231747D01*
X158027498Y-113231747D02*
X158122736Y-113279366D01*
X158122736Y-113279366D02*
X158170355Y-113326985D01*
X158170355Y-113326985D02*
X158217974Y-113422223D01*
X158217974Y-113422223D02*
X158217974Y-113660318D01*
X158217974Y-113660318D02*
X158170355Y-113755556D01*
X158170355Y-113755556D02*
X158122736Y-113803176D01*
X158122736Y-113803176D02*
X158027498Y-113850795D01*
X158027498Y-113850795D02*
X157741784Y-113850795D01*
X157741784Y-113850795D02*
X157646546Y-113803176D01*
X157646546Y-113803176D02*
X157598927Y-113755556D01*
X158503689Y-112850795D02*
X158837022Y-113850795D01*
X158837022Y-113850795D02*
X159170355Y-112850795D01*
X159408451Y-112850795D02*
X160027498Y-112850795D01*
X160027498Y-112850795D02*
X159694165Y-113231747D01*
X159694165Y-113231747D02*
X159837022Y-113231747D01*
X159837022Y-113231747D02*
X159932260Y-113279366D01*
X159932260Y-113279366D02*
X159979879Y-113326985D01*
X159979879Y-113326985D02*
X160027498Y-113422223D01*
X160027498Y-113422223D02*
X160027498Y-113660318D01*
X160027498Y-113660318D02*
X159979879Y-113755556D01*
X159979879Y-113755556D02*
X159932260Y-113803176D01*
X159932260Y-113803176D02*
X159837022Y-113850795D01*
X159837022Y-113850795D02*
X159551308Y-113850795D01*
X159551308Y-113850795D02*
X159456070Y-113803176D01*
X159456070Y-113803176D02*
X159408451Y-113755556D01*
X121915919Y-64459515D02*
X120915919Y-64459515D01*
X120915919Y-64459515D02*
X120915919Y-64221420D01*
X120915919Y-64221420D02*
X120963538Y-64078563D01*
X120963538Y-64078563D02*
X121058776Y-63983325D01*
X121058776Y-63983325D02*
X121154014Y-63935706D01*
X121154014Y-63935706D02*
X121344490Y-63888087D01*
X121344490Y-63888087D02*
X121487347Y-63888087D01*
X121487347Y-63888087D02*
X121677823Y-63935706D01*
X121677823Y-63935706D02*
X121773061Y-63983325D01*
X121773061Y-63983325D02*
X121868300Y-64078563D01*
X121868300Y-64078563D02*
X121915919Y-64221420D01*
X121915919Y-64221420D02*
X121915919Y-64459515D01*
X121868300Y-63078563D02*
X121915919Y-63173801D01*
X121915919Y-63173801D02*
X121915919Y-63364277D01*
X121915919Y-63364277D02*
X121868300Y-63459515D01*
X121868300Y-63459515D02*
X121773061Y-63507134D01*
X121773061Y-63507134D02*
X121392109Y-63507134D01*
X121392109Y-63507134D02*
X121296871Y-63459515D01*
X121296871Y-63459515D02*
X121249252Y-63364277D01*
X121249252Y-63364277D02*
X121249252Y-63173801D01*
X121249252Y-63173801D02*
X121296871Y-63078563D01*
X121296871Y-63078563D02*
X121392109Y-63030944D01*
X121392109Y-63030944D02*
X121487347Y-63030944D01*
X121487347Y-63030944D02*
X121582585Y-63507134D01*
X121249252Y-62602372D02*
X122249252Y-62602372D01*
X121296871Y-62602372D02*
X121249252Y-62507134D01*
X121249252Y-62507134D02*
X121249252Y-62316658D01*
X121249252Y-62316658D02*
X121296871Y-62221420D01*
X121296871Y-62221420D02*
X121344490Y-62173801D01*
X121344490Y-62173801D02*
X121439728Y-62126182D01*
X121439728Y-62126182D02*
X121725442Y-62126182D01*
X121725442Y-62126182D02*
X121820680Y-62173801D01*
X121820680Y-62173801D02*
X121868300Y-62221420D01*
X121868300Y-62221420D02*
X121915919Y-62316658D01*
X121915919Y-62316658D02*
X121915919Y-62507134D01*
X121915919Y-62507134D02*
X121868300Y-62602372D01*
X121915919Y-61554753D02*
X121868300Y-61649991D01*
X121868300Y-61649991D02*
X121773061Y-61697610D01*
X121773061Y-61697610D02*
X120915919Y-61697610D01*
X121915919Y-61030943D02*
X121868300Y-61126181D01*
X121868300Y-61126181D02*
X121820680Y-61173800D01*
X121820680Y-61173800D02*
X121725442Y-61221419D01*
X121725442Y-61221419D02*
X121439728Y-61221419D01*
X121439728Y-61221419D02*
X121344490Y-61173800D01*
X121344490Y-61173800D02*
X121296871Y-61126181D01*
X121296871Y-61126181D02*
X121249252Y-61030943D01*
X121249252Y-61030943D02*
X121249252Y-60888086D01*
X121249252Y-60888086D02*
X121296871Y-60792848D01*
X121296871Y-60792848D02*
X121344490Y-60745229D01*
X121344490Y-60745229D02*
X121439728Y-60697610D01*
X121439728Y-60697610D02*
X121725442Y-60697610D01*
X121725442Y-60697610D02*
X121820680Y-60745229D01*
X121820680Y-60745229D02*
X121868300Y-60792848D01*
X121868300Y-60792848D02*
X121915919Y-60888086D01*
X121915919Y-60888086D02*
X121915919Y-61030943D01*
X121249252Y-60364276D02*
X121915919Y-60126181D01*
X121249252Y-59888086D02*
X121915919Y-60126181D01*
X121915919Y-60126181D02*
X122154014Y-60221419D01*
X122154014Y-60221419D02*
X122201633Y-60269038D01*
X122201633Y-60269038D02*
X122249252Y-60364276D01*
X121915919Y-59507133D02*
X121249252Y-59507133D01*
X121344490Y-59507133D02*
X121296871Y-59459514D01*
X121296871Y-59459514D02*
X121249252Y-59364276D01*
X121249252Y-59364276D02*
X121249252Y-59221419D01*
X121249252Y-59221419D02*
X121296871Y-59126181D01*
X121296871Y-59126181D02*
X121392109Y-59078562D01*
X121392109Y-59078562D02*
X121915919Y-59078562D01*
X121392109Y-59078562D02*
X121296871Y-59030943D01*
X121296871Y-59030943D02*
X121249252Y-58935705D01*
X121249252Y-58935705D02*
X121249252Y-58792848D01*
X121249252Y-58792848D02*
X121296871Y-58697609D01*
X121296871Y-58697609D02*
X121392109Y-58649990D01*
X121392109Y-58649990D02*
X121915919Y-58649990D01*
X121868300Y-57792848D02*
X121915919Y-57888086D01*
X121915919Y-57888086D02*
X121915919Y-58078562D01*
X121915919Y-58078562D02*
X121868300Y-58173800D01*
X121868300Y-58173800D02*
X121773061Y-58221419D01*
X121773061Y-58221419D02*
X121392109Y-58221419D01*
X121392109Y-58221419D02*
X121296871Y-58173800D01*
X121296871Y-58173800D02*
X121249252Y-58078562D01*
X121249252Y-58078562D02*
X121249252Y-57888086D01*
X121249252Y-57888086D02*
X121296871Y-57792848D01*
X121296871Y-57792848D02*
X121392109Y-57745229D01*
X121392109Y-57745229D02*
X121487347Y-57745229D01*
X121487347Y-57745229D02*
X121582585Y-58221419D01*
X121249252Y-57316657D02*
X121915919Y-57316657D01*
X121344490Y-57316657D02*
X121296871Y-57269038D01*
X121296871Y-57269038D02*
X121249252Y-57173800D01*
X121249252Y-57173800D02*
X121249252Y-57030943D01*
X121249252Y-57030943D02*
X121296871Y-56935705D01*
X121296871Y-56935705D02*
X121392109Y-56888086D01*
X121392109Y-56888086D02*
X121915919Y-56888086D01*
X121249252Y-56554752D02*
X121249252Y-56173800D01*
X120915919Y-56411895D02*
X121773061Y-56411895D01*
X121773061Y-56411895D02*
X121868300Y-56364276D01*
X121868300Y-56364276D02*
X121915919Y-56269038D01*
X121915919Y-56269038D02*
X121915919Y-56173800D01*
X121868300Y-55126180D02*
X121915919Y-54983323D01*
X121915919Y-54983323D02*
X121915919Y-54745228D01*
X121915919Y-54745228D02*
X121868300Y-54649990D01*
X121868300Y-54649990D02*
X121820680Y-54602371D01*
X121820680Y-54602371D02*
X121725442Y-54554752D01*
X121725442Y-54554752D02*
X121630204Y-54554752D01*
X121630204Y-54554752D02*
X121534966Y-54602371D01*
X121534966Y-54602371D02*
X121487347Y-54649990D01*
X121487347Y-54649990D02*
X121439728Y-54745228D01*
X121439728Y-54745228D02*
X121392109Y-54935704D01*
X121392109Y-54935704D02*
X121344490Y-55030942D01*
X121344490Y-55030942D02*
X121296871Y-55078561D01*
X121296871Y-55078561D02*
X121201633Y-55126180D01*
X121201633Y-55126180D02*
X121106395Y-55126180D01*
X121106395Y-55126180D02*
X121011157Y-55078561D01*
X121011157Y-55078561D02*
X120963538Y-55030942D01*
X120963538Y-55030942D02*
X120915919Y-54935704D01*
X120915919Y-54935704D02*
X120915919Y-54697609D01*
X120915919Y-54697609D02*
X120963538Y-54554752D01*
X121249252Y-54221418D02*
X121915919Y-54030942D01*
X121915919Y-54030942D02*
X121439728Y-53840466D01*
X121439728Y-53840466D02*
X121915919Y-53649990D01*
X121915919Y-53649990D02*
X121249252Y-53459514D01*
X121915919Y-53078561D02*
X121249252Y-53078561D01*
X120915919Y-53078561D02*
X120963538Y-53126180D01*
X120963538Y-53126180D02*
X121011157Y-53078561D01*
X121011157Y-53078561D02*
X120963538Y-53030942D01*
X120963538Y-53030942D02*
X120915919Y-53078561D01*
X120915919Y-53078561D02*
X121011157Y-53078561D01*
X121249252Y-52745228D02*
X121249252Y-52364276D01*
X120915919Y-52602371D02*
X121773061Y-52602371D01*
X121773061Y-52602371D02*
X121868300Y-52554752D01*
X121868300Y-52554752D02*
X121915919Y-52459514D01*
X121915919Y-52459514D02*
X121915919Y-52364276D01*
X121868300Y-51602371D02*
X121915919Y-51697609D01*
X121915919Y-51697609D02*
X121915919Y-51888085D01*
X121915919Y-51888085D02*
X121868300Y-51983323D01*
X121868300Y-51983323D02*
X121820680Y-52030942D01*
X121820680Y-52030942D02*
X121725442Y-52078561D01*
X121725442Y-52078561D02*
X121439728Y-52078561D01*
X121439728Y-52078561D02*
X121344490Y-52030942D01*
X121344490Y-52030942D02*
X121296871Y-51983323D01*
X121296871Y-51983323D02*
X121249252Y-51888085D01*
X121249252Y-51888085D02*
X121249252Y-51697609D01*
X121249252Y-51697609D02*
X121296871Y-51602371D01*
X121915919Y-51173799D02*
X120915919Y-51173799D01*
X121915919Y-50745228D02*
X121392109Y-50745228D01*
X121392109Y-50745228D02*
X121296871Y-50792847D01*
X121296871Y-50792847D02*
X121249252Y-50888085D01*
X121249252Y-50888085D02*
X121249252Y-51030942D01*
X121249252Y-51030942D02*
X121296871Y-51126180D01*
X121296871Y-51126180D02*
X121344490Y-51173799D01*
D12*
X103954195Y-84961819D02*
X104525623Y-84961819D01*
X104239909Y-85961819D02*
X104239909Y-84961819D01*
X104858957Y-85961819D02*
X104858957Y-84961819D01*
X104858957Y-84961819D02*
X105239909Y-84961819D01*
X105239909Y-84961819D02*
X105335147Y-85009438D01*
X105335147Y-85009438D02*
X105382766Y-85057057D01*
X105382766Y-85057057D02*
X105430385Y-85152295D01*
X105430385Y-85152295D02*
X105430385Y-85295152D01*
X105430385Y-85295152D02*
X105382766Y-85390390D01*
X105382766Y-85390390D02*
X105335147Y-85438009D01*
X105335147Y-85438009D02*
X105239909Y-85485628D01*
X105239909Y-85485628D02*
X104858957Y-85485628D01*
X106287528Y-85295152D02*
X106287528Y-85961819D01*
X106049433Y-84914200D02*
X105811338Y-85628485D01*
X105811338Y-85628485D02*
X106430385Y-85628485D01*
X136478795Y-63761019D02*
X137050223Y-63761019D01*
X136764509Y-64761019D02*
X136764509Y-63761019D01*
X137383557Y-64761019D02*
X137383557Y-63761019D01*
X137383557Y-63761019D02*
X137764509Y-63761019D01*
X137764509Y-63761019D02*
X137859747Y-63808638D01*
X137859747Y-63808638D02*
X137907366Y-63856257D01*
X137907366Y-63856257D02*
X137954985Y-63951495D01*
X137954985Y-63951495D02*
X137954985Y-64094352D01*
X137954985Y-64094352D02*
X137907366Y-64189590D01*
X137907366Y-64189590D02*
X137859747Y-64237209D01*
X137859747Y-64237209D02*
X137764509Y-64284828D01*
X137764509Y-64284828D02*
X137383557Y-64284828D01*
X138907366Y-64761019D02*
X138335938Y-64761019D01*
X138621652Y-64761019D02*
X138621652Y-63761019D01*
X138621652Y-63761019D02*
X138526414Y-63903876D01*
X138526414Y-63903876D02*
X138431176Y-63999114D01*
X138431176Y-63999114D02*
X138335938Y-64046733D01*
X123843766Y-58877419D02*
X123843766Y-59591704D01*
X123843766Y-59591704D02*
X123796147Y-59734561D01*
X123796147Y-59734561D02*
X123700909Y-59829800D01*
X123700909Y-59829800D02*
X123558052Y-59877419D01*
X123558052Y-59877419D02*
X123462814Y-59877419D01*
X124272338Y-58972657D02*
X124319957Y-58925038D01*
X124319957Y-58925038D02*
X124415195Y-58877419D01*
X124415195Y-58877419D02*
X124653290Y-58877419D01*
X124653290Y-58877419D02*
X124748528Y-58925038D01*
X124748528Y-58925038D02*
X124796147Y-58972657D01*
X124796147Y-58972657D02*
X124843766Y-59067895D01*
X124843766Y-59067895D02*
X124843766Y-59163133D01*
X124843766Y-59163133D02*
X124796147Y-59305990D01*
X124796147Y-59305990D02*
X124224719Y-59877419D01*
X124224719Y-59877419D02*
X124843766Y-59877419D01*
X132508395Y-60509819D02*
X132508395Y-61319342D01*
X132508395Y-61319342D02*
X132556014Y-61414580D01*
X132556014Y-61414580D02*
X132603633Y-61462200D01*
X132603633Y-61462200D02*
X132698871Y-61509819D01*
X132698871Y-61509819D02*
X132889347Y-61509819D01*
X132889347Y-61509819D02*
X132984585Y-61462200D01*
X132984585Y-61462200D02*
X133032204Y-61414580D01*
X133032204Y-61414580D02*
X133079823Y-61319342D01*
X133079823Y-61319342D02*
X133079823Y-60509819D01*
X134079823Y-61509819D02*
X133508395Y-61509819D01*
X133794109Y-61509819D02*
X133794109Y-60509819D01*
X133794109Y-60509819D02*
X133698871Y-60652676D01*
X133698871Y-60652676D02*
X133603633Y-60747914D01*
X133603633Y-60747914D02*
X133508395Y-60795533D01*
X147023919Y-111273933D02*
X147738204Y-111273933D01*
X147738204Y-111273933D02*
X147881061Y-111321552D01*
X147881061Y-111321552D02*
X147976300Y-111416790D01*
X147976300Y-111416790D02*
X148023919Y-111559647D01*
X148023919Y-111559647D02*
X148023919Y-111654885D01*
X147023919Y-110369171D02*
X147023919Y-110559647D01*
X147023919Y-110559647D02*
X147071538Y-110654885D01*
X147071538Y-110654885D02*
X147119157Y-110702504D01*
X147119157Y-110702504D02*
X147262014Y-110797742D01*
X147262014Y-110797742D02*
X147452490Y-110845361D01*
X147452490Y-110845361D02*
X147833442Y-110845361D01*
X147833442Y-110845361D02*
X147928680Y-110797742D01*
X147928680Y-110797742D02*
X147976300Y-110750123D01*
X147976300Y-110750123D02*
X148023919Y-110654885D01*
X148023919Y-110654885D02*
X148023919Y-110464409D01*
X148023919Y-110464409D02*
X147976300Y-110369171D01*
X147976300Y-110369171D02*
X147928680Y-110321552D01*
X147928680Y-110321552D02*
X147833442Y-110273933D01*
X147833442Y-110273933D02*
X147595347Y-110273933D01*
X147595347Y-110273933D02*
X147500109Y-110321552D01*
X147500109Y-110321552D02*
X147452490Y-110369171D01*
X147452490Y-110369171D02*
X147404871Y-110464409D01*
X147404871Y-110464409D02*
X147404871Y-110654885D01*
X147404871Y-110654885D02*
X147452490Y-110750123D01*
X147452490Y-110750123D02*
X147500109Y-110797742D01*
X147500109Y-110797742D02*
X147595347Y-110845361D01*
X120527595Y-77654619D02*
X121099023Y-77654619D01*
X120813309Y-78654619D02*
X120813309Y-77654619D01*
X121432357Y-78654619D02*
X121432357Y-77654619D01*
X121432357Y-77654619D02*
X121813309Y-77654619D01*
X121813309Y-77654619D02*
X121908547Y-77702238D01*
X121908547Y-77702238D02*
X121956166Y-77749857D01*
X121956166Y-77749857D02*
X122003785Y-77845095D01*
X122003785Y-77845095D02*
X122003785Y-77987952D01*
X122003785Y-77987952D02*
X121956166Y-78083190D01*
X121956166Y-78083190D02*
X121908547Y-78130809D01*
X121908547Y-78130809D02*
X121813309Y-78178428D01*
X121813309Y-78178428D02*
X121432357Y-78178428D01*
X122337119Y-77654619D02*
X122956166Y-77654619D01*
X122956166Y-77654619D02*
X122622833Y-78035571D01*
X122622833Y-78035571D02*
X122765690Y-78035571D01*
X122765690Y-78035571D02*
X122860928Y-78083190D01*
X122860928Y-78083190D02*
X122908547Y-78130809D01*
X122908547Y-78130809D02*
X122956166Y-78226047D01*
X122956166Y-78226047D02*
X122956166Y-78464142D01*
X122956166Y-78464142D02*
X122908547Y-78559380D01*
X122908547Y-78559380D02*
X122860928Y-78607000D01*
X122860928Y-78607000D02*
X122765690Y-78654619D01*
X122765690Y-78654619D02*
X122479976Y-78654619D01*
X122479976Y-78654619D02*
X122384738Y-78607000D01*
X122384738Y-78607000D02*
X122337119Y-78559380D01*
X181544195Y-136353419D02*
X181544195Y-135353419D01*
X181544195Y-135829609D02*
X182115623Y-135829609D01*
X182115623Y-136353419D02*
X182115623Y-135353419D01*
X182496576Y-135353419D02*
X183115623Y-135353419D01*
X183115623Y-135353419D02*
X182782290Y-135734371D01*
X182782290Y-135734371D02*
X182925147Y-135734371D01*
X182925147Y-135734371D02*
X183020385Y-135781990D01*
X183020385Y-135781990D02*
X183068004Y-135829609D01*
X183068004Y-135829609D02*
X183115623Y-135924847D01*
X183115623Y-135924847D02*
X183115623Y-136162942D01*
X183115623Y-136162942D02*
X183068004Y-136258180D01*
X183068004Y-136258180D02*
X183020385Y-136305800D01*
X183020385Y-136305800D02*
X182925147Y-136353419D01*
X182925147Y-136353419D02*
X182639433Y-136353419D01*
X182639433Y-136353419D02*
X182544195Y-136305800D01*
X182544195Y-136305800D02*
X182496576Y-136258180D01*
X144277733Y-59579419D02*
X143944400Y-59103228D01*
X143706305Y-59579419D02*
X143706305Y-58579419D01*
X143706305Y-58579419D02*
X144087257Y-58579419D01*
X144087257Y-58579419D02*
X144182495Y-58627038D01*
X144182495Y-58627038D02*
X144230114Y-58674657D01*
X144230114Y-58674657D02*
X144277733Y-58769895D01*
X144277733Y-58769895D02*
X144277733Y-58912752D01*
X144277733Y-58912752D02*
X144230114Y-59007990D01*
X144230114Y-59007990D02*
X144182495Y-59055609D01*
X144182495Y-59055609D02*
X144087257Y-59103228D01*
X144087257Y-59103228D02*
X143706305Y-59103228D01*
X145230114Y-59579419D02*
X144658686Y-59579419D01*
X144944400Y-59579419D02*
X144944400Y-58579419D01*
X144944400Y-58579419D02*
X144849162Y-58722276D01*
X144849162Y-58722276D02*
X144753924Y-58817514D01*
X144753924Y-58817514D02*
X144658686Y-58865133D01*
X101534195Y-50623419D02*
X101534195Y-49623419D01*
X101534195Y-50099609D02*
X102105623Y-50099609D01*
X102105623Y-50623419D02*
X102105623Y-49623419D01*
X103105623Y-50623419D02*
X102534195Y-50623419D01*
X102819909Y-50623419D02*
X102819909Y-49623419D01*
X102819909Y-49623419D02*
X102724671Y-49766276D01*
X102724671Y-49766276D02*
X102629433Y-49861514D01*
X102629433Y-49861514D02*
X102534195Y-49909133D01*
X101534195Y-136353419D02*
X101534195Y-135353419D01*
X101534195Y-135829609D02*
X102105623Y-135829609D01*
X102105623Y-136353419D02*
X102105623Y-135353419D01*
X103010385Y-135686752D02*
X103010385Y-136353419D01*
X102772290Y-135305800D02*
X102534195Y-136020085D01*
X102534195Y-136020085D02*
X103153242Y-136020085D01*
X136304033Y-62068619D02*
X135970700Y-61592428D01*
X135732605Y-62068619D02*
X135732605Y-61068619D01*
X135732605Y-61068619D02*
X136113557Y-61068619D01*
X136113557Y-61068619D02*
X136208795Y-61116238D01*
X136208795Y-61116238D02*
X136256414Y-61163857D01*
X136256414Y-61163857D02*
X136304033Y-61259095D01*
X136304033Y-61259095D02*
X136304033Y-61401952D01*
X136304033Y-61401952D02*
X136256414Y-61497190D01*
X136256414Y-61497190D02*
X136208795Y-61544809D01*
X136208795Y-61544809D02*
X136113557Y-61592428D01*
X136113557Y-61592428D02*
X135732605Y-61592428D01*
X136684986Y-61163857D02*
X136732605Y-61116238D01*
X136732605Y-61116238D02*
X136827843Y-61068619D01*
X136827843Y-61068619D02*
X137065938Y-61068619D01*
X137065938Y-61068619D02*
X137161176Y-61116238D01*
X137161176Y-61116238D02*
X137208795Y-61163857D01*
X137208795Y-61163857D02*
X137256414Y-61259095D01*
X137256414Y-61259095D02*
X137256414Y-61354333D01*
X137256414Y-61354333D02*
X137208795Y-61497190D01*
X137208795Y-61497190D02*
X136637367Y-62068619D01*
X136637367Y-62068619D02*
X137256414Y-62068619D01*
X181544195Y-50623419D02*
X181544195Y-49623419D01*
X181544195Y-50099609D02*
X182115623Y-50099609D01*
X182115623Y-50623419D02*
X182115623Y-49623419D01*
X182544195Y-49718657D02*
X182591814Y-49671038D01*
X182591814Y-49671038D02*
X182687052Y-49623419D01*
X182687052Y-49623419D02*
X182925147Y-49623419D01*
X182925147Y-49623419D02*
X183020385Y-49671038D01*
X183020385Y-49671038D02*
X183068004Y-49718657D01*
X183068004Y-49718657D02*
X183115623Y-49813895D01*
X183115623Y-49813895D02*
X183115623Y-49909133D01*
X183115623Y-49909133D02*
X183068004Y-50051990D01*
X183068004Y-50051990D02*
X182496576Y-50623419D01*
X182496576Y-50623419D02*
X183115623Y-50623419D01*
X145027766Y-77638419D02*
X145027766Y-78352704D01*
X145027766Y-78352704D02*
X144980147Y-78495561D01*
X144980147Y-78495561D02*
X144884909Y-78590800D01*
X144884909Y-78590800D02*
X144742052Y-78638419D01*
X144742052Y-78638419D02*
X144646814Y-78638419D01*
X145408719Y-77638419D02*
X146027766Y-77638419D01*
X146027766Y-77638419D02*
X145694433Y-78019371D01*
X145694433Y-78019371D02*
X145837290Y-78019371D01*
X145837290Y-78019371D02*
X145932528Y-78066990D01*
X145932528Y-78066990D02*
X145980147Y-78114609D01*
X145980147Y-78114609D02*
X146027766Y-78209847D01*
X146027766Y-78209847D02*
X146027766Y-78447942D01*
X146027766Y-78447942D02*
X145980147Y-78543180D01*
X145980147Y-78543180D02*
X145932528Y-78590800D01*
X145932528Y-78590800D02*
X145837290Y-78638419D01*
X145837290Y-78638419D02*
X145551576Y-78638419D01*
X145551576Y-78638419D02*
X145456338Y-78590800D01*
X145456338Y-78590800D02*
X145408719Y-78543180D01*
X138906966Y-115741048D02*
X138906966Y-116455333D01*
X138906966Y-116455333D02*
X138859347Y-116598190D01*
X138859347Y-116598190D02*
X138764109Y-116693429D01*
X138764109Y-116693429D02*
X138621252Y-116741048D01*
X138621252Y-116741048D02*
X138526014Y-116741048D01*
X139906966Y-116741048D02*
X139335538Y-116741048D01*
X139621252Y-116741048D02*
X139621252Y-115741048D01*
X139621252Y-115741048D02*
X139526014Y-115883905D01*
X139526014Y-115883905D02*
X139430776Y-115979143D01*
X139430776Y-115979143D02*
X139335538Y-116026762D01*
X138002280Y-58580066D02*
X138049900Y-58627685D01*
X138049900Y-58627685D02*
X138097519Y-58770542D01*
X138097519Y-58770542D02*
X138097519Y-58865780D01*
X138097519Y-58865780D02*
X138049900Y-59008637D01*
X138049900Y-59008637D02*
X137954661Y-59103875D01*
X137954661Y-59103875D02*
X137859423Y-59151494D01*
X137859423Y-59151494D02*
X137668947Y-59199113D01*
X137668947Y-59199113D02*
X137526090Y-59199113D01*
X137526090Y-59199113D02*
X137335614Y-59151494D01*
X137335614Y-59151494D02*
X137240376Y-59103875D01*
X137240376Y-59103875D02*
X137145138Y-59008637D01*
X137145138Y-59008637D02*
X137097519Y-58865780D01*
X137097519Y-58865780D02*
X137097519Y-58770542D01*
X137097519Y-58770542D02*
X137145138Y-58627685D01*
X137145138Y-58627685D02*
X137192757Y-58580066D01*
X138097519Y-57627685D02*
X138097519Y-58199113D01*
X138097519Y-57913399D02*
X137097519Y-57913399D01*
X137097519Y-57913399D02*
X137240376Y-58008637D01*
X137240376Y-58008637D02*
X137335614Y-58103875D01*
X137335614Y-58103875D02*
X137383233Y-58199113D01*
X130632680Y-61577266D02*
X130680300Y-61624885D01*
X130680300Y-61624885D02*
X130727919Y-61767742D01*
X130727919Y-61767742D02*
X130727919Y-61862980D01*
X130727919Y-61862980D02*
X130680300Y-62005837D01*
X130680300Y-62005837D02*
X130585061Y-62101075D01*
X130585061Y-62101075D02*
X130489823Y-62148694D01*
X130489823Y-62148694D02*
X130299347Y-62196313D01*
X130299347Y-62196313D02*
X130156490Y-62196313D01*
X130156490Y-62196313D02*
X129966014Y-62148694D01*
X129966014Y-62148694D02*
X129870776Y-62101075D01*
X129870776Y-62101075D02*
X129775538Y-62005837D01*
X129775538Y-62005837D02*
X129727919Y-61862980D01*
X129727919Y-61862980D02*
X129727919Y-61767742D01*
X129727919Y-61767742D02*
X129775538Y-61624885D01*
X129775538Y-61624885D02*
X129823157Y-61577266D01*
X129823157Y-61196313D02*
X129775538Y-61148694D01*
X129775538Y-61148694D02*
X129727919Y-61053456D01*
X129727919Y-61053456D02*
X129727919Y-60815361D01*
X129727919Y-60815361D02*
X129775538Y-60720123D01*
X129775538Y-60720123D02*
X129823157Y-60672504D01*
X129823157Y-60672504D02*
X129918395Y-60624885D01*
X129918395Y-60624885D02*
X130013633Y-60624885D01*
X130013633Y-60624885D02*
X130156490Y-60672504D01*
X130156490Y-60672504D02*
X130727919Y-61243932D01*
X130727919Y-61243932D02*
X130727919Y-60624885D01*
X112289195Y-56905419D02*
X112860623Y-56905419D01*
X112574909Y-57905419D02*
X112574909Y-56905419D01*
X113193957Y-57905419D02*
X113193957Y-56905419D01*
X113193957Y-56905419D02*
X113574909Y-56905419D01*
X113574909Y-56905419D02*
X113670147Y-56953038D01*
X113670147Y-56953038D02*
X113717766Y-57000657D01*
X113717766Y-57000657D02*
X113765385Y-57095895D01*
X113765385Y-57095895D02*
X113765385Y-57238752D01*
X113765385Y-57238752D02*
X113717766Y-57333990D01*
X113717766Y-57333990D02*
X113670147Y-57381609D01*
X113670147Y-57381609D02*
X113574909Y-57429228D01*
X113574909Y-57429228D02*
X113193957Y-57429228D01*
X114146338Y-57000657D02*
X114193957Y-56953038D01*
X114193957Y-56953038D02*
X114289195Y-56905419D01*
X114289195Y-56905419D02*
X114527290Y-56905419D01*
X114527290Y-56905419D02*
X114622528Y-56953038D01*
X114622528Y-56953038D02*
X114670147Y-57000657D01*
X114670147Y-57000657D02*
X114717766Y-57095895D01*
X114717766Y-57095895D02*
X114717766Y-57191133D01*
X114717766Y-57191133D02*
X114670147Y-57333990D01*
X114670147Y-57333990D02*
X114098719Y-57905419D01*
X114098719Y-57905419D02*
X114717766Y-57905419D01*
X119501119Y-77567857D02*
X119024928Y-77901190D01*
X119501119Y-78139285D02*
X118501119Y-78139285D01*
X118501119Y-78139285D02*
X118501119Y-77758333D01*
X118501119Y-77758333D02*
X118548738Y-77663095D01*
X118548738Y-77663095D02*
X118596357Y-77615476D01*
X118596357Y-77615476D02*
X118691595Y-77567857D01*
X118691595Y-77567857D02*
X118834452Y-77567857D01*
X118834452Y-77567857D02*
X118929690Y-77615476D01*
X118929690Y-77615476D02*
X118977309Y-77663095D01*
X118977309Y-77663095D02*
X119024928Y-77758333D01*
X119024928Y-77758333D02*
X119024928Y-78139285D01*
X119501119Y-76615476D02*
X119501119Y-77186904D01*
X119501119Y-76901190D02*
X118501119Y-76901190D01*
X118501119Y-76901190D02*
X118643976Y-76996428D01*
X118643976Y-76996428D02*
X118739214Y-77091666D01*
X118739214Y-77091666D02*
X118786833Y-77186904D01*
X118596357Y-76234523D02*
X118548738Y-76186904D01*
X118548738Y-76186904D02*
X118501119Y-76091666D01*
X118501119Y-76091666D02*
X118501119Y-75853571D01*
X118501119Y-75853571D02*
X118548738Y-75758333D01*
X118548738Y-75758333D02*
X118596357Y-75710714D01*
X118596357Y-75710714D02*
X118691595Y-75663095D01*
X118691595Y-75663095D02*
X118786833Y-75663095D01*
X118786833Y-75663095D02*
X118929690Y-75710714D01*
X118929690Y-75710714D02*
X119501119Y-76282142D01*
X119501119Y-76282142D02*
X119501119Y-75663095D01*
D13*
%TO.C,TP4*%
X104516100Y-86255000D02*
X105916100Y-86255000D01*
X104516100Y-87655000D02*
X104516100Y-86255000D01*
X105916100Y-86255000D02*
X105916100Y-87655000D01*
X105916100Y-87655000D02*
X104516100Y-87655000D01*
%TO.C,TP1*%
X139783900Y-63504600D02*
X141183900Y-63504600D01*
X139783900Y-64904600D02*
X139783900Y-63504600D01*
X141183900Y-63504600D02*
X141183900Y-64904600D01*
X141183900Y-64904600D02*
X139783900Y-64904600D01*
%TO.C,J2*%
X122847100Y-55822600D02*
X122847100Y-53222600D01*
X125507100Y-53222600D02*
X122847100Y-53222600D01*
X125507100Y-55822600D02*
X122847100Y-55822600D01*
X125507100Y-55822600D02*
X125507100Y-53222600D01*
X125507100Y-57092600D02*
X125507100Y-58422600D01*
X125507100Y-58422600D02*
X124177100Y-58422600D01*
%TO.C,U1*%
X132008700Y-59225000D02*
X132008700Y-57815000D01*
X134328700Y-59215000D02*
X134328700Y-57815000D01*
X132058700Y-59595000D02*
X131728700Y-59835000D01*
X131728700Y-59355000D01*
X132058700Y-59595000D01*
G36*
X132058700Y-59595000D02*
G01*
X131728700Y-59835000D01*
X131728700Y-59355000D01*
X132058700Y-59595000D01*
G37*
%TO.C,J6*%
X149009100Y-109610600D02*
X150339100Y-109610600D01*
X149009100Y-110940600D02*
X149009100Y-109610600D01*
X151549100Y-109610600D02*
X151669100Y-109610600D01*
X151549100Y-112270600D02*
X151669100Y-112270600D01*
X151669100Y-112270600D02*
X151669100Y-109610600D01*
%TO.C,TP3*%
X121089500Y-78947800D02*
X122489500Y-78947800D01*
X121089500Y-80347800D02*
X121089500Y-78947800D01*
X122489500Y-78947800D02*
X122489500Y-80347800D01*
X122489500Y-80347800D02*
X121089500Y-80347800D01*
%TO.C,R1*%
X141726964Y-58643600D02*
X141272836Y-58643600D01*
X141726964Y-60113600D02*
X141272836Y-60113600D01*
%TO.C,R2*%
X139794664Y-60675600D02*
X139340536Y-60675600D01*
X139794664Y-62145600D02*
X139340536Y-62145600D01*
%TO.C,J3*%
X144031100Y-74583600D02*
X144031100Y-61823600D01*
X146691100Y-61823600D02*
X144031100Y-61823600D01*
X146691100Y-74583600D02*
X144031100Y-74583600D01*
X146691100Y-74583600D02*
X146691100Y-61823600D01*
X146691100Y-75853600D02*
X146691100Y-77183600D01*
X146691100Y-77183600D02*
X145361100Y-77183600D01*
%TO.C,J1*%
X137910300Y-117286229D02*
X139240300Y-117286229D01*
X137910300Y-118616229D02*
X137910300Y-117286229D01*
X137910300Y-119886229D02*
X137910300Y-132646229D01*
X137910300Y-119886229D02*
X140570300Y-119886229D01*
X137910300Y-132646229D02*
X140570300Y-132646229D01*
X140570300Y-119886229D02*
X140570300Y-132646229D01*
%TO.C,C1*%
X135227700Y-58152148D02*
X135227700Y-58674652D01*
X136697700Y-58152148D02*
X136697700Y-58674652D01*
%TO.C,C2*%
X129538100Y-58761052D02*
X129538100Y-58238548D01*
X131008100Y-58761052D02*
X131008100Y-58238548D01*
%TO.C,TP2*%
X112851100Y-58198600D02*
X114251100Y-58198600D01*
X112851100Y-59598600D02*
X112851100Y-58198600D01*
X114251100Y-58198600D02*
X114251100Y-59598600D01*
X114251100Y-59598600D02*
X112851100Y-59598600D01*
%TO.C,R5*%
X144250352Y-110205600D02*
X143727848Y-110205600D01*
X144250352Y-111675600D02*
X143727848Y-111675600D01*
%TO.C,R12*%
X118311300Y-73950252D02*
X118311300Y-73427748D01*
X119781300Y-73950252D02*
X119781300Y-73427748D01*
%TD*%
M02*
