%TF.GenerationSoftware,KiCad,Pcbnew,8.0.8+dfsg-1*%
%TF.CreationDate,2025-07-13T00:35:59+05:30*%
%TF.ProjectId,sanket,73616e6b-6574-42e6-9b69-6361645f7063,4.1*%
%TF.SameCoordinates,Original*%
%TF.FileFunction,Copper,L1,Top*%
%TF.FilePolarity,Positive*%
%FSLAX46Y46*%
G04 Gerber Fmt 4.6, Leading zero omitted, Abs format (unit mm)*
G04 Created by KiCad (PCBNEW 8.0.8+dfsg-1) date 2025-07-13 00:35:59*
%MOMM*%
%LPD*%
G01*
G04 APERTURE LIST*
G04 Aperture macros list*
%AMRoundRect*
0 Rectangle with rounded corners*
0 $1 Rounding radius*
0 $2 $3 $4 $5 $6 $7 $8 $9 X,Y pos of 4 corners*
0 Add a 4 corners polygon primitive as box body*
4,1,4,$2,$3,$4,$5,$6,$7,$8,$9,$2,$3,0*
0 Add four circle primitives for the rounded corners*
1,1,$1+$1,$2,$3*
1,1,$1+$1,$4,$5*
1,1,$1+$1,$6,$7*
1,1,$1+$1,$8,$9*
0 Add four rect primitives between the rounded corners*
20,1,$1+$1,$2,$3,$4,$5,0*
20,1,$1+$1,$4,$5,$6,$7,0*
20,1,$1+$1,$6,$7,$8,$9,0*
20,1,$1+$1,$8,$9,$2,$3,0*%
G04 Aperture macros list end*
%TA.AperFunction,ComponentPad*%
%ADD10R,1.000000X1.000000*%
%TD*%
%TA.AperFunction,ComponentPad*%
%ADD11R,1.700000X1.700000*%
%TD*%
%TA.AperFunction,ComponentPad*%
%ADD12O,1.700000X1.700000*%
%TD*%
%TA.AperFunction,SMDPad,CuDef*%
%ADD13RoundRect,0.100000X0.100000X-0.225000X0.100000X0.225000X-0.100000X0.225000X-0.100000X-0.225000X0*%
%TD*%
%TA.AperFunction,SMDPad,CuDef*%
%ADD14RoundRect,0.250000X0.262500X0.450000X-0.262500X0.450000X-0.262500X-0.450000X0.262500X-0.450000X0*%
%TD*%
%TA.AperFunction,SMDPad,CuDef*%
%ADD15RoundRect,0.250000X-0.475000X0.250000X-0.475000X-0.250000X0.475000X-0.250000X0.475000X0.250000X0*%
%TD*%
%TA.AperFunction,SMDPad,CuDef*%
%ADD16RoundRect,0.250000X0.475000X-0.250000X0.475000X0.250000X-0.475000X0.250000X-0.475000X-0.250000X0*%
%TD*%
%TA.AperFunction,SMDPad,CuDef*%
%ADD17RoundRect,0.250000X0.250000X0.475000X-0.250000X0.475000X-0.250000X-0.475000X0.250000X-0.475000X0*%
%TD*%
%TA.AperFunction,ViaPad*%
%ADD18C,0.800000*%
%TD*%
%TA.AperFunction,ViaPad*%
%ADD19C,0.500000*%
%TD*%
%TA.AperFunction,Conductor*%
%ADD20C,0.200000*%
%TD*%
%TA.AperFunction,Conductor*%
%ADD21C,0.400000*%
%TD*%
%TA.AperFunction,Conductor*%
%ADD22C,1.500000*%
%TD*%
%TA.AperFunction,Conductor*%
%ADD23C,1.000000*%
%TD*%
%TA.AperFunction,Conductor*%
%ADD24C,0.600000*%
%TD*%
G04 APERTURE END LIST*
D10*
%TO.P,TP4,1,1*%
%TO.N,/3V3*%
X105216100Y-86955000D03*
%TD*%
%TO.P,TP1,1,1*%
%TO.N,/DeployerDetectionSW2OUT*%
X140483900Y-64204600D03*
%TD*%
D11*
%TO.P,J2,1,Pin_1*%
%TO.N,Net-(J2-Pin_1)*%
X124177100Y-57092600D03*
D12*
%TO.P,J2,2,Pin_2*%
%TO.N,GND*%
X124177100Y-54552600D03*
%TD*%
D13*
%TO.P,U1,1,NC*%
%TO.N,unconnected-(U1-NC-Pad1)*%
X132518700Y-59465000D03*
%TO.P,U1,2,A*%
%TO.N,/TriggerIN*%
X133168700Y-59465000D03*
%TO.P,U1,3,GND*%
%TO.N,GND*%
X133818700Y-59465000D03*
%TO.P,U1,4,Y*%
%TO.N,/TriggerOUT*%
X133818700Y-57565000D03*
%TO.P,U1,5,VCC*%
%TO.N,/3V3*%
X132518700Y-57565000D03*
%TD*%
D11*
%TO.P,J6,1,Pin_1*%
%TO.N,Net-(J6-Pin_1)*%
X150339100Y-110940600D03*
%TD*%
D10*
%TO.P,TP3,1,1*%
%TO.N,Net-(U3-\u002AFAULT)*%
X121789500Y-79647800D03*
%TD*%
D14*
%TO.P,R1,1*%
%TO.N,GND*%
X142412400Y-59378600D03*
%TO.P,R1,2*%
%TO.N,/DeployerDetectionSW2OUT*%
X140587400Y-59378600D03*
%TD*%
%TO.P,R2,1*%
%TO.N,/DeployerDetectionSW2OUT*%
X140480100Y-61410600D03*
%TO.P,R2,2*%
%TO.N,/TriggerIN*%
X138655100Y-61410600D03*
%TD*%
D11*
%TO.P,J3,1,Pin_1*%
%TO.N,/DeployerDetectionSW1OUT*%
X145361100Y-75853600D03*
D12*
%TO.P,J3,2,Pin_2*%
%TO.N,/DeployerDetectionSW2OUT*%
X145361100Y-73313600D03*
%TO.P,J3,3,Pin_3*%
%TO.N,/BurnWireIN*%
X145361100Y-70773600D03*
%TO.P,J3,4,Pin_4*%
X145361100Y-68233600D03*
%TO.P,J3,5,Pin_5*%
%TO.N,GND*%
X145361100Y-65693600D03*
%TO.P,J3,6,Pin_6*%
X145361100Y-63153600D03*
%TD*%
D11*
%TO.P,J1,1,Pin_1*%
%TO.N,/3V3*%
X139240300Y-118616229D03*
D12*
%TO.P,J1,2,Pin_2*%
%TO.N,/DeployerDetectionSW1OUT*%
X139240300Y-121156229D03*
%TO.P,J1,3,Pin_3*%
%TO.N,/BurnWireIN*%
X139240300Y-123696229D03*
%TO.P,J1,4,Pin_4*%
X139240300Y-126236229D03*
%TO.P,J1,5,Pin_5*%
%TO.N,GND*%
X139240300Y-128776229D03*
%TO.P,J1,6,Pin_6*%
X139240300Y-131316229D03*
%TD*%
D15*
%TO.P,C1,1*%
%TO.N,GND*%
X135962700Y-57463400D03*
%TO.P,C1,2*%
%TO.N,/TriggerIN*%
X135962700Y-59363400D03*
%TD*%
D16*
%TO.P,C2,1*%
%TO.N,GND*%
X130273100Y-59449800D03*
%TO.P,C2,2*%
%TO.N,/3V3*%
X130273100Y-57549800D03*
%TD*%
D10*
%TO.P,TP2,1,1*%
%TO.N,/TriggerOUT*%
X113551100Y-58898600D03*
%TD*%
D17*
%TO.P,R5,1*%
%TO.N,Net-(J6-Pin_1)*%
X144939100Y-110940600D03*
%TO.P,R5,2*%
%TO.N,GND*%
X143039100Y-110940600D03*
%TD*%
D16*
%TO.P,R12,1*%
%TO.N,/EN*%
X119046300Y-74639000D03*
%TO.P,R12,2*%
%TO.N,GND*%
X119046300Y-72739000D03*
%TD*%
D11*
%TO.P,J4,1,Pin_1*%
%TO.N,/burn*%
X131389100Y-70554600D03*
D12*
%TO.P,J4,2,Pin_2*%
%TO.N,Net-(J4-Pin_2)*%
X131389100Y-68014600D03*
%TD*%
D11*
%TO.P,J5,1,Pin_1*%
%TO.N,/12V*%
X110941100Y-54368600D03*
D12*
%TO.P,J5,2,Pin_2*%
%TO.N,/TriggerOUT*%
X113481100Y-54368600D03*
%TO.P,J5,3,Pin_3*%
%TO.N,/EN*%
X116021100Y-54368600D03*
%TO.P,J5,4,Pin_4*%
%TO.N,GND*%
X118561100Y-54368600D03*
%TD*%
D18*
%TO.N,GND*%
X125243900Y-71977000D03*
X113661500Y-81171800D03*
X128901500Y-72281800D03*
X122907100Y-71926200D03*
X113661500Y-78073000D03*
X120875100Y-75787000D03*
X120875100Y-71926200D03*
D19*
%TO.N,/3V3*%
X116877100Y-76991000D03*
%TO.N,Net-(D1-K)*%
X107921100Y-68675000D03*
D18*
X107186146Y-71570600D03*
D19*
%TO.N,/EN*%
X119960700Y-74669400D03*
%TO.N,/DeployerDetectionSW1OUT*%
X141558778Y-124766278D03*
%TO.N,/DeployerDetectionSW2OUT*%
X143227100Y-68776600D03*
%TO.N,/TriggerOUT*%
X133829100Y-56279800D03*
%TD*%
D20*
%TO.N,/TriggerIN*%
X134027301Y-60648600D02*
X135810300Y-60648600D01*
D21*
X138655100Y-61410600D02*
X138655100Y-60496200D01*
D20*
X135962700Y-60496200D02*
X135962700Y-59363400D01*
X133168700Y-59789999D02*
X134027301Y-60648600D01*
D21*
X137522300Y-59363400D02*
X135962700Y-59363400D01*
D20*
X135810300Y-60648600D02*
X135962700Y-60496200D01*
X133168700Y-59465000D02*
X133168700Y-59789999D01*
D21*
X138655100Y-60496200D02*
X137522300Y-59363400D01*
D20*
%TO.N,GND*%
X119046300Y-72231000D02*
X119351100Y-71926200D01*
D21*
X131004700Y-58718200D02*
X133625900Y-58718200D01*
D22*
X128974300Y-72354600D02*
X139474100Y-72354600D01*
X139474100Y-72354600D02*
X142973100Y-75853600D01*
D23*
X113661500Y-81171800D02*
X113661500Y-78073000D01*
D24*
X124735900Y-52825400D02*
X130120700Y-52825400D01*
D22*
X144159019Y-65693600D02*
X145361100Y-65693600D01*
X142917894Y-75908806D02*
X142917894Y-126743806D01*
D21*
X133818700Y-59465000D02*
X133818700Y-59033400D01*
D24*
X132660700Y-55365400D02*
X135403900Y-55365400D01*
D21*
X133625900Y-58718200D02*
X133818700Y-58911000D01*
D20*
X119351100Y-71926200D02*
X120875100Y-71926200D01*
D24*
X135403900Y-55365400D02*
X135962700Y-55924200D01*
D22*
X128901500Y-72281800D02*
X128974300Y-72354600D01*
D21*
X135388700Y-57463400D02*
X135962700Y-57463400D01*
D23*
X128596700Y-71977000D02*
X128901500Y-72281800D01*
D22*
X140885471Y-128776229D02*
X139240300Y-128776229D01*
D24*
X124177100Y-53384200D02*
X124735900Y-52825400D01*
X130120700Y-52825400D02*
X132660700Y-55365400D01*
D20*
X119046300Y-72739000D02*
X119046300Y-72231000D01*
D23*
X125243900Y-71977000D02*
X128596700Y-71977000D01*
D22*
X142917894Y-126743806D02*
X140885471Y-128776229D01*
D24*
X142412400Y-58879900D02*
X140995900Y-57463400D01*
D21*
X133818700Y-58911000D02*
X133818700Y-59465000D01*
D24*
X124177100Y-54552600D02*
X124177100Y-53384200D01*
D23*
X142412400Y-59378600D02*
X142412400Y-58879900D01*
D21*
X133818700Y-59033400D02*
X135388700Y-57463400D01*
D22*
X139474100Y-70378519D02*
X144159019Y-65693600D01*
D21*
X130273100Y-59449800D02*
X131004700Y-58718200D01*
D24*
X135962700Y-55924200D02*
X135962700Y-57463400D01*
D22*
X139474100Y-72354600D02*
X139474100Y-70378519D01*
D24*
X140995900Y-57463400D02*
X135962700Y-57463400D01*
D21*
%TO.N,/3V3*%
X130273100Y-57549800D02*
X124278700Y-63544200D01*
X122109500Y-76991000D02*
X116877100Y-76991000D01*
X124278700Y-63544200D02*
X124278700Y-74821800D01*
D20*
X132503500Y-57549800D02*
X132518700Y-57565000D01*
D21*
X124278700Y-74821800D02*
X122109500Y-76991000D01*
X130273100Y-57549800D02*
X132503500Y-57549800D01*
%TO.N,Net-(D1-K)*%
X107921100Y-70835646D02*
X107921100Y-68675000D01*
X107186146Y-71570600D02*
X107921100Y-70835646D01*
D20*
%TO.N,/EN*%
X116021100Y-73066600D02*
X116021100Y-54368600D01*
X117593500Y-74639000D02*
X116021100Y-73066600D01*
X119076700Y-74669400D02*
X119046300Y-74639000D01*
X119960700Y-74669400D02*
X119076700Y-74669400D01*
X119046300Y-74639000D02*
X117593500Y-74639000D01*
D21*
%TO.N,Net-(J6-Pin_1)*%
X144939100Y-110940600D02*
X150339100Y-110940600D01*
D20*
%TO.N,/DeployerDetectionSW1OUT*%
X141558778Y-124766278D02*
X141558778Y-123474707D01*
X141558778Y-123474707D02*
X139240300Y-121156229D01*
D22*
%TO.N,/BurnWireIN*%
X145361100Y-68233600D02*
X145361100Y-70773600D01*
D21*
%TO.N,/DeployerDetectionSW2OUT*%
X140480100Y-64556400D02*
X140788700Y-64865000D01*
D20*
X143227100Y-71179600D02*
X143227100Y-68776600D01*
X145361100Y-73313600D02*
X143227100Y-71179600D01*
D21*
X140788700Y-64865000D02*
X140788700Y-65121200D01*
D24*
X140587400Y-61303300D02*
X140480100Y-61410600D01*
D21*
X140480100Y-61410600D02*
X140480100Y-64556400D01*
D24*
X140587400Y-59378600D02*
X140587400Y-61303300D01*
D21*
%TO.N,/TriggerOUT*%
X133829100Y-57554600D02*
X133818700Y-57565000D01*
X133829100Y-56279800D02*
X133829100Y-57554600D01*
%TD*%
%TA.AperFunction,Conductor*%
%TO.N,/DeployerDetectionSW2OUT*%
G36*
X140487940Y-61418376D02*
G01*
X140488785Y-61419221D01*
X140968495Y-61950649D01*
X140971495Y-61959087D01*
X140970519Y-61963202D01*
X140683175Y-62616113D01*
X140676706Y-62622305D01*
X140672466Y-62623100D01*
X140287734Y-62623100D01*
X140279461Y-62619673D01*
X140277025Y-62616113D01*
X139989680Y-61963202D01*
X139989484Y-61954249D01*
X139991702Y-61950652D01*
X140471415Y-61419220D01*
X140479502Y-61415376D01*
X140487940Y-61418376D01*
G37*
%TD.AperFunction*%
%TD*%
%TA.AperFunction,Conductor*%
%TO.N,/TriggerIN*%
G36*
X138592827Y-60153442D02*
G01*
X138593849Y-60154610D01*
X139049518Y-60750738D01*
X139051820Y-60759392D01*
X139050215Y-60763930D01*
X138663962Y-61397921D01*
X138656731Y-61403204D01*
X138647883Y-61401826D01*
X138645293Y-61399682D01*
X138166161Y-60869938D01*
X138163153Y-60861504D01*
X138163703Y-60858499D01*
X138194196Y-60763930D01*
X138302025Y-60429515D01*
X138304884Y-60424839D01*
X138576282Y-60153441D01*
X138584554Y-60150015D01*
X138592827Y-60153442D01*
G37*
%TD.AperFunction*%
%TD*%
%TA.AperFunction,Conductor*%
%TO.N,GND*%
G36*
X140390839Y-128206327D02*
G01*
X140396157Y-128209375D01*
X141438401Y-129251619D01*
X141441828Y-129259892D01*
X141438401Y-129268165D01*
X141431998Y-129271442D01*
X139253858Y-129624034D01*
X139245143Y-129621973D01*
X139240438Y-129614354D01*
X139240288Y-129612501D01*
X139239594Y-128779265D01*
X139240486Y-128774782D01*
X139561677Y-128000342D01*
X139568011Y-127994014D01*
X139575439Y-127993504D01*
X140390839Y-128206327D01*
G37*
%TD.AperFunction*%
%TD*%
%TA.AperFunction,Conductor*%
%TO.N,/EN*%
G36*
X118481930Y-74163331D02*
G01*
X119036658Y-74630047D01*
X119040783Y-74637996D01*
X119038079Y-74646532D01*
X119036658Y-74647953D01*
X118481930Y-75114668D01*
X118473394Y-75117372D01*
X118468512Y-75115826D01*
X118222345Y-74972500D01*
X117827113Y-74742384D01*
X117821688Y-74735260D01*
X117821300Y-74732273D01*
X117821300Y-74545726D01*
X117824727Y-74537453D01*
X117827110Y-74535617D01*
X118468513Y-74162172D01*
X118477385Y-74160972D01*
X118481930Y-74163331D01*
G37*
%TD.AperFunction*%
%TD*%
%TA.AperFunction,Conductor*%
%TO.N,/TriggerOUT*%
G36*
X134066224Y-56279748D02*
G01*
X134074482Y-56283208D01*
X134077876Y-56291495D01*
X134077818Y-56292612D01*
X134030154Y-56769264D01*
X134025921Y-56777155D01*
X134018512Y-56779800D01*
X133639688Y-56779800D01*
X133631415Y-56776373D01*
X133628046Y-56769264D01*
X133580381Y-56292612D01*
X133582968Y-56284039D01*
X133590859Y-56279806D01*
X133591965Y-56279748D01*
X133829100Y-56278800D01*
X134066224Y-56279748D01*
G37*
%TD.AperFunction*%
%TD*%
%TA.AperFunction,Conductor*%
%TO.N,/EN*%
G36*
X116025589Y-54369465D02*
G01*
X116794824Y-54689072D01*
X116801149Y-54695411D01*
X116801140Y-54704366D01*
X116800806Y-54705097D01*
X116124330Y-56062120D01*
X116117572Y-56067995D01*
X116113859Y-56068600D01*
X115928341Y-56068600D01*
X115920068Y-56065173D01*
X115917870Y-56062120D01*
X115241393Y-54705097D01*
X115240769Y-54696164D01*
X115246644Y-54689406D01*
X115247361Y-54689078D01*
X116016611Y-54369464D01*
X116025566Y-54369456D01*
X116025589Y-54369465D01*
G37*
%TD.AperFunction*%
%TD*%
%TA.AperFunction,Conductor*%
%TO.N,/DeployerDetectionSW1OUT*%
G36*
X141658542Y-124269705D02*
G01*
X141661400Y-124274373D01*
X141786430Y-124660365D01*
X141785719Y-124669291D01*
X141779816Y-124674763D01*
X141563295Y-124765387D01*
X141554341Y-124765420D01*
X141554261Y-124765387D01*
X141337739Y-124674763D01*
X141331430Y-124668407D01*
X141331125Y-124660366D01*
X141456156Y-124274373D01*
X141461966Y-124267558D01*
X141467287Y-124266278D01*
X141650269Y-124266278D01*
X141658542Y-124269705D01*
G37*
%TD.AperFunction*%
%TD*%
%TA.AperFunction,Conductor*%
%TO.N,/TriggerIN*%
G36*
X135970939Y-59370573D02*
G01*
X136455272Y-59851058D01*
X136458732Y-59859317D01*
X136456203Y-59866629D01*
X136066213Y-60358965D01*
X136058390Y-60363322D01*
X136057042Y-60363400D01*
X135868358Y-60363400D01*
X135860085Y-60359973D01*
X135859187Y-60358965D01*
X135837022Y-60330984D01*
X135469195Y-59866627D01*
X135466745Y-59858016D01*
X135470126Y-59851059D01*
X135954460Y-59370573D01*
X135962747Y-59367180D01*
X135970939Y-59370573D01*
G37*
%TD.AperFunction*%
%TD*%
%TA.AperFunction,Conductor*%
%TO.N,Net-(D1-K)*%
G36*
X108158224Y-68674948D02*
G01*
X108166482Y-68678408D01*
X108169876Y-68686695D01*
X108169818Y-68687812D01*
X108122154Y-69164464D01*
X108117921Y-69172355D01*
X108110512Y-69175000D01*
X107731688Y-69175000D01*
X107723415Y-69171573D01*
X107720046Y-69164464D01*
X107672381Y-68687812D01*
X107674968Y-68679239D01*
X107682859Y-68675006D01*
X107683965Y-68674948D01*
X107921100Y-68674000D01*
X108158224Y-68674948D01*
G37*
%TD.AperFunction*%
%TD*%
%TA.AperFunction,Conductor*%
%TO.N,/DeployerDetectionSW1OUT*%
G36*
X140022969Y-120835740D02*
G01*
X140029294Y-120842079D01*
X140029575Y-120842832D01*
X140396637Y-121939629D01*
X140510794Y-122280733D01*
X140510170Y-122289666D01*
X140507972Y-122292719D01*
X140376790Y-122423901D01*
X140368517Y-122427328D01*
X140364804Y-122426723D01*
X139955272Y-122289666D01*
X139700535Y-122204413D01*
X138926903Y-121945504D01*
X138920145Y-121939629D01*
X138919521Y-121930696D01*
X138919797Y-121929955D01*
X139237738Y-121160012D01*
X139244059Y-121153677D01*
X140014015Y-120835731D01*
X140022969Y-120835740D01*
G37*
%TD.AperFunction*%
%TD*%
%TA.AperFunction,Conductor*%
%TO.N,GND*%
G36*
X131164204Y-58524736D02*
G01*
X131170462Y-58531140D01*
X131171302Y-58535493D01*
X131171302Y-58916507D01*
X131170821Y-58919826D01*
X131000776Y-59494656D01*
X130995143Y-59501617D01*
X130988691Y-59503005D01*
X130279704Y-59450364D01*
X130271707Y-59446334D01*
X130269546Y-59442614D01*
X130261132Y-59418941D01*
X130098156Y-58960393D01*
X130098614Y-58951452D01*
X130104826Y-58945617D01*
X131155250Y-58524633D01*
X131164204Y-58524736D01*
G37*
%TD.AperFunction*%
%TD*%
%TA.AperFunction,Conductor*%
%TO.N,GND*%
G36*
X120876100Y-71926200D02*
G01*
X120722027Y-72295752D01*
X120214700Y-72084366D01*
X120214700Y-72084365D01*
X120082300Y-72029199D01*
X120075981Y-72022854D01*
X120075100Y-72018399D01*
X120075100Y-71833999D01*
X120078527Y-71825726D01*
X120082296Y-71823201D01*
X120722027Y-71556648D01*
X120876100Y-71926200D01*
G37*
%TD.AperFunction*%
%TD*%
%TA.AperFunction,Conductor*%
%TO.N,/DeployerDetectionSW2OUT*%
G36*
X140979111Y-64126974D02*
G01*
X140983815Y-64134594D01*
X140983965Y-64136406D01*
X140988643Y-65109444D01*
X140985256Y-65117733D01*
X140976999Y-65121200D01*
X140593173Y-65121200D01*
X140585368Y-65118216D01*
X140131287Y-64711613D01*
X140127410Y-64703541D01*
X140129594Y-64696066D01*
X140481065Y-64207540D01*
X140488676Y-64202827D01*
X140970399Y-64124912D01*
X140979111Y-64126974D01*
G37*
%TD.AperFunction*%
%TD*%
%TA.AperFunction,Conductor*%
%TO.N,GND*%
G36*
X136263023Y-56466827D02*
G01*
X136265628Y-56470792D01*
X136459857Y-56961194D01*
X136459717Y-56970147D01*
X136457219Y-56973808D01*
X135970940Y-57456225D01*
X135962653Y-57459619D01*
X135954460Y-57456225D01*
X135468180Y-56973808D01*
X135464720Y-56965549D01*
X135465541Y-56961198D01*
X135659772Y-56470791D01*
X135666005Y-56464362D01*
X135670650Y-56463400D01*
X136254750Y-56463400D01*
X136263023Y-56466827D01*
G37*
%TD.AperFunction*%
%TD*%
%TA.AperFunction,Conductor*%
%TO.N,GND*%
G36*
X136539307Y-56984071D02*
G01*
X137179120Y-57161027D01*
X137186179Y-57166535D01*
X137187700Y-57172303D01*
X137187700Y-57754496D01*
X137184273Y-57762769D01*
X137179119Y-57765773D01*
X136539308Y-57942727D01*
X136530421Y-57941629D01*
X136528657Y-57940403D01*
X135972341Y-57472353D01*
X135968216Y-57464404D01*
X135970920Y-57455868D01*
X135972341Y-57454447D01*
X136314548Y-57166535D01*
X136528657Y-56986395D01*
X136537193Y-56983692D01*
X136539307Y-56984071D01*
G37*
%TD.AperFunction*%
%TD*%
%TA.AperFunction,Conductor*%
%TO.N,/BurnWireIN*%
G36*
X146198707Y-68233585D02*
G01*
X146206975Y-68237022D01*
X146210392Y-68245299D01*
X146210372Y-68245972D01*
X146111748Y-69922587D01*
X146107841Y-69930645D01*
X146100068Y-69933600D01*
X144622132Y-69933600D01*
X144613859Y-69930173D01*
X144610452Y-69922587D01*
X144511827Y-68245970D01*
X144514762Y-68237512D01*
X144522820Y-68233605D01*
X144523478Y-68233585D01*
X145361100Y-68232600D01*
X146198707Y-68233585D01*
G37*
%TD.AperFunction*%
%TD*%
%TA.AperFunction,Conductor*%
%TO.N,/3V3*%
G36*
X116889907Y-76742280D02*
G01*
X117366564Y-76789946D01*
X117374455Y-76794179D01*
X117377100Y-76801588D01*
X117377100Y-77180411D01*
X117373673Y-77188684D01*
X117366564Y-77192053D01*
X116889912Y-77239718D01*
X116881339Y-77237131D01*
X116877106Y-77229240D01*
X116877048Y-77228123D01*
X116876890Y-77188684D01*
X116876100Y-76991000D01*
X116877048Y-76753874D01*
X116880508Y-76745617D01*
X116888795Y-76742223D01*
X116889907Y-76742280D01*
G37*
%TD.AperFunction*%
%TD*%
%TA.AperFunction,Conductor*%
%TO.N,/DeployerDetectionSW2OUT*%
G36*
X143448138Y-68868114D02*
G01*
X143454447Y-68874470D01*
X143454752Y-68882512D01*
X143329722Y-69268505D01*
X143323912Y-69275320D01*
X143318591Y-69276600D01*
X143135609Y-69276600D01*
X143127336Y-69273173D01*
X143124478Y-69268505D01*
X142999447Y-68882512D01*
X143000158Y-68873586D01*
X143006060Y-68868114D01*
X143222584Y-68777489D01*
X143231537Y-68777457D01*
X143448138Y-68868114D01*
G37*
%TD.AperFunction*%
%TD*%
%TA.AperFunction,Conductor*%
%TO.N,/DeployerDetectionSW2OUT*%
G36*
X140885477Y-60201527D02*
G01*
X140888794Y-60208201D01*
X140991740Y-60954371D01*
X140989476Y-60963035D01*
X140987879Y-60964753D01*
X140489430Y-61403388D01*
X140480956Y-61406281D01*
X140472918Y-61402334D01*
X140472467Y-61401790D01*
X140022367Y-60823305D01*
X140019991Y-60814671D01*
X140020870Y-60811457D01*
X140284342Y-60205137D01*
X140290782Y-60198915D01*
X140295073Y-60198100D01*
X140877204Y-60198100D01*
X140885477Y-60201527D01*
G37*
%TD.AperFunction*%
%TD*%
%TA.AperFunction,Conductor*%
%TO.N,GND*%
G36*
X145034357Y-64912431D02*
G01*
X145040040Y-64918461D01*
X145360910Y-65690734D01*
X145361805Y-65695233D01*
X145361109Y-66532274D01*
X145357675Y-66540544D01*
X145349779Y-66543958D01*
X144342328Y-66575850D01*
X144333951Y-66572687D01*
X144333685Y-66572429D01*
X143289837Y-65528581D01*
X143286410Y-65520308D01*
X143289837Y-65512035D01*
X143294290Y-65509250D01*
X145025420Y-64911890D01*
X145034357Y-64912431D01*
G37*
%TD.AperFunction*%
%TD*%
%TA.AperFunction,Conductor*%
%TO.N,/EN*%
G36*
X119863713Y-74442458D02*
G01*
X119869185Y-74448361D01*
X119959809Y-74664883D01*
X119959842Y-74673837D01*
X119959809Y-74673917D01*
X119869185Y-74890438D01*
X119862829Y-74896747D01*
X119854787Y-74897052D01*
X119468795Y-74772022D01*
X119461980Y-74766212D01*
X119460700Y-74760891D01*
X119460700Y-74577908D01*
X119464127Y-74569635D01*
X119468791Y-74566778D01*
X119854788Y-74441747D01*
X119863713Y-74442458D01*
G37*
%TD.AperFunction*%
%TD*%
%TA.AperFunction,Conductor*%
%TO.N,/EN*%
G36*
X119704636Y-74221144D02*
G01*
X119958426Y-74566307D01*
X119960700Y-74573238D01*
X119960700Y-74764962D01*
X119957757Y-74772721D01*
X119704778Y-75058213D01*
X119696726Y-75062133D01*
X119689619Y-75060247D01*
X119237965Y-74764962D01*
X119060277Y-74648791D01*
X119055228Y-74641397D01*
X119056887Y-74632598D01*
X119060276Y-74629208D01*
X119688810Y-74218281D01*
X119697607Y-74216623D01*
X119704636Y-74221144D01*
G37*
%TD.AperFunction*%
%TD*%
%TA.AperFunction,Conductor*%
%TO.N,/TriggerIN*%
G36*
X133364454Y-59440900D02*
G01*
X133368969Y-59448633D01*
X133369072Y-59449882D01*
X133380688Y-59855668D01*
X133377499Y-59864036D01*
X133377266Y-59864276D01*
X133248386Y-59993156D01*
X133240113Y-59996583D01*
X133231840Y-59993156D01*
X133231195Y-59992456D01*
X133061658Y-59792811D01*
X133058915Y-59784287D01*
X133059506Y-59781451D01*
X133165658Y-59471118D01*
X133171577Y-59464402D01*
X133175138Y-59463316D01*
X133355795Y-59438625D01*
X133364454Y-59440900D01*
G37*
%TD.AperFunction*%
%TD*%
%TA.AperFunction,Conductor*%
%TO.N,/DeployerDetectionSW2OUT*%
G36*
X144236590Y-72043104D02*
G01*
X145674496Y-72524324D01*
X145681254Y-72530199D01*
X145681878Y-72539132D01*
X145681597Y-72539885D01*
X145363662Y-73309814D01*
X145357337Y-73316153D01*
X145357314Y-73316162D01*
X144587385Y-73634097D01*
X144578430Y-73634088D01*
X144572105Y-73627749D01*
X144571824Y-73626996D01*
X144467795Y-73316153D01*
X144090605Y-72189092D01*
X144091229Y-72180162D01*
X144093424Y-72177112D01*
X144224610Y-72045926D01*
X144232882Y-72042500D01*
X144236590Y-72043104D01*
G37*
%TD.AperFunction*%
%TD*%
%TA.AperFunction,Conductor*%
%TO.N,/3V3*%
G36*
X130274116Y-57552513D02*
G01*
X130276875Y-57556536D01*
X130476178Y-58040026D01*
X130476163Y-58048981D01*
X130470891Y-58054796D01*
X129572773Y-58536518D01*
X129563863Y-58537408D01*
X129558970Y-58534480D01*
X129287653Y-58263163D01*
X129284226Y-58254890D01*
X129285007Y-58250688D01*
X129545293Y-57574979D01*
X129551463Y-57568494D01*
X129555904Y-57567492D01*
X130265758Y-57549299D01*
X130274116Y-57552513D01*
G37*
%TD.AperFunction*%
%TD*%
%TA.AperFunction,Conductor*%
%TO.N,GND*%
G36*
X124349174Y-52804809D02*
G01*
X124350981Y-52806287D01*
X124762609Y-53217915D01*
X124765816Y-53223930D01*
X125024357Y-54538653D01*
X125022591Y-54547432D01*
X125015135Y-54552391D01*
X125012887Y-54552611D01*
X124178733Y-54553305D01*
X124174234Y-54552410D01*
X123404906Y-54232763D01*
X123398581Y-54226424D01*
X123398590Y-54217469D01*
X123399639Y-54215500D01*
X124332959Y-52808092D01*
X124340385Y-52803093D01*
X124349174Y-52804809D01*
G37*
%TD.AperFunction*%
%TD*%
%TA.AperFunction,Conductor*%
%TO.N,/BurnWireIN*%
G36*
X146108341Y-69077027D02*
G01*
X146111748Y-69084613D01*
X146210372Y-70761227D01*
X146207437Y-70769687D01*
X146199379Y-70773594D01*
X146198706Y-70773614D01*
X145361114Y-70774599D01*
X145361086Y-70774599D01*
X144523493Y-70773614D01*
X144515224Y-70770177D01*
X144511807Y-70761900D01*
X144511826Y-70761255D01*
X144610452Y-69084612D01*
X144614359Y-69076555D01*
X144622132Y-69073600D01*
X146100068Y-69073600D01*
X146108341Y-69077027D01*
G37*
%TD.AperFunction*%
%TD*%
%TA.AperFunction,Conductor*%
%TO.N,GND*%
G36*
X119287140Y-71862241D02*
G01*
X119421537Y-71996638D01*
X119422064Y-71997201D01*
X119633921Y-72239000D01*
X119689208Y-72302100D01*
X119692083Y-72310581D01*
X119688118Y-72318610D01*
X119686820Y-72319597D01*
X119055140Y-72733452D01*
X119046342Y-72735119D01*
X119039103Y-72730317D01*
X118706327Y-72248829D01*
X118704443Y-72240077D01*
X118709301Y-72232554D01*
X118709451Y-72232452D01*
X119272423Y-71860749D01*
X119281213Y-71859052D01*
X119287140Y-71862241D01*
G37*
%TD.AperFunction*%
%TD*%
%TA.AperFunction,Conductor*%
%TO.N,GND*%
G36*
X142069010Y-58112451D02*
G01*
X142069057Y-58112498D01*
X142481127Y-58534872D01*
X142616551Y-58673682D01*
X142619875Y-58681996D01*
X142619391Y-58685185D01*
X142415016Y-59372880D01*
X142409375Y-59379834D01*
X142406596Y-59380908D01*
X141911014Y-59502849D01*
X141902162Y-59501498D01*
X141896922Y-59494532D01*
X141638336Y-58534872D01*
X141639492Y-58525992D01*
X141641356Y-58523559D01*
X142052465Y-58112450D01*
X142060737Y-58109024D01*
X142069010Y-58112451D01*
G37*
%TD.AperFunction*%
%TD*%
%TA.AperFunction,Conductor*%
%TO.N,Net-(D1-K)*%
G36*
X107616793Y-70869876D02*
G01*
X107886869Y-71139952D01*
X107890296Y-71148225D01*
X107888696Y-71154130D01*
X107560836Y-71714884D01*
X107553702Y-71720297D01*
X107546284Y-71719799D01*
X107189950Y-71573163D01*
X107183603Y-71566845D01*
X107183582Y-71566795D01*
X107036946Y-71210459D01*
X107036967Y-71201507D01*
X107041859Y-71195910D01*
X107602618Y-70868048D01*
X107611486Y-70866831D01*
X107616793Y-70869876D01*
G37*
%TD.AperFunction*%
%TD*%
%TA.AperFunction,Conductor*%
%TO.N,/DeployerDetectionSW2OUT*%
G36*
X140681770Y-63208027D02*
G01*
X140683513Y-63210252D01*
X140977279Y-63696780D01*
X140978622Y-63705634D01*
X140975560Y-63711077D01*
X140492181Y-64197270D01*
X140483918Y-64200721D01*
X140475635Y-64197318D01*
X140475603Y-64197286D01*
X139990309Y-63711022D01*
X139986890Y-63702745D01*
X139988524Y-63696794D01*
X140276701Y-63210336D01*
X140283866Y-63204965D01*
X140286767Y-63204600D01*
X140673497Y-63204600D01*
X140681770Y-63208027D01*
G37*
%TD.AperFunction*%
%TD*%
%TA.AperFunction,Conductor*%
%TO.N,/DeployerDetectionSW2OUT*%
G36*
X140595240Y-59386376D02*
G01*
X140596085Y-59387221D01*
X141076501Y-59919431D01*
X141079501Y-59927869D01*
X141079053Y-59930531D01*
X140889849Y-60582660D01*
X140884252Y-60589651D01*
X140878612Y-60591100D01*
X140296188Y-60591100D01*
X140287915Y-60587673D01*
X140284951Y-60582660D01*
X140095746Y-59930531D01*
X140096732Y-59921631D01*
X140098294Y-59919436D01*
X140578715Y-59387220D01*
X140586802Y-59383376D01*
X140595240Y-59386376D01*
G37*
%TD.AperFunction*%
%TD*%
%TA.AperFunction,Conductor*%
%TO.N,/3V3*%
G36*
X130850399Y-57071676D02*
G01*
X131491016Y-57346758D01*
X131497266Y-57353171D01*
X131498100Y-57357509D01*
X131498100Y-57742090D01*
X131494673Y-57750363D01*
X131491016Y-57752841D01*
X130850399Y-58027923D01*
X130841445Y-58028038D01*
X130838251Y-58026125D01*
X130282741Y-57558753D01*
X130278616Y-57550804D01*
X130281320Y-57542268D01*
X130282741Y-57540847D01*
X130513432Y-57346758D01*
X130838251Y-57073473D01*
X130846787Y-57070770D01*
X130850399Y-57071676D01*
G37*
%TD.AperFunction*%
%TD*%
%TA.AperFunction,Conductor*%
%TO.N,Net-(J6-Pin_1)*%
G36*
X145441975Y-110445262D02*
G01*
X145933376Y-110737199D01*
X145938738Y-110744371D01*
X145939100Y-110747258D01*
X145939100Y-111133941D01*
X145935673Y-111142214D01*
X145933376Y-111144000D01*
X145441977Y-111435936D01*
X145433114Y-111437215D01*
X145427696Y-111434117D01*
X144946273Y-110948839D01*
X144942880Y-110940553D01*
X144946273Y-110932360D01*
X145427697Y-110447080D01*
X145435954Y-110443622D01*
X145441975Y-110445262D01*
G37*
%TD.AperFunction*%
%TD*%
%TA.AperFunction,Conductor*%
%TO.N,GND*%
G36*
X135244941Y-57252473D02*
G01*
X135956749Y-57460744D01*
X135963726Y-57466356D01*
X135964891Y-57469468D01*
X136070434Y-57951051D01*
X136068857Y-57959866D01*
X136061510Y-57964985D01*
X136060620Y-57965144D01*
X135031337Y-58108570D01*
X135022670Y-58106318D01*
X135021449Y-58105255D01*
X134750395Y-57834201D01*
X134746968Y-57825928D01*
X134749791Y-57818306D01*
X135232783Y-57256078D01*
X135240773Y-57252036D01*
X135244941Y-57252473D01*
G37*
%TD.AperFunction*%
%TD*%
%TA.AperFunction,Conductor*%
%TO.N,Net-(J6-Pin_1)*%
G36*
X149496343Y-110097834D02*
G01*
X150331812Y-110932322D01*
X150335244Y-110940593D01*
X150331822Y-110948868D01*
X150331812Y-110948878D01*
X149496343Y-111783365D01*
X149488068Y-111786787D01*
X149480968Y-111784381D01*
X148643693Y-111144112D01*
X148639203Y-111136364D01*
X148639100Y-111134818D01*
X148639100Y-110746381D01*
X148642527Y-110738108D01*
X148643686Y-110737092D01*
X149480969Y-110096817D01*
X149489621Y-110094515D01*
X149496343Y-110097834D01*
G37*
%TD.AperFunction*%
%TD*%
%TA.AperFunction,Conductor*%
%TO.N,/TriggerIN*%
G36*
X136539999Y-58885276D02*
G01*
X137180616Y-59160358D01*
X137186866Y-59166771D01*
X137187700Y-59171109D01*
X137187700Y-59555690D01*
X137184273Y-59563963D01*
X137180616Y-59566441D01*
X136539999Y-59841523D01*
X136531045Y-59841638D01*
X136527851Y-59839725D01*
X135972341Y-59372353D01*
X135968216Y-59364404D01*
X135970920Y-59355868D01*
X135972341Y-59354447D01*
X136203032Y-59160358D01*
X136527851Y-58887073D01*
X136536387Y-58884370D01*
X136539999Y-58885276D01*
G37*
%TD.AperFunction*%
%TD*%
%TA.AperFunction,Conductor*%
%TO.N,GND*%
G36*
X123235577Y-71183885D02*
G01*
X123256219Y-71200519D01*
X123683581Y-71627881D01*
X123717066Y-71689204D01*
X123719900Y-71715562D01*
X123719900Y-74762845D01*
X123700215Y-74829884D01*
X123683581Y-74850526D01*
X122224626Y-76309481D01*
X122163303Y-76342966D01*
X122136945Y-76345800D01*
X120766062Y-76345800D01*
X120699023Y-76326115D01*
X120678381Y-76309481D01*
X120251019Y-75882119D01*
X120217534Y-75820796D01*
X120214700Y-75794438D01*
X120214700Y-75108164D01*
X120234385Y-75041125D01*
X120257504Y-75014445D01*
X120258743Y-75013370D01*
X120258749Y-75013367D01*
X120343582Y-74915463D01*
X120397397Y-74797626D01*
X120415833Y-74669400D01*
X120397397Y-74541174D01*
X120343582Y-74423337D01*
X120258749Y-74325433D01*
X120258747Y-74325432D01*
X120258745Y-74325429D01*
X120257498Y-74324348D01*
X120256605Y-74322958D01*
X120252941Y-74318730D01*
X120253548Y-74318203D01*
X120219723Y-74265570D01*
X120214700Y-74230635D01*
X120214700Y-71715562D01*
X120234385Y-71648523D01*
X120251019Y-71627881D01*
X120678381Y-71200519D01*
X120739704Y-71167034D01*
X120766062Y-71164200D01*
X123168538Y-71164200D01*
X123235577Y-71183885D01*
G37*
%TD.AperFunction*%
%TD*%
M02*
