%TF.GenerationSoftware,KiCad,Pcbnew,8.0.8+dfsg-1*%
%TF.CreationDate,2025-07-13T00:35:59+05:30*%
%TF.ProjectId,sanket,73616e6b-6574-42e6-9b69-6361645f7063,4.1*%
%TF.SameCoordinates,Original*%
%TF.FileFunction,Profile,NP*%
%FSLAX46Y46*%
G04 Gerber Fmt 4.6, Leading zero omitted, Abs format (unit mm)*
G04 Created by KiCad (PCBNEW 8.0.8+dfsg-1) date 2025-07-13 00:35:59*
%MOMM*%
%LPD*%
G01*
G04 APERTURE LIST*
%TA.AperFunction,Profile*%
%ADD10C,0.200000*%
%TD*%
%TA.AperFunction,Profile*%
%ADD11C,0.050000*%
%TD*%
G04 APERTURE END LIST*
D10*
X188301100Y-128339600D02*
X188301100Y-143978600D01*
X182470100Y-128339600D02*
X182470100Y-121973600D01*
X188301100Y-128339600D02*
X182470100Y-128339600D01*
X182470100Y-121973600D02*
X188301100Y-121973600D01*
X154806100Y-145178600D02*
G75*
G02*
X153606100Y-143978600I0J1200000D01*
G01*
X96301100Y-108568600D02*
G75*
G02*
X97501100Y-107368600I1200000J0D01*
G01*
D11*
X126615500Y-53841400D02*
X128952300Y-53841400D01*
X128952300Y-55365400D01*
X126615500Y-55365400D01*
X126615500Y-53841400D01*
D10*
X99221100Y-106168600D02*
X99221100Y-88298600D01*
X137670300Y-111886200D02*
G75*
G02*
X131170300Y-111886229I-3250000J0D01*
G01*
X97501100Y-49288600D02*
X132086100Y-49288600D01*
X187101100Y-107368600D02*
G75*
G02*
X188301100Y-108568600I0J-1200000D01*
G01*
X185381100Y-88298600D02*
G75*
G02*
X186581100Y-87098600I1200000J0D01*
G01*
X188301100Y-108568600D02*
X188301100Y-121973600D01*
X97501100Y-145178600D02*
G75*
G02*
X96301100Y-143978600I0J1200000D01*
G01*
X99221100Y-106168600D02*
G75*
G02*
X98021100Y-107368600I-1200000J0D01*
G01*
X134486100Y-52218600D02*
X152406100Y-52218600D01*
X188301100Y-143978600D02*
G75*
G02*
X187101100Y-145178600I-1200000J0D01*
G01*
X131170300Y-105386230D02*
X131170300Y-111886229D01*
X175731100Y-100733600D02*
G75*
G02*
X172631100Y-100733600I-1550000J0D01*
G01*
X172631100Y-100733600D02*
G75*
G02*
X175731100Y-100733600I1550000J0D01*
G01*
X159381100Y-104233600D02*
G75*
G02*
X156781100Y-104233600I-1300000J0D01*
G01*
X156781100Y-104233600D02*
G75*
G02*
X159381100Y-104233600I1300000J0D01*
G01*
X188301100Y-85898600D02*
G75*
G02*
X187101100Y-87098600I-1200000J0D01*
G01*
D11*
X168881100Y-115258600D02*
X176501100Y-115258600D01*
X176501100Y-117798600D01*
X168881100Y-117798600D01*
X168881100Y-115258600D01*
D10*
X133286100Y-143978600D02*
G75*
G02*
X132086100Y-145178600I-1200000J0D01*
G01*
X187101100Y-145178600D02*
X154806100Y-145178600D01*
X151381100Y-104233600D02*
G75*
G02*
X148781100Y-104233600I-1300000J0D01*
G01*
X148781100Y-104233600D02*
G75*
G02*
X151381100Y-104233600I1300000J0D01*
G01*
X98021100Y-87098600D02*
X97501100Y-87098600D01*
X153606100Y-143978600D02*
X153606100Y-143448600D01*
X153431100Y-89083600D02*
G75*
G02*
X146931100Y-89083600I-3250000J0D01*
G01*
X103705300Y-130233600D02*
G75*
G02*
X100135300Y-130233600I-1785000J0D01*
G01*
X100135300Y-130233600D02*
G75*
G02*
X103705300Y-130233600I1785000J0D01*
G01*
X153606100Y-51018600D02*
X153606100Y-50488600D01*
X156231100Y-66733600D02*
G75*
G02*
X153131100Y-66733600I-1550000J0D01*
G01*
X153131100Y-66733600D02*
G75*
G02*
X156231100Y-66733600I1550000J0D01*
G01*
X185381100Y-88298600D02*
X185381100Y-106168600D01*
X153431100Y-89083600D02*
X153431100Y-82583600D01*
D11*
X153551100Y-119398600D02*
X179551100Y-119398600D01*
X179551100Y-130898600D01*
X153551100Y-130898600D01*
X153551100Y-119398600D01*
D10*
X152406100Y-142248600D02*
X134486100Y-142248600D01*
X133286100Y-143448600D02*
G75*
G02*
X134486100Y-142248600I1200000J0D01*
G01*
X132086100Y-49288600D02*
G75*
G02*
X133286100Y-50488600I0J-1200000D01*
G01*
X103420300Y-93733600D02*
G75*
G02*
X100220300Y-93733600I-1600000J0D01*
G01*
X100220300Y-93733600D02*
G75*
G02*
X103420300Y-93733600I1600000J0D01*
G01*
X152406100Y-142248600D02*
G75*
G02*
X153606100Y-143448600I0J-1200000D01*
G01*
D11*
X156181100Y-133038600D02*
X163801100Y-133038600D01*
X163801100Y-135578600D01*
X156181100Y-135578600D01*
X156181100Y-133038600D01*
D10*
X184466100Y-64233600D02*
G75*
G02*
X180896100Y-64233600I-1785000J0D01*
G01*
X180896100Y-64233600D02*
G75*
G02*
X184466100Y-64233600I1785000J0D01*
G01*
X187101100Y-87098600D02*
X186581100Y-87098600D01*
X97501100Y-87098600D02*
G75*
G02*
X96301100Y-85898600I0J1200000D01*
G01*
X133286100Y-143448600D02*
X133286100Y-143978600D01*
X153606100Y-51018600D02*
G75*
G02*
X152406100Y-52218600I-1200000J0D01*
G01*
X111970300Y-93733600D02*
G75*
G02*
X108870300Y-93733600I-1550000J0D01*
G01*
X108870300Y-93733600D02*
G75*
G02*
X111970300Y-93733600I1550000J0D01*
G01*
X135820300Y-90233600D02*
G75*
G02*
X133220300Y-90233600I-1300000J0D01*
G01*
X133220300Y-90233600D02*
G75*
G02*
X135820300Y-90233600I1300000J0D01*
G01*
X137670300Y-111886200D02*
X137670300Y-105386230D01*
X146931100Y-82583600D02*
G75*
G02*
X153431100Y-82583600I3250000J0D01*
G01*
X127820300Y-90233600D02*
G75*
G02*
X125220300Y-90233600I-1300000J0D01*
G01*
X125220300Y-90233600D02*
G75*
G02*
X127820300Y-90233600I1300000J0D01*
G01*
X186581100Y-107368600D02*
X187101100Y-107368600D01*
X146931100Y-82583600D02*
X146931100Y-89083600D01*
X131170300Y-105386230D02*
G75*
G02*
X137670300Y-105386230I3250000J1D01*
G01*
X188301100Y-50488600D02*
X188301100Y-85898600D01*
D11*
X126564700Y-56279800D02*
X128901500Y-56279800D01*
X128901500Y-57803800D01*
X126564700Y-57803800D01*
X126564700Y-56279800D01*
D10*
X98021100Y-87098600D02*
G75*
G02*
X99221100Y-88298600I0J-1200000D01*
G01*
X153606100Y-50488600D02*
G75*
G02*
X154806100Y-49288600I1200000J0D01*
G01*
X184381100Y-100733600D02*
G75*
G02*
X181181100Y-100733600I-1600000J0D01*
G01*
X181181100Y-100733600D02*
G75*
G02*
X184381100Y-100733600I1600000J0D01*
G01*
X134486100Y-52218600D02*
G75*
G02*
X133286100Y-51018600I0J1200000D01*
G01*
X131470300Y-127733600D02*
G75*
G02*
X128370300Y-127733600I-1550000J0D01*
G01*
X128370300Y-127733600D02*
G75*
G02*
X131470300Y-127733600I1550000J0D01*
G01*
X96301100Y-143978600D02*
X96301100Y-108568600D01*
X187101100Y-49288600D02*
G75*
G02*
X188301100Y-50488600I0J-1200000D01*
G01*
D11*
X168881100Y-133038600D02*
X176501100Y-133038600D01*
X176501100Y-135578600D01*
X168881100Y-135578600D01*
X168881100Y-133038600D01*
D10*
X96301100Y-85898600D02*
X96301100Y-50488600D01*
X186581100Y-107368600D02*
G75*
G02*
X185381100Y-106168600I0J1200000D01*
G01*
D11*
X156181100Y-115258600D02*
X163801100Y-115258600D01*
X163801100Y-117798600D01*
X156181100Y-117798600D01*
X156181100Y-115258600D01*
D10*
X97501100Y-107368600D02*
X98021100Y-107368600D01*
X96301100Y-50488600D02*
G75*
G02*
X97501100Y-49288600I1200000J0D01*
G01*
X154806100Y-49288600D02*
X187101100Y-49288600D01*
X133286100Y-50488600D02*
X133286100Y-51018600D01*
X132086100Y-145178600D02*
X97501100Y-145178600D01*
M02*
