M48
; DRILL file {KiCad 8.0.8+dfsg-1} date 2025-07-12T02:04:40+0530
; FORMAT={-:-/ absolute / inch / decimal}
; #@! TF.CreationDate,2025-07-12T02:04:40+05:30
; #@! TF.GenerationSoftware,Kicad,Pcbnew,8.0.8+dfsg-1
; #@! TF.FileFunction,Plated,1,2,PTH
FMAT,2
INCH
; #@! TA.AperFunction,Plated,PTH,ViaDrill
T1C0.0118
; #@! TA.AperFunction,Plated,PTH,ViaDrill
T2C0.0197
; #@! TA.AperFunction,Plated,PTH,ComponentDrill
T3C0.0197
; #@! TA.AperFunction,Plated,PTH,ComponentDrill
T4C0.0394
%
G90
G05
T1
X4.2489Y-2.7037
X4.6015Y-3.0311
X4.7229Y-2.9397
X5.2689Y-2.2157
X5.5732Y-4.9121
X5.6389Y-2.7077
T2
X4.2199Y-2.8177
X4.4749Y-3.0737
X4.4749Y-3.1957
X4.7589Y-2.8317
X4.7589Y-2.9837
X4.8389Y-2.8317
X4.9309Y-2.8337
X5.0749Y-2.8457
T3
X4.1424Y-3.4234
X4.4705Y-2.3188
X4.7949Y-3.1357
X5.5309Y-2.5277
T4
X4.3678Y-2.1405
X4.4678Y-2.1405
X4.5678Y-2.1405
X4.6678Y-2.1405
X4.8889Y-2.1477
X4.8889Y-2.2477
X5.1728Y-2.6777
X5.1728Y-2.7777
X5.4819Y-4.6699
X5.4819Y-4.7699
X5.4819Y-4.8699
X5.4819Y-4.9699
X5.4819Y-5.0699
X5.4819Y-5.1699
X5.7229Y-2.4864
X5.7229Y-2.5864
X5.7229Y-2.6864
X5.7229Y-2.7864
X5.7229Y-2.8864
X5.7229Y-2.9864
X5.9189Y-4.3677
M30
