%TF.GenerationSoftware,KiCad,Pcbnew,8.0.8+dfsg-1*%
%TF.CreationDate,2025-08-13T01:43:47+05:30*%
%TF.ProjectId,sanket,73616e6b-6574-42e6-9b69-6361645f7063,6*%
%TF.SameCoordinates,Original*%
%TF.FileFunction,Copper,L2,Bot*%
%TF.FilePolarity,Positive*%
%FSLAX46Y46*%
G04 Gerber Fmt 4.6, Leading zero omitted, Abs format (unit mm)*
G04 Created by KiCad (PCBNEW 8.0.8+dfsg-1) date 2025-08-13 01:43:47*
%MOMM*%
%LPD*%
G01*
G04 APERTURE LIST*
G04 Aperture macros list*
%AMRoundRect*
0 Rectangle with rounded corners*
0 $1 Rounding radius*
0 $2 $3 $4 $5 $6 $7 $8 $9 X,Y pos of 4 corners*
0 Add a 4 corners polygon primitive as box body*
4,1,4,$2,$3,$4,$5,$6,$7,$8,$9,$2,$3,0*
0 Add four circle primitives for the rounded corners*
1,1,$1+$1,$2,$3*
1,1,$1+$1,$4,$5*
1,1,$1+$1,$6,$7*
1,1,$1+$1,$8,$9*
0 Add four rect primitives between the rounded corners*
20,1,$1+$1,$2,$3,$4,$5,0*
20,1,$1+$1,$4,$5,$6,$7,0*
20,1,$1+$1,$6,$7,$8,$9,0*
20,1,$1+$1,$8,$9,$2,$3,0*%
%AMOutline4P*
0 Free polygon, 4 corners , with rotation*
0 The origin of the aperture is its center*
0 number of corners: always 4*
0 $1 to $8 corner X, Y*
0 $9 Rotation angle, in degrees counterclockwise*
0 create outline with 4 corners*
4,1,4,$1,$2,$3,$4,$5,$6,$7,$8,$1,$2,$9*%
G04 Aperture macros list end*
%TA.AperFunction,ComponentPad*%
%ADD10R,1.000000X1.000000*%
%TD*%
%TA.AperFunction,ComponentPad*%
%ADD11R,1.700000X1.700000*%
%TD*%
%TA.AperFunction,ComponentPad*%
%ADD12O,1.700000X1.700000*%
%TD*%
%TA.AperFunction,SMDPad,CuDef*%
%ADD13RoundRect,0.250000X0.475000X-0.250000X0.475000X0.250000X-0.475000X0.250000X-0.475000X-0.250000X0*%
%TD*%
%TA.AperFunction,SMDPad,CuDef*%
%ADD14RoundRect,0.093750X0.093750X0.106250X-0.093750X0.106250X-0.093750X-0.106250X0.093750X-0.106250X0*%
%TD*%
%TA.AperFunction,HeatsinkPad*%
%ADD15R,1.000000X1.600000*%
%TD*%
%TA.AperFunction,SMDPad,CuDef*%
%ADD16R,1.761200X0.850800*%
%TD*%
%TA.AperFunction,SMDPad,CuDef*%
%ADD17R,1.761200X3.150799*%
%TD*%
%TA.AperFunction,SMDPad,CuDef*%
%ADD18RoundRect,0.250000X-0.475000X0.250000X-0.475000X-0.250000X0.475000X-0.250000X0.475000X0.250000X0*%
%TD*%
%TA.AperFunction,SMDPad,CuDef*%
%ADD19R,1.300000X4.800000*%
%TD*%
%TA.AperFunction,SMDPad,CuDef*%
%ADD20RoundRect,0.250000X-0.650000X0.325000X-0.650000X-0.325000X0.650000X-0.325000X0.650000X0.325000X0*%
%TD*%
%TA.AperFunction,SMDPad,CuDef*%
%ADD21Outline4P,-1.800000X-1.150000X1.800000X-0.550000X1.800000X0.550000X-1.800000X1.150000X90.000000*%
%TD*%
%TA.AperFunction,SMDPad,CuDef*%
%ADD22Outline4P,-1.800000X-1.150000X1.800000X-0.550000X1.800000X0.550000X-1.800000X1.150000X270.000000*%
%TD*%
%TA.AperFunction,SMDPad,CuDef*%
%ADD23RoundRect,0.250000X-0.250000X-0.475000X0.250000X-0.475000X0.250000X0.475000X-0.250000X0.475000X0*%
%TD*%
%TA.AperFunction,SMDPad,CuDef*%
%ADD24RoundRect,0.250000X0.250000X0.475000X-0.250000X0.475000X-0.250000X-0.475000X0.250000X-0.475000X0*%
%TD*%
%TA.AperFunction,SMDPad,CuDef*%
%ADD25RoundRect,0.075000X-0.075000X0.650000X-0.075000X-0.650000X0.075000X-0.650000X0.075000X0.650000X0*%
%TD*%
%TA.AperFunction,HeatsinkPad*%
%ADD26R,1.880000X1.570000*%
%TD*%
%TA.AperFunction,SMDPad,CuDef*%
%ADD27RoundRect,0.250000X-0.262500X-0.450000X0.262500X-0.450000X0.262500X0.450000X-0.262500X0.450000X0*%
%TD*%
%TA.AperFunction,SMDPad,CuDef*%
%ADD28RoundRect,0.250000X-0.450000X0.262500X-0.450000X-0.262500X0.450000X-0.262500X0.450000X0.262500X0*%
%TD*%
%TA.AperFunction,ViaPad*%
%ADD29C,0.800000*%
%TD*%
%TA.AperFunction,ViaPad*%
%ADD30C,0.600000*%
%TD*%
%TA.AperFunction,ViaPad*%
%ADD31C,0.500000*%
%TD*%
%TA.AperFunction,Conductor*%
%ADD32C,1.000000*%
%TD*%
%TA.AperFunction,Conductor*%
%ADD33C,1.500000*%
%TD*%
%TA.AperFunction,Conductor*%
%ADD34C,0.600000*%
%TD*%
%TA.AperFunction,Conductor*%
%ADD35C,0.400000*%
%TD*%
%TA.AperFunction,Conductor*%
%ADD36C,0.200000*%
%TD*%
%TA.AperFunction,Conductor*%
%ADD37C,2.000000*%
%TD*%
G04 APERTURE END LIST*
D10*
%TO.P,TP4,1,1*%
%TO.N,/3V3*%
X121383100Y-87826600D03*
%TD*%
%TO.P,TP1,1,1*%
%TO.N,/DeployerDetectionSW2OUT*%
X140483900Y-64204600D03*
%TD*%
D11*
%TO.P,J6,1,Pin_1*%
%TO.N,/DeployerDetectionSW1OUT*%
X145361100Y-75853600D03*
D12*
%TO.P,J6,2,Pin_2*%
%TO.N,/DeployerDetectionSW2OUT*%
X145361100Y-73313600D03*
%TO.P,J6,3,Pin_3*%
%TO.N,/BurnWire1OUT*%
X145361100Y-70773600D03*
%TO.P,J6,4,Pin_4*%
X145361100Y-68233600D03*
%TO.P,J6,5,Pin_5*%
%TO.N,GND*%
X145361100Y-65693600D03*
%TO.P,J6,6,Pin_6*%
X145361100Y-63153600D03*
%TD*%
D10*
%TO.P,TP3,1,1*%
%TO.N,Net-(U4-\u002AFAULT)*%
X122780100Y-79698600D03*
%TD*%
%TO.P,TP5,1,1*%
%TO.N,GND*%
X137004100Y-74999600D03*
%TD*%
D11*
%TO.P,J3,1,Pin_1*%
%TO.N,/3V3*%
X139240300Y-118616229D03*
D12*
%TO.P,J3,2,Pin_2*%
%TO.N,/DeployerDetectionSW1OUT*%
X139240300Y-121156229D03*
%TO.P,J3,3,Pin_3*%
%TO.N,/BurnWire1IN*%
X139240300Y-123696229D03*
%TO.P,J3,4,Pin_4*%
X139240300Y-126236229D03*
%TO.P,J3,5,Pin_5*%
%TO.N,/BurnWire1OUT*%
X139240300Y-128776229D03*
%TO.P,J3,6,Pin_6*%
X139240300Y-131316229D03*
%TD*%
D11*
%TO.P,J1,1,Pin_1*%
%TO.N,Net-(J1-Pin_1)*%
X124177100Y-57092600D03*
D12*
%TO.P,J1,2,Pin_2*%
%TO.N,GND*%
X124177100Y-54552600D03*
%TD*%
D10*
%TO.P,TP2,1,1*%
%TO.N,/TriggerOUT*%
X113551100Y-58898600D03*
%TD*%
D13*
%TO.P,C6,1*%
%TO.N,GND*%
X110461100Y-79632599D03*
%TO.P,C6,2*%
%TO.N,Net-(C6-Pad2)*%
X110461100Y-77732601D03*
%TD*%
D14*
%TO.P,U4,1,OUT*%
%TO.N,/burn*%
X122778600Y-73346600D03*
%TO.P,U4,2,ILIM*%
%TO.N,Net-(U4-ILIM)*%
X122778600Y-73996600D03*
%TO.P,U4,3,\u002AFAULT*%
%TO.N,Net-(U4-\u002AFAULT)*%
X122778600Y-74646600D03*
%TO.P,U4,4,EN*%
%TO.N,/EN*%
X121003600Y-74646600D03*
%TO.P,U4,5,GND*%
%TO.N,GND*%
X121003600Y-73996600D03*
%TO.P,U4,6,IN*%
%TO.N,/3V3*%
X121003600Y-73346600D03*
D15*
%TO.P,U4,7,EPAD*%
%TO.N,GND*%
X121891100Y-73996600D03*
%TD*%
D11*
%TO.P,J2,1,Pin_1*%
%TO.N,/burn*%
X131389100Y-70554600D03*
D12*
%TO.P,J2,2,Pin_2*%
%TO.N,Net-(J2-Pin_2)*%
X131389100Y-68014600D03*
%TD*%
D16*
%TO.P,U1,1,G*%
%TO.N,Net-(U1-G)*%
X127710100Y-62984101D03*
%TO.P,U1,2,D*%
%TO.N,/BurnWire1IN*%
X127710100Y-65284101D03*
%TO.P,U1,3,S*%
%TO.N,Net-(J2-Pin_2)*%
X127710100Y-67584101D03*
D17*
%TO.P,U1,4,D*%
%TO.N,/BurnWire1IN*%
X121660100Y-65284101D03*
%TD*%
D18*
%TO.P,R7,1*%
%TO.N,/12V*%
X113908146Y-62898600D03*
%TO.P,R7,2*%
%TO.N,Net-(U3-EN)*%
X113908146Y-64798600D03*
%TD*%
D19*
%TO.P,L1,1,1*%
%TO.N,Net-(D1-K)*%
X104527629Y-84065429D03*
%TO.P,L1,2,2*%
%TO.N,/3V3*%
X107877629Y-84065429D03*
%TD*%
D20*
%TO.P,C10,1*%
%TO.N,GND*%
X110715100Y-81271599D03*
%TO.P,C10,2*%
%TO.N,/3V3*%
X110715100Y-84221601D03*
%TD*%
D18*
%TO.P,R15,1*%
%TO.N,Net-(U3-VSENSE)*%
X113001100Y-74430601D03*
%TO.P,R15,2*%
%TO.N,GND*%
X113001100Y-76330599D03*
%TD*%
D21*
%TO.P,D1,1,K*%
%TO.N,Net-(D1-K)*%
X104111100Y-73962600D03*
D22*
%TO.P,D1,2,A*%
%TO.N,GND*%
X104111100Y-68162600D03*
%TD*%
D11*
%TO.P,J5,1,Pin_1*%
%TO.N,/12V*%
X110941100Y-54368600D03*
D12*
%TO.P,J5,2,Pin_2*%
%TO.N,/TriggerOUT*%
X113481100Y-54368600D03*
%TO.P,J5,3,Pin_3*%
%TO.N,/EN*%
X116021100Y-54368600D03*
%TO.P,J5,4,Pin_4*%
%TO.N,GND*%
X118561100Y-54368600D03*
%TD*%
D13*
%TO.P,R14,1*%
%TO.N,/3V3*%
X115033100Y-76330600D03*
%TO.P,R14,2*%
%TO.N,Net-(U3-VSENSE)*%
X115033100Y-74430600D03*
%TD*%
D23*
%TO.P,R4,1*%
%TO.N,Net-(U1-G)*%
X125106700Y-70249800D03*
%TO.P,R4,2*%
%TO.N,/burn*%
X127006700Y-70249800D03*
%TD*%
D18*
%TO.P,C12,1*%
%TO.N,GND*%
X118131900Y-71926200D03*
%TO.P,C12,2*%
%TO.N,/3V3*%
X118131900Y-73826200D03*
%TD*%
D24*
%TO.P,C7,1*%
%TO.N,GND*%
X128876100Y-73857600D03*
%TO.P,C7,2*%
%TO.N,/burn*%
X126976100Y-73857600D03*
%TD*%
D25*
%TO.P,U3,1,BOOT*%
%TO.N,Net-(U3-BOOT)*%
X111408146Y-67298600D03*
%TO.P,U3,2,VIN*%
%TO.N,/12V*%
X111908146Y-67298600D03*
%TO.P,U3,3,EN*%
%TO.N,Net-(U3-EN)*%
X112408146Y-67298600D03*
%TO.P,U3,4,SS/TR*%
%TO.N,Net-(U3-SS{slash}TR)*%
X112908146Y-67298600D03*
%TO.P,U3,5,RT/CLK*%
%TO.N,Net-(U3-RT{slash}CLK)*%
X113408146Y-67298600D03*
%TO.P,U3,6,PWRGD*%
%TO.N,unconnected-(U3-PWRGD-Pad6)*%
X113408146Y-71598600D03*
%TO.P,U3,7,VSENSE*%
%TO.N,Net-(U3-VSENSE)*%
X112908146Y-71598600D03*
%TO.P,U3,8,COMP*%
%TO.N,Net-(U3-COMP)*%
X112408146Y-71598600D03*
%TO.P,U3,9,GND*%
%TO.N,GND*%
X111908146Y-71598600D03*
%TO.P,U3,10,PH*%
%TO.N,Net-(D1-K)*%
X111408146Y-71598600D03*
D26*
%TO.P,U3,11,GND*%
%TO.N,GND*%
X112408146Y-69448600D03*
%TD*%
D27*
%TO.P,R9,1*%
%TO.N,Net-(U3-RT{slash}CLK)*%
X116348995Y-69282929D03*
%TO.P,R9,2*%
%TO.N,GND*%
X118173995Y-69282929D03*
%TD*%
D11*
%TO.P,J4,1,Pin_1*%
%TO.N,Net-(J4-Pin_1)*%
X137131100Y-84016600D03*
%TD*%
D24*
%TO.P,C4,1*%
%TO.N,GND*%
X118211495Y-66878378D03*
%TO.P,C4,2*%
%TO.N,Net-(U3-SS{slash}TR)*%
X116311495Y-66878378D03*
%TD*%
D20*
%TO.P,C9,1*%
%TO.N,GND*%
X113509100Y-81271599D03*
%TO.P,C9,2*%
%TO.N,/3V3*%
X113509100Y-84221601D03*
%TD*%
D23*
%TO.P,C3,1*%
%TO.N,GND*%
X107494300Y-63899800D03*
%TO.P,C3,2*%
%TO.N,/12V*%
X109394300Y-63899800D03*
%TD*%
D13*
%TO.P,R3,1*%
%TO.N,Net-(U1-G)*%
X127987100Y-60938199D03*
%TO.P,R3,2*%
%TO.N,Net-(J1-Pin_1)*%
X127987100Y-59038201D03*
%TD*%
D18*
%TO.P,C11,1*%
%TO.N,GND*%
X116212318Y-82271446D03*
%TO.P,C11,2*%
%TO.N,/3V3*%
X116212318Y-84171444D03*
%TD*%
D13*
%TO.P,R8,1*%
%TO.N,Net-(U3-EN)*%
X116408146Y-64798600D03*
%TO.P,R8,2*%
%TO.N,GND*%
X116408146Y-62898600D03*
%TD*%
D11*
%TO.P,J7,1,Pin_1*%
%TO.N,/3V3*%
X119351100Y-80587600D03*
%TD*%
D27*
%TO.P,R13,1*%
%TO.N,/3V3*%
X119327600Y-84016600D03*
%TO.P,R13,2*%
%TO.N,Net-(U4-\u002AFAULT)*%
X121152600Y-84016600D03*
%TD*%
D24*
%TO.P,C8,1*%
%TO.N,Net-(U3-BOOT)*%
X109252100Y-67252600D03*
%TO.P,C8,2*%
%TO.N,Net-(D1-K)*%
X107352100Y-67252600D03*
%TD*%
D13*
%TO.P,C5,1*%
%TO.N,GND*%
X107667100Y-77854599D03*
%TO.P,C5,2*%
%TO.N,Net-(U3-COMP)*%
X107667100Y-75954601D03*
%TD*%
D27*
%TO.P,R12,1*%
%TO.N,Net-(U4-ILIM)*%
X127074600Y-77666600D03*
%TO.P,R12,2*%
%TO.N,GND*%
X128899600Y-77666600D03*
%TD*%
D28*
%TO.P,R10,1*%
%TO.N,Net-(U3-COMP)*%
X110514174Y-74114248D03*
%TO.P,R10,2*%
%TO.N,Net-(C6-Pad2)*%
X110514174Y-75939248D03*
%TD*%
D29*
%TO.N,GND*%
X125828100Y-71977000D03*
X128901500Y-72281800D03*
X122907100Y-71926200D03*
X120875100Y-75787000D03*
X120875100Y-71926200D03*
D30*
%TO.N,/3V3*%
X115033100Y-77412600D03*
D31*
%TO.N,Net-(D1-K)*%
X107413100Y-69183000D03*
D29*
X107186146Y-71570600D03*
D31*
%TO.N,/EN*%
X119960700Y-74669400D03*
D30*
%TO.N,Net-(U3-EN)*%
X112493100Y-64839600D03*
D31*
%TO.N,/DeployerDetectionSW1OUT*%
X141558778Y-124766278D03*
%TO.N,/TriggerOUT*%
X133829100Y-56279800D03*
%TD*%
D32*
%TO.N,GND*%
X118173995Y-69282929D02*
X118173995Y-66915878D01*
X118173995Y-66915878D02*
X118211495Y-66878378D01*
D33*
X116408146Y-62898600D02*
X117133146Y-62898600D01*
X117133146Y-62898600D02*
X118211495Y-63976949D01*
X118211495Y-63976949D02*
X118211495Y-66878378D01*
X116408146Y-60394600D02*
X116408146Y-58917954D01*
X116408146Y-62898600D02*
X116408146Y-60394600D01*
X116408146Y-58917954D02*
X118561100Y-56765000D01*
X118561100Y-56765000D02*
X118561100Y-54368600D01*
D32*
X118131900Y-71926200D02*
X121620700Y-71926200D01*
D34*
X128876100Y-72307200D02*
X128901500Y-72281800D01*
D32*
X112408146Y-69448600D02*
X113825500Y-69448600D01*
X104111100Y-65220600D02*
X104111100Y-68162600D01*
D35*
X113001100Y-76330599D02*
X113509100Y-76838599D01*
D32*
X104725100Y-68776600D02*
X104111100Y-68162600D01*
X121891100Y-72196600D02*
X121891100Y-73996600D01*
X116557100Y-72180200D02*
X116303100Y-71926200D01*
X116557100Y-72688200D02*
X117319100Y-71926200D01*
D35*
X116049100Y-78682600D02*
X116049100Y-82108228D01*
D32*
X105431900Y-63899800D02*
X104111100Y-65220600D01*
X117319100Y-71926200D02*
X118131900Y-71926200D01*
D34*
X128876100Y-73857600D02*
X128876100Y-77643100D01*
D33*
X124177100Y-54552600D02*
X118745100Y-54552600D01*
D32*
X116049100Y-78682600D02*
X116557100Y-78174600D01*
D33*
X118745100Y-54552600D02*
X118561100Y-54368600D01*
D32*
X116303100Y-71926200D02*
X117319100Y-71926200D01*
D36*
X111908146Y-71598600D02*
X111908146Y-69948600D01*
D35*
X108363099Y-79632599D02*
X110461100Y-79632599D01*
D32*
X105939900Y-68776600D02*
X104725100Y-68776600D01*
D35*
X112493100Y-78682600D02*
X113509100Y-78682600D01*
D34*
X128645600Y-73894100D02*
X128683100Y-73856600D01*
D32*
X107494300Y-63899800D02*
X105431900Y-63899800D01*
D35*
X113509100Y-78682600D02*
X113509100Y-79190600D01*
D32*
X125828100Y-71977000D02*
X125777300Y-71926200D01*
D35*
X113509100Y-79190600D02*
X113509100Y-81271599D01*
D32*
X125777300Y-71926200D02*
X121620700Y-71926200D01*
X113825500Y-69448600D02*
X116303100Y-71926200D01*
D35*
X107667100Y-77854599D02*
X107667100Y-78936600D01*
X107667100Y-78936600D02*
X108363099Y-79632599D01*
D32*
X116557100Y-72840600D02*
X116557100Y-72180200D01*
D36*
X121003600Y-73996600D02*
X121891100Y-73996600D01*
D35*
X110461100Y-79632599D02*
X110461100Y-81017599D01*
D32*
X116557100Y-72840600D02*
X116557100Y-72688200D01*
D34*
X128876100Y-73857600D02*
X128876100Y-72307200D01*
D32*
X116557100Y-78174600D02*
X116557100Y-72840600D01*
X116049100Y-78682600D02*
X113509100Y-78682600D01*
X121620700Y-71926200D02*
X121891100Y-72196600D01*
D35*
X113509100Y-76838599D02*
X113509100Y-78682600D01*
X110461100Y-79632599D02*
X111543101Y-79632599D01*
D33*
X145361100Y-65693600D02*
X145361100Y-63153600D01*
D35*
X111543101Y-79632599D02*
X112493100Y-78682600D01*
D32*
%TO.N,/3V3*%
X119327600Y-84016600D02*
X119327600Y-80611100D01*
X110715100Y-84221601D02*
X113509100Y-84221601D01*
D36*
X119960410Y-73826200D02*
X120440010Y-73346600D01*
D32*
X118081100Y-74161400D02*
X118081100Y-76991000D01*
X113509100Y-84221601D02*
X116162161Y-84221601D01*
D36*
X121383100Y-87826600D02*
X136013500Y-87826600D01*
D32*
X118589100Y-83969600D02*
X118636100Y-84016600D01*
X110558928Y-84065429D02*
X110715100Y-84221601D01*
X116162161Y-84221601D02*
X116212318Y-84171444D01*
D34*
X119381500Y-73826200D02*
X118131900Y-73826200D01*
D32*
X107877629Y-84065429D02*
X110558928Y-84065429D01*
D36*
X119859100Y-87826600D02*
X119327600Y-87295100D01*
X115033100Y-77412600D02*
X115033100Y-76330599D01*
D32*
X119172756Y-84171444D02*
X119327600Y-84016600D01*
X119327600Y-80611100D02*
X119351100Y-80587600D01*
D36*
X136013500Y-87826600D02*
X139240300Y-91053400D01*
X119327600Y-87295100D02*
X119327600Y-84016600D01*
D32*
X119351100Y-78261000D02*
X119351100Y-80587600D01*
X116212318Y-84171444D02*
X119172756Y-84171444D01*
D36*
X119381500Y-73826200D02*
X119960410Y-73826200D01*
D32*
X118233500Y-74009000D02*
X118081100Y-74161400D01*
D36*
X121383100Y-87826600D02*
X119859100Y-87826600D01*
D32*
X118081100Y-76991000D02*
X119351100Y-78261000D01*
X118636100Y-84016600D02*
X119327600Y-84016600D01*
D36*
X120440010Y-73346600D02*
X121003600Y-73346600D01*
X139240300Y-91053400D02*
X139240300Y-118616229D01*
D35*
%TO.N,/12V*%
X111095556Y-65728600D02*
X109953100Y-65728600D01*
D36*
X111908146Y-66032646D02*
X111604100Y-65728600D01*
X111908146Y-67298600D02*
X111908146Y-66032646D01*
D32*
X110164777Y-60707877D02*
X110367977Y-60504677D01*
D36*
X111604100Y-65728600D02*
X111095556Y-65728600D01*
D32*
X110941100Y-59931554D02*
X110164777Y-60707877D01*
D35*
X109953100Y-65728600D02*
X109394300Y-65169800D01*
D32*
X111514223Y-60504677D02*
X111847023Y-60837477D01*
X110941100Y-54368600D02*
X110941100Y-59931554D01*
X110941100Y-59931554D02*
X111847023Y-60837477D01*
X109408146Y-61464508D02*
X109408146Y-64298600D01*
X110164777Y-60707877D02*
X109408146Y-61464508D01*
X110367977Y-60504677D02*
X111514223Y-60504677D01*
X111847023Y-60837477D02*
X113908146Y-62898600D01*
D35*
X109394300Y-65169800D02*
X109394300Y-63899800D01*
%TO.N,/burn*%
X124939100Y-73857600D02*
X124430100Y-73348600D01*
D34*
X124939100Y-73857600D02*
X126976100Y-73857600D01*
D32*
X127006700Y-70249800D02*
X127057500Y-70300600D01*
D36*
X123669100Y-73348600D02*
X122780600Y-73348600D01*
D32*
X127057500Y-70300600D02*
X131135100Y-70300600D01*
D35*
X124430100Y-73348600D02*
X123669100Y-73348600D01*
D34*
X126976100Y-73857600D02*
X126976100Y-70280400D01*
D32*
%TO.N,Net-(D1-K)*%
X104111100Y-78047600D02*
X104111100Y-79952600D01*
X107186146Y-72559554D02*
X105783100Y-73962600D01*
D33*
X104111100Y-73962600D02*
X104111100Y-78047600D01*
D32*
X104527629Y-80369129D02*
X104527629Y-84065429D01*
X107186146Y-71570600D02*
X107186146Y-72559554D01*
X105783100Y-73962600D02*
X104111100Y-73962600D01*
D34*
X107186146Y-71570600D02*
X111258146Y-71570600D01*
D35*
X107413100Y-69183000D02*
X107413100Y-67313600D01*
D32*
X104111100Y-79952600D02*
X104527629Y-80369129D01*
D36*
%TO.N,/EN*%
X121003600Y-74646600D02*
X119983500Y-74646600D01*
X119983500Y-74646600D02*
X119960700Y-74669400D01*
%TO.N,Net-(U3-EN)*%
X112408146Y-67298600D02*
X112408146Y-64924554D01*
X112408146Y-64924554D02*
X112493100Y-64839600D01*
D35*
X113908146Y-64798600D02*
X116408146Y-64798600D01*
X112493100Y-64839600D02*
X113867146Y-64839600D01*
D36*
%TO.N,/DeployerDetectionSW1OUT*%
X145224456Y-121100600D02*
X145259100Y-121100600D01*
X145259100Y-121100600D02*
X145361100Y-120998600D01*
X141558778Y-124766278D02*
X145224456Y-121100600D01*
X145361100Y-120998600D02*
X145361100Y-75853600D01*
D32*
%TO.N,/BurnWire1IN*%
X132559100Y-65373000D02*
X127810100Y-65373000D01*
D33*
X140377471Y-123696229D02*
X139240300Y-123696229D01*
X141322100Y-69157600D02*
X137537500Y-65373000D01*
D37*
X142769900Y-77158600D02*
X142769900Y-117798600D01*
D33*
X142769900Y-117798600D02*
X142769900Y-121303800D01*
X142769900Y-121303800D02*
X140377471Y-123696229D01*
X142769900Y-77158600D02*
X141322100Y-75710800D01*
D32*
X127810100Y-65373000D02*
X121760100Y-65373000D01*
D33*
X139240300Y-123696229D02*
X139240300Y-126236229D01*
D32*
X133829100Y-65373000D02*
X132559100Y-65373000D01*
D33*
X141322100Y-75710800D02*
X141322100Y-69157600D01*
X137537500Y-65373000D02*
X133829100Y-65373000D01*
D36*
%TO.N,/DeployerDetectionSW2OUT*%
X140483900Y-65271400D02*
X140483900Y-64204600D01*
X145361100Y-73313600D02*
X143481100Y-71433600D01*
X143481100Y-68268600D02*
X140483900Y-65271400D01*
X143481100Y-71433600D02*
X143481100Y-68268600D01*
D35*
%TO.N,/TriggerOUT*%
X133829100Y-54552600D02*
X131441500Y-52165000D01*
X131441500Y-52165000D02*
X115744300Y-52165000D01*
D32*
X113551100Y-58898600D02*
X113551100Y-54438600D01*
D35*
X115744300Y-52165000D02*
X113540700Y-54368600D01*
X133829100Y-56279800D02*
X133829100Y-54552600D01*
D33*
%TO.N,/BurnWire1OUT*%
X139240300Y-128776229D02*
X139240300Y-131316229D01*
D36*
%TO.N,Net-(U3-SS{slash}TR)*%
X112908146Y-66202554D02*
X113128100Y-65982600D01*
X115415717Y-65982600D02*
X116311495Y-66878378D01*
X113128100Y-65982600D02*
X115415717Y-65982600D01*
X112908146Y-67298600D02*
X112908146Y-66202554D01*
D35*
%TO.N,Net-(U3-COMP)*%
X108425452Y-74114248D02*
X110514174Y-74114248D01*
X107667100Y-74872600D02*
X108425452Y-74114248D01*
D36*
X112408146Y-71598600D02*
X112408146Y-72798554D01*
X112408146Y-72798554D02*
X111092452Y-74114248D01*
D35*
X107667100Y-75954601D02*
X107667100Y-74872600D01*
%TO.N,Net-(C6-Pad2)*%
X110461100Y-75992322D02*
X110461100Y-77732601D01*
D36*
%TO.N,Net-(U3-BOOT)*%
X109298100Y-67298600D02*
X111408146Y-67298600D01*
D34*
%TO.N,Net-(J1-Pin_1)*%
X124177100Y-58311800D02*
X124177100Y-57092600D01*
X124888300Y-59023000D02*
X124177100Y-58311800D01*
X127971900Y-59023000D02*
X124888300Y-59023000D01*
%TO.N,Net-(J2-Pin_2)*%
X127810100Y-67673000D02*
X131047500Y-67673000D01*
D35*
%TO.N,Net-(U1-G)*%
X123093801Y-70249800D02*
X119859100Y-67015099D01*
X120875100Y-60750200D02*
X127810100Y-60750200D01*
D34*
X127810100Y-63073000D02*
X127810100Y-61115200D01*
D35*
X119859100Y-67015099D02*
X119859100Y-61766200D01*
X119859100Y-61766200D02*
X120875100Y-60750200D01*
X125144200Y-70249800D02*
X123093801Y-70249800D01*
%TO.N,Net-(U3-RT{slash}CLK)*%
X114113900Y-67298600D02*
X115998300Y-69183000D01*
X113559900Y-67298600D02*
X114113900Y-67298600D01*
D36*
%TO.N,Net-(U4-\u002AFAULT)*%
X122778600Y-74646600D02*
X122778600Y-79697100D01*
D35*
X122780100Y-83127600D02*
X122780100Y-79698600D01*
X121891100Y-84016600D02*
X122780100Y-83127600D01*
X121152600Y-84016600D02*
X121891100Y-84016600D01*
D36*
%TO.N,Net-(U3-VSENSE)*%
X112908146Y-71598600D02*
X112908146Y-74337647D01*
D34*
X113001100Y-74430601D02*
X115033099Y-74430601D01*
D36*
%TO.N,Net-(U4-ILIM)*%
X122778600Y-73996600D02*
X123809100Y-73996600D01*
X123809100Y-73996600D02*
X127074600Y-77262100D01*
D32*
%TO.N,GND*%
X118173995Y-69282929D02*
X118211495Y-69320429D01*
X118211495Y-69320429D02*
X118211495Y-71846605D01*
X118211495Y-71846605D02*
X118131900Y-71926200D01*
%TD*%
%TA.AperFunction,Conductor*%
%TO.N,GND*%
G36*
X106461451Y-63106685D02*
G01*
X106507206Y-63159489D01*
X106517150Y-63228647D01*
X106512117Y-63250005D01*
X106504795Y-63272097D01*
X106504793Y-63272109D01*
X106494300Y-63374813D01*
X106494300Y-63649800D01*
X107370300Y-63649800D01*
X107437339Y-63669485D01*
X107483094Y-63722289D01*
X107494300Y-63773800D01*
X107494300Y-63899800D01*
X107620300Y-63899800D01*
X107687339Y-63919485D01*
X107733094Y-63972289D01*
X107744300Y-64023800D01*
X107744300Y-65124799D01*
X107794272Y-65124799D01*
X107794286Y-65124798D01*
X107896997Y-65114305D01*
X108063419Y-65059158D01*
X108063424Y-65059156D01*
X108165492Y-64996200D01*
X108232884Y-64977760D01*
X108299548Y-64998682D01*
X108309254Y-65005886D01*
X108340403Y-65031449D01*
X108365530Y-65052070D01*
X108365533Y-65052071D01*
X108365535Y-65052073D01*
X108538409Y-65144476D01*
X108538410Y-65144476D01*
X108538417Y-65144480D01*
X108726010Y-65201385D01*
X108726009Y-65201385D01*
X108741341Y-65202895D01*
X108909834Y-65219490D01*
X108974618Y-65245650D01*
X109014977Y-65302684D01*
X109017452Y-65310798D01*
X109021093Y-65324389D01*
X109034859Y-65348232D01*
X109073820Y-65415713D01*
X109073821Y-65415714D01*
X109073822Y-65415715D01*
X109628279Y-65970171D01*
X109628289Y-65970182D01*
X109632619Y-65974512D01*
X109632620Y-65974513D01*
X109707187Y-66049080D01*
X109762272Y-66080883D01*
X109798513Y-66101807D01*
X109900373Y-66129101D01*
X109900375Y-66129101D01*
X110013423Y-66129101D01*
X110013439Y-66129100D01*
X111148280Y-66129100D01*
X111148283Y-66129100D01*
X111205255Y-66113834D01*
X111229923Y-66109832D01*
X111234016Y-66109587D01*
X111423584Y-66059903D01*
X111493421Y-66061948D01*
X111542700Y-66092171D01*
X111571327Y-66120798D01*
X111604812Y-66182121D01*
X111607646Y-66208479D01*
X111607646Y-66249100D01*
X111587961Y-66316139D01*
X111535157Y-66361894D01*
X111483647Y-66373100D01*
X111306016Y-66373100D01*
X111225650Y-66389085D01*
X111134521Y-66449975D01*
X111073631Y-66541105D01*
X111073629Y-66541109D01*
X111057646Y-66621462D01*
X111057646Y-66874100D01*
X111037961Y-66941139D01*
X110985157Y-66986894D01*
X110933646Y-66998100D01*
X110378714Y-66998100D01*
X110311675Y-66978415D01*
X110298614Y-66968758D01*
X109965908Y-66687221D01*
X109928966Y-66633516D01*
X109904894Y-66564720D01*
X109904893Y-66564718D01*
X109887465Y-66541104D01*
X109824250Y-66455450D01*
X109714982Y-66374807D01*
X109714980Y-66374806D01*
X109586800Y-66329953D01*
X109556370Y-66327100D01*
X109556366Y-66327100D01*
X108947834Y-66327100D01*
X108947830Y-66327100D01*
X108917400Y-66329953D01*
X108917398Y-66329953D01*
X108789219Y-66374806D01*
X108789217Y-66374807D01*
X108679950Y-66455450D01*
X108599307Y-66564717D01*
X108599306Y-66564719D01*
X108554453Y-66692898D01*
X108554453Y-66692900D01*
X108551600Y-66723330D01*
X108551600Y-67781869D01*
X108554453Y-67812299D01*
X108554453Y-67812301D01*
X108596432Y-67932266D01*
X108599307Y-67940482D01*
X108679950Y-68049750D01*
X108789218Y-68130393D01*
X108825004Y-68142915D01*
X108917399Y-68175246D01*
X108947830Y-68178100D01*
X108947834Y-68178100D01*
X109556370Y-68178100D01*
X109586799Y-68175246D01*
X109586801Y-68175246D01*
X109650890Y-68152819D01*
X109714982Y-68130393D01*
X109824250Y-68049750D01*
X109904893Y-67940482D01*
X109906111Y-67937000D01*
X109908477Y-67933700D01*
X109909236Y-67932266D01*
X109909432Y-67932369D01*
X109946828Y-67880222D01*
X109949362Y-67878294D01*
X110293754Y-67623425D01*
X110359352Y-67599369D01*
X110367518Y-67599100D01*
X110933647Y-67599100D01*
X111000686Y-67618785D01*
X111046441Y-67671589D01*
X111057647Y-67723100D01*
X111057647Y-67975732D01*
X111070151Y-68038600D01*
X111073631Y-68056095D01*
X111134521Y-68147224D01*
X111171022Y-68171613D01*
X111225651Y-68208115D01*
X111225654Y-68208115D01*
X111225655Y-68208116D01*
X111252679Y-68213491D01*
X111306013Y-68224100D01*
X111510278Y-68224099D01*
X111590641Y-68208115D01*
X111590644Y-68208112D01*
X111601924Y-68203441D01*
X111602522Y-68204886D01*
X111655928Y-68188163D01*
X111714089Y-68204116D01*
X111714369Y-68203442D01*
X111719736Y-68205665D01*
X111723308Y-68206645D01*
X111725497Y-68208051D01*
X111725652Y-68208116D01*
X111779103Y-68218747D01*
X111806013Y-68224100D01*
X112010278Y-68224099D01*
X112090641Y-68208115D01*
X112090644Y-68208112D01*
X112101924Y-68203441D01*
X112102522Y-68204886D01*
X112155928Y-68188163D01*
X112214089Y-68204116D01*
X112214369Y-68203442D01*
X112219736Y-68205665D01*
X112223308Y-68206645D01*
X112225497Y-68208051D01*
X112225652Y-68208116D01*
X112279103Y-68218747D01*
X112306013Y-68224100D01*
X112510278Y-68224099D01*
X112590641Y-68208115D01*
X112590644Y-68208112D01*
X112601924Y-68203441D01*
X112602522Y-68204886D01*
X112655928Y-68188163D01*
X112714089Y-68204116D01*
X112714369Y-68203442D01*
X112719736Y-68205665D01*
X112723308Y-68206645D01*
X112725497Y-68208051D01*
X112725652Y-68208116D01*
X112779103Y-68218747D01*
X112806013Y-68224100D01*
X113010278Y-68224099D01*
X113090641Y-68208115D01*
X113090644Y-68208112D01*
X113101924Y-68203441D01*
X113102522Y-68204886D01*
X113155928Y-68188163D01*
X113214089Y-68204116D01*
X113214369Y-68203442D01*
X113219736Y-68205665D01*
X113223308Y-68206645D01*
X113225497Y-68208051D01*
X113225652Y-68208116D01*
X113279103Y-68218747D01*
X113306013Y-68224100D01*
X113510278Y-68224099D01*
X113590641Y-68208115D01*
X113681770Y-68147224D01*
X113742661Y-68056095D01*
X113758646Y-67975733D01*
X113758646Y-67823100D01*
X113778331Y-67756061D01*
X113831135Y-67710306D01*
X113882646Y-67699100D01*
X113896645Y-67699100D01*
X113963684Y-67718785D01*
X113984326Y-67735419D01*
X114869781Y-68620874D01*
X114903266Y-68682197D01*
X114906100Y-68708555D01*
X114906100Y-69661142D01*
X114905511Y-69673211D01*
X114888334Y-69848854D01*
X114883658Y-69872535D01*
X114834529Y-70035707D01*
X114825353Y-70058032D01*
X114745543Y-70208594D01*
X114732216Y-70228720D01*
X114624747Y-70360969D01*
X114607774Y-70378130D01*
X114476726Y-70487049D01*
X114456749Y-70500598D01*
X114307078Y-70582066D01*
X114284855Y-70591488D01*
X114122231Y-70642418D01*
X114098604Y-70647355D01*
X113936649Y-70665002D01*
X113923159Y-70666472D01*
X113911099Y-70667194D01*
X113377345Y-70673092D01*
X113375977Y-70673100D01*
X113306009Y-70673100D01*
X113302461Y-70673450D01*
X113291691Y-70674038D01*
X113042465Y-70676792D01*
X113016910Y-70674419D01*
X113010279Y-70673100D01*
X113010277Y-70673100D01*
X112806015Y-70673100D01*
X112806008Y-70673101D01*
X112783746Y-70677529D01*
X112760930Y-70679903D01*
X112568781Y-70682026D01*
X112543223Y-70679652D01*
X112510279Y-70673100D01*
X112306014Y-70673100D01*
X112306013Y-70673101D01*
X112254335Y-70683379D01*
X112231517Y-70685753D01*
X111621408Y-70692495D01*
X111595847Y-70690120D01*
X111510281Y-70673100D01*
X111306016Y-70673100D01*
X111273077Y-70679652D01*
X111225651Y-70689085D01*
X111225649Y-70689085D01*
X111213674Y-70691468D01*
X111213574Y-70690965D01*
X111182393Y-70697346D01*
X110365016Y-70706378D01*
X110361656Y-70706370D01*
X110347503Y-70706140D01*
X110312147Y-70705566D01*
X110305394Y-70705272D01*
X110256015Y-70701772D01*
X110252644Y-70701486D01*
X105260822Y-70210487D01*
X105196031Y-70184335D01*
X105155665Y-70127306D01*
X105150647Y-70066697D01*
X105426331Y-68412600D01*
X104235100Y-68412600D01*
X104168061Y-68392915D01*
X104122306Y-68340111D01*
X104111100Y-68288600D01*
X104111100Y-68162600D01*
X103985100Y-68162600D01*
X103918061Y-68142915D01*
X103872306Y-68090111D01*
X103861100Y-68038600D01*
X103861100Y-67912600D01*
X104361100Y-67912600D01*
X105509664Y-67912600D01*
X105509664Y-67912599D01*
X105707875Y-66723330D01*
X106651600Y-66723330D01*
X106651600Y-67781869D01*
X106654453Y-67812296D01*
X106699307Y-67940482D01*
X106704502Y-67947521D01*
X106714772Y-67963997D01*
X106883369Y-68288600D01*
X106998642Y-68510537D01*
X107012600Y-68567692D01*
X107012600Y-68638094D01*
X107008286Y-68667025D01*
X107008762Y-68667121D01*
X107007566Y-68673085D01*
X106959899Y-69149752D01*
X106959156Y-69159541D01*
X106958745Y-69167467D01*
X106958592Y-69167459D01*
X106957967Y-69182246D01*
X106957967Y-69183001D01*
X106976402Y-69311225D01*
X106988442Y-69337588D01*
X107030218Y-69429063D01*
X107115051Y-69526967D01*
X107224031Y-69597004D01*
X107348325Y-69633499D01*
X107348327Y-69633500D01*
X107348328Y-69633500D01*
X107477873Y-69633500D01*
X107477873Y-69633499D01*
X107602169Y-69597004D01*
X107711149Y-69526967D01*
X107795982Y-69429063D01*
X107849797Y-69311226D01*
X107868233Y-69183000D01*
X107867274Y-69176338D01*
X107866804Y-69155837D01*
X107866307Y-69155838D01*
X107866297Y-69149749D01*
X107866298Y-69149739D01*
X107818634Y-68673088D01*
X107818128Y-68671267D01*
X107817689Y-68668051D01*
X107817653Y-68667857D01*
X107817662Y-68667855D01*
X107813600Y-68638064D01*
X107813600Y-68546375D01*
X107820064Y-68506862D01*
X108025763Y-67894984D01*
X108032163Y-67871378D01*
X108032730Y-67868654D01*
X108033696Y-67863145D01*
X108038791Y-67843607D01*
X108042024Y-67834365D01*
X108049746Y-67812299D01*
X108052600Y-67781866D01*
X108052600Y-66723334D01*
X108049746Y-66692901D01*
X108049746Y-66692900D01*
X108049746Y-66692898D01*
X108016106Y-66596763D01*
X108004893Y-66564718D01*
X107924250Y-66455450D01*
X107814982Y-66374807D01*
X107814980Y-66374806D01*
X107686800Y-66329953D01*
X107656370Y-66327100D01*
X107656366Y-66327100D01*
X107047834Y-66327100D01*
X107047830Y-66327100D01*
X107017400Y-66329953D01*
X107017398Y-66329953D01*
X106889219Y-66374806D01*
X106889217Y-66374807D01*
X106779950Y-66455450D01*
X106699307Y-66564717D01*
X106699306Y-66564719D01*
X106654453Y-66692898D01*
X106654453Y-66692900D01*
X106651600Y-66723330D01*
X105707875Y-66723330D01*
X105765253Y-66379060D01*
X105765256Y-66379037D01*
X105766209Y-66368250D01*
X105766209Y-66368238D01*
X105747340Y-66225713D01*
X105747338Y-66225705D01*
X105689077Y-66094264D01*
X105596144Y-65984560D01*
X105596142Y-65984558D01*
X105476063Y-65905479D01*
X105476063Y-65905478D01*
X105338581Y-65863436D01*
X105338571Y-65863434D01*
X105327755Y-65862600D01*
X104361100Y-65862600D01*
X104361100Y-67912600D01*
X103861100Y-67912600D01*
X103861100Y-65862600D01*
X103574700Y-65862600D01*
X103507661Y-65842915D01*
X103461906Y-65790111D01*
X103450700Y-65738600D01*
X103450700Y-64424786D01*
X106494301Y-64424786D01*
X106504794Y-64527497D01*
X106559941Y-64693919D01*
X106559943Y-64693924D01*
X106651984Y-64843145D01*
X106775954Y-64967115D01*
X106925175Y-65059156D01*
X106925180Y-65059158D01*
X107091602Y-65114305D01*
X107091609Y-65114306D01*
X107194319Y-65124799D01*
X107244299Y-65124798D01*
X107244300Y-65124798D01*
X107244300Y-64149800D01*
X106494301Y-64149800D01*
X106494301Y-64424786D01*
X103450700Y-64424786D01*
X103450700Y-64093092D01*
X103451297Y-64080938D01*
X103468718Y-63904056D01*
X103473457Y-63880232D01*
X103523277Y-63715994D01*
X103532575Y-63693549D01*
X103613475Y-63542195D01*
X103626972Y-63521995D01*
X103735849Y-63389328D01*
X103753028Y-63372149D01*
X103885695Y-63263272D01*
X103905895Y-63249775D01*
X104057249Y-63168875D01*
X104079694Y-63159577D01*
X104243932Y-63109757D01*
X104267756Y-63105018D01*
X104444639Y-63087597D01*
X104456793Y-63087000D01*
X106394412Y-63087000D01*
X106461451Y-63106685D01*
G37*
%TD.AperFunction*%
%TD*%
%TA.AperFunction,Conductor*%
%TO.N,GND*%
G36*
X123235577Y-71183885D02*
G01*
X123256219Y-71200519D01*
X123683581Y-71627881D01*
X123717066Y-71689204D01*
X123719900Y-71715562D01*
X123719900Y-72825724D01*
X123700215Y-72892763D01*
X123647411Y-72938518D01*
X123624019Y-72945238D01*
X123624222Y-72945996D01*
X123559403Y-72963363D01*
X123534750Y-72967365D01*
X123530642Y-72967611D01*
X123250310Y-73041083D01*
X123180470Y-73039037D01*
X123175260Y-73037211D01*
X122997867Y-72970561D01*
X122997860Y-72970558D01*
X122992665Y-72969321D01*
X122991389Y-72969017D01*
X122970045Y-72961829D01*
X122940886Y-72948954D01*
X122916285Y-72946100D01*
X122640923Y-72946100D01*
X122640914Y-72946101D01*
X122616313Y-72948954D01*
X122616309Y-72948955D01*
X122515678Y-72993388D01*
X122437889Y-73071177D01*
X122393454Y-73171812D01*
X122390600Y-73196411D01*
X122390600Y-73496776D01*
X122390601Y-73496785D01*
X122393454Y-73521386D01*
X122393455Y-73521390D01*
X122437664Y-73621513D01*
X122446736Y-73690791D01*
X122437665Y-73721685D01*
X122393454Y-73821813D01*
X122390600Y-73846411D01*
X122390600Y-74146776D01*
X122390601Y-74146785D01*
X122393454Y-74171386D01*
X122393455Y-74171390D01*
X122437664Y-74271513D01*
X122446736Y-74340791D01*
X122437665Y-74371685D01*
X122393454Y-74471813D01*
X122390600Y-74496411D01*
X122390600Y-74796776D01*
X122390601Y-74796785D01*
X122393454Y-74821386D01*
X122393455Y-74821390D01*
X122396058Y-74827285D01*
X122403563Y-74854614D01*
X122404159Y-74854482D01*
X122405478Y-74860428D01*
X122467394Y-75049477D01*
X122471939Y-75063352D01*
X122478100Y-75101952D01*
X122478100Y-76221800D01*
X122458415Y-76288839D01*
X122405611Y-76334594D01*
X122354100Y-76345800D01*
X120766062Y-76345800D01*
X120699023Y-76326115D01*
X120678381Y-76309481D01*
X120251019Y-75882119D01*
X120217534Y-75820796D01*
X120214700Y-75794438D01*
X120214700Y-75144810D01*
X120234385Y-75077771D01*
X120287189Y-75032016D01*
X120294157Y-75029086D01*
X120485831Y-74955364D01*
X120530345Y-74947100D01*
X120556234Y-74947100D01*
X120599125Y-74954753D01*
X120786627Y-75023878D01*
X120793243Y-75025411D01*
X120815339Y-75032777D01*
X120841311Y-75044245D01*
X120841314Y-75044246D01*
X120865915Y-75047100D01*
X121141284Y-75047099D01*
X121165886Y-75044246D01*
X121266522Y-74999811D01*
X121344311Y-74922022D01*
X121388746Y-74821386D01*
X121391600Y-74796785D01*
X121391599Y-74686617D01*
X121411283Y-74619580D01*
X121440113Y-74588243D01*
X121520815Y-74526318D01*
X121615991Y-74402283D01*
X121615991Y-74402282D01*
X121675815Y-74257853D01*
X121675816Y-74257848D01*
X121685526Y-74184100D01*
X121127600Y-74184100D01*
X121060561Y-74164415D01*
X121014806Y-74111611D01*
X121003600Y-74060100D01*
X121003600Y-73933100D01*
X121023285Y-73866061D01*
X121076089Y-73820306D01*
X121127600Y-73809100D01*
X121685525Y-73809100D01*
X121685525Y-73809099D01*
X121675816Y-73735351D01*
X121675815Y-73735346D01*
X121615991Y-73590917D01*
X121615991Y-73590916D01*
X121520814Y-73466881D01*
X121440112Y-73404955D01*
X121398910Y-73348527D01*
X121391599Y-73306580D01*
X121391599Y-73196423D01*
X121391599Y-73196416D01*
X121388746Y-73171814D01*
X121344311Y-73071178D01*
X121266522Y-72993389D01*
X121225765Y-72975393D01*
X121165887Y-72948954D01*
X121141285Y-72946100D01*
X120865923Y-72946100D01*
X120865914Y-72946101D01*
X120841313Y-72948954D01*
X120841311Y-72948954D01*
X120814728Y-72960692D01*
X120792384Y-72967271D01*
X120792518Y-72967785D01*
X120786633Y-72969318D01*
X120599123Y-73038446D01*
X120556231Y-73046100D01*
X120400447Y-73046100D01*
X120370793Y-73054046D01*
X120300943Y-73052383D01*
X120243081Y-73013220D01*
X120215577Y-72948992D01*
X120214700Y-72934271D01*
X120214700Y-71715562D01*
X120234385Y-71648523D01*
X120251019Y-71627881D01*
X120678381Y-71200519D01*
X120739704Y-71167034D01*
X120766062Y-71164200D01*
X123168538Y-71164200D01*
X123235577Y-71183885D01*
G37*
%TD.AperFunction*%
%TD*%
%TA.AperFunction,Conductor*%
%TO.N,GND*%
G36*
X119398707Y-54368585D02*
G01*
X119406975Y-54372022D01*
X119410392Y-54380299D01*
X119410372Y-54380972D01*
X119311748Y-56057587D01*
X119307841Y-56065645D01*
X119300068Y-56068600D01*
X117822132Y-56068600D01*
X117813859Y-56065173D01*
X117810452Y-56057587D01*
X117711827Y-54380970D01*
X117714762Y-54372512D01*
X117722820Y-54368605D01*
X117723478Y-54368585D01*
X118561100Y-54367600D01*
X119398707Y-54368585D01*
G37*
%TD.AperFunction*%
%TD*%
%TA.AperFunction,Conductor*%
%TO.N,GND*%
G36*
X113010377Y-76333486D02*
G01*
X113709140Y-76626313D01*
X113715446Y-76632671D01*
X113716317Y-76637227D01*
X113709222Y-77309843D01*
X113705708Y-77318080D01*
X113697523Y-77321420D01*
X113313206Y-77321420D01*
X113305894Y-77318854D01*
X112703971Y-76837029D01*
X112699654Y-76829184D01*
X112701290Y-76821811D01*
X112995866Y-76338190D01*
X113003095Y-76332909D01*
X113010377Y-76333486D01*
G37*
%TD.AperFunction*%
%TD*%
%TA.AperFunction,Conductor*%
%TO.N,GND*%
G36*
X116251644Y-81274873D02*
G01*
X116252613Y-81275972D01*
X116631408Y-81763945D01*
X116633774Y-81772581D01*
X116631089Y-81778687D01*
X116219719Y-82263718D01*
X116211754Y-82267811D01*
X116203428Y-82265239D01*
X115916229Y-82032425D01*
X115635356Y-81804739D01*
X115631088Y-81796868D01*
X115631929Y-81791144D01*
X115846096Y-81278635D01*
X115852447Y-81272323D01*
X115856891Y-81271446D01*
X116243371Y-81271446D01*
X116251644Y-81274873D01*
G37*
%TD.AperFunction*%
%TD*%
%TA.AperFunction,Conductor*%
%TO.N,GND*%
G36*
X128883632Y-73865820D02*
G01*
X128885053Y-73867241D01*
X129353103Y-74423557D01*
X129355807Y-74432093D01*
X129355427Y-74434208D01*
X129178473Y-75074019D01*
X129172964Y-75081079D01*
X129167196Y-75082600D01*
X128585004Y-75082600D01*
X128576731Y-75079173D01*
X128573727Y-75074019D01*
X128396772Y-74434208D01*
X128397870Y-74425321D01*
X128399096Y-74423557D01*
X128867147Y-73867241D01*
X128875096Y-73863116D01*
X128883632Y-73865820D01*
G37*
%TD.AperFunction*%
%TD*%
%TA.AperFunction,Conductor*%
%TO.N,GND*%
G36*
X129175876Y-76457527D02*
G01*
X129178729Y-76462180D01*
X129390975Y-77114493D01*
X129390276Y-77123420D01*
X129388534Y-77125953D01*
X128908285Y-77657978D01*
X128900198Y-77661823D01*
X128891760Y-77658823D01*
X128890915Y-77657978D01*
X128410330Y-77125582D01*
X128407330Y-77117144D01*
X128407676Y-77114861D01*
X128573854Y-76462909D01*
X128579218Y-76455740D01*
X128585191Y-76454100D01*
X129167603Y-76454100D01*
X129175876Y-76457527D01*
G37*
%TD.AperFunction*%
%TD*%
%TA.AperFunction,Conductor*%
%TO.N,GND*%
G36*
X118574741Y-53520929D02*
G01*
X120214770Y-53800938D01*
X120222348Y-53805708D01*
X120224500Y-53812471D01*
X120224500Y-55290294D01*
X120221073Y-55298567D01*
X120212800Y-55301994D01*
X120212210Y-55301979D01*
X118572196Y-55219160D01*
X118564106Y-55215320D01*
X118561086Y-55207491D01*
X118560100Y-54368600D01*
X118561083Y-53532447D01*
X118564520Y-53524180D01*
X118572797Y-53520763D01*
X118574741Y-53520929D01*
G37*
%TD.AperFunction*%
%TD*%
%TA.AperFunction,Conductor*%
%TO.N,GND*%
G36*
X124173187Y-53706262D02*
G01*
X124177094Y-53714320D01*
X124177114Y-53714993D01*
X124178100Y-54552600D01*
X124178100Y-54552628D01*
X124177114Y-55390206D01*
X124173677Y-55398475D01*
X124165400Y-55401892D01*
X124164727Y-55401872D01*
X122488113Y-55303247D01*
X122480055Y-55299340D01*
X122477100Y-55291567D01*
X122477100Y-53813632D01*
X122480527Y-53805359D01*
X122488112Y-53801952D01*
X124164729Y-53703327D01*
X124173187Y-53706262D01*
G37*
%TD.AperFunction*%
%TD*%
%TA.AperFunction,Conductor*%
%TO.N,GND*%
G36*
X112007065Y-70727027D02*
G01*
X112010205Y-70732725D01*
X112051873Y-70917399D01*
X112051905Y-70922404D01*
X111919591Y-71545686D01*
X111914521Y-71553067D01*
X111905716Y-71554701D01*
X111898335Y-71549631D01*
X111896701Y-71545686D01*
X111871030Y-71424762D01*
X111764386Y-70922400D01*
X111764417Y-70917403D01*
X111806087Y-70732724D01*
X111811251Y-70725409D01*
X111817500Y-70723600D01*
X111998792Y-70723600D01*
X112007065Y-70727027D01*
G37*
%TD.AperFunction*%
%TD*%
%TA.AperFunction,Conductor*%
%TO.N,GND*%
G36*
X109895948Y-79156273D02*
G01*
X110451458Y-79623646D01*
X110455583Y-79631595D01*
X110452879Y-79640131D01*
X110451458Y-79641552D01*
X109895948Y-80108924D01*
X109887412Y-80111628D01*
X109883800Y-80110722D01*
X109243184Y-79835640D01*
X109236934Y-79829227D01*
X109236100Y-79824889D01*
X109236100Y-79440308D01*
X109239527Y-79432035D01*
X109243184Y-79429557D01*
X109883801Y-79154474D01*
X109892754Y-79154360D01*
X109895948Y-79156273D01*
G37*
%TD.AperFunction*%
%TD*%
%TA.AperFunction,Conductor*%
%TO.N,GND*%
G36*
X113711035Y-80125026D02*
G01*
X113712562Y-80126908D01*
X114078918Y-80688654D01*
X114080567Y-80697455D01*
X114077398Y-80703311D01*
X113517380Y-81264304D01*
X113509110Y-81267738D01*
X113500834Y-81264318D01*
X113500820Y-81264304D01*
X112940801Y-80703311D01*
X112937381Y-80695035D01*
X112939280Y-80688655D01*
X113305638Y-80126908D01*
X113313028Y-80121850D01*
X113315438Y-80121599D01*
X113702762Y-80121599D01*
X113711035Y-80125026D01*
G37*
%TD.AperFunction*%
%TD*%
%TA.AperFunction,Conductor*%
%TO.N,GND*%
G36*
X107675339Y-77861772D02*
G01*
X108160617Y-78343194D01*
X108164077Y-78351453D01*
X108162436Y-78357476D01*
X107870501Y-78848875D01*
X107863329Y-78854237D01*
X107860442Y-78854599D01*
X107473758Y-78854599D01*
X107465485Y-78851172D01*
X107463699Y-78848875D01*
X107171762Y-78357474D01*
X107170484Y-78348613D01*
X107173580Y-78343197D01*
X107658860Y-77861772D01*
X107667147Y-77858379D01*
X107675339Y-77861772D01*
G37*
%TD.AperFunction*%
%TD*%
%TA.AperFunction,Conductor*%
%TO.N,GND*%
G36*
X110664150Y-80125026D02*
G01*
X110664587Y-80125487D01*
X111170198Y-80689211D01*
X111173171Y-80697658D01*
X111170617Y-80704341D01*
X110722366Y-81263534D01*
X110714518Y-81267846D01*
X110705984Y-81265397D01*
X110009034Y-80714779D01*
X110004667Y-80706961D01*
X110005581Y-80700878D01*
X110258022Y-80128576D01*
X110264496Y-80122391D01*
X110268727Y-80121599D01*
X110655877Y-80121599D01*
X110664150Y-80125026D01*
G37*
%TD.AperFunction*%
%TD*%
%TA.AperFunction,Conductor*%
%TO.N,GND*%
G36*
X110469339Y-79639772D02*
G01*
X110954617Y-80121194D01*
X110958077Y-80129453D01*
X110956436Y-80135476D01*
X110664501Y-80626875D01*
X110657329Y-80632237D01*
X110654442Y-80632599D01*
X110267758Y-80632599D01*
X110259485Y-80629172D01*
X110257699Y-80626875D01*
X109965762Y-80135474D01*
X109964484Y-80126613D01*
X109967580Y-80121197D01*
X110452860Y-79639772D01*
X110461147Y-79636379D01*
X110469339Y-79639772D01*
G37*
%TD.AperFunction*%
%TD*%
%TA.AperFunction,Conductor*%
%TO.N,GND*%
G36*
X129175469Y-72636027D02*
G01*
X129178473Y-72641181D01*
X129355427Y-73280991D01*
X129354329Y-73289878D01*
X129353103Y-73291642D01*
X128885053Y-73847958D01*
X128877104Y-73852083D01*
X128868568Y-73849379D01*
X128867147Y-73847958D01*
X128399096Y-73291642D01*
X128396392Y-73283106D01*
X128396772Y-73280991D01*
X128573727Y-72641181D01*
X128579236Y-72634121D01*
X128585004Y-72632600D01*
X129167196Y-72632600D01*
X129175469Y-72636027D01*
G37*
%TD.AperFunction*%
%TD*%
%TA.AperFunction,Conductor*%
%TO.N,GND*%
G36*
X129287846Y-72281765D02*
G01*
X129296109Y-72285213D01*
X129299515Y-72293494D01*
X129299372Y-72295288D01*
X129177658Y-73066871D01*
X129172984Y-73074509D01*
X129166101Y-73076748D01*
X128586754Y-73076748D01*
X128578481Y-73073321D01*
X128575105Y-73066141D01*
X128540805Y-72700642D01*
X128502697Y-72294558D01*
X128505336Y-72286003D01*
X128513253Y-72281818D01*
X128514295Y-72281768D01*
X128901500Y-72280800D01*
X129287846Y-72281765D01*
G37*
%TD.AperFunction*%
%TD*%
%TA.AperFunction,Conductor*%
%TO.N,GND*%
G36*
X111038674Y-79155123D02*
G01*
X111041627Y-79156618D01*
X111501129Y-79389219D01*
X111504118Y-79391385D01*
X111774868Y-79662135D01*
X111778295Y-79670408D01*
X111774868Y-79678681D01*
X111772457Y-79680534D01*
X111085690Y-80078127D01*
X111076813Y-80079306D01*
X111072960Y-80077473D01*
X110472499Y-79642084D01*
X110467813Y-79634453D01*
X110469895Y-79625744D01*
X110471822Y-79623671D01*
X111025854Y-79156617D01*
X111034385Y-79153905D01*
X111038674Y-79155123D01*
G37*
%TD.AperFunction*%
%TD*%
%TA.AperFunction,Conductor*%
%TO.N,GND*%
G36*
X146198707Y-63153585D02*
G01*
X146206975Y-63157022D01*
X146210392Y-63165299D01*
X146210372Y-63165972D01*
X146111748Y-64842587D01*
X146107841Y-64850645D01*
X146100068Y-64853600D01*
X144622132Y-64853600D01*
X144613859Y-64850173D01*
X144610452Y-64842587D01*
X144511827Y-63165970D01*
X144514762Y-63157512D01*
X144522820Y-63153605D01*
X144523478Y-63153585D01*
X145361100Y-63152600D01*
X146198707Y-63153585D01*
G37*
%TD.AperFunction*%
%TD*%
%TA.AperFunction,Conductor*%
%TO.N,GND*%
G36*
X146108341Y-63997027D02*
G01*
X146111748Y-64004613D01*
X146210372Y-65681227D01*
X146207437Y-65689687D01*
X146199379Y-65693594D01*
X146198706Y-65693614D01*
X145361114Y-65694599D01*
X145361086Y-65694599D01*
X144523493Y-65693614D01*
X144515224Y-65690177D01*
X144511807Y-65681900D01*
X144511826Y-65681255D01*
X144610452Y-64004612D01*
X144614359Y-63996555D01*
X144622132Y-63993600D01*
X146100068Y-63993600D01*
X146108341Y-63997027D01*
G37*
%TD.AperFunction*%
%TD*%
%TA.AperFunction,Conductor*%
%TO.N,/3V3*%
G36*
X119359310Y-80594935D02*
G01*
X119359377Y-80595002D01*
X120183924Y-81432017D01*
X120187289Y-81440316D01*
X120186354Y-81444810D01*
X119830630Y-82280482D01*
X119824237Y-82286752D01*
X119819865Y-82287600D01*
X118835639Y-82287600D01*
X118827366Y-82284173D01*
X118824717Y-82280095D01*
X118503823Y-81444689D01*
X118504055Y-81435738D01*
X118506465Y-81432228D01*
X119342765Y-80594944D01*
X119351035Y-80591513D01*
X119359310Y-80594935D01*
G37*
%TD.AperFunction*%
%TD*%
%TA.AperFunction,Conductor*%
%TO.N,/3V3*%
G36*
X111370080Y-83647053D02*
G01*
X112179460Y-83720633D01*
X112187388Y-83724795D01*
X112190100Y-83732285D01*
X112190100Y-84710916D01*
X112186673Y-84719189D01*
X112179459Y-84722568D01*
X111370122Y-84796144D01*
X111361573Y-84793480D01*
X111361337Y-84793277D01*
X110724027Y-84230369D01*
X110720095Y-84222325D01*
X110723004Y-84213856D01*
X110724028Y-84212832D01*
X111361320Y-83649939D01*
X111369787Y-83647031D01*
X111370080Y-83647053D01*
G37*
%TD.AperFunction*%
%TD*%
%TA.AperFunction,Conductor*%
%TO.N,/3V3*%
G36*
X112862626Y-83649721D02*
G01*
X112862856Y-83649919D01*
X113124021Y-83880594D01*
X113500171Y-84212832D01*
X113504104Y-84220877D01*
X113501195Y-84229346D01*
X113500171Y-84230370D01*
X112862881Y-84793261D01*
X112854412Y-84796170D01*
X112854077Y-84796144D01*
X112044741Y-84722568D01*
X112036812Y-84718406D01*
X112034100Y-84710916D01*
X112034100Y-83732285D01*
X112037527Y-83724012D01*
X112044739Y-83720633D01*
X112854078Y-83647057D01*
X112862626Y-83649721D01*
G37*
%TD.AperFunction*%
%TD*%
%TA.AperFunction,Conductor*%
%TO.N,/3V3*%
G36*
X114164080Y-83647053D02*
G01*
X114973460Y-83720633D01*
X114981388Y-83724795D01*
X114984100Y-83732285D01*
X114984100Y-84710916D01*
X114980673Y-84719189D01*
X114973459Y-84722568D01*
X114164122Y-84796144D01*
X114155573Y-84793480D01*
X114155337Y-84793277D01*
X113518027Y-84230369D01*
X113514095Y-84222325D01*
X113517004Y-84213856D01*
X113518028Y-84212832D01*
X114155320Y-83649939D01*
X114163787Y-83647031D01*
X114164080Y-83647053D01*
G37*
%TD.AperFunction*%
%TD*%
%TA.AperFunction,Conductor*%
%TO.N,/3V3*%
G36*
X121891269Y-87333135D02*
G01*
X122378709Y-87723087D01*
X122383028Y-87730931D01*
X122383100Y-87732223D01*
X122383100Y-87920976D01*
X122379673Y-87929249D01*
X122378709Y-87930112D01*
X121891269Y-88320064D01*
X121882668Y-88322556D01*
X121875695Y-88319209D01*
X121482300Y-87926600D01*
X121390396Y-87834880D01*
X121386962Y-87826612D01*
X121390380Y-87818335D01*
X121875695Y-87333989D01*
X121883972Y-87330571D01*
X121891269Y-87333135D01*
G37*
%TD.AperFunction*%
%TD*%
%TA.AperFunction,Conductor*%
%TO.N,/3V3*%
G36*
X118708507Y-73346871D02*
G01*
X119348320Y-73523827D01*
X119355379Y-73529335D01*
X119356900Y-73535103D01*
X119356900Y-74117296D01*
X119353473Y-74125569D01*
X119348319Y-74128573D01*
X118708508Y-74305527D01*
X118699621Y-74304429D01*
X118697857Y-74303203D01*
X118141541Y-73835153D01*
X118137416Y-73827204D01*
X118140120Y-73818668D01*
X118141541Y-73817247D01*
X118483748Y-73529335D01*
X118697857Y-73349195D01*
X118706393Y-73346492D01*
X118708507Y-73346871D01*
G37*
%TD.AperFunction*%
%TD*%
%TA.AperFunction,Conductor*%
%TO.N,/3V3*%
G36*
X109252414Y-83566092D02*
G01*
X110734764Y-83645972D01*
X110742840Y-83649839D01*
X110745818Y-83658271D01*
X110716431Y-84215309D01*
X110712573Y-84223391D01*
X110710662Y-84224787D01*
X109884302Y-84709034D01*
X109875786Y-84710347D01*
X109249199Y-84567503D01*
X109241895Y-84562323D01*
X109240100Y-84556096D01*
X109240100Y-83577776D01*
X109243527Y-83569503D01*
X109251800Y-83566076D01*
X109252414Y-83566092D01*
G37*
%TD.AperFunction*%
%TD*%
%TA.AperFunction,Conductor*%
%TO.N,/3V3*%
G36*
X108533942Y-83416886D02*
G01*
X108851251Y-83490111D01*
X109168560Y-83563336D01*
X109175851Y-83568535D01*
X109177629Y-83574736D01*
X109177629Y-84556121D01*
X109174202Y-84564394D01*
X109168560Y-84567521D01*
X108533942Y-84713971D01*
X108525110Y-84712493D01*
X108523044Y-84710851D01*
X108368076Y-84556121D01*
X107884920Y-84073707D01*
X107881488Y-84065438D01*
X107884907Y-84057163D01*
X108523045Y-83420005D01*
X108531320Y-83416586D01*
X108533942Y-83416886D01*
G37*
%TD.AperFunction*%
%TD*%
%TA.AperFunction,Conductor*%
%TO.N,/3V3*%
G36*
X115041339Y-76337773D02*
G01*
X115525672Y-76818258D01*
X115529132Y-76826517D01*
X115526603Y-76833829D01*
X115136613Y-77326165D01*
X115128790Y-77330522D01*
X115127442Y-77330600D01*
X114938758Y-77330600D01*
X114930485Y-77327173D01*
X114929587Y-77326165D01*
X114907422Y-77298184D01*
X114539595Y-76833827D01*
X114537145Y-76825216D01*
X114540526Y-76818259D01*
X115024860Y-76337773D01*
X115033147Y-76334380D01*
X115041339Y-76337773D01*
G37*
%TD.AperFunction*%
%TD*%
%TA.AperFunction,Conductor*%
%TO.N,/3V3*%
G36*
X115133190Y-76816027D02*
G01*
X115135907Y-76820287D01*
X115306430Y-77287294D01*
X115306049Y-77296241D01*
X115299951Y-77302103D01*
X115037611Y-77411715D01*
X115028656Y-77411742D01*
X115028589Y-77411715D01*
X114766248Y-77302103D01*
X114759936Y-77295751D01*
X114759769Y-77287297D01*
X114930293Y-76820286D01*
X114936349Y-76813691D01*
X114941283Y-76812600D01*
X115124917Y-76812600D01*
X115133190Y-76816027D01*
G37*
%TD.AperFunction*%
%TD*%
%TA.AperFunction,Conductor*%
%TO.N,/3V3*%
G36*
X119335440Y-84024376D02*
G01*
X119336285Y-84025221D01*
X119815309Y-84555889D01*
X119818309Y-84564327D01*
X119816701Y-84569675D01*
X119430995Y-85223346D01*
X119423839Y-85228730D01*
X119420918Y-85229100D01*
X119234282Y-85229100D01*
X119226009Y-85225673D01*
X119224205Y-85223346D01*
X119144259Y-85087859D01*
X118838497Y-84569673D01*
X118837245Y-84560808D01*
X118839888Y-84555891D01*
X119318915Y-84025220D01*
X119327002Y-84021376D01*
X119335440Y-84024376D01*
G37*
%TD.AperFunction*%
%TD*%
%TA.AperFunction,Conductor*%
%TO.N,/3V3*%
G36*
X119851537Y-78891027D02*
G01*
X119854083Y-78894845D01*
X120198132Y-79730392D01*
X120198113Y-79739347D01*
X120195591Y-79743115D01*
X119359378Y-80580312D01*
X119351107Y-80583744D01*
X119342832Y-80580322D01*
X119342822Y-80580312D01*
X119063244Y-80300405D01*
X118506607Y-79743114D01*
X118503186Y-79734840D01*
X118504066Y-79730396D01*
X118848117Y-78894845D01*
X118854436Y-78888500D01*
X118858936Y-78887600D01*
X119843264Y-78887600D01*
X119851537Y-78891027D01*
G37*
%TD.AperFunction*%
%TD*%
%TA.AperFunction,Conductor*%
%TO.N,/3V3*%
G36*
X120890504Y-87333990D02*
G01*
X121375802Y-87818319D01*
X121379237Y-87826588D01*
X121375818Y-87834865D01*
X121375802Y-87834881D01*
X120890504Y-88319209D01*
X120882227Y-88322628D01*
X120874930Y-88320064D01*
X120387491Y-87930112D01*
X120383172Y-87922268D01*
X120383100Y-87920976D01*
X120383100Y-87732223D01*
X120386527Y-87723950D01*
X120387491Y-87723087D01*
X120874931Y-87333134D01*
X120883531Y-87330643D01*
X120890504Y-87333990D01*
G37*
%TD.AperFunction*%
%TD*%
%TA.AperFunction,Conductor*%
%TO.N,/3V3*%
G36*
X120866658Y-73162490D02*
G01*
X120871164Y-73166157D01*
X120999455Y-73339643D01*
X121001619Y-73348333D01*
X120999455Y-73353557D01*
X120871164Y-73527042D01*
X120863490Y-73531656D01*
X120857710Y-73531063D01*
X120636253Y-73449421D01*
X120629676Y-73443344D01*
X120628600Y-73438443D01*
X120628600Y-73254756D01*
X120632027Y-73246483D01*
X120636250Y-73243779D01*
X120857710Y-73162136D01*
X120866658Y-73162490D01*
G37*
%TD.AperFunction*%
%TD*%
%TA.AperFunction,Conductor*%
%TO.N,/3V3*%
G36*
X139343293Y-116919656D02*
G01*
X139343793Y-116920188D01*
X140083032Y-117757992D01*
X140085936Y-117766463D01*
X140082537Y-117774001D01*
X139248578Y-118608941D01*
X139240307Y-118612373D01*
X139232032Y-118608951D01*
X139232022Y-118608941D01*
X139039168Y-118415861D01*
X138398061Y-117773999D01*
X138394640Y-117765726D01*
X138397566Y-117757993D01*
X139136807Y-116920188D01*
X139144850Y-116916252D01*
X139145580Y-116916229D01*
X139335020Y-116916229D01*
X139343293Y-116919656D01*
G37*
%TD.AperFunction*%
%TD*%
%TA.AperFunction,Conductor*%
%TO.N,/12V*%
G36*
X112007065Y-66427027D02*
G01*
X112010205Y-66432725D01*
X112051873Y-66617399D01*
X112051905Y-66622404D01*
X111919591Y-67245686D01*
X111914521Y-67253067D01*
X111905716Y-67254701D01*
X111898335Y-67249631D01*
X111896701Y-67245686D01*
X111871030Y-67124762D01*
X111764386Y-66622400D01*
X111764417Y-66617403D01*
X111806087Y-66432724D01*
X111811251Y-66425409D01*
X111817500Y-66423600D01*
X111998792Y-66423600D01*
X112007065Y-66427027D01*
G37*
%TD.AperFunction*%
%TD*%
%TA.AperFunction,Conductor*%
%TO.N,/12V*%
G36*
X110949366Y-54375876D02*
G01*
X111785591Y-55213084D01*
X111789013Y-55221359D01*
X111788132Y-55225807D01*
X111444083Y-56061355D01*
X111437764Y-56067700D01*
X111433264Y-56068600D01*
X110448936Y-56068600D01*
X110440663Y-56065173D01*
X110438117Y-56061355D01*
X110339817Y-55822627D01*
X110094067Y-55225805D01*
X110094086Y-55216852D01*
X110096604Y-55213088D01*
X110932823Y-54375886D01*
X110941093Y-54372455D01*
X110949366Y-54375876D01*
G37*
%TD.AperFunction*%
%TD*%
%TA.AperFunction,Conductor*%
%TO.N,/12V*%
G36*
X109401832Y-63908020D02*
G01*
X109403253Y-63909441D01*
X109870625Y-64464951D01*
X109873329Y-64473487D01*
X109872423Y-64477099D01*
X109597342Y-65117716D01*
X109590929Y-65123966D01*
X109586591Y-65124800D01*
X109202009Y-65124800D01*
X109193736Y-65121373D01*
X109191258Y-65117716D01*
X108916176Y-64477099D01*
X108916061Y-64468145D01*
X108917974Y-64464951D01*
X109385347Y-63909441D01*
X109393296Y-63905316D01*
X109401832Y-63908020D01*
G37*
%TD.AperFunction*%
%TD*%
%TA.AperFunction,Conductor*%
%TO.N,/burn*%
G36*
X126482848Y-73360582D02*
G01*
X126486509Y-73363080D01*
X126968925Y-73849360D01*
X126972319Y-73857647D01*
X126968925Y-73865840D01*
X126486509Y-74352119D01*
X126478250Y-74355579D01*
X126473895Y-74354757D01*
X125983492Y-74160527D01*
X125977062Y-74154294D01*
X125976100Y-74149649D01*
X125976100Y-73565550D01*
X125979527Y-73557277D01*
X125983490Y-73554672D01*
X126473897Y-73360442D01*
X126482848Y-73360582D01*
G37*
%TD.AperFunction*%
%TD*%
%TA.AperFunction,Conductor*%
%TO.N,/burn*%
G36*
X122925581Y-73162928D02*
G01*
X123146015Y-73245750D01*
X123152554Y-73251867D01*
X123153600Y-73256702D01*
X123153600Y-73440389D01*
X123150173Y-73448662D01*
X123145879Y-73451392D01*
X122923403Y-73531849D01*
X122914458Y-73531440D01*
X122909978Y-73527749D01*
X122782705Y-73353585D01*
X122780590Y-73344884D01*
X122782783Y-73339673D01*
X122912102Y-73166869D01*
X122919801Y-73162300D01*
X122925581Y-73162928D01*
G37*
%TD.AperFunction*%
%TD*%
%TA.AperFunction,Conductor*%
%TO.N,/burn*%
G36*
X130542108Y-69707709D02*
G01*
X130543084Y-69708580D01*
X131381173Y-70545683D01*
X131384605Y-70553954D01*
X131381183Y-70562229D01*
X131380537Y-70562829D01*
X130545366Y-71281555D01*
X130536860Y-71284354D01*
X130531923Y-71282842D01*
X129694989Y-70803969D01*
X129689511Y-70796886D01*
X129689100Y-70793814D01*
X129689100Y-69811052D01*
X129692527Y-69802779D01*
X129699484Y-69799427D01*
X130533503Y-69705232D01*
X130542108Y-69707709D01*
G37*
%TD.AperFunction*%
%TD*%
%TA.AperFunction,Conductor*%
%TO.N,/burn*%
G36*
X127014232Y-70258020D02*
G01*
X127015651Y-70259439D01*
X127483495Y-70815509D01*
X127486199Y-70824044D01*
X127485675Y-70826640D01*
X127278719Y-71466700D01*
X127272913Y-71473517D01*
X127267586Y-71474800D01*
X126685416Y-71474800D01*
X126677143Y-71471373D01*
X126674013Y-71465720D01*
X126527036Y-70826155D01*
X126528523Y-70817327D01*
X126529476Y-70816017D01*
X126997747Y-70259440D01*
X127005696Y-70255316D01*
X127014232Y-70258020D01*
G37*
%TD.AperFunction*%
%TD*%
%TA.AperFunction,Conductor*%
%TO.N,/burn*%
G36*
X127275469Y-72636027D02*
G01*
X127278473Y-72641181D01*
X127455427Y-73280991D01*
X127454329Y-73289878D01*
X127453103Y-73291642D01*
X126985053Y-73847958D01*
X126977104Y-73852083D01*
X126968568Y-73849379D01*
X126967147Y-73847958D01*
X126499096Y-73291642D01*
X126496392Y-73283106D01*
X126496772Y-73280991D01*
X126673727Y-72641181D01*
X126679236Y-72634121D01*
X126685004Y-72632600D01*
X127267196Y-72632600D01*
X127275469Y-72636027D01*
G37*
%TD.AperFunction*%
%TD*%
%TA.AperFunction,Conductor*%
%TO.N,Net-(D1-K)*%
G36*
X104116094Y-73978432D02*
G01*
X104121681Y-73984019D01*
X104959669Y-75759568D01*
X104960708Y-75765929D01*
X104862316Y-76602267D01*
X104857946Y-76610083D01*
X104850696Y-76612600D01*
X103371504Y-76612600D01*
X103363231Y-76609173D01*
X103359884Y-76602267D01*
X103261491Y-75765926D01*
X103262529Y-75759571D01*
X104100519Y-73984018D01*
X104107149Y-73978000D01*
X104116094Y-73978432D01*
G37*
%TD.AperFunction*%
%TD*%
%TA.AperFunction,Conductor*%
%TO.N,Net-(D1-K)*%
G36*
X105026595Y-81018856D02*
G01*
X105029722Y-81024498D01*
X105176969Y-81662571D01*
X105176862Y-81668259D01*
X104538922Y-84024714D01*
X104533453Y-84031805D01*
X104524572Y-84032950D01*
X104517481Y-84027481D01*
X104516336Y-84024714D01*
X103878395Y-81668259D01*
X103878288Y-81662573D01*
X104025536Y-81024497D01*
X104030735Y-81017207D01*
X104036936Y-81015429D01*
X105018322Y-81015429D01*
X105026595Y-81018856D01*
G37*
%TD.AperFunction*%
%TD*%
%TA.AperFunction,Conductor*%
%TO.N,Net-(D1-K)*%
G36*
X104827074Y-73111551D02*
G01*
X105448742Y-73588785D01*
X105449891Y-73589793D01*
X106144760Y-74284662D01*
X106148187Y-74292935D01*
X106144760Y-74301208D01*
X106141537Y-74303489D01*
X105107722Y-74798101D01*
X105098780Y-74798581D01*
X105095115Y-74796479D01*
X104119210Y-73970767D01*
X104115107Y-73962807D01*
X104117738Y-73954395D01*
X104810923Y-73113389D01*
X104818828Y-73109186D01*
X104827074Y-73111551D01*
G37*
%TD.AperFunction*%
%TD*%
%TA.AperFunction,Conductor*%
%TO.N,Net-(D1-K)*%
G36*
X107199252Y-71172238D02*
G01*
X107975898Y-71269319D01*
X107983681Y-71273745D01*
X107986146Y-71280928D01*
X107986146Y-71860271D01*
X107982719Y-71868544D01*
X107975897Y-71871881D01*
X107199263Y-71968960D01*
X107190629Y-71966585D01*
X107186202Y-71958801D01*
X107186112Y-71957394D01*
X107185146Y-71570600D01*
X107186112Y-71183817D01*
X107189560Y-71175555D01*
X107197841Y-71172149D01*
X107199252Y-71172238D01*
G37*
%TD.AperFunction*%
%TD*%
%TA.AperFunction,Conductor*%
%TO.N,Net-(D1-K)*%
G36*
X107359636Y-67260897D02*
G01*
X107361254Y-67262480D01*
X107828838Y-67818241D01*
X107831542Y-67826777D01*
X107830975Y-67829501D01*
X107615780Y-68469628D01*
X107609896Y-68476378D01*
X107604690Y-68477600D01*
X107220207Y-68477600D01*
X107211934Y-68474173D01*
X107209824Y-68471293D01*
X106884153Y-67844270D01*
X106883381Y-67835348D01*
X106885419Y-67831544D01*
X107343186Y-67262676D01*
X107351042Y-67258380D01*
X107359636Y-67260897D01*
G37*
%TD.AperFunction*%
%TD*%
%TA.AperFunction,Conductor*%
%TO.N,Net-(D1-K)*%
G36*
X107610785Y-68686427D02*
G01*
X107614154Y-68693536D01*
X107661818Y-69170187D01*
X107659231Y-69178760D01*
X107651340Y-69182993D01*
X107650223Y-69183051D01*
X107413147Y-69183999D01*
X107413053Y-69183999D01*
X107175976Y-69183051D01*
X107167717Y-69179591D01*
X107164323Y-69171304D01*
X107164381Y-69170187D01*
X107212046Y-68693536D01*
X107216279Y-68685645D01*
X107223688Y-68683000D01*
X107602512Y-68683000D01*
X107610785Y-68686427D01*
G37*
%TD.AperFunction*%
%TD*%
%TA.AperFunction,Conductor*%
%TO.N,/EN*%
G36*
X120866658Y-74462490D02*
G01*
X120871164Y-74466157D01*
X120999455Y-74639643D01*
X121001619Y-74648333D01*
X120999455Y-74653557D01*
X120871164Y-74827042D01*
X120863490Y-74831656D01*
X120857710Y-74831063D01*
X120636253Y-74749421D01*
X120629676Y-74743344D01*
X120628600Y-74738443D01*
X120628600Y-74554756D01*
X120632027Y-74546483D01*
X120636250Y-74543779D01*
X120857710Y-74462136D01*
X120866658Y-74462490D01*
G37*
%TD.AperFunction*%
%TD*%
%TA.AperFunction,Conductor*%
%TO.N,/EN*%
G36*
X120447521Y-74544261D02*
G01*
X120454612Y-74549730D01*
X120456165Y-74555555D01*
X120456165Y-74738564D01*
X120452738Y-74746837D01*
X120448665Y-74749484D01*
X120066976Y-74896290D01*
X120058024Y-74896062D01*
X120051983Y-74889887D01*
X119961589Y-74673915D01*
X119961557Y-74664963D01*
X120052414Y-74447882D01*
X120058770Y-74441574D01*
X120066261Y-74441106D01*
X120447521Y-74544261D01*
G37*
%TD.AperFunction*%
%TD*%
%TA.AperFunction,Conductor*%
%TO.N,Net-(U3-EN)*%
G36*
X112507065Y-66427027D02*
G01*
X112510205Y-66432725D01*
X112551873Y-66617399D01*
X112551905Y-66622404D01*
X112419591Y-67245686D01*
X112414521Y-67253067D01*
X112405716Y-67254701D01*
X112398335Y-67249631D01*
X112396701Y-67245686D01*
X112371030Y-67124762D01*
X112264386Y-66622400D01*
X112264417Y-66617403D01*
X112306087Y-66432724D01*
X112311251Y-66425409D01*
X112317500Y-66423600D01*
X112498792Y-66423600D01*
X112507065Y-66427027D01*
G37*
%TD.AperFunction*%
%TD*%
%TA.AperFunction,Conductor*%
%TO.N,Net-(U3-EN)*%
G36*
X112495278Y-64839510D02*
G01*
X112758156Y-64949346D01*
X112764467Y-64955697D01*
X112764440Y-64964652D01*
X112763854Y-64965856D01*
X112511496Y-65416717D01*
X112504464Y-65422262D01*
X112501286Y-65422702D01*
X112317763Y-65422702D01*
X112309490Y-65419275D01*
X112306284Y-65413267D01*
X112218010Y-64965856D01*
X112195845Y-64853514D01*
X112197606Y-64844737D01*
X112205059Y-64839773D01*
X112207277Y-64839552D01*
X112490736Y-64838607D01*
X112495278Y-64839510D01*
G37*
%TD.AperFunction*%
%TD*%
%TA.AperFunction,Conductor*%
%TO.N,Net-(U3-EN)*%
G36*
X114485445Y-64320476D02*
G01*
X115126062Y-64595558D01*
X115132312Y-64601971D01*
X115133146Y-64606309D01*
X115133146Y-64990890D01*
X115129719Y-64999163D01*
X115126062Y-65001641D01*
X114485445Y-65276723D01*
X114476491Y-65276838D01*
X114473297Y-65274925D01*
X113917787Y-64807553D01*
X113913662Y-64799604D01*
X113916366Y-64791068D01*
X113917787Y-64789647D01*
X114148478Y-64595558D01*
X114473297Y-64322273D01*
X114481833Y-64319570D01*
X114485445Y-64320476D01*
G37*
%TD.AperFunction*%
%TD*%
%TA.AperFunction,Conductor*%
%TO.N,Net-(U3-EN)*%
G36*
X115842994Y-64322274D02*
G01*
X116398504Y-64789647D01*
X116402629Y-64797596D01*
X116399925Y-64806132D01*
X116398504Y-64807553D01*
X115842994Y-65274925D01*
X115834458Y-65277629D01*
X115830846Y-65276723D01*
X115190230Y-65001641D01*
X115183980Y-64995228D01*
X115183146Y-64990890D01*
X115183146Y-64606309D01*
X115186573Y-64598036D01*
X115190230Y-64595558D01*
X115830847Y-64320475D01*
X115839800Y-64320361D01*
X115842994Y-64322274D01*
G37*
%TD.AperFunction*%
%TD*%
%TA.AperFunction,Conductor*%
%TO.N,Net-(U3-EN)*%
G36*
X113343319Y-64322547D02*
G01*
X113898504Y-64789647D01*
X113902629Y-64797596D01*
X113899925Y-64806132D01*
X113898504Y-64807553D01*
X113342666Y-65275202D01*
X113334130Y-65277906D01*
X113331105Y-65277234D01*
X113325564Y-65275202D01*
X113109774Y-65196062D01*
X112690817Y-65042413D01*
X112684230Y-65036347D01*
X112683146Y-65031428D01*
X112683146Y-64646882D01*
X112686573Y-64638609D01*
X112689676Y-64636386D01*
X113330622Y-64321001D01*
X113339558Y-64320424D01*
X113343319Y-64322547D01*
G37*
%TD.AperFunction*%
%TD*%
%TA.AperFunction,Conductor*%
%TO.N,Net-(U3-EN)*%
G36*
X112506666Y-64541861D02*
G01*
X113083324Y-64637970D01*
X113090921Y-64642711D01*
X113093100Y-64649511D01*
X113093100Y-65029688D01*
X113089673Y-65037961D01*
X113083323Y-65041229D01*
X112506677Y-65137337D01*
X112497954Y-65135317D01*
X112493213Y-65127719D01*
X112493054Y-65125835D01*
X112492761Y-65037961D01*
X112492100Y-64839600D01*
X112493054Y-64553363D01*
X112496508Y-64545102D01*
X112504793Y-64541703D01*
X112506666Y-64541861D01*
G37*
%TD.AperFunction*%
%TD*%
%TA.AperFunction,Conductor*%
%TO.N,/DeployerDetectionSW1OUT*%
G36*
X141847637Y-124348030D02*
G01*
X141977025Y-124477418D01*
X141980452Y-124485691D01*
X141979172Y-124491012D01*
X141794644Y-124852361D01*
X141787829Y-124858171D01*
X141779787Y-124857866D01*
X141562600Y-124768841D01*
X141556246Y-124762533D01*
X141467189Y-124545266D01*
X141467222Y-124536314D01*
X141472691Y-124530413D01*
X141834044Y-124345882D01*
X141842969Y-124345172D01*
X141847637Y-124348030D01*
G37*
%TD.AperFunction*%
%TD*%
%TA.AperFunction,Conductor*%
%TO.N,/DeployerDetectionSW1OUT*%
G36*
X145369366Y-75860876D02*
G01*
X146203337Y-76695828D01*
X146206759Y-76704102D01*
X146203832Y-76711836D01*
X145464593Y-77549641D01*
X145456550Y-77553577D01*
X145455820Y-77553600D01*
X145266380Y-77553600D01*
X145258107Y-77550173D01*
X145257607Y-77549641D01*
X144518367Y-76711836D01*
X144515463Y-76703365D01*
X144518860Y-76695830D01*
X145352823Y-75860886D01*
X145361093Y-75857455D01*
X145369366Y-75860876D01*
G37*
%TD.AperFunction*%
%TD*%
%TA.AperFunction,Conductor*%
%TO.N,/BurnWire1IN*%
G36*
X140248264Y-122771111D02*
G01*
X140248932Y-122771729D01*
X141292935Y-123815732D01*
X141296362Y-123824005D01*
X141292935Y-123832278D01*
X141288772Y-123834959D01*
X139576160Y-124477557D01*
X139567211Y-124477255D01*
X139561245Y-124471092D01*
X139240488Y-123699091D01*
X139239594Y-123694599D01*
X139240291Y-122857042D01*
X139243725Y-122848773D01*
X139251080Y-122845388D01*
X140239751Y-122768337D01*
X140248264Y-122771111D01*
G37*
%TD.AperFunction*%
%TD*%
%TA.AperFunction,Conductor*%
%TO.N,/BurnWire1IN*%
G36*
X122547983Y-64450379D02*
G01*
X123414697Y-64869805D01*
X123420651Y-64876493D01*
X123421300Y-64880336D01*
X123421300Y-65864952D01*
X123417873Y-65873225D01*
X123413785Y-65875878D01*
X122547983Y-66207505D01*
X122539031Y-66207264D01*
X122535323Y-66204646D01*
X122211984Y-65864952D01*
X121667174Y-65292584D01*
X121663954Y-65284229D01*
X121667581Y-65276046D01*
X122534832Y-64452427D01*
X122543190Y-64449216D01*
X122547983Y-64450379D01*
G37*
%TD.AperFunction*%
%TD*%
%TA.AperFunction,Conductor*%
%TO.N,/BurnWire1IN*%
G36*
X139987541Y-124539656D02*
G01*
X139990948Y-124547242D01*
X140089572Y-126223856D01*
X140086637Y-126232316D01*
X140078579Y-126236223D01*
X140077906Y-126236243D01*
X139240314Y-126237228D01*
X139240286Y-126237228D01*
X138402693Y-126236243D01*
X138394424Y-126232806D01*
X138391007Y-126224529D01*
X138391026Y-126223884D01*
X138489652Y-124547241D01*
X138493559Y-124539184D01*
X138501332Y-124536229D01*
X139979268Y-124536229D01*
X139987541Y-124539656D01*
G37*
%TD.AperFunction*%
%TD*%
%TA.AperFunction,Conductor*%
%TO.N,/BurnWire1IN*%
G36*
X140077907Y-123696214D02*
G01*
X140086175Y-123699651D01*
X140089592Y-123707928D01*
X140089572Y-123708601D01*
X139990948Y-125385216D01*
X139987041Y-125393274D01*
X139979268Y-125396229D01*
X138501332Y-125396229D01*
X138493059Y-125392802D01*
X138489652Y-125385216D01*
X138391027Y-123708599D01*
X138393962Y-123700141D01*
X138402020Y-123696234D01*
X138402678Y-123696214D01*
X139240300Y-123695229D01*
X140077907Y-123696214D01*
G37*
%TD.AperFunction*%
%TD*%
%TA.AperFunction,Conductor*%
%TO.N,/DeployerDetectionSW2OUT*%
G36*
X140492164Y-64211880D02*
G01*
X140694705Y-64414826D01*
X140976509Y-64697195D01*
X140979928Y-64705472D01*
X140977364Y-64712769D01*
X140587413Y-65200209D01*
X140579569Y-65204528D01*
X140578277Y-65204600D01*
X140389523Y-65204600D01*
X140381250Y-65201173D01*
X140380387Y-65200209D01*
X139990435Y-64712769D01*
X139987943Y-64704168D01*
X139991290Y-64697195D01*
X140475619Y-64211896D01*
X140483888Y-64208462D01*
X140492164Y-64211880D01*
G37*
%TD.AperFunction*%
%TD*%
%TA.AperFunction,Conductor*%
%TO.N,/DeployerDetectionSW2OUT*%
G36*
X144236590Y-72043104D02*
G01*
X145674496Y-72524324D01*
X145681254Y-72530199D01*
X145681878Y-72539132D01*
X145681597Y-72539885D01*
X145363662Y-73309814D01*
X145357337Y-73316153D01*
X145357314Y-73316162D01*
X144587385Y-73634097D01*
X144578430Y-73634088D01*
X144572105Y-73627749D01*
X144571824Y-73626996D01*
X144467795Y-73316153D01*
X144090605Y-72189092D01*
X144091229Y-72180162D01*
X144093424Y-72177112D01*
X144224610Y-72045926D01*
X144232882Y-72042500D01*
X144236590Y-72043104D01*
G37*
%TD.AperFunction*%
%TD*%
%TA.AperFunction,Conductor*%
%TO.N,/TriggerOUT*%
G36*
X114317314Y-54368583D02*
G01*
X114325582Y-54372020D01*
X114328999Y-54380297D01*
X114328841Y-54382200D01*
X114052725Y-56044893D01*
X114047989Y-56052493D01*
X114041183Y-56054676D01*
X113060137Y-56054676D01*
X113051864Y-56051249D01*
X113048817Y-56045932D01*
X113035639Y-55995463D01*
X112698374Y-54703732D01*
X112699599Y-54694863D01*
X112705202Y-54689975D01*
X113478943Y-54368496D01*
X113483438Y-54367602D01*
X114317314Y-54368583D01*
G37*
%TD.AperFunction*%
%TD*%
%TA.AperFunction,Conductor*%
%TO.N,/TriggerOUT*%
G36*
X114567546Y-53063769D02*
G01*
X114570936Y-53066129D01*
X114842860Y-53338053D01*
X114846287Y-53346326D01*
X114845331Y-53350958D01*
X114270958Y-54683301D01*
X114264536Y-54689541D01*
X114255748Y-54689483D01*
X113484885Y-54371162D01*
X113478547Y-54364838D01*
X113160451Y-53594519D01*
X113160460Y-53585566D01*
X113166799Y-53579241D01*
X113167172Y-53579094D01*
X114558599Y-53063431D01*
X114567546Y-53063769D01*
G37*
%TD.AperFunction*%
%TD*%
%TA.AperFunction,Conductor*%
%TO.N,/TriggerOUT*%
G36*
X134026785Y-55783227D02*
G01*
X134030154Y-55790336D01*
X134077818Y-56266987D01*
X134075231Y-56275560D01*
X134067340Y-56279793D01*
X134066223Y-56279851D01*
X133829147Y-56280799D01*
X133829053Y-56280799D01*
X133591976Y-56279851D01*
X133583717Y-56276391D01*
X133580323Y-56268104D01*
X133580381Y-56266987D01*
X133628046Y-55790336D01*
X133632279Y-55782445D01*
X133639688Y-55779800D01*
X134018512Y-55779800D01*
X134026785Y-55783227D01*
G37*
%TD.AperFunction*%
%TD*%
%TA.AperFunction,Conductor*%
%TO.N,/BurnWire1OUT*%
G36*
X140077907Y-128776214D02*
G01*
X140086175Y-128779651D01*
X140089592Y-128787928D01*
X140089572Y-128788601D01*
X139990948Y-130465216D01*
X139987041Y-130473274D01*
X139979268Y-130476229D01*
X138501332Y-130476229D01*
X138493059Y-130472802D01*
X138489652Y-130465216D01*
X138391027Y-128788599D01*
X138393962Y-128780141D01*
X138402020Y-128776234D01*
X138402678Y-128776214D01*
X139240300Y-128775229D01*
X140077907Y-128776214D01*
G37*
%TD.AperFunction*%
%TD*%
%TA.AperFunction,Conductor*%
%TO.N,/BurnWire1OUT*%
G36*
X139987541Y-129619656D02*
G01*
X139990948Y-129627242D01*
X140089572Y-131303856D01*
X140086637Y-131312316D01*
X140078579Y-131316223D01*
X140077906Y-131316243D01*
X139240314Y-131317228D01*
X139240286Y-131317228D01*
X138402693Y-131316243D01*
X138394424Y-131312806D01*
X138391007Y-131304529D01*
X138391026Y-131303884D01*
X138489652Y-129627241D01*
X138493559Y-129619184D01*
X138501332Y-129616229D01*
X139979268Y-129616229D01*
X139987541Y-129619656D01*
G37*
%TD.AperFunction*%
%TD*%
%TA.AperFunction,Conductor*%
%TO.N,Net-(U3-SS{slash}TR)*%
G36*
X115539261Y-65959918D02*
G01*
X116062444Y-66094095D01*
X116285039Y-66151182D01*
X116292201Y-66156556D01*
X116293828Y-66162215D01*
X116311995Y-66871036D01*
X116308781Y-66879394D01*
X116304758Y-66882153D01*
X115822184Y-67081077D01*
X115813229Y-67081062D01*
X115806962Y-67074847D01*
X115720104Y-66871036D01*
X115394476Y-66106953D01*
X115394386Y-66098001D01*
X115396965Y-66094097D01*
X115528084Y-65962978D01*
X115536356Y-65959552D01*
X115539261Y-65959918D01*
G37*
%TD.AperFunction*%
%TD*%
%TA.AperFunction,Conductor*%
%TO.N,Net-(U3-SS{slash}TR)*%
G36*
X113007065Y-66427027D02*
G01*
X113010205Y-66432725D01*
X113051873Y-66617399D01*
X113051905Y-66622404D01*
X112919591Y-67245686D01*
X112914521Y-67253067D01*
X112905716Y-67254701D01*
X112898335Y-67249631D01*
X112896701Y-67245686D01*
X112871030Y-67124762D01*
X112764386Y-66622400D01*
X112764417Y-66617403D01*
X112806087Y-66432724D01*
X112811251Y-66425409D01*
X112817500Y-66423600D01*
X112998792Y-66423600D01*
X113007065Y-66427027D01*
G37*
%TD.AperFunction*%
%TD*%
%TA.AperFunction,Conductor*%
%TO.N,Net-(U3-COMP)*%
G36*
X109974124Y-73625852D02*
G01*
X110505552Y-74105563D01*
X110509397Y-74113650D01*
X110506397Y-74122088D01*
X110505552Y-74122933D01*
X109974124Y-74602643D01*
X109965686Y-74605643D01*
X109961571Y-74604667D01*
X109308661Y-74317322D01*
X109302469Y-74310853D01*
X109301674Y-74306613D01*
X109301674Y-73921882D01*
X109305101Y-73913609D01*
X109308661Y-73911173D01*
X109961572Y-73623827D01*
X109970524Y-73623632D01*
X109974124Y-73625852D01*
G37*
%TD.AperFunction*%
%TD*%
%TA.AperFunction,Conductor*%
%TO.N,Net-(U3-COMP)*%
G36*
X112417957Y-71647568D02*
G01*
X112419591Y-71651513D01*
X112551905Y-72274795D01*
X112551873Y-72279800D01*
X112510205Y-72464475D01*
X112505041Y-72471791D01*
X112498792Y-72473600D01*
X112317500Y-72473600D01*
X112309227Y-72470173D01*
X112306087Y-72464475D01*
X112264417Y-72279796D01*
X112264386Y-72274799D01*
X112396701Y-71651512D01*
X112401771Y-71644132D01*
X112410576Y-71642498D01*
X112417957Y-71647568D01*
G37*
%TD.AperFunction*%
%TD*%
%TA.AperFunction,Conductor*%
%TO.N,Net-(U3-COMP)*%
G36*
X111509146Y-73562726D02*
G01*
X111509469Y-73563038D01*
X111640533Y-73694102D01*
X111643960Y-73702375D01*
X111642032Y-73708809D01*
X111219184Y-74351068D01*
X111211773Y-74356093D01*
X111205568Y-74355685D01*
X110519686Y-74117118D01*
X110512998Y-74111163D01*
X110512089Y-74108515D01*
X110406582Y-73615351D01*
X110408202Y-73606546D01*
X110415575Y-73601464D01*
X110417572Y-73601214D01*
X111500747Y-73559620D01*
X111509146Y-73562726D01*
G37*
%TD.AperFunction*%
%TD*%
%TA.AperFunction,Conductor*%
%TO.N,Net-(U3-COMP)*%
G36*
X107868715Y-74958028D02*
G01*
X107870501Y-74960325D01*
X108162436Y-75451722D01*
X108163715Y-75460585D01*
X108160617Y-75466004D01*
X107675340Y-75947426D01*
X107667053Y-75950820D01*
X107658860Y-75947426D01*
X107173582Y-75466004D01*
X107170122Y-75457745D01*
X107171761Y-75451725D01*
X107463699Y-74960324D01*
X107470871Y-74954963D01*
X107473758Y-74954601D01*
X107860442Y-74954601D01*
X107868715Y-74958028D01*
G37*
%TD.AperFunction*%
%TD*%
%TA.AperFunction,Conductor*%
%TO.N,Net-(C6-Pad2)*%
G36*
X110522107Y-75946493D02*
G01*
X110994714Y-76437670D01*
X110997981Y-76446007D01*
X110996074Y-76452187D01*
X110665123Y-76958099D01*
X110664564Y-76958953D01*
X110657167Y-76964000D01*
X110654773Y-76964248D01*
X110268085Y-76964248D01*
X110259812Y-76960821D01*
X110257786Y-76958099D01*
X109979653Y-76442080D01*
X109978744Y-76433172D01*
X109982028Y-76427921D01*
X110505755Y-75945994D01*
X110514162Y-75942915D01*
X110522107Y-75946493D01*
G37*
%TD.AperFunction*%
%TD*%
%TA.AperFunction,Conductor*%
%TO.N,Net-(C6-Pad2)*%
G36*
X110662715Y-76736028D02*
G01*
X110664501Y-76738325D01*
X110956436Y-77229722D01*
X110957715Y-77238585D01*
X110954617Y-77244004D01*
X110469340Y-77725426D01*
X110461053Y-77728820D01*
X110452860Y-77725426D01*
X109967582Y-77244004D01*
X109964122Y-77235745D01*
X109965761Y-77229725D01*
X110257699Y-76738324D01*
X110264871Y-76732963D01*
X110267758Y-76732601D01*
X110654442Y-76732601D01*
X110662715Y-76736028D01*
G37*
%TD.AperFunction*%
%TD*%
%TA.AperFunction,Conductor*%
%TO.N,Net-(U3-BOOT)*%
G36*
X111260243Y-67151513D02*
G01*
X111263257Y-67153677D01*
X111400789Y-67290299D01*
X111404243Y-67298561D01*
X111400844Y-67306846D01*
X111400789Y-67306901D01*
X111263257Y-67443522D01*
X111254972Y-67446921D01*
X111251311Y-67446321D01*
X111116146Y-67401266D01*
X111109381Y-67395398D01*
X111108146Y-67390166D01*
X111108146Y-67207033D01*
X111111573Y-67198760D01*
X111116144Y-67195933D01*
X111251311Y-67150878D01*
X111260243Y-67151513D01*
G37*
%TD.AperFunction*%
%TD*%
%TA.AperFunction,Conductor*%
%TO.N,Net-(U3-BOOT)*%
G36*
X109759622Y-66781863D02*
G01*
X110247958Y-67195095D01*
X110252060Y-67203055D01*
X110252100Y-67204026D01*
X110252100Y-67392702D01*
X110248673Y-67400975D01*
X110247360Y-67402107D01*
X109750893Y-67769520D01*
X109742204Y-67771687D01*
X109735406Y-67768126D01*
X109259049Y-67261061D01*
X109255882Y-67252685D01*
X109259497Y-67244587D01*
X109743990Y-66782329D01*
X109752341Y-66779098D01*
X109759622Y-66781863D01*
G37*
%TD.AperFunction*%
%TD*%
%TA.AperFunction,Conductor*%
%TO.N,Net-(J1-Pin_1)*%
G36*
X124184671Y-57100267D02*
G01*
X124185611Y-57101111D01*
X125020643Y-57936143D01*
X125024070Y-57944416D01*
X125022406Y-57950431D01*
X124729948Y-58438408D01*
X124728185Y-58440666D01*
X124313751Y-58855100D01*
X124305478Y-58858527D01*
X124297205Y-58855100D01*
X124296704Y-58854567D01*
X123498675Y-57949991D01*
X123495772Y-57941520D01*
X123498331Y-57934919D01*
X124168224Y-57102049D01*
X124176077Y-57097752D01*
X124184671Y-57100267D01*
G37*
%TD.AperFunction*%
%TD*%
%TA.AperFunction,Conductor*%
%TO.N,Net-(J1-Pin_1)*%
G36*
X127419475Y-58559994D02*
G01*
X127421019Y-58561093D01*
X127977458Y-59029248D01*
X127981583Y-59037197D01*
X127978879Y-59045733D01*
X127977458Y-59047154D01*
X127421265Y-59515101D01*
X127412729Y-59517805D01*
X127410373Y-59517355D01*
X126770440Y-59325500D01*
X126763499Y-59319842D01*
X126762100Y-59314293D01*
X126762100Y-58732105D01*
X126765527Y-58723832D01*
X126770924Y-58720764D01*
X127410614Y-58558704D01*
X127419475Y-58559994D01*
G37*
%TD.AperFunction*%
%TD*%
%TA.AperFunction,Conductor*%
%TO.N,Net-(J2-Pin_2)*%
G36*
X129008413Y-67370193D02*
G01*
X129015009Y-67376249D01*
X129016100Y-67381183D01*
X129016100Y-67962261D01*
X129012673Y-67970534D01*
X129005400Y-67973918D01*
X128593895Y-68009226D01*
X128587810Y-68008106D01*
X127732585Y-67595433D01*
X127726624Y-67588752D01*
X127727133Y-67579811D01*
X127733178Y-67574093D01*
X128586487Y-67219432D01*
X128594986Y-67219247D01*
X129008413Y-67370193D01*
G37*
%TD.AperFunction*%
%TD*%
%TA.AperFunction,Conductor*%
%TO.N,Net-(J2-Pin_2)*%
G36*
X131384568Y-67168636D02*
G01*
X131389020Y-67176406D01*
X131389115Y-67177881D01*
X131390097Y-68012257D01*
X131389202Y-68016760D01*
X131069160Y-68787041D01*
X131062821Y-68793366D01*
X131053866Y-68793357D01*
X131052076Y-68792424D01*
X130512680Y-68449092D01*
X129770124Y-67976448D01*
X129764984Y-67969115D01*
X129764706Y-67966578D01*
X129764706Y-67383294D01*
X129768133Y-67375021D01*
X129774914Y-67371690D01*
X131375926Y-67166290D01*
X131384568Y-67168636D01*
G37*
%TD.AperFunction*%
%TD*%
%TA.AperFunction,Conductor*%
%TO.N,Net-(U1-G)*%
G36*
X127514777Y-60441264D02*
G01*
X127516289Y-60442599D01*
X127617306Y-60548710D01*
X127978051Y-60927643D01*
X127981273Y-60935998D01*
X127977644Y-60944184D01*
X127975622Y-60945728D01*
X127326192Y-61337604D01*
X127317338Y-61338944D01*
X127313425Y-61337163D01*
X126767078Y-60953693D01*
X126762275Y-60946135D01*
X126762100Y-60944116D01*
X126762100Y-60560282D01*
X126765527Y-60552009D01*
X126772069Y-60548711D01*
X127506090Y-60439096D01*
X127514777Y-60441264D01*
G37*
%TD.AperFunction*%
%TD*%
%TA.AperFunction,Conductor*%
%TO.N,Net-(U1-G)*%
G36*
X128108632Y-62136728D02*
G01*
X128111865Y-62142881D01*
X128187287Y-62552226D01*
X128185416Y-62560983D01*
X128183566Y-62563080D01*
X127718854Y-62977297D01*
X127710398Y-62980244D01*
X127702335Y-62976348D01*
X127702317Y-62976327D01*
X127336719Y-62564203D01*
X127333792Y-62555740D01*
X127334678Y-62551921D01*
X127507092Y-62140478D01*
X127513450Y-62134173D01*
X127517883Y-62133301D01*
X128100359Y-62133301D01*
X128108632Y-62136728D01*
G37*
%TD.AperFunction*%
%TD*%
%TA.AperFunction,Conductor*%
%TO.N,Net-(U1-G)*%
G36*
X127994414Y-60945941D02*
G01*
X128400955Y-61431849D01*
X128403636Y-61440393D01*
X128402049Y-61445320D01*
X128113498Y-61932462D01*
X128106333Y-61937833D01*
X128103431Y-61938199D01*
X127519566Y-61938199D01*
X127511293Y-61934772D01*
X127508124Y-61928941D01*
X127397991Y-61412931D01*
X127399615Y-61404127D01*
X127402157Y-61401329D01*
X127978171Y-60944283D01*
X127986780Y-60941826D01*
X127994414Y-60945941D01*
G37*
%TD.AperFunction*%
%TD*%
%TA.AperFunction,Conductor*%
%TO.N,Net-(U1-G)*%
G36*
X124618102Y-69756281D02*
G01*
X124866404Y-70006571D01*
X125099525Y-70241560D01*
X125102919Y-70249847D01*
X125099525Y-70258040D01*
X124618104Y-70743317D01*
X124609845Y-70746777D01*
X124603822Y-70745136D01*
X124600760Y-70743317D01*
X124472946Y-70667383D01*
X124112424Y-70453200D01*
X124107062Y-70446028D01*
X124106700Y-70443141D01*
X124106700Y-70056458D01*
X124110127Y-70048185D01*
X124112421Y-70046400D01*
X124603824Y-69754462D01*
X124612685Y-69753184D01*
X124618102Y-69756281D01*
G37*
%TD.AperFunction*%
%TD*%
%TA.AperFunction,Conductor*%
%TO.N,Net-(U3-RT{slash}CLK)*%
G36*
X115621062Y-68517954D02*
G01*
X116240979Y-68581989D01*
X116248855Y-68586248D01*
X116251359Y-68591980D01*
X116348528Y-69275385D01*
X116346300Y-69284058D01*
X116342287Y-69287441D01*
X115845730Y-69542278D01*
X115836805Y-69543007D01*
X115830689Y-69538412D01*
X115338076Y-68808220D01*
X115336290Y-68799446D01*
X115339500Y-68793406D01*
X115611588Y-68521318D01*
X115619860Y-68517892D01*
X115621062Y-68517954D01*
G37*
%TD.AperFunction*%
%TD*%
%TA.AperFunction,Conductor*%
%TO.N,Net-(U4-\u002AFAULT)*%
G36*
X122881257Y-78702027D02*
G01*
X122882113Y-78702983D01*
X123272804Y-79190435D01*
X123275305Y-79199033D01*
X123271963Y-79206011D01*
X122788381Y-79691289D01*
X122780113Y-79694730D01*
X122771834Y-79691318D01*
X122287475Y-79205990D01*
X122284057Y-79197714D01*
X122286605Y-79190436D01*
X122675087Y-78703008D01*
X122682924Y-78698674D01*
X122684237Y-78698600D01*
X122872984Y-78698600D01*
X122881257Y-78702027D01*
G37*
%TD.AperFunction*%
%TD*%
%TA.AperFunction,Conductor*%
%TO.N,Net-(U4-\u002AFAULT)*%
G36*
X122785871Y-74651370D02*
G01*
X122952582Y-74783663D01*
X122956932Y-74791489D01*
X122956428Y-74796469D01*
X122881239Y-75026042D01*
X122875407Y-75032837D01*
X122870120Y-75034100D01*
X122687080Y-75034100D01*
X122678807Y-75030673D01*
X122675961Y-75026042D01*
X122662689Y-74985521D01*
X122600771Y-74796467D01*
X122601453Y-74787540D01*
X122604613Y-74783665D01*
X122771327Y-74651370D01*
X122779938Y-74648913D01*
X122785871Y-74651370D01*
G37*
%TD.AperFunction*%
%TD*%
%TA.AperFunction,Conductor*%
%TO.N,Net-(U4-\u002AFAULT)*%
G36*
X122788364Y-79705880D02*
G01*
X122975433Y-79893324D01*
X123273652Y-80192140D01*
X123277071Y-80200417D01*
X123275404Y-80206425D01*
X122983508Y-80692920D01*
X122976313Y-80698251D01*
X122973475Y-80698600D01*
X122586725Y-80698600D01*
X122578452Y-80695173D01*
X122576692Y-80692920D01*
X122284795Y-80206425D01*
X122283477Y-80197567D01*
X122286547Y-80192140D01*
X122771819Y-79705896D01*
X122780088Y-79702462D01*
X122788364Y-79705880D01*
G37*
%TD.AperFunction*%
%TD*%
%TA.AperFunction,Conductor*%
%TO.N,Net-(U4-\u002AFAULT)*%
G36*
X121605918Y-83404174D02*
G01*
X121606267Y-83404434D01*
X121951681Y-83672141D01*
X121952787Y-83673116D01*
X122226051Y-83946380D01*
X122229478Y-83954653D01*
X122226051Y-83962926D01*
X122225272Y-83963638D01*
X121672465Y-84424687D01*
X121663916Y-84427354D01*
X121657630Y-84424812D01*
X121160505Y-84024246D01*
X121156213Y-84016387D01*
X121158338Y-84008318D01*
X121589593Y-83406863D01*
X121597197Y-83402138D01*
X121605918Y-83404174D01*
G37*
%TD.AperFunction*%
%TD*%
%TA.AperFunction,Conductor*%
%TO.N,Net-(U3-VSENSE)*%
G36*
X113011197Y-73434028D02*
G01*
X113011633Y-73434488D01*
X113449670Y-73922734D01*
X113452644Y-73931180D01*
X113449617Y-73938419D01*
X113008883Y-74423042D01*
X113000781Y-74426857D01*
X112992454Y-74423914D01*
X112761381Y-74218478D01*
X112461487Y-73951857D01*
X112457581Y-73943799D01*
X112459625Y-73936476D01*
X112804659Y-73435663D01*
X112812175Y-73430795D01*
X112814294Y-73430601D01*
X113002924Y-73430601D01*
X113011197Y-73434028D01*
G37*
%TD.AperFunction*%
%TD*%
%TA.AperFunction,Conductor*%
%TO.N,Net-(U3-VSENSE)*%
G36*
X112917957Y-71647568D02*
G01*
X112919591Y-71651513D01*
X113051905Y-72274795D01*
X113051873Y-72279800D01*
X113010205Y-72464475D01*
X113005041Y-72471791D01*
X112998792Y-72473600D01*
X112817500Y-72473600D01*
X112809227Y-72470173D01*
X112806087Y-72464475D01*
X112764417Y-72279796D01*
X112764386Y-72274799D01*
X112896701Y-71651512D01*
X112901771Y-71644132D01*
X112910576Y-71642498D01*
X112917957Y-71647568D01*
G37*
%TD.AperFunction*%
%TD*%
%TA.AperFunction,Conductor*%
%TO.N,Net-(U3-VSENSE)*%
G36*
X113577707Y-73951272D02*
G01*
X114217520Y-74128228D01*
X114224579Y-74133736D01*
X114226100Y-74139504D01*
X114226100Y-74721697D01*
X114222673Y-74729970D01*
X114217519Y-74732974D01*
X113577708Y-74909928D01*
X113568821Y-74908830D01*
X113567057Y-74907604D01*
X113010741Y-74439554D01*
X113006616Y-74431605D01*
X113009320Y-74423069D01*
X113010741Y-74421648D01*
X113352948Y-74133736D01*
X113567057Y-73953596D01*
X113575593Y-73950893D01*
X113577707Y-73951272D01*
G37*
%TD.AperFunction*%
%TD*%
%TA.AperFunction,Conductor*%
%TO.N,Net-(U3-VSENSE)*%
G36*
X114465378Y-73952370D02*
G01*
X114467142Y-73953596D01*
X115023458Y-74421647D01*
X115027583Y-74429596D01*
X115024879Y-74438132D01*
X115023458Y-74439553D01*
X114467142Y-74907603D01*
X114458606Y-74910307D01*
X114456491Y-74909927D01*
X113816681Y-74732974D01*
X113809621Y-74727465D01*
X113808100Y-74721697D01*
X113808100Y-74139504D01*
X113811527Y-74131231D01*
X113816678Y-74128228D01*
X114456491Y-73951272D01*
X114465378Y-73952370D01*
G37*
%TD.AperFunction*%
%TD*%
%TA.AperFunction,Conductor*%
%TO.N,Net-(U4-ILIM)*%
G36*
X122924489Y-73812136D02*
G01*
X123145948Y-73893779D01*
X123152524Y-73899855D01*
X123153600Y-73904756D01*
X123153600Y-74088443D01*
X123150173Y-74096716D01*
X123145947Y-74099421D01*
X122924489Y-74181063D01*
X122915541Y-74180709D01*
X122911035Y-74177042D01*
X122853635Y-74099421D01*
X122782743Y-74003555D01*
X122780580Y-73994867D01*
X122782743Y-73989644D01*
X122911035Y-73816156D01*
X122918709Y-73811543D01*
X122924489Y-73812136D01*
G37*
%TD.AperFunction*%
%TD*%
%TA.AperFunction,Conductor*%
%TO.N,Net-(U4-ILIM)*%
G36*
X126500644Y-76543380D02*
G01*
X127237277Y-76962243D01*
X127242775Y-76969311D01*
X127242866Y-76975166D01*
X127076918Y-77660651D01*
X127071640Y-77667885D01*
X127068714Y-77669161D01*
X126574426Y-77808186D01*
X126565534Y-77807127D01*
X126559995Y-77800091D01*
X126559756Y-77799065D01*
X126352600Y-76686449D01*
X126354454Y-76677691D01*
X126355824Y-76676042D01*
X126486589Y-76545277D01*
X126494861Y-76541851D01*
X126500644Y-76543380D01*
G37*
%TD.AperFunction*%
%TD*%
%TA.AperFunction,Conductor*%
%TO.N,GND*%
G36*
X113316424Y-78224694D02*
G01*
X113321904Y-78230617D01*
X113508227Y-78678103D01*
X113508244Y-78687057D01*
X113508227Y-78687097D01*
X113321904Y-79134582D01*
X113315560Y-79140903D01*
X113307498Y-79141216D01*
X112517195Y-78885222D01*
X112510380Y-78879412D01*
X112509100Y-78874091D01*
X112509100Y-78491108D01*
X112512527Y-78482835D01*
X112517191Y-78479978D01*
X113307499Y-78223983D01*
X113316424Y-78224694D01*
G37*
%TD.AperFunction*%
%TD*%
%TA.AperFunction,Conductor*%
%TO.N,GND*%
G36*
X113708864Y-77686027D02*
G01*
X113711722Y-77690695D01*
X113967716Y-78480998D01*
X113967005Y-78489924D01*
X113961082Y-78495404D01*
X113513597Y-78681727D01*
X113504643Y-78681744D01*
X113504603Y-78681727D01*
X113057117Y-78495404D01*
X113050796Y-78489060D01*
X113050483Y-78480998D01*
X113306478Y-77690695D01*
X113312288Y-77683880D01*
X113317609Y-77682600D01*
X113700591Y-77682600D01*
X113708864Y-77686027D01*
G37*
%TD.AperFunction*%
%TD*%
%TA.AperFunction,Conductor*%
%TO.N,GND*%
G36*
X113961083Y-78869796D02*
G01*
X113967403Y-78876139D01*
X113967716Y-78884201D01*
X113711722Y-79674505D01*
X113705912Y-79681320D01*
X113700591Y-79682600D01*
X113317609Y-79682600D01*
X113309336Y-79679173D01*
X113306478Y-79674505D01*
X113050483Y-78884201D01*
X113051194Y-78875275D01*
X113057114Y-78869797D01*
X113504604Y-78683471D01*
X113513555Y-78683455D01*
X113961083Y-78869796D01*
G37*
%TD.AperFunction*%
%TD*%
%TA.AperFunction,Conductor*%
%TO.N,GND*%
G36*
X116501083Y-78869796D02*
G01*
X116507403Y-78876139D01*
X116507716Y-78884201D01*
X116251722Y-79674505D01*
X116245912Y-79681320D01*
X116240591Y-79682600D01*
X115857609Y-79682600D01*
X115849336Y-79679173D01*
X115846478Y-79674505D01*
X115590483Y-78884201D01*
X115591194Y-78875275D01*
X115597114Y-78869797D01*
X116044604Y-78683471D01*
X116053555Y-78683455D01*
X116501083Y-78869796D01*
G37*
%TD.AperFunction*%
%TD*%
%TA.AperFunction,Conductor*%
%TO.N,GND*%
G36*
X116501083Y-78869796D02*
G01*
X116507403Y-78876139D01*
X116507716Y-78884201D01*
X116251722Y-79674505D01*
X116245912Y-79681320D01*
X116240591Y-79682600D01*
X115857609Y-79682600D01*
X115849336Y-79679173D01*
X115846478Y-79674505D01*
X115590483Y-78884201D01*
X115591194Y-78875275D01*
X115597114Y-78869797D01*
X116044604Y-78683471D01*
X116053555Y-78683455D01*
X116501083Y-78869796D01*
G37*
%TD.AperFunction*%
%TD*%
%TA.AperFunction,Conductor*%
%TO.N,/3V3*%
G36*
X119506903Y-73554020D02*
G01*
X119507381Y-73554232D01*
X119902758Y-73739707D01*
X119906061Y-73742025D01*
X120033518Y-73869482D01*
X120036945Y-73877755D01*
X120033518Y-73886028D01*
X120029615Y-73888608D01*
X119507018Y-74099049D01*
X119498064Y-74098961D01*
X119491852Y-74092707D01*
X119382671Y-73831404D01*
X119382645Y-73822451D01*
X119491609Y-73560331D01*
X119497948Y-73554009D01*
X119506903Y-73554020D01*
G37*
%TD.AperFunction*%
%TD*%
%TA.AperFunction,Conductor*%
%TO.N,/12V*%
G36*
X111486823Y-65626311D02*
G01*
X111493956Y-65631723D01*
X111495556Y-65637628D01*
X111495556Y-65819571D01*
X111492129Y-65827844D01*
X111486822Y-65830889D01*
X111181917Y-65910801D01*
X111173046Y-65909583D01*
X111168163Y-65904011D01*
X111096454Y-65733125D01*
X111096414Y-65724172D01*
X111168164Y-65553186D01*
X111174523Y-65546886D01*
X111181914Y-65546398D01*
X111486823Y-65626311D01*
G37*
%TD.AperFunction*%
%TD*%
%TA.AperFunction,Conductor*%
%TO.N,/burn*%
G36*
X123591609Y-73167616D02*
G01*
X123596493Y-73173189D01*
X123668200Y-73344073D01*
X123668241Y-73353028D01*
X123668200Y-73353127D01*
X123596493Y-73524010D01*
X123590132Y-73530313D01*
X123582738Y-73530801D01*
X123277834Y-73450889D01*
X123270700Y-73445476D01*
X123269100Y-73439571D01*
X123269100Y-73257628D01*
X123272527Y-73249355D01*
X123277831Y-73246311D01*
X123582740Y-73166398D01*
X123591609Y-73167616D01*
G37*
%TD.AperFunction*%
%TD*%
%TA.AperFunction,Conductor*%
%TO.N,/burn*%
G36*
X124664321Y-73297674D02*
G01*
X125140030Y-73637467D01*
X125144771Y-73645064D01*
X125142751Y-73653787D01*
X125141531Y-73655233D01*
X124939862Y-73858252D01*
X124939807Y-73858307D01*
X124736733Y-74060031D01*
X124728448Y-74063430D01*
X124720186Y-74059976D01*
X124718969Y-74058534D01*
X124379174Y-73582821D01*
X124377155Y-73574099D01*
X124380421Y-73567751D01*
X124649250Y-73298922D01*
X124657522Y-73295496D01*
X124664321Y-73297674D01*
G37*
%TD.AperFunction*%
%TD*%
%TA.AperFunction,Conductor*%
%TO.N,Net-(D1-K)*%
G36*
X104847308Y-78047581D02*
G01*
X104855575Y-78051019D01*
X104858991Y-78059297D01*
X104858832Y-78061204D01*
X104612730Y-79537823D01*
X104607989Y-79545421D01*
X104601189Y-79547600D01*
X103621011Y-79547600D01*
X103612738Y-79544173D01*
X103609470Y-79537823D01*
X103363367Y-78061204D01*
X103365387Y-78052481D01*
X103372985Y-78047740D01*
X103374884Y-78047581D01*
X104111100Y-78046600D01*
X104847308Y-78047581D01*
G37*
%TD.AperFunction*%
%TD*%
%TA.AperFunction,Conductor*%
%TO.N,/BurnWire1IN*%
G36*
X133824218Y-64627287D02*
G01*
X133828959Y-64634885D01*
X133829118Y-64636792D01*
X133830100Y-65373000D01*
X133830100Y-65373032D01*
X133829118Y-66109207D01*
X133825680Y-66117475D01*
X133817402Y-66120891D01*
X133815495Y-66120732D01*
X132338877Y-65874629D01*
X132331279Y-65869888D01*
X132329100Y-65863088D01*
X132329100Y-64882911D01*
X132332527Y-64874638D01*
X132338875Y-64871370D01*
X133815496Y-64625267D01*
X133824218Y-64627287D01*
G37*
%TD.AperFunction*%
%TD*%
%TA.AperFunction,Conductor*%
%TO.N,/BurnWire1IN*%
G36*
X143756660Y-117798586D02*
G01*
X143764928Y-117802021D01*
X143768347Y-117810298D01*
X143768257Y-117811737D01*
X143521181Y-119788351D01*
X143516754Y-119796135D01*
X143509571Y-119798600D01*
X142030229Y-119798600D01*
X142021956Y-119795173D01*
X142018619Y-119788351D01*
X141771542Y-117811737D01*
X141773917Y-117803103D01*
X141781701Y-117798676D01*
X141783127Y-117798586D01*
X142769900Y-117797600D01*
X143756660Y-117798586D01*
G37*
%TD.AperFunction*%
%TD*%
%TA.AperFunction,Conductor*%
%TO.N,/BurnWire1IN*%
G36*
X141894169Y-75220398D02*
G01*
X142766290Y-75898713D01*
X143466556Y-76443364D01*
X143470983Y-76451148D01*
X143468608Y-76459782D01*
X143467654Y-76460864D01*
X142770623Y-77159291D01*
X142770607Y-77159307D01*
X142072164Y-77856354D01*
X142063887Y-77859773D01*
X142055618Y-77856338D01*
X142054664Y-77855256D01*
X140831698Y-76282869D01*
X140829323Y-76274235D01*
X140832659Y-76267414D01*
X141878714Y-75221359D01*
X141886986Y-75217933D01*
X141894169Y-75220398D01*
G37*
%TD.AperFunction*%
%TD*%
M02*
