%TF.GenerationSoftware,KiCad,Pcbnew,8.0.8+dfsg-1*%
%TF.CreationDate,2025-08-13T01:43:47+05:30*%
%TF.ProjectId,sanket,73616e6b-6574-42e6-9b69-6361645f7063,6*%
%TF.SameCoordinates,Original*%
%TF.FileFunction,Legend,Top*%
%TF.FilePolarity,Positive*%
%FSLAX46Y46*%
G04 Gerber Fmt 4.6, Leading zero omitted, Abs format (unit mm)*
G04 Created by KiCad (PCBNEW 8.0.8+dfsg-1) date 2025-08-13 01:43:47*
%MOMM*%
%LPD*%
G01*
G04 APERTURE LIST*
%ADD10C,0.359004*%
%ADD11C,0.100000*%
%ADD12C,0.150000*%
%ADD13C,0.120000*%
G04 APERTURE END LIST*
D10*
X132129002Y-60750200D02*
G75*
G02*
X131769998Y-60750200I-179502J0D01*
G01*
X131769998Y-60750200D02*
G75*
G02*
X132129002Y-60750200I179502J0D01*
G01*
D11*
X147325127Y-107554019D02*
X147896555Y-107554019D01*
X147610841Y-108554019D02*
X147610841Y-107554019D01*
X148610841Y-108506400D02*
X148515603Y-108554019D01*
X148515603Y-108554019D02*
X148325127Y-108554019D01*
X148325127Y-108554019D02*
X148229889Y-108506400D01*
X148229889Y-108506400D02*
X148182270Y-108411161D01*
X148182270Y-108411161D02*
X148182270Y-108030209D01*
X148182270Y-108030209D02*
X148229889Y-107934971D01*
X148229889Y-107934971D02*
X148325127Y-107887352D01*
X148325127Y-107887352D02*
X148515603Y-107887352D01*
X148515603Y-107887352D02*
X148610841Y-107934971D01*
X148610841Y-107934971D02*
X148658460Y-108030209D01*
X148658460Y-108030209D02*
X148658460Y-108125447D01*
X148658460Y-108125447D02*
X148182270Y-108220685D01*
X149039413Y-108506400D02*
X149134651Y-108554019D01*
X149134651Y-108554019D02*
X149325127Y-108554019D01*
X149325127Y-108554019D02*
X149420365Y-108506400D01*
X149420365Y-108506400D02*
X149467984Y-108411161D01*
X149467984Y-108411161D02*
X149467984Y-108363542D01*
X149467984Y-108363542D02*
X149420365Y-108268304D01*
X149420365Y-108268304D02*
X149325127Y-108220685D01*
X149325127Y-108220685D02*
X149182270Y-108220685D01*
X149182270Y-108220685D02*
X149087032Y-108173066D01*
X149087032Y-108173066D02*
X149039413Y-108077828D01*
X149039413Y-108077828D02*
X149039413Y-108030209D01*
X149039413Y-108030209D02*
X149087032Y-107934971D01*
X149087032Y-107934971D02*
X149182270Y-107887352D01*
X149182270Y-107887352D02*
X149325127Y-107887352D01*
X149325127Y-107887352D02*
X149420365Y-107934971D01*
X149753699Y-107887352D02*
X150134651Y-107887352D01*
X149896556Y-107554019D02*
X149896556Y-108411161D01*
X149896556Y-108411161D02*
X149944175Y-108506400D01*
X149944175Y-108506400D02*
X150039413Y-108554019D01*
X150039413Y-108554019D02*
X150134651Y-108554019D01*
X150467985Y-107887352D02*
X150467985Y-108887352D01*
X150467985Y-107934971D02*
X150563223Y-107887352D01*
X150563223Y-107887352D02*
X150753699Y-107887352D01*
X150753699Y-107887352D02*
X150848937Y-107934971D01*
X150848937Y-107934971D02*
X150896556Y-107982590D01*
X150896556Y-107982590D02*
X150944175Y-108077828D01*
X150944175Y-108077828D02*
X150944175Y-108363542D01*
X150944175Y-108363542D02*
X150896556Y-108458780D01*
X150896556Y-108458780D02*
X150848937Y-108506400D01*
X150848937Y-108506400D02*
X150753699Y-108554019D01*
X150753699Y-108554019D02*
X150563223Y-108554019D01*
X150563223Y-108554019D02*
X150467985Y-108506400D01*
X151515604Y-108554019D02*
X151420366Y-108506400D01*
X151420366Y-108506400D02*
X151372747Y-108458780D01*
X151372747Y-108458780D02*
X151325128Y-108363542D01*
X151325128Y-108363542D02*
X151325128Y-108077828D01*
X151325128Y-108077828D02*
X151372747Y-107982590D01*
X151372747Y-107982590D02*
X151420366Y-107934971D01*
X151420366Y-107934971D02*
X151515604Y-107887352D01*
X151515604Y-107887352D02*
X151658461Y-107887352D01*
X151658461Y-107887352D02*
X151753699Y-107934971D01*
X151753699Y-107934971D02*
X151801318Y-107982590D01*
X151801318Y-107982590D02*
X151848937Y-108077828D01*
X151848937Y-108077828D02*
X151848937Y-108363542D01*
X151848937Y-108363542D02*
X151801318Y-108458780D01*
X151801318Y-108458780D02*
X151753699Y-108506400D01*
X151753699Y-108506400D02*
X151658461Y-108554019D01*
X151658461Y-108554019D02*
X151515604Y-108554019D01*
X152277509Y-108554019D02*
X152277509Y-107887352D01*
X152277509Y-107554019D02*
X152229890Y-107601638D01*
X152229890Y-107601638D02*
X152277509Y-107649257D01*
X152277509Y-107649257D02*
X152325128Y-107601638D01*
X152325128Y-107601638D02*
X152277509Y-107554019D01*
X152277509Y-107554019D02*
X152277509Y-107649257D01*
X152753699Y-107887352D02*
X152753699Y-108554019D01*
X152753699Y-107982590D02*
X152801318Y-107934971D01*
X152801318Y-107934971D02*
X152896556Y-107887352D01*
X152896556Y-107887352D02*
X153039413Y-107887352D01*
X153039413Y-107887352D02*
X153134651Y-107934971D01*
X153134651Y-107934971D02*
X153182270Y-108030209D01*
X153182270Y-108030209D02*
X153182270Y-108554019D01*
X153515604Y-107887352D02*
X153896556Y-107887352D01*
X153658461Y-107554019D02*
X153658461Y-108411161D01*
X153658461Y-108411161D02*
X153706080Y-108506400D01*
X153706080Y-108506400D02*
X153801318Y-108554019D01*
X153801318Y-108554019D02*
X153896556Y-108554019D01*
X154182271Y-108506400D02*
X154277509Y-108554019D01*
X154277509Y-108554019D02*
X154467985Y-108554019D01*
X154467985Y-108554019D02*
X154563223Y-108506400D01*
X154563223Y-108506400D02*
X154610842Y-108411161D01*
X154610842Y-108411161D02*
X154610842Y-108363542D01*
X154610842Y-108363542D02*
X154563223Y-108268304D01*
X154563223Y-108268304D02*
X154467985Y-108220685D01*
X154467985Y-108220685D02*
X154325128Y-108220685D01*
X154325128Y-108220685D02*
X154229890Y-108173066D01*
X154229890Y-108173066D02*
X154182271Y-108077828D01*
X154182271Y-108077828D02*
X154182271Y-108030209D01*
X154182271Y-108030209D02*
X154229890Y-107934971D01*
X154229890Y-107934971D02*
X154325128Y-107887352D01*
X154325128Y-107887352D02*
X154467985Y-107887352D01*
X154467985Y-107887352D02*
X154563223Y-107934971D01*
X155039414Y-108458780D02*
X155087033Y-108506400D01*
X155087033Y-108506400D02*
X155039414Y-108554019D01*
X155039414Y-108554019D02*
X154991795Y-108506400D01*
X154991795Y-108506400D02*
X155039414Y-108458780D01*
X155039414Y-108458780D02*
X155039414Y-108554019D01*
X155039414Y-107934971D02*
X155087033Y-107982590D01*
X155087033Y-107982590D02*
X155039414Y-108030209D01*
X155039414Y-108030209D02*
X154991795Y-107982590D01*
X154991795Y-107982590D02*
X155039414Y-107934971D01*
X155039414Y-107934971D02*
X155039414Y-108030209D01*
X147325127Y-109163963D02*
X147896555Y-109163963D01*
X147610841Y-110163963D02*
X147610841Y-109163963D01*
X148229889Y-110163963D02*
X148229889Y-109163963D01*
X148229889Y-109163963D02*
X148610841Y-109163963D01*
X148610841Y-109163963D02*
X148706079Y-109211582D01*
X148706079Y-109211582D02*
X148753698Y-109259201D01*
X148753698Y-109259201D02*
X148801317Y-109354439D01*
X148801317Y-109354439D02*
X148801317Y-109497296D01*
X148801317Y-109497296D02*
X148753698Y-109592534D01*
X148753698Y-109592534D02*
X148706079Y-109640153D01*
X148706079Y-109640153D02*
X148610841Y-109687772D01*
X148610841Y-109687772D02*
X148229889Y-109687772D01*
X149753698Y-110163963D02*
X149182270Y-110163963D01*
X149467984Y-110163963D02*
X149467984Y-109163963D01*
X149467984Y-109163963D02*
X149372746Y-109306820D01*
X149372746Y-109306820D02*
X149277508Y-109402058D01*
X149277508Y-109402058D02*
X149182270Y-109449677D01*
X150182270Y-110068724D02*
X150229889Y-110116344D01*
X150229889Y-110116344D02*
X150182270Y-110163963D01*
X150182270Y-110163963D02*
X150134651Y-110116344D01*
X150134651Y-110116344D02*
X150182270Y-110068724D01*
X150182270Y-110068724D02*
X150182270Y-110163963D01*
X150182270Y-109544915D02*
X150229889Y-109592534D01*
X150229889Y-109592534D02*
X150182270Y-109640153D01*
X150182270Y-109640153D02*
X150134651Y-109592534D01*
X150134651Y-109592534D02*
X150182270Y-109544915D01*
X150182270Y-109544915D02*
X150182270Y-109640153D01*
X151277508Y-109163963D02*
X151848936Y-109163963D01*
X151563222Y-110163963D02*
X151563222Y-109163963D01*
X152182270Y-110163963D02*
X152182270Y-109497296D01*
X152182270Y-109687772D02*
X152229889Y-109592534D01*
X152229889Y-109592534D02*
X152277508Y-109544915D01*
X152277508Y-109544915D02*
X152372746Y-109497296D01*
X152372746Y-109497296D02*
X152467984Y-109497296D01*
X152801318Y-110163963D02*
X152801318Y-109497296D01*
X152801318Y-109163963D02*
X152753699Y-109211582D01*
X152753699Y-109211582D02*
X152801318Y-109259201D01*
X152801318Y-109259201D02*
X152848937Y-109211582D01*
X152848937Y-109211582D02*
X152801318Y-109163963D01*
X152801318Y-109163963D02*
X152801318Y-109259201D01*
X153706079Y-109497296D02*
X153706079Y-110306820D01*
X153706079Y-110306820D02*
X153658460Y-110402058D01*
X153658460Y-110402058D02*
X153610841Y-110449677D01*
X153610841Y-110449677D02*
X153515603Y-110497296D01*
X153515603Y-110497296D02*
X153372746Y-110497296D01*
X153372746Y-110497296D02*
X153277508Y-110449677D01*
X153706079Y-110116344D02*
X153610841Y-110163963D01*
X153610841Y-110163963D02*
X153420365Y-110163963D01*
X153420365Y-110163963D02*
X153325127Y-110116344D01*
X153325127Y-110116344D02*
X153277508Y-110068724D01*
X153277508Y-110068724D02*
X153229889Y-109973486D01*
X153229889Y-109973486D02*
X153229889Y-109687772D01*
X153229889Y-109687772D02*
X153277508Y-109592534D01*
X153277508Y-109592534D02*
X153325127Y-109544915D01*
X153325127Y-109544915D02*
X153420365Y-109497296D01*
X153420365Y-109497296D02*
X153610841Y-109497296D01*
X153610841Y-109497296D02*
X153706079Y-109544915D01*
X154610841Y-109497296D02*
X154610841Y-110306820D01*
X154610841Y-110306820D02*
X154563222Y-110402058D01*
X154563222Y-110402058D02*
X154515603Y-110449677D01*
X154515603Y-110449677D02*
X154420365Y-110497296D01*
X154420365Y-110497296D02*
X154277508Y-110497296D01*
X154277508Y-110497296D02*
X154182270Y-110449677D01*
X154610841Y-110116344D02*
X154515603Y-110163963D01*
X154515603Y-110163963D02*
X154325127Y-110163963D01*
X154325127Y-110163963D02*
X154229889Y-110116344D01*
X154229889Y-110116344D02*
X154182270Y-110068724D01*
X154182270Y-110068724D02*
X154134651Y-109973486D01*
X154134651Y-109973486D02*
X154134651Y-109687772D01*
X154134651Y-109687772D02*
X154182270Y-109592534D01*
X154182270Y-109592534D02*
X154229889Y-109544915D01*
X154229889Y-109544915D02*
X154325127Y-109497296D01*
X154325127Y-109497296D02*
X154515603Y-109497296D01*
X154515603Y-109497296D02*
X154610841Y-109544915D01*
X155467984Y-110116344D02*
X155372746Y-110163963D01*
X155372746Y-110163963D02*
X155182270Y-110163963D01*
X155182270Y-110163963D02*
X155087032Y-110116344D01*
X155087032Y-110116344D02*
X155039413Y-110021105D01*
X155039413Y-110021105D02*
X155039413Y-109640153D01*
X155039413Y-109640153D02*
X155087032Y-109544915D01*
X155087032Y-109544915D02*
X155182270Y-109497296D01*
X155182270Y-109497296D02*
X155372746Y-109497296D01*
X155372746Y-109497296D02*
X155467984Y-109544915D01*
X155467984Y-109544915D02*
X155515603Y-109640153D01*
X155515603Y-109640153D02*
X155515603Y-109735391D01*
X155515603Y-109735391D02*
X155039413Y-109830629D01*
X155944175Y-110163963D02*
X155944175Y-109497296D01*
X155944175Y-109687772D02*
X155991794Y-109592534D01*
X155991794Y-109592534D02*
X156039413Y-109544915D01*
X156039413Y-109544915D02*
X156134651Y-109497296D01*
X156134651Y-109497296D02*
X156229889Y-109497296D01*
X156753699Y-109163963D02*
X156944175Y-109163963D01*
X156944175Y-109163963D02*
X157039413Y-109211582D01*
X157039413Y-109211582D02*
X157134651Y-109306820D01*
X157134651Y-109306820D02*
X157182270Y-109497296D01*
X157182270Y-109497296D02*
X157182270Y-109830629D01*
X157182270Y-109830629D02*
X157134651Y-110021105D01*
X157134651Y-110021105D02*
X157039413Y-110116344D01*
X157039413Y-110116344D02*
X156944175Y-110163963D01*
X156944175Y-110163963D02*
X156753699Y-110163963D01*
X156753699Y-110163963D02*
X156658461Y-110116344D01*
X156658461Y-110116344D02*
X156563223Y-110021105D01*
X156563223Y-110021105D02*
X156515604Y-109830629D01*
X156515604Y-109830629D02*
X156515604Y-109497296D01*
X156515604Y-109497296D02*
X156563223Y-109306820D01*
X156563223Y-109306820D02*
X156658461Y-109211582D01*
X156658461Y-109211582D02*
X156753699Y-109163963D01*
X157610842Y-109163963D02*
X157610842Y-109973486D01*
X157610842Y-109973486D02*
X157658461Y-110068724D01*
X157658461Y-110068724D02*
X157706080Y-110116344D01*
X157706080Y-110116344D02*
X157801318Y-110163963D01*
X157801318Y-110163963D02*
X157991794Y-110163963D01*
X157991794Y-110163963D02*
X158087032Y-110116344D01*
X158087032Y-110116344D02*
X158134651Y-110068724D01*
X158134651Y-110068724D02*
X158182270Y-109973486D01*
X158182270Y-109973486D02*
X158182270Y-109163963D01*
X158515604Y-109163963D02*
X159087032Y-109163963D01*
X158801318Y-110163963D02*
X158801318Y-109163963D01*
X147325127Y-110773907D02*
X147896555Y-110773907D01*
X147610841Y-111773907D02*
X147610841Y-110773907D01*
X148229889Y-111773907D02*
X148229889Y-110773907D01*
X148229889Y-110773907D02*
X148610841Y-110773907D01*
X148610841Y-110773907D02*
X148706079Y-110821526D01*
X148706079Y-110821526D02*
X148753698Y-110869145D01*
X148753698Y-110869145D02*
X148801317Y-110964383D01*
X148801317Y-110964383D02*
X148801317Y-111107240D01*
X148801317Y-111107240D02*
X148753698Y-111202478D01*
X148753698Y-111202478D02*
X148706079Y-111250097D01*
X148706079Y-111250097D02*
X148610841Y-111297716D01*
X148610841Y-111297716D02*
X148229889Y-111297716D01*
X149182270Y-110869145D02*
X149229889Y-110821526D01*
X149229889Y-110821526D02*
X149325127Y-110773907D01*
X149325127Y-110773907D02*
X149563222Y-110773907D01*
X149563222Y-110773907D02*
X149658460Y-110821526D01*
X149658460Y-110821526D02*
X149706079Y-110869145D01*
X149706079Y-110869145D02*
X149753698Y-110964383D01*
X149753698Y-110964383D02*
X149753698Y-111059621D01*
X149753698Y-111059621D02*
X149706079Y-111202478D01*
X149706079Y-111202478D02*
X149134651Y-111773907D01*
X149134651Y-111773907D02*
X149753698Y-111773907D01*
X150182270Y-111678668D02*
X150229889Y-111726288D01*
X150229889Y-111726288D02*
X150182270Y-111773907D01*
X150182270Y-111773907D02*
X150134651Y-111726288D01*
X150134651Y-111726288D02*
X150182270Y-111678668D01*
X150182270Y-111678668D02*
X150182270Y-111773907D01*
X150182270Y-111154859D02*
X150229889Y-111202478D01*
X150229889Y-111202478D02*
X150182270Y-111250097D01*
X150182270Y-111250097D02*
X150134651Y-111202478D01*
X150134651Y-111202478D02*
X150182270Y-111154859D01*
X150182270Y-111154859D02*
X150182270Y-111250097D01*
X151277508Y-110773907D02*
X151848936Y-110773907D01*
X151563222Y-111773907D02*
X151563222Y-110773907D01*
X152182270Y-111773907D02*
X152182270Y-111107240D01*
X152182270Y-111297716D02*
X152229889Y-111202478D01*
X152229889Y-111202478D02*
X152277508Y-111154859D01*
X152277508Y-111154859D02*
X152372746Y-111107240D01*
X152372746Y-111107240D02*
X152467984Y-111107240D01*
X152801318Y-111773907D02*
X152801318Y-111107240D01*
X152801318Y-110773907D02*
X152753699Y-110821526D01*
X152753699Y-110821526D02*
X152801318Y-110869145D01*
X152801318Y-110869145D02*
X152848937Y-110821526D01*
X152848937Y-110821526D02*
X152801318Y-110773907D01*
X152801318Y-110773907D02*
X152801318Y-110869145D01*
X153706079Y-111107240D02*
X153706079Y-111916764D01*
X153706079Y-111916764D02*
X153658460Y-112012002D01*
X153658460Y-112012002D02*
X153610841Y-112059621D01*
X153610841Y-112059621D02*
X153515603Y-112107240D01*
X153515603Y-112107240D02*
X153372746Y-112107240D01*
X153372746Y-112107240D02*
X153277508Y-112059621D01*
X153706079Y-111726288D02*
X153610841Y-111773907D01*
X153610841Y-111773907D02*
X153420365Y-111773907D01*
X153420365Y-111773907D02*
X153325127Y-111726288D01*
X153325127Y-111726288D02*
X153277508Y-111678668D01*
X153277508Y-111678668D02*
X153229889Y-111583430D01*
X153229889Y-111583430D02*
X153229889Y-111297716D01*
X153229889Y-111297716D02*
X153277508Y-111202478D01*
X153277508Y-111202478D02*
X153325127Y-111154859D01*
X153325127Y-111154859D02*
X153420365Y-111107240D01*
X153420365Y-111107240D02*
X153610841Y-111107240D01*
X153610841Y-111107240D02*
X153706079Y-111154859D01*
X154610841Y-111107240D02*
X154610841Y-111916764D01*
X154610841Y-111916764D02*
X154563222Y-112012002D01*
X154563222Y-112012002D02*
X154515603Y-112059621D01*
X154515603Y-112059621D02*
X154420365Y-112107240D01*
X154420365Y-112107240D02*
X154277508Y-112107240D01*
X154277508Y-112107240D02*
X154182270Y-112059621D01*
X154610841Y-111726288D02*
X154515603Y-111773907D01*
X154515603Y-111773907D02*
X154325127Y-111773907D01*
X154325127Y-111773907D02*
X154229889Y-111726288D01*
X154229889Y-111726288D02*
X154182270Y-111678668D01*
X154182270Y-111678668D02*
X154134651Y-111583430D01*
X154134651Y-111583430D02*
X154134651Y-111297716D01*
X154134651Y-111297716D02*
X154182270Y-111202478D01*
X154182270Y-111202478D02*
X154229889Y-111154859D01*
X154229889Y-111154859D02*
X154325127Y-111107240D01*
X154325127Y-111107240D02*
X154515603Y-111107240D01*
X154515603Y-111107240D02*
X154610841Y-111154859D01*
X155467984Y-111726288D02*
X155372746Y-111773907D01*
X155372746Y-111773907D02*
X155182270Y-111773907D01*
X155182270Y-111773907D02*
X155087032Y-111726288D01*
X155087032Y-111726288D02*
X155039413Y-111631049D01*
X155039413Y-111631049D02*
X155039413Y-111250097D01*
X155039413Y-111250097D02*
X155087032Y-111154859D01*
X155087032Y-111154859D02*
X155182270Y-111107240D01*
X155182270Y-111107240D02*
X155372746Y-111107240D01*
X155372746Y-111107240D02*
X155467984Y-111154859D01*
X155467984Y-111154859D02*
X155515603Y-111250097D01*
X155515603Y-111250097D02*
X155515603Y-111345335D01*
X155515603Y-111345335D02*
X155039413Y-111440573D01*
X155944175Y-111773907D02*
X155944175Y-111107240D01*
X155944175Y-111297716D02*
X155991794Y-111202478D01*
X155991794Y-111202478D02*
X156039413Y-111154859D01*
X156039413Y-111154859D02*
X156134651Y-111107240D01*
X156134651Y-111107240D02*
X156229889Y-111107240D01*
X156563223Y-111773907D02*
X156563223Y-110773907D01*
X157039413Y-111773907D02*
X157039413Y-110773907D01*
X157039413Y-110773907D02*
X157610841Y-111773907D01*
X157610841Y-111773907D02*
X157610841Y-110773907D01*
X147325127Y-112383851D02*
X147896555Y-112383851D01*
X147610841Y-113383851D02*
X147610841Y-112383851D01*
X148229889Y-113383851D02*
X148229889Y-112383851D01*
X148229889Y-112383851D02*
X148610841Y-112383851D01*
X148610841Y-112383851D02*
X148706079Y-112431470D01*
X148706079Y-112431470D02*
X148753698Y-112479089D01*
X148753698Y-112479089D02*
X148801317Y-112574327D01*
X148801317Y-112574327D02*
X148801317Y-112717184D01*
X148801317Y-112717184D02*
X148753698Y-112812422D01*
X148753698Y-112812422D02*
X148706079Y-112860041D01*
X148706079Y-112860041D02*
X148610841Y-112907660D01*
X148610841Y-112907660D02*
X148229889Y-112907660D01*
X149134651Y-112383851D02*
X149753698Y-112383851D01*
X149753698Y-112383851D02*
X149420365Y-112764803D01*
X149420365Y-112764803D02*
X149563222Y-112764803D01*
X149563222Y-112764803D02*
X149658460Y-112812422D01*
X149658460Y-112812422D02*
X149706079Y-112860041D01*
X149706079Y-112860041D02*
X149753698Y-112955279D01*
X149753698Y-112955279D02*
X149753698Y-113193374D01*
X149753698Y-113193374D02*
X149706079Y-113288612D01*
X149706079Y-113288612D02*
X149658460Y-113336232D01*
X149658460Y-113336232D02*
X149563222Y-113383851D01*
X149563222Y-113383851D02*
X149277508Y-113383851D01*
X149277508Y-113383851D02*
X149182270Y-113336232D01*
X149182270Y-113336232D02*
X149134651Y-113288612D01*
X150182270Y-113288612D02*
X150229889Y-113336232D01*
X150229889Y-113336232D02*
X150182270Y-113383851D01*
X150182270Y-113383851D02*
X150134651Y-113336232D01*
X150134651Y-113336232D02*
X150182270Y-113288612D01*
X150182270Y-113288612D02*
X150182270Y-113383851D01*
X150182270Y-112764803D02*
X150229889Y-112812422D01*
X150229889Y-112812422D02*
X150182270Y-112860041D01*
X150182270Y-112860041D02*
X150134651Y-112812422D01*
X150134651Y-112812422D02*
X150182270Y-112764803D01*
X150182270Y-112764803D02*
X150182270Y-112860041D01*
X151753698Y-112860041D02*
X151420365Y-112860041D01*
X151420365Y-113383851D02*
X151420365Y-112383851D01*
X151420365Y-112383851D02*
X151896555Y-112383851D01*
X152229889Y-113098136D02*
X152706079Y-113098136D01*
X152134651Y-113383851D02*
X152467984Y-112383851D01*
X152467984Y-112383851D02*
X152801317Y-113383851D01*
X153134651Y-112383851D02*
X153134651Y-113193374D01*
X153134651Y-113193374D02*
X153182270Y-113288612D01*
X153182270Y-113288612D02*
X153229889Y-113336232D01*
X153229889Y-113336232D02*
X153325127Y-113383851D01*
X153325127Y-113383851D02*
X153515603Y-113383851D01*
X153515603Y-113383851D02*
X153610841Y-113336232D01*
X153610841Y-113336232D02*
X153658460Y-113288612D01*
X153658460Y-113288612D02*
X153706079Y-113193374D01*
X153706079Y-113193374D02*
X153706079Y-112383851D01*
X154658460Y-113383851D02*
X154182270Y-113383851D01*
X154182270Y-113383851D02*
X154182270Y-112383851D01*
X154848937Y-112383851D02*
X155420365Y-112383851D01*
X155134651Y-113383851D02*
X155134651Y-112383851D01*
X151282270Y-112106232D02*
X155415604Y-112106232D01*
X147325127Y-113993795D02*
X147896555Y-113993795D01*
X147610841Y-114993795D02*
X147610841Y-113993795D01*
X148229889Y-114993795D02*
X148229889Y-113993795D01*
X148229889Y-113993795D02*
X148610841Y-113993795D01*
X148610841Y-113993795D02*
X148706079Y-114041414D01*
X148706079Y-114041414D02*
X148753698Y-114089033D01*
X148753698Y-114089033D02*
X148801317Y-114184271D01*
X148801317Y-114184271D02*
X148801317Y-114327128D01*
X148801317Y-114327128D02*
X148753698Y-114422366D01*
X148753698Y-114422366D02*
X148706079Y-114469985D01*
X148706079Y-114469985D02*
X148610841Y-114517604D01*
X148610841Y-114517604D02*
X148229889Y-114517604D01*
X149658460Y-114327128D02*
X149658460Y-114993795D01*
X149420365Y-113946176D02*
X149182270Y-114660461D01*
X149182270Y-114660461D02*
X149801317Y-114660461D01*
X150182270Y-114898556D02*
X150229889Y-114946176D01*
X150229889Y-114946176D02*
X150182270Y-114993795D01*
X150182270Y-114993795D02*
X150134651Y-114946176D01*
X150134651Y-114946176D02*
X150182270Y-114898556D01*
X150182270Y-114898556D02*
X150182270Y-114993795D01*
X150182270Y-114374747D02*
X150229889Y-114422366D01*
X150229889Y-114422366D02*
X150182270Y-114469985D01*
X150182270Y-114469985D02*
X150134651Y-114422366D01*
X150134651Y-114422366D02*
X150182270Y-114374747D01*
X150182270Y-114374747D02*
X150182270Y-114469985D01*
X151325127Y-113993795D02*
X151944174Y-113993795D01*
X151944174Y-113993795D02*
X151610841Y-114374747D01*
X151610841Y-114374747D02*
X151753698Y-114374747D01*
X151753698Y-114374747D02*
X151848936Y-114422366D01*
X151848936Y-114422366D02*
X151896555Y-114469985D01*
X151896555Y-114469985D02*
X151944174Y-114565223D01*
X151944174Y-114565223D02*
X151944174Y-114803318D01*
X151944174Y-114803318D02*
X151896555Y-114898556D01*
X151896555Y-114898556D02*
X151848936Y-114946176D01*
X151848936Y-114946176D02*
X151753698Y-114993795D01*
X151753698Y-114993795D02*
X151467984Y-114993795D01*
X151467984Y-114993795D02*
X151372746Y-114946176D01*
X151372746Y-114946176D02*
X151325127Y-114898556D01*
X152229889Y-113993795D02*
X152563222Y-114993795D01*
X152563222Y-114993795D02*
X152896555Y-113993795D01*
X153134651Y-113993795D02*
X153753698Y-113993795D01*
X153753698Y-113993795D02*
X153420365Y-114374747D01*
X153420365Y-114374747D02*
X153563222Y-114374747D01*
X153563222Y-114374747D02*
X153658460Y-114422366D01*
X153658460Y-114422366D02*
X153706079Y-114469985D01*
X153706079Y-114469985D02*
X153753698Y-114565223D01*
X153753698Y-114565223D02*
X153753698Y-114803318D01*
X153753698Y-114803318D02*
X153706079Y-114898556D01*
X153706079Y-114898556D02*
X153658460Y-114946176D01*
X153658460Y-114946176D02*
X153563222Y-114993795D01*
X153563222Y-114993795D02*
X153277508Y-114993795D01*
X153277508Y-114993795D02*
X153182270Y-114946176D01*
X153182270Y-114946176D02*
X153134651Y-114898556D01*
X147325127Y-115603739D02*
X147896555Y-115603739D01*
X147610841Y-116603739D02*
X147610841Y-115603739D01*
X148229889Y-116603739D02*
X148229889Y-115603739D01*
X148229889Y-115603739D02*
X148610841Y-115603739D01*
X148610841Y-115603739D02*
X148706079Y-115651358D01*
X148706079Y-115651358D02*
X148753698Y-115698977D01*
X148753698Y-115698977D02*
X148801317Y-115794215D01*
X148801317Y-115794215D02*
X148801317Y-115937072D01*
X148801317Y-115937072D02*
X148753698Y-116032310D01*
X148753698Y-116032310D02*
X148706079Y-116079929D01*
X148706079Y-116079929D02*
X148610841Y-116127548D01*
X148610841Y-116127548D02*
X148229889Y-116127548D01*
X149706079Y-115603739D02*
X149229889Y-115603739D01*
X149229889Y-115603739D02*
X149182270Y-116079929D01*
X149182270Y-116079929D02*
X149229889Y-116032310D01*
X149229889Y-116032310D02*
X149325127Y-115984691D01*
X149325127Y-115984691D02*
X149563222Y-115984691D01*
X149563222Y-115984691D02*
X149658460Y-116032310D01*
X149658460Y-116032310D02*
X149706079Y-116079929D01*
X149706079Y-116079929D02*
X149753698Y-116175167D01*
X149753698Y-116175167D02*
X149753698Y-116413262D01*
X149753698Y-116413262D02*
X149706079Y-116508500D01*
X149706079Y-116508500D02*
X149658460Y-116556120D01*
X149658460Y-116556120D02*
X149563222Y-116603739D01*
X149563222Y-116603739D02*
X149325127Y-116603739D01*
X149325127Y-116603739D02*
X149229889Y-116556120D01*
X149229889Y-116556120D02*
X149182270Y-116508500D01*
X150182270Y-116508500D02*
X150229889Y-116556120D01*
X150229889Y-116556120D02*
X150182270Y-116603739D01*
X150182270Y-116603739D02*
X150134651Y-116556120D01*
X150134651Y-116556120D02*
X150182270Y-116508500D01*
X150182270Y-116508500D02*
X150182270Y-116603739D01*
X150182270Y-115984691D02*
X150229889Y-116032310D01*
X150229889Y-116032310D02*
X150182270Y-116079929D01*
X150182270Y-116079929D02*
X150134651Y-116032310D01*
X150134651Y-116032310D02*
X150182270Y-115984691D01*
X150182270Y-115984691D02*
X150182270Y-116079929D01*
X151944174Y-115651358D02*
X151848936Y-115603739D01*
X151848936Y-115603739D02*
X151706079Y-115603739D01*
X151706079Y-115603739D02*
X151563222Y-115651358D01*
X151563222Y-115651358D02*
X151467984Y-115746596D01*
X151467984Y-115746596D02*
X151420365Y-115841834D01*
X151420365Y-115841834D02*
X151372746Y-116032310D01*
X151372746Y-116032310D02*
X151372746Y-116175167D01*
X151372746Y-116175167D02*
X151420365Y-116365643D01*
X151420365Y-116365643D02*
X151467984Y-116460881D01*
X151467984Y-116460881D02*
X151563222Y-116556120D01*
X151563222Y-116556120D02*
X151706079Y-116603739D01*
X151706079Y-116603739D02*
X151801317Y-116603739D01*
X151801317Y-116603739D02*
X151944174Y-116556120D01*
X151944174Y-116556120D02*
X151991793Y-116508500D01*
X151991793Y-116508500D02*
X151991793Y-116175167D01*
X151991793Y-116175167D02*
X151801317Y-116175167D01*
X152420365Y-116603739D02*
X152420365Y-115603739D01*
X152420365Y-115603739D02*
X152991793Y-116603739D01*
X152991793Y-116603739D02*
X152991793Y-115603739D01*
X153467984Y-116603739D02*
X153467984Y-115603739D01*
X153467984Y-115603739D02*
X153706079Y-115603739D01*
X153706079Y-115603739D02*
X153848936Y-115651358D01*
X153848936Y-115651358D02*
X153944174Y-115746596D01*
X153944174Y-115746596D02*
X153991793Y-115841834D01*
X153991793Y-115841834D02*
X154039412Y-116032310D01*
X154039412Y-116032310D02*
X154039412Y-116175167D01*
X154039412Y-116175167D02*
X153991793Y-116365643D01*
X153991793Y-116365643D02*
X153944174Y-116460881D01*
X153944174Y-116460881D02*
X153848936Y-116556120D01*
X153848936Y-116556120D02*
X153706079Y-116603739D01*
X153706079Y-116603739D02*
X153467984Y-116603739D01*
D12*
X136797766Y-86138419D02*
X136797766Y-86852704D01*
X136797766Y-86852704D02*
X136750147Y-86995561D01*
X136750147Y-86995561D02*
X136654909Y-87090800D01*
X136654909Y-87090800D02*
X136512052Y-87138419D01*
X136512052Y-87138419D02*
X136416814Y-87138419D01*
X137702528Y-86471752D02*
X137702528Y-87138419D01*
X137464433Y-86090800D02*
X137226338Y-86805085D01*
X137226338Y-86805085D02*
X137845385Y-86805085D01*
X121049766Y-81058419D02*
X121049766Y-81772704D01*
X121049766Y-81772704D02*
X121002147Y-81915561D01*
X121002147Y-81915561D02*
X120906909Y-82010800D01*
X120906909Y-82010800D02*
X120764052Y-82058419D01*
X120764052Y-82058419D02*
X120668814Y-82058419D01*
X121430719Y-81058419D02*
X122097385Y-81058419D01*
X122097385Y-81058419D02*
X121668814Y-82058419D01*
D11*
X115938490Y-57523484D02*
X115938490Y-57856817D01*
X115414680Y-57999674D02*
X115414680Y-57523484D01*
X115414680Y-57523484D02*
X116414680Y-57523484D01*
X116414680Y-57523484D02*
X116414680Y-57999674D01*
X115414680Y-58428246D02*
X116414680Y-58428246D01*
X116414680Y-58428246D02*
X115414680Y-58999674D01*
X115414680Y-58999674D02*
X116414680Y-58999674D01*
X110461680Y-57666293D02*
X110461680Y-57094865D01*
X110461680Y-57380579D02*
X111461680Y-57380579D01*
X111461680Y-57380579D02*
X111318823Y-57285341D01*
X111318823Y-57285341D02*
X111223585Y-57190103D01*
X111223585Y-57190103D02*
X111175966Y-57094865D01*
X111366442Y-58047246D02*
X111414061Y-58094865D01*
X111414061Y-58094865D02*
X111461680Y-58190103D01*
X111461680Y-58190103D02*
X111461680Y-58428198D01*
X111461680Y-58428198D02*
X111414061Y-58523436D01*
X111414061Y-58523436D02*
X111366442Y-58571055D01*
X111366442Y-58571055D02*
X111271204Y-58618674D01*
X111271204Y-58618674D02*
X111175966Y-58618674D01*
X111175966Y-58618674D02*
X111033109Y-58571055D01*
X111033109Y-58571055D02*
X110461680Y-57999627D01*
X110461680Y-57999627D02*
X110461680Y-58618674D01*
X111461680Y-58904389D02*
X110461680Y-59237722D01*
X110461680Y-59237722D02*
X111461680Y-59571055D01*
X119161061Y-57158293D02*
X119208680Y-57063055D01*
X119208680Y-57063055D02*
X119208680Y-56920198D01*
X119208680Y-56920198D02*
X119161061Y-56777341D01*
X119161061Y-56777341D02*
X119065823Y-56682103D01*
X119065823Y-56682103D02*
X118970585Y-56634484D01*
X118970585Y-56634484D02*
X118780109Y-56586865D01*
X118780109Y-56586865D02*
X118637252Y-56586865D01*
X118637252Y-56586865D02*
X118446776Y-56634484D01*
X118446776Y-56634484D02*
X118351538Y-56682103D01*
X118351538Y-56682103D02*
X118256300Y-56777341D01*
X118256300Y-56777341D02*
X118208680Y-56920198D01*
X118208680Y-56920198D02*
X118208680Y-57015436D01*
X118208680Y-57015436D02*
X118256300Y-57158293D01*
X118256300Y-57158293D02*
X118303919Y-57205912D01*
X118303919Y-57205912D02*
X118637252Y-57205912D01*
X118637252Y-57205912D02*
X118637252Y-57015436D01*
X118208680Y-57634484D02*
X119208680Y-57634484D01*
X119208680Y-57634484D02*
X118208680Y-58205912D01*
X118208680Y-58205912D02*
X119208680Y-58205912D01*
X118208680Y-58682103D02*
X119208680Y-58682103D01*
X119208680Y-58682103D02*
X119208680Y-58920198D01*
X119208680Y-58920198D02*
X119161061Y-59063055D01*
X119161061Y-59063055D02*
X119065823Y-59158293D01*
X119065823Y-59158293D02*
X118970585Y-59205912D01*
X118970585Y-59205912D02*
X118780109Y-59253531D01*
X118780109Y-59253531D02*
X118637252Y-59253531D01*
X118637252Y-59253531D02*
X118446776Y-59205912D01*
X118446776Y-59205912D02*
X118351538Y-59158293D01*
X118351538Y-59158293D02*
X118256300Y-59063055D01*
X118256300Y-59063055D02*
X118208680Y-58920198D01*
X118208680Y-58920198D02*
X118208680Y-58682103D01*
X121915919Y-64459515D02*
X120915919Y-64459515D01*
X120915919Y-64459515D02*
X120915919Y-64221420D01*
X120915919Y-64221420D02*
X120963538Y-64078563D01*
X120963538Y-64078563D02*
X121058776Y-63983325D01*
X121058776Y-63983325D02*
X121154014Y-63935706D01*
X121154014Y-63935706D02*
X121344490Y-63888087D01*
X121344490Y-63888087D02*
X121487347Y-63888087D01*
X121487347Y-63888087D02*
X121677823Y-63935706D01*
X121677823Y-63935706D02*
X121773061Y-63983325D01*
X121773061Y-63983325D02*
X121868300Y-64078563D01*
X121868300Y-64078563D02*
X121915919Y-64221420D01*
X121915919Y-64221420D02*
X121915919Y-64459515D01*
X121868300Y-63078563D02*
X121915919Y-63173801D01*
X121915919Y-63173801D02*
X121915919Y-63364277D01*
X121915919Y-63364277D02*
X121868300Y-63459515D01*
X121868300Y-63459515D02*
X121773061Y-63507134D01*
X121773061Y-63507134D02*
X121392109Y-63507134D01*
X121392109Y-63507134D02*
X121296871Y-63459515D01*
X121296871Y-63459515D02*
X121249252Y-63364277D01*
X121249252Y-63364277D02*
X121249252Y-63173801D01*
X121249252Y-63173801D02*
X121296871Y-63078563D01*
X121296871Y-63078563D02*
X121392109Y-63030944D01*
X121392109Y-63030944D02*
X121487347Y-63030944D01*
X121487347Y-63030944D02*
X121582585Y-63507134D01*
X121249252Y-62602372D02*
X122249252Y-62602372D01*
X121296871Y-62602372D02*
X121249252Y-62507134D01*
X121249252Y-62507134D02*
X121249252Y-62316658D01*
X121249252Y-62316658D02*
X121296871Y-62221420D01*
X121296871Y-62221420D02*
X121344490Y-62173801D01*
X121344490Y-62173801D02*
X121439728Y-62126182D01*
X121439728Y-62126182D02*
X121725442Y-62126182D01*
X121725442Y-62126182D02*
X121820680Y-62173801D01*
X121820680Y-62173801D02*
X121868300Y-62221420D01*
X121868300Y-62221420D02*
X121915919Y-62316658D01*
X121915919Y-62316658D02*
X121915919Y-62507134D01*
X121915919Y-62507134D02*
X121868300Y-62602372D01*
X121915919Y-61554753D02*
X121868300Y-61649991D01*
X121868300Y-61649991D02*
X121773061Y-61697610D01*
X121773061Y-61697610D02*
X120915919Y-61697610D01*
X121915919Y-61030943D02*
X121868300Y-61126181D01*
X121868300Y-61126181D02*
X121820680Y-61173800D01*
X121820680Y-61173800D02*
X121725442Y-61221419D01*
X121725442Y-61221419D02*
X121439728Y-61221419D01*
X121439728Y-61221419D02*
X121344490Y-61173800D01*
X121344490Y-61173800D02*
X121296871Y-61126181D01*
X121296871Y-61126181D02*
X121249252Y-61030943D01*
X121249252Y-61030943D02*
X121249252Y-60888086D01*
X121249252Y-60888086D02*
X121296871Y-60792848D01*
X121296871Y-60792848D02*
X121344490Y-60745229D01*
X121344490Y-60745229D02*
X121439728Y-60697610D01*
X121439728Y-60697610D02*
X121725442Y-60697610D01*
X121725442Y-60697610D02*
X121820680Y-60745229D01*
X121820680Y-60745229D02*
X121868300Y-60792848D01*
X121868300Y-60792848D02*
X121915919Y-60888086D01*
X121915919Y-60888086D02*
X121915919Y-61030943D01*
X121249252Y-60364276D02*
X121915919Y-60126181D01*
X121249252Y-59888086D02*
X121915919Y-60126181D01*
X121915919Y-60126181D02*
X122154014Y-60221419D01*
X122154014Y-60221419D02*
X122201633Y-60269038D01*
X122201633Y-60269038D02*
X122249252Y-60364276D01*
X121915919Y-59507133D02*
X121249252Y-59507133D01*
X121344490Y-59507133D02*
X121296871Y-59459514D01*
X121296871Y-59459514D02*
X121249252Y-59364276D01*
X121249252Y-59364276D02*
X121249252Y-59221419D01*
X121249252Y-59221419D02*
X121296871Y-59126181D01*
X121296871Y-59126181D02*
X121392109Y-59078562D01*
X121392109Y-59078562D02*
X121915919Y-59078562D01*
X121392109Y-59078562D02*
X121296871Y-59030943D01*
X121296871Y-59030943D02*
X121249252Y-58935705D01*
X121249252Y-58935705D02*
X121249252Y-58792848D01*
X121249252Y-58792848D02*
X121296871Y-58697609D01*
X121296871Y-58697609D02*
X121392109Y-58649990D01*
X121392109Y-58649990D02*
X121915919Y-58649990D01*
X121868300Y-57792848D02*
X121915919Y-57888086D01*
X121915919Y-57888086D02*
X121915919Y-58078562D01*
X121915919Y-58078562D02*
X121868300Y-58173800D01*
X121868300Y-58173800D02*
X121773061Y-58221419D01*
X121773061Y-58221419D02*
X121392109Y-58221419D01*
X121392109Y-58221419D02*
X121296871Y-58173800D01*
X121296871Y-58173800D02*
X121249252Y-58078562D01*
X121249252Y-58078562D02*
X121249252Y-57888086D01*
X121249252Y-57888086D02*
X121296871Y-57792848D01*
X121296871Y-57792848D02*
X121392109Y-57745229D01*
X121392109Y-57745229D02*
X121487347Y-57745229D01*
X121487347Y-57745229D02*
X121582585Y-58221419D01*
X121249252Y-57316657D02*
X121915919Y-57316657D01*
X121344490Y-57316657D02*
X121296871Y-57269038D01*
X121296871Y-57269038D02*
X121249252Y-57173800D01*
X121249252Y-57173800D02*
X121249252Y-57030943D01*
X121249252Y-57030943D02*
X121296871Y-56935705D01*
X121296871Y-56935705D02*
X121392109Y-56888086D01*
X121392109Y-56888086D02*
X121915919Y-56888086D01*
X121249252Y-56554752D02*
X121249252Y-56173800D01*
X120915919Y-56411895D02*
X121773061Y-56411895D01*
X121773061Y-56411895D02*
X121868300Y-56364276D01*
X121868300Y-56364276D02*
X121915919Y-56269038D01*
X121915919Y-56269038D02*
X121915919Y-56173800D01*
X121868300Y-55126180D02*
X121915919Y-54983323D01*
X121915919Y-54983323D02*
X121915919Y-54745228D01*
X121915919Y-54745228D02*
X121868300Y-54649990D01*
X121868300Y-54649990D02*
X121820680Y-54602371D01*
X121820680Y-54602371D02*
X121725442Y-54554752D01*
X121725442Y-54554752D02*
X121630204Y-54554752D01*
X121630204Y-54554752D02*
X121534966Y-54602371D01*
X121534966Y-54602371D02*
X121487347Y-54649990D01*
X121487347Y-54649990D02*
X121439728Y-54745228D01*
X121439728Y-54745228D02*
X121392109Y-54935704D01*
X121392109Y-54935704D02*
X121344490Y-55030942D01*
X121344490Y-55030942D02*
X121296871Y-55078561D01*
X121296871Y-55078561D02*
X121201633Y-55126180D01*
X121201633Y-55126180D02*
X121106395Y-55126180D01*
X121106395Y-55126180D02*
X121011157Y-55078561D01*
X121011157Y-55078561D02*
X120963538Y-55030942D01*
X120963538Y-55030942D02*
X120915919Y-54935704D01*
X120915919Y-54935704D02*
X120915919Y-54697609D01*
X120915919Y-54697609D02*
X120963538Y-54554752D01*
X121249252Y-54221418D02*
X121915919Y-54030942D01*
X121915919Y-54030942D02*
X121439728Y-53840466D01*
X121439728Y-53840466D02*
X121915919Y-53649990D01*
X121915919Y-53649990D02*
X121249252Y-53459514D01*
X121915919Y-53078561D02*
X121249252Y-53078561D01*
X120915919Y-53078561D02*
X120963538Y-53126180D01*
X120963538Y-53126180D02*
X121011157Y-53078561D01*
X121011157Y-53078561D02*
X120963538Y-53030942D01*
X120963538Y-53030942D02*
X120915919Y-53078561D01*
X120915919Y-53078561D02*
X121011157Y-53078561D01*
X121249252Y-52745228D02*
X121249252Y-52364276D01*
X120915919Y-52602371D02*
X121773061Y-52602371D01*
X121773061Y-52602371D02*
X121868300Y-52554752D01*
X121868300Y-52554752D02*
X121915919Y-52459514D01*
X121915919Y-52459514D02*
X121915919Y-52364276D01*
X121868300Y-51602371D02*
X121915919Y-51697609D01*
X121915919Y-51697609D02*
X121915919Y-51888085D01*
X121915919Y-51888085D02*
X121868300Y-51983323D01*
X121868300Y-51983323D02*
X121820680Y-52030942D01*
X121820680Y-52030942D02*
X121725442Y-52078561D01*
X121725442Y-52078561D02*
X121439728Y-52078561D01*
X121439728Y-52078561D02*
X121344490Y-52030942D01*
X121344490Y-52030942D02*
X121296871Y-51983323D01*
X121296871Y-51983323D02*
X121249252Y-51888085D01*
X121249252Y-51888085D02*
X121249252Y-51697609D01*
X121249252Y-51697609D02*
X121296871Y-51602371D01*
X121915919Y-51173799D02*
X120915919Y-51173799D01*
X121915919Y-50745228D02*
X121392109Y-50745228D01*
X121392109Y-50745228D02*
X121296871Y-50792847D01*
X121296871Y-50792847D02*
X121249252Y-50888085D01*
X121249252Y-50888085D02*
X121249252Y-51030942D01*
X121249252Y-51030942D02*
X121296871Y-51126180D01*
X121296871Y-51126180D02*
X121344490Y-51173799D01*
D12*
X120121195Y-89059419D02*
X120692623Y-89059419D01*
X120406909Y-90059419D02*
X120406909Y-89059419D01*
X121025957Y-90059419D02*
X121025957Y-89059419D01*
X121025957Y-89059419D02*
X121406909Y-89059419D01*
X121406909Y-89059419D02*
X121502147Y-89107038D01*
X121502147Y-89107038D02*
X121549766Y-89154657D01*
X121549766Y-89154657D02*
X121597385Y-89249895D01*
X121597385Y-89249895D02*
X121597385Y-89392752D01*
X121597385Y-89392752D02*
X121549766Y-89487990D01*
X121549766Y-89487990D02*
X121502147Y-89535609D01*
X121502147Y-89535609D02*
X121406909Y-89583228D01*
X121406909Y-89583228D02*
X121025957Y-89583228D01*
X122454528Y-89392752D02*
X122454528Y-90059419D01*
X122216433Y-89011800D02*
X121978338Y-89726085D01*
X121978338Y-89726085D02*
X122597385Y-89726085D01*
X136478795Y-63761019D02*
X137050223Y-63761019D01*
X136764509Y-64761019D02*
X136764509Y-63761019D01*
X137383557Y-64761019D02*
X137383557Y-63761019D01*
X137383557Y-63761019D02*
X137764509Y-63761019D01*
X137764509Y-63761019D02*
X137859747Y-63808638D01*
X137859747Y-63808638D02*
X137907366Y-63856257D01*
X137907366Y-63856257D02*
X137954985Y-63951495D01*
X137954985Y-63951495D02*
X137954985Y-64094352D01*
X137954985Y-64094352D02*
X137907366Y-64189590D01*
X137907366Y-64189590D02*
X137859747Y-64237209D01*
X137859747Y-64237209D02*
X137764509Y-64284828D01*
X137764509Y-64284828D02*
X137383557Y-64284828D01*
X138907366Y-64761019D02*
X138335938Y-64761019D01*
X138621652Y-64761019D02*
X138621652Y-63761019D01*
X138621652Y-63761019D02*
X138526414Y-63903876D01*
X138526414Y-63903876D02*
X138431176Y-63999114D01*
X138431176Y-63999114D02*
X138335938Y-64046733D01*
X145027766Y-77638419D02*
X145027766Y-78352704D01*
X145027766Y-78352704D02*
X144980147Y-78495561D01*
X144980147Y-78495561D02*
X144884909Y-78590800D01*
X144884909Y-78590800D02*
X144742052Y-78638419D01*
X144742052Y-78638419D02*
X144646814Y-78638419D01*
X145932528Y-77638419D02*
X145742052Y-77638419D01*
X145742052Y-77638419D02*
X145646814Y-77686038D01*
X145646814Y-77686038D02*
X145599195Y-77733657D01*
X145599195Y-77733657D02*
X145503957Y-77876514D01*
X145503957Y-77876514D02*
X145456338Y-78066990D01*
X145456338Y-78066990D02*
X145456338Y-78447942D01*
X145456338Y-78447942D02*
X145503957Y-78543180D01*
X145503957Y-78543180D02*
X145551576Y-78590800D01*
X145551576Y-78590800D02*
X145646814Y-78638419D01*
X145646814Y-78638419D02*
X145837290Y-78638419D01*
X145837290Y-78638419D02*
X145932528Y-78590800D01*
X145932528Y-78590800D02*
X145980147Y-78543180D01*
X145980147Y-78543180D02*
X146027766Y-78447942D01*
X146027766Y-78447942D02*
X146027766Y-78209847D01*
X146027766Y-78209847D02*
X145980147Y-78114609D01*
X145980147Y-78114609D02*
X145932528Y-78066990D01*
X145932528Y-78066990D02*
X145837290Y-78019371D01*
X145837290Y-78019371D02*
X145646814Y-78019371D01*
X145646814Y-78019371D02*
X145551576Y-78066990D01*
X145551576Y-78066990D02*
X145503957Y-78114609D01*
X145503957Y-78114609D02*
X145456338Y-78209847D01*
X135808919Y-79357266D02*
X135332728Y-79690599D01*
X135808919Y-79928694D02*
X134808919Y-79928694D01*
X134808919Y-79928694D02*
X134808919Y-79547742D01*
X134808919Y-79547742D02*
X134856538Y-79452504D01*
X134856538Y-79452504D02*
X134904157Y-79404885D01*
X134904157Y-79404885D02*
X134999395Y-79357266D01*
X134999395Y-79357266D02*
X135142252Y-79357266D01*
X135142252Y-79357266D02*
X135237490Y-79404885D01*
X135237490Y-79404885D02*
X135285109Y-79452504D01*
X135285109Y-79452504D02*
X135332728Y-79547742D01*
X135332728Y-79547742D02*
X135332728Y-79928694D01*
X134808919Y-78452504D02*
X134808919Y-78928694D01*
X134808919Y-78928694D02*
X135285109Y-78976313D01*
X135285109Y-78976313D02*
X135237490Y-78928694D01*
X135237490Y-78928694D02*
X135189871Y-78833456D01*
X135189871Y-78833456D02*
X135189871Y-78595361D01*
X135189871Y-78595361D02*
X135237490Y-78500123D01*
X135237490Y-78500123D02*
X135285109Y-78452504D01*
X135285109Y-78452504D02*
X135380347Y-78404885D01*
X135380347Y-78404885D02*
X135618442Y-78404885D01*
X135618442Y-78404885D02*
X135713680Y-78452504D01*
X135713680Y-78452504D02*
X135761300Y-78500123D01*
X135761300Y-78500123D02*
X135808919Y-78595361D01*
X135808919Y-78595361D02*
X135808919Y-78833456D01*
X135808919Y-78833456D02*
X135761300Y-78928694D01*
X135761300Y-78928694D02*
X135713680Y-78976313D01*
X121518195Y-77705419D02*
X122089623Y-77705419D01*
X121803909Y-78705419D02*
X121803909Y-77705419D01*
X122422957Y-78705419D02*
X122422957Y-77705419D01*
X122422957Y-77705419D02*
X122803909Y-77705419D01*
X122803909Y-77705419D02*
X122899147Y-77753038D01*
X122899147Y-77753038D02*
X122946766Y-77800657D01*
X122946766Y-77800657D02*
X122994385Y-77895895D01*
X122994385Y-77895895D02*
X122994385Y-78038752D01*
X122994385Y-78038752D02*
X122946766Y-78133990D01*
X122946766Y-78133990D02*
X122899147Y-78181609D01*
X122899147Y-78181609D02*
X122803909Y-78229228D01*
X122803909Y-78229228D02*
X122422957Y-78229228D01*
X123327719Y-77705419D02*
X123946766Y-77705419D01*
X123946766Y-77705419D02*
X123613433Y-78086371D01*
X123613433Y-78086371D02*
X123756290Y-78086371D01*
X123756290Y-78086371D02*
X123851528Y-78133990D01*
X123851528Y-78133990D02*
X123899147Y-78181609D01*
X123899147Y-78181609D02*
X123946766Y-78276847D01*
X123946766Y-78276847D02*
X123946766Y-78514942D01*
X123946766Y-78514942D02*
X123899147Y-78610180D01*
X123899147Y-78610180D02*
X123851528Y-78657800D01*
X123851528Y-78657800D02*
X123756290Y-78705419D01*
X123756290Y-78705419D02*
X123470576Y-78705419D01*
X123470576Y-78705419D02*
X123375338Y-78657800D01*
X123375338Y-78657800D02*
X123327719Y-78610180D01*
X181544195Y-136353419D02*
X181544195Y-135353419D01*
X181544195Y-135829609D02*
X182115623Y-135829609D01*
X182115623Y-136353419D02*
X182115623Y-135353419D01*
X182496576Y-135353419D02*
X183115623Y-135353419D01*
X183115623Y-135353419D02*
X182782290Y-135734371D01*
X182782290Y-135734371D02*
X182925147Y-135734371D01*
X182925147Y-135734371D02*
X183020385Y-135781990D01*
X183020385Y-135781990D02*
X183068004Y-135829609D01*
X183068004Y-135829609D02*
X183115623Y-135924847D01*
X183115623Y-135924847D02*
X183115623Y-136162942D01*
X183115623Y-136162942D02*
X183068004Y-136258180D01*
X183068004Y-136258180D02*
X183020385Y-136305800D01*
X183020385Y-136305800D02*
X182925147Y-136353419D01*
X182925147Y-136353419D02*
X182639433Y-136353419D01*
X182639433Y-136353419D02*
X182544195Y-136305800D01*
X182544195Y-136305800D02*
X182496576Y-136258180D01*
X141282433Y-58055419D02*
X140949100Y-57579228D01*
X140711005Y-58055419D02*
X140711005Y-57055419D01*
X140711005Y-57055419D02*
X141091957Y-57055419D01*
X141091957Y-57055419D02*
X141187195Y-57103038D01*
X141187195Y-57103038D02*
X141234814Y-57150657D01*
X141234814Y-57150657D02*
X141282433Y-57245895D01*
X141282433Y-57245895D02*
X141282433Y-57388752D01*
X141282433Y-57388752D02*
X141234814Y-57483990D01*
X141234814Y-57483990D02*
X141187195Y-57531609D01*
X141187195Y-57531609D02*
X141091957Y-57579228D01*
X141091957Y-57579228D02*
X140711005Y-57579228D01*
X142234814Y-58055419D02*
X141663386Y-58055419D01*
X141949100Y-58055419D02*
X141949100Y-57055419D01*
X141949100Y-57055419D02*
X141853862Y-57198276D01*
X141853862Y-57198276D02*
X141758624Y-57293514D01*
X141758624Y-57293514D02*
X141663386Y-57341133D01*
X101534195Y-50623419D02*
X101534195Y-49623419D01*
X101534195Y-50099609D02*
X102105623Y-50099609D01*
X102105623Y-50623419D02*
X102105623Y-49623419D01*
X103105623Y-50623419D02*
X102534195Y-50623419D01*
X102819909Y-50623419D02*
X102819909Y-49623419D01*
X102819909Y-49623419D02*
X102724671Y-49766276D01*
X102724671Y-49766276D02*
X102629433Y-49861514D01*
X102629433Y-49861514D02*
X102534195Y-49909133D01*
X124677242Y-72439419D02*
X124343909Y-71963228D01*
X124105814Y-72439419D02*
X124105814Y-71439419D01*
X124105814Y-71439419D02*
X124486766Y-71439419D01*
X124486766Y-71439419D02*
X124582004Y-71487038D01*
X124582004Y-71487038D02*
X124629623Y-71534657D01*
X124629623Y-71534657D02*
X124677242Y-71629895D01*
X124677242Y-71629895D02*
X124677242Y-71772752D01*
X124677242Y-71772752D02*
X124629623Y-71867990D01*
X124629623Y-71867990D02*
X124582004Y-71915609D01*
X124582004Y-71915609D02*
X124486766Y-71963228D01*
X124486766Y-71963228D02*
X124105814Y-71963228D01*
X125629623Y-72439419D02*
X125058195Y-72439419D01*
X125343909Y-72439419D02*
X125343909Y-71439419D01*
X125343909Y-71439419D02*
X125248671Y-71582276D01*
X125248671Y-71582276D02*
X125153433Y-71677514D01*
X125153433Y-71677514D02*
X125058195Y-71725133D01*
X126582004Y-72439419D02*
X126010576Y-72439419D01*
X126296290Y-72439419D02*
X126296290Y-71439419D01*
X126296290Y-71439419D02*
X126201052Y-71582276D01*
X126201052Y-71582276D02*
X126105814Y-71677514D01*
X126105814Y-71677514D02*
X126010576Y-71725133D01*
X101534195Y-136353419D02*
X101534195Y-135353419D01*
X101534195Y-135829609D02*
X102105623Y-135829609D01*
X102105623Y-136353419D02*
X102105623Y-135353419D01*
X103010385Y-135686752D02*
X103010385Y-136353419D01*
X102772290Y-135305800D02*
X102534195Y-136020085D01*
X102534195Y-136020085D02*
X103153242Y-136020085D01*
X136304033Y-62068619D02*
X135970700Y-61592428D01*
X135732605Y-62068619D02*
X135732605Y-61068619D01*
X135732605Y-61068619D02*
X136113557Y-61068619D01*
X136113557Y-61068619D02*
X136208795Y-61116238D01*
X136208795Y-61116238D02*
X136256414Y-61163857D01*
X136256414Y-61163857D02*
X136304033Y-61259095D01*
X136304033Y-61259095D02*
X136304033Y-61401952D01*
X136304033Y-61401952D02*
X136256414Y-61497190D01*
X136256414Y-61497190D02*
X136208795Y-61544809D01*
X136208795Y-61544809D02*
X136113557Y-61592428D01*
X136113557Y-61592428D02*
X135732605Y-61592428D01*
X136684986Y-61163857D02*
X136732605Y-61116238D01*
X136732605Y-61116238D02*
X136827843Y-61068619D01*
X136827843Y-61068619D02*
X137065938Y-61068619D01*
X137065938Y-61068619D02*
X137161176Y-61116238D01*
X137161176Y-61116238D02*
X137208795Y-61163857D01*
X137208795Y-61163857D02*
X137256414Y-61259095D01*
X137256414Y-61259095D02*
X137256414Y-61354333D01*
X137256414Y-61354333D02*
X137208795Y-61497190D01*
X137208795Y-61497190D02*
X136637367Y-62068619D01*
X136637367Y-62068619D02*
X137256414Y-62068619D01*
X117723432Y-65294419D02*
X117390099Y-64818228D01*
X117152004Y-65294419D02*
X117152004Y-64294419D01*
X117152004Y-64294419D02*
X117532956Y-64294419D01*
X117532956Y-64294419D02*
X117628194Y-64342038D01*
X117628194Y-64342038D02*
X117675813Y-64389657D01*
X117675813Y-64389657D02*
X117723432Y-64484895D01*
X117723432Y-64484895D02*
X117723432Y-64627752D01*
X117723432Y-64627752D02*
X117675813Y-64722990D01*
X117675813Y-64722990D02*
X117628194Y-64770609D01*
X117628194Y-64770609D02*
X117532956Y-64818228D01*
X117532956Y-64818228D02*
X117152004Y-64818228D01*
X118580575Y-64294419D02*
X118390099Y-64294419D01*
X118390099Y-64294419D02*
X118294861Y-64342038D01*
X118294861Y-64342038D02*
X118247242Y-64389657D01*
X118247242Y-64389657D02*
X118152004Y-64532514D01*
X118152004Y-64532514D02*
X118104385Y-64722990D01*
X118104385Y-64722990D02*
X118104385Y-65103942D01*
X118104385Y-65103942D02*
X118152004Y-65199180D01*
X118152004Y-65199180D02*
X118199623Y-65246800D01*
X118199623Y-65246800D02*
X118294861Y-65294419D01*
X118294861Y-65294419D02*
X118485337Y-65294419D01*
X118485337Y-65294419D02*
X118580575Y-65246800D01*
X118580575Y-65246800D02*
X118628194Y-65199180D01*
X118628194Y-65199180D02*
X118675813Y-65103942D01*
X118675813Y-65103942D02*
X118675813Y-64865847D01*
X118675813Y-64865847D02*
X118628194Y-64770609D01*
X118628194Y-64770609D02*
X118580575Y-64722990D01*
X118580575Y-64722990D02*
X118485337Y-64675371D01*
X118485337Y-64675371D02*
X118294861Y-64675371D01*
X118294861Y-64675371D02*
X118199623Y-64722990D01*
X118199623Y-64722990D02*
X118152004Y-64770609D01*
X118152004Y-64770609D02*
X118104385Y-64865847D01*
X181544195Y-50623419D02*
X181544195Y-49623419D01*
X181544195Y-50099609D02*
X182115623Y-50099609D01*
X182115623Y-50623419D02*
X182115623Y-49623419D01*
X182544195Y-49718657D02*
X182591814Y-49671038D01*
X182591814Y-49671038D02*
X182687052Y-49623419D01*
X182687052Y-49623419D02*
X182925147Y-49623419D01*
X182925147Y-49623419D02*
X183020385Y-49671038D01*
X183020385Y-49671038D02*
X183068004Y-49718657D01*
X183068004Y-49718657D02*
X183115623Y-49813895D01*
X183115623Y-49813895D02*
X183115623Y-49909133D01*
X183115623Y-49909133D02*
X183068004Y-50051990D01*
X183068004Y-50051990D02*
X182496576Y-50623419D01*
X182496576Y-50623419D02*
X183115623Y-50623419D01*
X138409195Y-74454419D02*
X138980623Y-74454419D01*
X138694909Y-75454419D02*
X138694909Y-74454419D01*
X139313957Y-75454419D02*
X139313957Y-74454419D01*
X139313957Y-74454419D02*
X139694909Y-74454419D01*
X139694909Y-74454419D02*
X139790147Y-74502038D01*
X139790147Y-74502038D02*
X139837766Y-74549657D01*
X139837766Y-74549657D02*
X139885385Y-74644895D01*
X139885385Y-74644895D02*
X139885385Y-74787752D01*
X139885385Y-74787752D02*
X139837766Y-74882990D01*
X139837766Y-74882990D02*
X139790147Y-74930609D01*
X139790147Y-74930609D02*
X139694909Y-74978228D01*
X139694909Y-74978228D02*
X139313957Y-74978228D01*
X140790147Y-74454419D02*
X140313957Y-74454419D01*
X140313957Y-74454419D02*
X140266338Y-74930609D01*
X140266338Y-74930609D02*
X140313957Y-74882990D01*
X140313957Y-74882990D02*
X140409195Y-74835371D01*
X140409195Y-74835371D02*
X140647290Y-74835371D01*
X140647290Y-74835371D02*
X140742528Y-74882990D01*
X140742528Y-74882990D02*
X140790147Y-74930609D01*
X140790147Y-74930609D02*
X140837766Y-75025847D01*
X140837766Y-75025847D02*
X140837766Y-75263942D01*
X140837766Y-75263942D02*
X140790147Y-75359180D01*
X140790147Y-75359180D02*
X140742528Y-75406800D01*
X140742528Y-75406800D02*
X140647290Y-75454419D01*
X140647290Y-75454419D02*
X140409195Y-75454419D01*
X140409195Y-75454419D02*
X140313957Y-75406800D01*
X140313957Y-75406800D02*
X140266338Y-75359180D01*
X138906966Y-115741048D02*
X138906966Y-116455333D01*
X138906966Y-116455333D02*
X138859347Y-116598190D01*
X138859347Y-116598190D02*
X138764109Y-116693429D01*
X138764109Y-116693429D02*
X138621252Y-116741048D01*
X138621252Y-116741048D02*
X138526014Y-116741048D01*
X139287919Y-115741048D02*
X139906966Y-115741048D01*
X139906966Y-115741048D02*
X139573633Y-116122000D01*
X139573633Y-116122000D02*
X139716490Y-116122000D01*
X139716490Y-116122000D02*
X139811728Y-116169619D01*
X139811728Y-116169619D02*
X139859347Y-116217238D01*
X139859347Y-116217238D02*
X139906966Y-116312476D01*
X139906966Y-116312476D02*
X139906966Y-116550571D01*
X139906966Y-116550571D02*
X139859347Y-116645809D01*
X139859347Y-116645809D02*
X139811728Y-116693429D01*
X139811728Y-116693429D02*
X139716490Y-116741048D01*
X139716490Y-116741048D02*
X139430776Y-116741048D01*
X139430776Y-116741048D02*
X139335538Y-116693429D01*
X139335538Y-116693429D02*
X139287919Y-116645809D01*
X123843766Y-58877419D02*
X123843766Y-59591704D01*
X123843766Y-59591704D02*
X123796147Y-59734561D01*
X123796147Y-59734561D02*
X123700909Y-59829800D01*
X123700909Y-59829800D02*
X123558052Y-59877419D01*
X123558052Y-59877419D02*
X123462814Y-59877419D01*
X124843766Y-59877419D02*
X124272338Y-59877419D01*
X124558052Y-59877419D02*
X124558052Y-58877419D01*
X124558052Y-58877419D02*
X124462814Y-59020276D01*
X124462814Y-59020276D02*
X124367576Y-59115514D01*
X124367576Y-59115514D02*
X124272338Y-59163133D01*
X138002280Y-58580066D02*
X138049900Y-58627685D01*
X138049900Y-58627685D02*
X138097519Y-58770542D01*
X138097519Y-58770542D02*
X138097519Y-58865780D01*
X138097519Y-58865780D02*
X138049900Y-59008637D01*
X138049900Y-59008637D02*
X137954661Y-59103875D01*
X137954661Y-59103875D02*
X137859423Y-59151494D01*
X137859423Y-59151494D02*
X137668947Y-59199113D01*
X137668947Y-59199113D02*
X137526090Y-59199113D01*
X137526090Y-59199113D02*
X137335614Y-59151494D01*
X137335614Y-59151494D02*
X137240376Y-59103875D01*
X137240376Y-59103875D02*
X137145138Y-59008637D01*
X137145138Y-59008637D02*
X137097519Y-58865780D01*
X137097519Y-58865780D02*
X137097519Y-58770542D01*
X137097519Y-58770542D02*
X137145138Y-58627685D01*
X137145138Y-58627685D02*
X137192757Y-58580066D01*
X138097519Y-57627685D02*
X138097519Y-58199113D01*
X138097519Y-57913399D02*
X137097519Y-57913399D01*
X137097519Y-57913399D02*
X137240376Y-58008637D01*
X137240376Y-58008637D02*
X137335614Y-58103875D01*
X137335614Y-58103875D02*
X137383233Y-58199113D01*
X132648919Y-62045504D02*
X133458442Y-62045504D01*
X133458442Y-62045504D02*
X133553680Y-61997885D01*
X133553680Y-61997885D02*
X133601300Y-61950266D01*
X133601300Y-61950266D02*
X133648919Y-61855028D01*
X133648919Y-61855028D02*
X133648919Y-61664552D01*
X133648919Y-61664552D02*
X133601300Y-61569314D01*
X133601300Y-61569314D02*
X133553680Y-61521695D01*
X133553680Y-61521695D02*
X133458442Y-61474076D01*
X133458442Y-61474076D02*
X132648919Y-61474076D01*
X132744157Y-61045504D02*
X132696538Y-60997885D01*
X132696538Y-60997885D02*
X132648919Y-60902647D01*
X132648919Y-60902647D02*
X132648919Y-60664552D01*
X132648919Y-60664552D02*
X132696538Y-60569314D01*
X132696538Y-60569314D02*
X132744157Y-60521695D01*
X132744157Y-60521695D02*
X132839395Y-60474076D01*
X132839395Y-60474076D02*
X132934633Y-60474076D01*
X132934633Y-60474076D02*
X133077490Y-60521695D01*
X133077490Y-60521695D02*
X133648919Y-61093123D01*
X133648919Y-61093123D02*
X133648919Y-60474076D01*
X130632680Y-61577266D02*
X130680300Y-61624885D01*
X130680300Y-61624885D02*
X130727919Y-61767742D01*
X130727919Y-61767742D02*
X130727919Y-61862980D01*
X130727919Y-61862980D02*
X130680300Y-62005837D01*
X130680300Y-62005837D02*
X130585061Y-62101075D01*
X130585061Y-62101075D02*
X130489823Y-62148694D01*
X130489823Y-62148694D02*
X130299347Y-62196313D01*
X130299347Y-62196313D02*
X130156490Y-62196313D01*
X130156490Y-62196313D02*
X129966014Y-62148694D01*
X129966014Y-62148694D02*
X129870776Y-62101075D01*
X129870776Y-62101075D02*
X129775538Y-62005837D01*
X129775538Y-62005837D02*
X129727919Y-61862980D01*
X129727919Y-61862980D02*
X129727919Y-61767742D01*
X129727919Y-61767742D02*
X129775538Y-61624885D01*
X129775538Y-61624885D02*
X129823157Y-61577266D01*
X129823157Y-61196313D02*
X129775538Y-61148694D01*
X129775538Y-61148694D02*
X129727919Y-61053456D01*
X129727919Y-61053456D02*
X129727919Y-60815361D01*
X129727919Y-60815361D02*
X129775538Y-60720123D01*
X129775538Y-60720123D02*
X129823157Y-60672504D01*
X129823157Y-60672504D02*
X129918395Y-60624885D01*
X129918395Y-60624885D02*
X130013633Y-60624885D01*
X130013633Y-60624885D02*
X130156490Y-60672504D01*
X130156490Y-60672504D02*
X130727919Y-61243932D01*
X130727919Y-61243932D02*
X130727919Y-60624885D01*
X112289195Y-56905419D02*
X112860623Y-56905419D01*
X112574909Y-57905419D02*
X112574909Y-56905419D01*
X113193957Y-57905419D02*
X113193957Y-56905419D01*
X113193957Y-56905419D02*
X113574909Y-56905419D01*
X113574909Y-56905419D02*
X113670147Y-56953038D01*
X113670147Y-56953038D02*
X113717766Y-57000657D01*
X113717766Y-57000657D02*
X113765385Y-57095895D01*
X113765385Y-57095895D02*
X113765385Y-57238752D01*
X113765385Y-57238752D02*
X113717766Y-57333990D01*
X113717766Y-57333990D02*
X113670147Y-57381609D01*
X113670147Y-57381609D02*
X113574909Y-57429228D01*
X113574909Y-57429228D02*
X113193957Y-57429228D01*
X114146338Y-57000657D02*
X114193957Y-56953038D01*
X114193957Y-56953038D02*
X114289195Y-56905419D01*
X114289195Y-56905419D02*
X114527290Y-56905419D01*
X114527290Y-56905419D02*
X114622528Y-56953038D01*
X114622528Y-56953038D02*
X114670147Y-57000657D01*
X114670147Y-57000657D02*
X114717766Y-57095895D01*
X114717766Y-57095895D02*
X114717766Y-57191133D01*
X114717766Y-57191133D02*
X114670147Y-57333990D01*
X114670147Y-57333990D02*
X114098719Y-57905419D01*
X114098719Y-57905419D02*
X114717766Y-57905419D01*
X117393919Y-76023457D02*
X116917728Y-76356790D01*
X117393919Y-76594885D02*
X116393919Y-76594885D01*
X116393919Y-76594885D02*
X116393919Y-76213933D01*
X116393919Y-76213933D02*
X116441538Y-76118695D01*
X116441538Y-76118695D02*
X116489157Y-76071076D01*
X116489157Y-76071076D02*
X116584395Y-76023457D01*
X116584395Y-76023457D02*
X116727252Y-76023457D01*
X116727252Y-76023457D02*
X116822490Y-76071076D01*
X116822490Y-76071076D02*
X116870109Y-76118695D01*
X116870109Y-76118695D02*
X116917728Y-76213933D01*
X116917728Y-76213933D02*
X116917728Y-76594885D01*
X117393919Y-75071076D02*
X117393919Y-75642504D01*
X117393919Y-75356790D02*
X116393919Y-75356790D01*
X116393919Y-75356790D02*
X116536776Y-75452028D01*
X116536776Y-75452028D02*
X116632014Y-75547266D01*
X116632014Y-75547266D02*
X116679633Y-75642504D01*
X116393919Y-74213933D02*
X116393919Y-74404409D01*
X116393919Y-74404409D02*
X116441538Y-74499647D01*
X116441538Y-74499647D02*
X116489157Y-74547266D01*
X116489157Y-74547266D02*
X116632014Y-74642504D01*
X116632014Y-74642504D02*
X116822490Y-74690123D01*
X116822490Y-74690123D02*
X117203442Y-74690123D01*
X117203442Y-74690123D02*
X117298680Y-74642504D01*
X117298680Y-74642504D02*
X117346300Y-74594885D01*
X117346300Y-74594885D02*
X117393919Y-74499647D01*
X117393919Y-74499647D02*
X117393919Y-74309171D01*
X117393919Y-74309171D02*
X117346300Y-74213933D01*
X117346300Y-74213933D02*
X117298680Y-74166314D01*
X117298680Y-74166314D02*
X117203442Y-74118695D01*
X117203442Y-74118695D02*
X116965347Y-74118695D01*
X116965347Y-74118695D02*
X116870109Y-74166314D01*
X116870109Y-74166314D02*
X116822490Y-74213933D01*
X116822490Y-74213933D02*
X116774871Y-74309171D01*
X116774871Y-74309171D02*
X116774871Y-74499647D01*
X116774871Y-74499647D02*
X116822490Y-74594885D01*
X116822490Y-74594885D02*
X116870109Y-74642504D01*
X116870109Y-74642504D02*
X116965347Y-74690123D01*
D13*
%TO.C,TP4*%
X120683100Y-87126600D02*
X122083100Y-87126600D01*
X120683100Y-88526600D02*
X120683100Y-87126600D01*
X122083100Y-87126600D02*
X122083100Y-88526600D01*
X122083100Y-88526600D02*
X120683100Y-88526600D01*
%TO.C,TP1*%
X139783900Y-63504600D02*
X141183900Y-63504600D01*
X139783900Y-64904600D02*
X139783900Y-63504600D01*
X141183900Y-63504600D02*
X141183900Y-64904600D01*
X141183900Y-64904600D02*
X139783900Y-64904600D01*
%TO.C,J6*%
X144031100Y-74583600D02*
X144031100Y-61823600D01*
X146691100Y-61823600D02*
X144031100Y-61823600D01*
X146691100Y-74583600D02*
X144031100Y-74583600D01*
X146691100Y-74583600D02*
X146691100Y-61823600D01*
X146691100Y-75853600D02*
X146691100Y-77183600D01*
X146691100Y-77183600D02*
X145361100Y-77183600D01*
%TO.C,R5*%
X136269100Y-79417664D02*
X136269100Y-78963536D01*
X137739100Y-79417664D02*
X137739100Y-78963536D01*
%TO.C,TP3*%
X122080100Y-78998600D02*
X123480100Y-78998600D01*
X122080100Y-80398600D02*
X122080100Y-78998600D01*
X123480100Y-78998600D02*
X123480100Y-80398600D01*
X123480100Y-80398600D02*
X122080100Y-80398600D01*
%TO.C,R1*%
X141272836Y-58643600D02*
X141726964Y-58643600D01*
X141272836Y-60113600D02*
X141726964Y-60113600D01*
%TO.C,R11*%
X125460681Y-70044600D02*
X125179519Y-70044600D01*
X125460681Y-71064600D02*
X125179519Y-71064600D01*
%TO.C,R2*%
X139794664Y-60675600D02*
X139340536Y-60675600D01*
X139794664Y-62145600D02*
X139340536Y-62145600D01*
%TO.C,R6*%
X115101351Y-64104600D02*
X114578847Y-64104600D01*
X115101351Y-65574600D02*
X114578847Y-65574600D01*
%TO.C,TP5*%
X136304100Y-74299600D02*
X137704100Y-74299600D01*
X136304100Y-75699600D02*
X136304100Y-74299600D01*
X137704100Y-74299600D02*
X137704100Y-75699600D01*
X137704100Y-75699600D02*
X136304100Y-75699600D01*
%TO.C,J3*%
X137910300Y-117286229D02*
X139240300Y-117286229D01*
X137910300Y-118616229D02*
X137910300Y-117286229D01*
X137910300Y-119886229D02*
X137910300Y-132646229D01*
X137910300Y-119886229D02*
X140570300Y-119886229D01*
X137910300Y-132646229D02*
X140570300Y-132646229D01*
X140570300Y-119886229D02*
X140570300Y-132646229D01*
%TO.C,J1*%
X122847100Y-55822600D02*
X122847100Y-53222600D01*
X125507100Y-53222600D02*
X122847100Y-53222600D01*
X125507100Y-55822600D02*
X122847100Y-55822600D01*
X125507100Y-55822600D02*
X125507100Y-53222600D01*
X125507100Y-57092600D02*
X125507100Y-58422600D01*
X125507100Y-58422600D02*
X124177100Y-58422600D01*
%TO.C,C1*%
X135227700Y-58152148D02*
X135227700Y-58674652D01*
X136697700Y-58152148D02*
X136697700Y-58674652D01*
%TO.C,U2*%
X132008700Y-59225000D02*
X132008700Y-57815000D01*
X134328700Y-59215000D02*
X134328700Y-57815000D01*
X132058700Y-59595000D02*
X131728700Y-59835000D01*
X131728700Y-59355000D01*
X132058700Y-59595000D01*
G36*
X132058700Y-59595000D02*
G01*
X131728700Y-59835000D01*
X131728700Y-59355000D01*
X132058700Y-59595000D01*
G37*
%TO.C,C2*%
X129538100Y-58761052D02*
X129538100Y-58238548D01*
X131008100Y-58761052D02*
X131008100Y-58238548D01*
%TO.C,TP2*%
X112851100Y-58198600D02*
X114251100Y-58198600D01*
X112851100Y-59598600D02*
X112851100Y-58198600D01*
X114251100Y-58198600D02*
X114251100Y-59598600D01*
X114251100Y-59598600D02*
X112851100Y-59598600D01*
%TO.C,R16*%
X117854100Y-75607664D02*
X117854100Y-75153536D01*
X119324100Y-75607664D02*
X119324100Y-75153536D01*
%TD*%
M02*
