%TF.GenerationSoftware,KiCad,Pcbnew,8.0.8+dfsg-1*%
%TF.CreationDate,2025-08-13T01:43:47+05:30*%
%TF.ProjectId,sanket,73616e6b-6574-42e6-9b69-6361645f7063,6*%
%TF.SameCoordinates,Original*%
%TF.FileFunction,Soldermask,Bot*%
%TF.FilePolarity,Negative*%
%FSLAX46Y46*%
G04 Gerber Fmt 4.6, Leading zero omitted, Abs format (unit mm)*
G04 Created by KiCad (PCBNEW 8.0.8+dfsg-1) date 2025-08-13 01:43:47*
%MOMM*%
%LPD*%
G01*
G04 APERTURE LIST*
G04 Aperture macros list*
%AMRoundRect*
0 Rectangle with rounded corners*
0 $1 Rounding radius*
0 $2 $3 $4 $5 $6 $7 $8 $9 X,Y pos of 4 corners*
0 Add a 4 corners polygon primitive as box body*
4,1,4,$2,$3,$4,$5,$6,$7,$8,$9,$2,$3,0*
0 Add four circle primitives for the rounded corners*
1,1,$1+$1,$2,$3*
1,1,$1+$1,$4,$5*
1,1,$1+$1,$6,$7*
1,1,$1+$1,$8,$9*
0 Add four rect primitives between the rounded corners*
20,1,$1+$1,$2,$3,$4,$5,0*
20,1,$1+$1,$4,$5,$6,$7,0*
20,1,$1+$1,$6,$7,$8,$9,0*
20,1,$1+$1,$8,$9,$2,$3,0*%
%AMOutline4P*
0 Free polygon, 4 corners , with rotation*
0 The origin of the aperture is its center*
0 number of corners: always 4*
0 $1 to $8 corner X, Y*
0 $9 Rotation angle, in degrees counterclockwise*
0 create outline with 4 corners*
4,1,4,$1,$2,$3,$4,$5,$6,$7,$8,$1,$2,$9*%
G04 Aperture macros list end*
%ADD10R,1.000000X1.000000*%
%ADD11R,1.700000X1.700000*%
%ADD12O,1.700000X1.700000*%
%ADD13C,3.200000*%
%ADD14RoundRect,0.250000X0.475000X-0.250000X0.475000X0.250000X-0.475000X0.250000X-0.475000X-0.250000X0*%
%ADD15RoundRect,0.093750X0.093750X0.106250X-0.093750X0.106250X-0.093750X-0.106250X0.093750X-0.106250X0*%
%ADD16R,1.000000X1.600000*%
%ADD17R,1.761200X0.850800*%
%ADD18R,1.761200X3.150799*%
%ADD19RoundRect,0.250000X-0.475000X0.250000X-0.475000X-0.250000X0.475000X-0.250000X0.475000X0.250000X0*%
%ADD20R,1.300000X4.800000*%
%ADD21RoundRect,0.250000X-0.650000X0.325000X-0.650000X-0.325000X0.650000X-0.325000X0.650000X0.325000X0*%
%ADD22Outline4P,-1.800000X-1.150000X1.800000X-0.550000X1.800000X0.550000X-1.800000X1.150000X90.000000*%
%ADD23Outline4P,-1.800000X-1.150000X1.800000X-0.550000X1.800000X0.550000X-1.800000X1.150000X270.000000*%
%ADD24RoundRect,0.250000X-0.250000X-0.475000X0.250000X-0.475000X0.250000X0.475000X-0.250000X0.475000X0*%
%ADD25RoundRect,0.250000X0.250000X0.475000X-0.250000X0.475000X-0.250000X-0.475000X0.250000X-0.475000X0*%
%ADD26RoundRect,0.075000X-0.075000X0.650000X-0.075000X-0.650000X0.075000X-0.650000X0.075000X0.650000X0*%
%ADD27R,1.880000X1.570000*%
%ADD28RoundRect,0.250000X-0.262500X-0.450000X0.262500X-0.450000X0.262500X0.450000X-0.262500X0.450000X0*%
%ADD29RoundRect,0.250000X-0.450000X0.262500X-0.450000X-0.262500X0.450000X-0.262500X0.450000X0.262500X0*%
G04 APERTURE END LIST*
D10*
%TO.C,TP4*%
X121383100Y-87826600D03*
%TD*%
%TO.C,TP1*%
X140483900Y-64204600D03*
%TD*%
D11*
%TO.C,J6*%
X145361100Y-75853600D03*
D12*
X145361100Y-73313600D03*
X145361100Y-70773600D03*
X145361100Y-68233600D03*
X145361100Y-65693600D03*
X145361100Y-63153600D03*
%TD*%
D10*
%TO.C,TP3*%
X122780100Y-79698600D03*
%TD*%
D13*
%TO.C,H3*%
X182306100Y-140098600D03*
%TD*%
%TO.C,H1*%
X102296100Y-54368600D03*
%TD*%
%TO.C,H4*%
X102296100Y-140098600D03*
%TD*%
%TO.C,H2*%
X182306100Y-54368600D03*
%TD*%
D10*
%TO.C,TP5*%
X137004100Y-74999600D03*
%TD*%
D11*
%TO.C,J3*%
X139240300Y-118616229D03*
D12*
X139240300Y-121156229D03*
X139240300Y-123696229D03*
X139240300Y-126236229D03*
X139240300Y-128776229D03*
X139240300Y-131316229D03*
%TD*%
D11*
%TO.C,J1*%
X124177100Y-57092600D03*
D12*
X124177100Y-54552600D03*
%TD*%
D10*
%TO.C,TP2*%
X113551100Y-58898600D03*
%TD*%
D14*
%TO.C,C6*%
X110461100Y-79632599D03*
X110461100Y-77732601D03*
%TD*%
D15*
%TO.C,U4*%
X122778600Y-73346600D03*
X122778600Y-73996600D03*
X122778600Y-74646600D03*
X121003600Y-74646600D03*
X121003600Y-73996600D03*
X121003600Y-73346600D03*
D16*
X121891100Y-73996600D03*
%TD*%
D11*
%TO.C,J2*%
X131389100Y-70554600D03*
D12*
X131389100Y-68014600D03*
%TD*%
D17*
%TO.C,U1*%
X127710100Y-62984101D03*
X127710100Y-65284101D03*
X127710100Y-67584101D03*
D18*
X121660100Y-65284101D03*
%TD*%
D19*
%TO.C,R7*%
X113908146Y-62898600D03*
X113908146Y-64798600D03*
%TD*%
D20*
%TO.C,L1*%
X104527629Y-84065429D03*
X107877629Y-84065429D03*
%TD*%
D21*
%TO.C,C10*%
X110715100Y-81271599D03*
X110715100Y-84221601D03*
%TD*%
D19*
%TO.C,R15*%
X113001100Y-74430601D03*
X113001100Y-76330599D03*
%TD*%
D22*
%TO.C,D1*%
X104111100Y-73962600D03*
D23*
X104111100Y-68162600D03*
%TD*%
D11*
%TO.C,J5*%
X110941100Y-54368600D03*
D12*
X113481100Y-54368600D03*
X116021100Y-54368600D03*
X118561100Y-54368600D03*
%TD*%
D14*
%TO.C,R14*%
X115033100Y-76330600D03*
X115033100Y-74430600D03*
%TD*%
D24*
%TO.C,R4*%
X125106700Y-70249800D03*
X127006700Y-70249800D03*
%TD*%
D19*
%TO.C,C12*%
X118131900Y-71926200D03*
X118131900Y-73826200D03*
%TD*%
D25*
%TO.C,C7*%
X128876100Y-73857600D03*
X126976100Y-73857600D03*
%TD*%
D26*
%TO.C,U3*%
X111408146Y-67298600D03*
X111908146Y-67298600D03*
X112408146Y-67298600D03*
X112908146Y-67298600D03*
X113408146Y-67298600D03*
X113408146Y-71598600D03*
X112908146Y-71598600D03*
X112408146Y-71598600D03*
X111908146Y-71598600D03*
X111408146Y-71598600D03*
D27*
X112408146Y-69448600D03*
%TD*%
D28*
%TO.C,R9*%
X116348995Y-69282929D03*
X118173995Y-69282929D03*
%TD*%
D11*
%TO.C,J4*%
X137131100Y-84016600D03*
%TD*%
D25*
%TO.C,C4*%
X118211495Y-66878378D03*
X116311495Y-66878378D03*
%TD*%
D21*
%TO.C,C9*%
X113509100Y-81271599D03*
X113509100Y-84221601D03*
%TD*%
D24*
%TO.C,C3*%
X107494300Y-63899800D03*
X109394300Y-63899800D03*
%TD*%
D14*
%TO.C,R3*%
X127987100Y-60938199D03*
X127987100Y-59038201D03*
%TD*%
D19*
%TO.C,C11*%
X116212318Y-82271446D03*
X116212318Y-84171444D03*
%TD*%
D14*
%TO.C,R8*%
X116408146Y-64798600D03*
X116408146Y-62898600D03*
%TD*%
D11*
%TO.C,J7*%
X119351100Y-80587600D03*
%TD*%
D28*
%TO.C,R13*%
X119327600Y-84016600D03*
X121152600Y-84016600D03*
%TD*%
D25*
%TO.C,C8*%
X109252100Y-67252600D03*
X107352100Y-67252600D03*
%TD*%
D14*
%TO.C,C5*%
X107667100Y-77854599D03*
X107667100Y-75954601D03*
%TD*%
D28*
%TO.C,R12*%
X127074600Y-77666600D03*
X128899600Y-77666600D03*
%TD*%
D29*
%TO.C,R10*%
X110514174Y-74114248D03*
X110514174Y-75939248D03*
%TD*%
M02*
