M48
; DRILL file {KiCad 8.0.8+dfsg-1} date 2025-08-13T01:43:42+0530
; FORMAT={-:-/ absolute / metric / decimal}
; #@! TF.CreationDate,2025-08-13T01:43:42+05:30
; #@! TF.GenerationSoftware,Kicad,Pcbnew,8.0.8+dfsg-1
; #@! TF.FileFunction,Plated,1,2,PTH
FMAT,2
METRIC
; #@! TA.AperFunction,Plated,PTH,ViaDrill
T1C0.300
; #@! TA.AperFunction,Plated,PTH,ViaDrill
T2C0.500
; #@! TA.AperFunction,Plated,PTH,ComponentDrill
T3C0.500
; #@! TA.AperFunction,Plated,PTH,ComponentDrill
T4C1.000
%
G90
G05
T1
X107.413Y-69.183
X112.493Y-64.84
X115.033Y-77.413
X119.961Y-74.669
X133.829Y-56.28
X141.559Y-124.766
T2
X107.186Y-71.571
X120.875Y-71.926
X120.875Y-75.787
X122.907Y-71.926
X125.828Y-71.977
X128.901Y-72.282
T3
X113.551Y-58.899
X121.383Y-87.827
X122.78Y-79.699
X137.004Y-75.0
X140.484Y-64.205
T4
X110.941Y-54.369
X113.481Y-54.369
X116.021Y-54.369
X118.561Y-54.369
X119.351Y-80.588
X124.177Y-54.553
X124.177Y-57.093
X131.389Y-68.015
X131.389Y-70.555
X137.131Y-84.017
X139.24Y-118.616
X139.24Y-121.156
X139.24Y-123.696
X139.24Y-126.236
X139.24Y-128.776
X139.24Y-131.316
X145.361Y-63.154
X145.361Y-65.694
X145.361Y-68.234
X145.361Y-70.774
X145.361Y-73.314
X145.361Y-75.854
M30
